<?xml version="1.0" standalone="no"?>
<!DOCTYPE svg PUBLIC "-//W3C//DTD SVG 1.1//EN" "http://www.w3.org/Graphics/SVG/1.1/DTD/svg11.dtd" >
<svg xmlns="http://www.w3.org/2000/svg" xmlns:xlink="http://www.w3.org/1999/xlink" version="1.1">
<metadata>
Created by FontForge 20170910 at Mon Jan  8 18:05:52 2018
 By Jimmy Wärting
Copyright (c) 2017 Marc Rouault / W+K. All rights reserved.
</metadata>
<defs>
<font id="Formula1-Display-Bold" horiz-adv-x="854" >
  <font-face 
    font-family="Formula1 Display Bold"
    font-weight="500"
    font-stretch="normal"
    units-per-em="1000"
    panose-1="2 0 0 0 0 0 0 0 0 0"
    ascent="850"
    descent="-150"
    x-height="600"
    cap-height="750"
    bbox="-180 -190.004 1493 1016.01"
    underline-thickness="0"
    underline-position="0"
    unicode-range="U+0020-F6C3"
  />
<missing-glyph horiz-adv-x="0" 
 />
    <glyph glyph-name=".notdef" horiz-adv-x="0" 
 />
    <glyph glyph-name="space" unicode=" " horiz-adv-x="240" 
 />
    <glyph glyph-name="exclam" unicode="!" horiz-adv-x="336" 
d="M60 750h216l-8 -463h-200zM63 0v210h210v-210h-210z" />
    <glyph glyph-name="quotedbl" unicode="&#x22;" horiz-adv-x="540" 
d="M200 470h-130v280h170zM430 470h-130v280h170z" />
    <glyph glyph-name="numbersign" unicode="#" horiz-adv-x="833" 
d="M720 323v-133h-148l-49 -190h-145l49 190h-120l-49 -190h-145l49 190h-112v133h147l34 133h-118v134h153l47 180h145l-47 -180h120l47 180h145l-47 -180h107v-134h-142l-34 -133h113zM342 323h120l34 133h-120z" />
    <glyph glyph-name="dollar" unicode="$" horiz-adv-x="752" 
d="M332 -100l-0.000976562 99.9971h-262v165h262v144l-78 23c-69.333 20.667 -120.666 49 -153.999 85s-50 79 -50 129c0 62.667 22 112.334 66 149.001s106 55 186 55h30v100h110v-100h245v-165h-245v-128l37 -11c77.333 -22.667 135.5 -50.5 174.5 -83.5
s58.5 -79.167 58.5 -138.5c0 -29.333 -5.5 -57.333 -16.5 -84s-27.5 -50.167 -49.5 -70.5s-50 -36.666 -84 -48.999s-74 -19.166 -120 -20.499v-100h-110zM295.999 498.997l36 -10v96h-31c-21.333 0 -36.333 -3.83301 -45 -11.5s-13 -16.167 -13 -25.5
c0 -12 4.16699 -21.833 12.5 -29.5s21.833 -14.167 40.5 -19.5zM521.999 214.997c0 16 -5.66699 28.167 -17 36.5s-32.333 16.833 -63 25.5v-112h12c25.333 0 43 5 53 15s15 21.667 15 35z" />
    <glyph glyph-name="percent" unicode="%" horiz-adv-x="846" 
d="M40 551v57c0 46 15.5 82.833 46.5 110.5s68.833 41.5 113.5 41.5h70c42 0 78.5 -13.833 109.5 -41.5s46.5 -64.5 46.5 -110.5v-57c0 -46 -15.5 -83.167 -46.5 -111.5s-67.5 -42.5 -109.5 -42.5h-70c-44.667 0 -82.5 14.167 -113.5 42.5s-46.5 65.5 -46.5 111.5zM632 419
h-159l155 331h160zM171 589v-25c0 -16.667 3.66699 -30 11 -40s19.333 -15 36 -15h29c18 0 30.5 5 37.5 15s10.5 23.333 10.5 40v25c0 18 -3.5 32.333 -10.5 43s-19.5 16 -37.5 16h-29c-16.667 0 -28.667 -5.33301 -36 -16s-11 -25 -11 -43zM420 144v57
c0 46 15.5 82.833 46.5 110.5s68.833 41.5 113.5 41.5h70c42 0 78.5 -13.833 109.5 -41.5s46.5 -64.5 46.5 -110.5v-57c0 -46 -15.5 -83.167 -46.5 -111.5s-67.5 -42.5 -109.5 -42.5h-70c-44.667 0 -82.5 14.167 -113.5 42.5s-46.5 65.5 -46.5 111.5zM214 331h159l-155 -331
h-160zM551 182v-25c0 -16.667 3.66699 -30 11 -40s19.333 -15 36 -15h29c18 0 30.5 5 37.5 15s10.5 23.333 10.5 40v25c0 18 -3.5 32.333 -10.5 43s-19.5 16 -37.5 16h-29c-16.667 0 -28.667 -5.33301 -36 -16s-11 -25 -11 -43z" />
    <glyph glyph-name="ampersand" unicode="&#x26;" horiz-adv-x="814" 
d="M588 0l-65.001 74.002c-26.667 -30.667 -55 -50.667 -85 -60s-69 -14 -117 -14h-63c-74.667 0 -130.5 15.167 -167.5 45.5s-55.5 79.833 -55.5 148.5v63c0 51.333 15 92.166 45 122.499s74.667 47.833 134 52.5c-24.667 32 -40.5 60 -47.5 84s-10.5 46 -10.5 66
c0 22.667 4.66699 44.167 14 64.5s22.833 38.166 40.5 53.499s39.834 27.5 66.501 36.5s57 13.5 91 13.5h301v-159h-265c-18.667 0 -32.167 -3.66699 -40.5 -11s-12.5 -17.333 -12.5 -30c0 -8 2 -15.833 6 -23.5s9.33301 -15.167 16 -22.5l146 -169l83 116h206l-181 -241
l182 -210h-221zM312.999 151.002c26.667 0 47.333 3 62 9s29 17.667 43 35l-100 115h-37c-24.667 0 -42.667 -5 -54 -15s-17 -28.333 -17 -55v-19c0 -24.667 5.33301 -42.5 16 -53.5s28 -16.5 52 -16.5h35z" />
    <glyph glyph-name="quotesingle" unicode="'" horiz-adv-x="310" 
d="M200 470h-130v280h170z" />
    <glyph glyph-name="parenleft" unicode="(" horiz-adv-x="447" 
d="M90 36v509c0 33.333 6 62.833 18 88.5s28.333 47 49 64s45.334 30 74.001 39s59.334 13.5 92.001 13.5h64v-135h-49c-20.667 0 -35.5 -5.16699 -44.5 -15.5s-13.5 -28.833 -13.5 -55.5v-508c0 -26.667 4.5 -45.167 13.5 -55.5s23.833 -15.5 44.5 -15.5h49v-135h-64
c-32.667 0 -63.334 4.5 -92.001 13.5s-53.334 22.167 -74.001 39.5s-37 38.833 -49 64.5s-18 55.167 -18 88.5z" />
    <glyph glyph-name="parenright" unicode=")" horiz-adv-x="447" 
d="M357 36c0 -33.333 -6 -62.833 -18 -88.5s-28.333 -47.167 -49 -64.5s-45.334 -30.5 -74.001 -39.5s-59.334 -13.5 -92.001 -13.5h-64v135h49c20.667 0 35.5 5.16699 44.5 15.5s13.5 28.833 13.5 55.5v508c0 26.667 -4.5 45.167 -13.5 55.5s-23.833 15.5 -44.5 15.5h-49
v135h64c32.667 0 63.334 -4.5 92.001 -13.5s53.334 -22 74.001 -39s37 -38.333 49 -64s18 -55.167 18 -88.5v-509z" />
    <glyph glyph-name="asterisk" unicode="*" horiz-adv-x="523" 
d="M338 378l-76 107l-76 -107l-82 62l70 83h-114v96h113l-69 83l82 62l76 -107l76 107l81 -62l-69 -83h113v-96h-113l69 -83z" />
    <glyph glyph-name="plus" unicode="+" horiz-adv-x="586" 
d="M50 295v160h163v163h160v-163h163v-160h-163v-173h-160v173h-163z" />
    <glyph glyph-name="comma" unicode="," horiz-adv-x="284" 
d="M7 -130c10.667 20.667 18.832 38 24.499 52s9.83398 27.333 12.501 40s4.16699 26.5 4.5 41.5s0.5 33.833 0.5 56.5v140h193v-139c0 -38 -4 -70.333 -12 -97s-25.333 -58 -52 -94h-171z" />
    <glyph glyph-name="hyphen" unicode="-" horiz-adv-x="366" 
d="M60 212v173h246v-173h-246z" />
    <glyph glyph-name="period" unicode="." horiz-adv-x="330" 
d="M60 0v210h210v-210h-210z" />
    <glyph glyph-name="slash" unicode="/" horiz-adv-x="390" 
d="M210 750h170l-200 -860h-170z" />
    <glyph glyph-name="zero" unicode="0" horiz-adv-x="844" 
d="M794 325c0 -50 -6.83301 -95.6689 -20.5 -137.002s-34.334 -76.666 -62.001 -105.999s-62.5 -52 -104.5 -68s-91 -24 -147 -24h-76c-56 0 -105 8.16699 -147 24.5s-76.833 39.166 -104.5 68.499s-48.334 64.833 -62.001 106.5s-20.5 87.5 -20.5 137.5v104
c0 49.333 6.83301 94.333 20.5 135s34.334 75.334 62.001 104.001s62.5 50.834 104.5 66.501s91 23.5 147 23.5h76c56 0 105 -8 147 -24s76.833 -38.333 104.5 -67s48.334 -63.5 62.001 -104.5s20.5 -86.167 20.5 -135.5v-104zM260 294.998c0 -52 10.5 -88.833 31.5 -110.5
s56.5 -32.5 106.5 -32.5h48c50 0 85.5 10.833 106.5 32.5s31.5 58.5 31.5 110.5v162c0 52 -10.5 88.667 -31.5 110s-56.5 32 -106.5 32h-48c-50 0 -85.5 -10.667 -106.5 -32s-31.5 -58 -31.5 -110v-162z" />
    <glyph glyph-name="one" unicode="1" horiz-adv-x="632" 
d="M40 0v152.999h189v402c0 10.667 -2.5 18.834 -7.5 24.501s-12.5 8.5 -22.5 8.5h-149v162h192c56.667 0 102 -17.167 136 -51.5s51 -77.833 51 -130.5v-415h163v-153h-552z" />
    <glyph glyph-name="two" unicode="2" horiz-adv-x="692" 
d="M649 157v-157.001h-619v122c0 32 3.33301 60.667 10 86s18.334 48.833 35.001 70.5s38.834 42.667 66.501 63s62.5 41.5 104.5 63.5l159 83c17.333 8.66699 29.666 17.167 36.999 25.5s11 18.833 11 31.5c0 18.667 -6.33301 31.334 -19 38.001s-29.667 10 -51 10h-337
v157h354c89.333 0 154.666 -16.167 195.999 -48.5s62 -76.5 62 -132.5c0 -31.333 -4.66699 -58.333 -14 -81s-23.166 -43 -41.499 -61s-40.833 -35.167 -67.5 -51.5s-57.334 -33.833 -92.001 -52.5l-145 -79c-22.667 -12 -37.167 -23 -43.5 -33s-9.5 -21.333 -9.5 -34v-20
h404z" />
    <glyph glyph-name="three" unicode="3" horiz-adv-x="715" 
d="M213 453l183.001 137.001h-351v160h629v-130l-258 -187h9c47.333 0 87 -4.5 119 -13.5s57.667 -21 77 -36s33.166 -32.5 41.499 -52.5s12.5 -41 12.5 -63v-73c0 -66 -24.333 -115 -73 -147s-120.334 -48 -215.001 -48h-327v160h353c21.333 0 36.833 3.83301 46.5 11.5
s14.5 22.834 14.5 45.501v27c0 22.667 -5.16699 37.5 -15.5 44.5s-24.833 10.5 -43.5 10.5h-185c-25.333 0 -44.666 6.66699 -57.999 20s-20 30.333 -20 51c0 17.333 5.5 32.166 16.5 44.499s25.833 25.166 44.5 38.499z" />
    <glyph glyph-name="four" unicode="4" horiz-adv-x="817" 
d="M200 115c-62 0 -107.5 12.5 -136.5 37.5s-43.5 56.5 -43.5 94.5c0 26 6.16699 51.5 18.5 76.5s32.833 55.5 61.5 91.5l181 227c28.667 36 60.167 64.667 94.5 86s71.5 32 111.5 32h26c46 0 84.833 -14.333 116.5 -43s47.5 -74 47.5 -136v-313h115v-153h-115v-115h-195
v115h-282zM258 268l223.999 -0.000976562v297c0 6.66699 -1.66699 11.5 -5 14.5s-7.66602 4.5 -12.999 4.5c-4 0 -7.5 -1.16699 -10.5 -3.5s-5.83301 -5.5 -8.5 -9.5l-205 -263c-2.66699 -4 -4.83398 -7.66699 -6.50098 -11s-2.5 -6.66602 -2.5 -9.99902
c0 -5.33301 1.83301 -9.83301 5.5 -13.5s10.834 -5.5 21.501 -5.5z" />
    <glyph glyph-name="five" unicode="5" horiz-adv-x="709" 
d="M414 474c95.333 0 162.5 -18 201.5 -54s58.5 -93 58.5 -171v-27c0 -70 -19.5 -124.5 -58.5 -163.5s-108.5 -58.5 -208.5 -58.5h-352v157h331c34 0 57 4.16699 69 12.5s18 25.833 18 52.5v27c0 28 -5.83301 46.833 -17.5 56.5s-33.167 14.5 -64.5 14.5h-336v430h612v-167
h-432v-109h179z" />
    <glyph glyph-name="six" unicode="6" horiz-adv-x="764" 
d="M429 466c100.667 0 175.001 -17.6689 223.001 -53.002s72 -86.666 72 -153.999v-34c0 -74.667 -23.667 -131.667 -71 -171s-123.333 -59 -228 -59h-39c-116.667 0 -201.834 24.833 -255.501 74.5s-80.5 127.834 -80.5 234.501v131c0 48 6.83301 91.5 20.5 130.5
s35 72 64 99s66.167 48 111.5 63s99.333 22.5 162 22.5h283v-152h-290c-58 0 -96.833 -9.33301 -116.5 -28s-29.5 -50 -29.5 -94v-10h174zM380.001 137.998l25 0.00195312c46.667 0 78 6.83301 94 20.5s24 33.167 24 58.5v22c0 29.333 -7.83301 49.666 -23.5 60.999
s-44.167 17 -85.5 17h-159v-62c0 -46.667 8.83301 -77.834 26.5 -93.501s50.5 -23.5 98.5 -23.5z" />
    <glyph glyph-name="seven" unicode="7" horiz-adv-x="686" 
d="M330 0l-218.001 0.00195312l321 535c5.33301 8.66699 8.83301 16.167 10.5 22.5s2.5 12.166 2.5 17.499c0 7.33301 -2.66699 12.833 -8 16.5s-13.333 5.5 -24 5.5h-378v153h441c62 0 107.333 -12.333 136 -37s43 -58.334 43 -101.001
c0 -24.667 -5.16699 -49.667 -15.5 -75s-23.166 -51.333 -38.499 -78z" />
    <glyph glyph-name="eight" unicode="8" horiz-adv-x="751" 
d="M51 574c0 64.667 25.5 111.834 76.5 141.501s129.833 44.5 236.5 44.5h23c106.667 0 185.5 -14.833 236.5 -44.5s76.5 -76.834 76.5 -141.501v-40c0 -32 -8.5 -62.333 -25.5 -91s-51.5 -50 -103.5 -64c58 -14 97.5 -35.5 118.5 -64.5s31.5 -59.833 31.5 -92.5v-42
c0 -64.667 -26 -112.5 -78 -143.5s-134 -46.5 -246 -46.5h-43c-112 0 -194 15.5 -246 46.5s-78 78.833 -78 143.5v42c0 32.667 10.5 63.5 31.5 92.5s60.5 50.5 118.5 64.5c-52 14 -86.5 35.333 -103.5 64s-25.5 59 -25.5 91v40zM509 550c0 22.667 -7.83301 38.667 -23.5 48
s-45.5 14 -89.5 14h-41c-44 0 -73.833 -4.66699 -89.5 -14s-23.5 -25.333 -23.5 -48v-35c0 -22.667 8 -38.667 24 -48s47.333 -14 94 -14h31c46.667 0 78 4.66699 94 14s24 25.333 24 48v35zM530 242c0 22.667 -7.83301 39 -23.5 49s-45.5 15 -89.5 15h-83
c-44 0 -73.833 -5 -89.5 -15s-23.5 -26.333 -23.5 -49v-35c0 -22.667 8 -39.834 24 -51.501s47.333 -17.5 94 -17.5h73c46.667 0 78 5.83301 94 17.5s24 28.834 24 51.501v35z" />
    <glyph glyph-name="nine" unicode="9" horiz-adv-x="764" 
d="M335 284c-100.667 0 -175.001 17.6689 -223.001 53.002s-72 86.666 -72 153.999v34c0 74.667 23.667 131.667 71 171s123.333 59 228 59h39c116.667 0 201.834 -24.833 255.501 -74.5s80.5 -127.834 80.5 -234.501v-131c0 -48 -6.83301 -91.5 -20.5 -130.5
s-35 -72 -64 -99s-66.167 -48 -111.5 -63s-99.333 -22.5 -162 -22.5h-283v152h290c58 0 96.833 9.33301 116.5 28s29.5 50 29.5 94v10h-174zM349.999 433.002l159 -0.00195312v62c0 46.667 -8.83301 77.834 -26.5 93.501s-50.5 23.5 -98.5 23.5h-25
c-46.667 0 -78 -6.83301 -94 -20.5s-24 -33.167 -24 -58.5v-22c0 -29.333 7.83301 -49.666 23.5 -60.999s44.167 -17 85.5 -17z" />
    <glyph glyph-name="colon" unicode=":" horiz-adv-x="330" 
d="M60 0v210h210v-210h-210z" />
    <glyph glyph-name="semicolon" unicode=";" horiz-adv-x="297" 
d="M7 -130c10.667 20.667 18.832 38 24.499 52s9.83398 27.333 12.501 40s4.16699 26.5 4.5 41.5s0.5 33.833 0.5 56.5v140h193v-139c0 -38 -4 -70.333 -12 -97s-25.333 -58 -52 -94h-171z" />
    <glyph glyph-name="less" unicode="&#x3c;" horiz-adv-x="471" 
d="M391 288v-173l-273 165c-14.667 8.66699 -28.834 20.5 -42.501 35.5s-20.5 33.5 -20.5 55.5v9c0 22 6.83301 40.5 20.5 55.5s27.834 26.833 42.501 35.5l273 165v-173l-166 -87z" />
    <glyph glyph-name="equal" unicode="=" horiz-adv-x="526" 
d="M50 425v160h426v-160h-426zM50 165v160h426v-160h-426z" />
    <glyph glyph-name="greater" unicode="&#x3e;" horiz-adv-x="471" 
d="M353 280l-273 -165v173l166 88l-166 87v173l273 -165c14.667 -8.66699 28.834 -20.5 42.501 -35.5s20.5 -33.5 20.5 -55.5v-9c0 -22 -6.83301 -40.5 -20.5 -55.5s-27.834 -26.833 -42.501 -35.5z" />
    <glyph glyph-name="question" unicode="?" horiz-adv-x="626" 
d="M576 522c0 -80.667 -24.833 -140.001 -74.5 -178.001s-123.167 -57 -220.5 -57h-136v156h155c32.667 0 55.5 5.66699 68.5 17s19.5 31 19.5 59s-7.16699 47.5 -21.5 58.5s-39.833 16.5 -76.5 16.5h-240v156h231c97.333 0 170.833 -18.667 220.5 -56
s74.5 -94.666 74.5 -171.999zM145 -0.000976562v210h210v-210h-210z" />
    <glyph glyph-name="at" unicode="@" horiz-adv-x="838" 
d="M55 548v167h405c108.667 0 189.167 -27 241.5 -81s78.5 -126.333 78.5 -217v-417h-477c-83.333 0 -146.666 15.5 -189.999 46.5s-65 84.167 -65 159.5v60c0 54.667 18.833 99.834 56.5 135.501s97.167 53.5 178.5 53.5h222v-310h105v280
c0 41.333 -9.33301 72.166 -28 92.499s-49.334 30.5 -92.001 30.5h-435zM280 145l70 0.000976562v170h-70c-27.333 0 -46.5 -5 -57.5 -15s-16.5 -26.333 -16.5 -49v-40c0 -22.667 5.5 -39.334 16.5 -50.001s30.167 -16 57.5 -16z" />
    <glyph glyph-name="A" unicode="A" horiz-adv-x="890" 
d="M677 0l-59 157h-351l-60 -157h-202l249 605c19.333 47.333 43.166 85.333 71.499 114s67.5 43 117.5 43c52 0 92.833 -14.167 122.5 -42.5s53.834 -65.833 72.501 -112.5l247 -607h-208zM426 569l-99 -257.002h232l-97 257c-2 4.66699 -4.16699 8.83398 -6.5 12.501
s-6.16602 5.5 -11.499 5.5c-4.66699 0 -8.33398 -1.66699 -11.001 -5s-5 -7.66602 -7 -12.999z" />
    <glyph glyph-name="B" unicode="B" horiz-adv-x="797" 
d="M430 750c52 0 98 -2.83301 138 -8.5s73.167 -15.5 99.5 -29.5s46.333 -33 60 -57s20.5 -54.667 20.5 -92v-33c0 -30.667 -8.66699 -59.167 -26 -85.5s-49 -46.833 -95 -61.5c50.667 -14.667 86.667 -35.5 108 -62.5s32 -56.5 32 -88.5v-35
c0 -70.667 -24.667 -121.167 -74 -151.5s-133 -45.5 -251 -45.5h-377v750h365zM444 608h-179v-154h174c42.667 0 70.667 5 84 15s20 26.333 20 49v23c0 22.667 -6.5 39.5 -19.5 50.5s-39.5 16.5 -79.5 16.5zM463 306l-198.001 -0.000976562v-164h193
c44 0 72.333 5.66699 85 17s19 28.333 19 51v24c0 22.667 -6.16699 40.334 -18.5 53.001s-39.166 19 -80.499 19z" />
    <glyph glyph-name="C" unicode="C" horiz-adv-x="721" 
d="M691 165v-165.004h-290c-59.333 0 -111.666 7.5 -156.999 22.5s-83 36.333 -113 64s-52.667 61.334 -68 101.001s-23 83.834 -23 132.501v110c0 48.667 7.66699 92.834 23 132.501s38 73.334 68 101.001s67.667 49 113 64s97.666 22.5 156.999 22.5h285v-165h-275
c-62 0 -104.333 -12.167 -127 -36.5s-34 -64.5 -34 -120.5v-106c0 -56 11.667 -96.167 35 -120.5s67 -36.5 131 -36.5h275z" />
    <glyph glyph-name="D" unicode="D" horiz-adv-x="850" 
d="M454 750c59.333 0 111.5 -7.49609 156.5 -22.4961s82.167 -36.333 111.5 -64s51.333 -61.334 66 -101.001s22 -83.834 22 -132.501v-110c0 -48.667 -7.33301 -92.834 -22 -132.501s-36.667 -73.334 -66 -101.001s-66.5 -49 -111.5 -64s-97.167 -22.5 -156.5 -22.5h-389
v750h389zM441 592.004h-176.001v-434h171c66 0 109.833 12.333 131.5 37s32.5 67 32.5 127v107c0 60 -10.667 102.167 -32 126.5s-63.666 36.5 -126.999 36.5z" />
    <glyph glyph-name="E" unicode="E" horiz-adv-x="748" 
d="M65 0v750h626v-165h-431v-130h431v-160h-431v-130h431v-165h-626z" />
    <glyph glyph-name="F" unicode="F" horiz-adv-x="716" 
d="M65 0v750h591v-165h-391v-138h391v-165h-391v-282h-200z" />
    <glyph glyph-name="G" unicode="G" horiz-adv-x="855" 
d="M791 750l0.00195312 -165.003h-380c-62 0 -104.333 -12.167 -127 -36.5s-34 -64.5 -34 -120.5v-113c0 -59.333 11.167 -101.333 33.5 -126s60.5 -37 114.5 -37h122c37.333 0 64.166 5.5 80.499 16.5s24.5 28.5 24.5 52.5v66h-202v158h382v-237
c0 -74.667 -25.167 -129.667 -75.5 -165s-122.5 -53 -216.5 -53h-109c-122 0 -213.167 29.333 -273.5 88s-90.5 140.334 -90.5 245.001v107c0 48.667 7.66699 92.834 23 132.501s38 73.334 68 101.001s67.667 49 113 64s97.666 22.5 156.999 22.5h390z" />
    <glyph glyph-name="H" unicode="H" horiz-adv-x="885" 
d="M65 0v750h200v-284h355v284h200v-750h-200v291h-355v-291h-200z" />
    <glyph glyph-name="I" unicode="I" horiz-adv-x="340" 
d="M70 0v750h200v-750h-200z" />
    <glyph glyph-name="J" unicode="J" horiz-adv-x="632" 
d="M40 0l0.000976562 165.001h207c45.333 0 76.666 8.16699 93.999 24.5s26 44.166 26 83.499v477h200v-461c0 -89.333 -25.167 -159.833 -75.5 -211.5s-131.833 -77.5 -244.5 -77.5h-207z" />
    <glyph glyph-name="K" unicode="K" horiz-adv-x="805" 
d="M60 0l0.000976562 750h200v-288h37c20.667 0 36.334 2.66699 47.001 8s23 17.333 37 36l181 244h225l-285 -366l293 -384h-231l-176 238c-16.667 22.667 -30.834 37.667 -42.501 45s-27.834 11 -48.501 11h-37v-294h-200z" />
    <glyph glyph-name="L" unicode="L" horiz-adv-x="676" 
d="M65 0v750h200v-585h381v-165h-581z" />
    <glyph glyph-name="M" unicode="M" horiz-adv-x="1160" 
d="M40 0l46.999 535.999c6.66699 80 28.5 137.667 65.5 173s83.833 53 140.5 53c60.667 0 108.834 -18.5 144.501 -55.5s58.5 -87.5 68.5 -151.5l59 -373c1.33301 -8 3.5 -14 6.5 -18s7.83301 -6 14.5 -6s11.667 2.33301 15 7s5.33301 11 6 19l57 372
c9.33301 63.333 31.833 113.5 67.5 150.5s83.5 55.5 143.5 55.5c63.333 0 110.5 -17.833 141.5 -53.5s49.833 -93.167 56.5 -172.5l47 -536h-193l-40 565c-0.666992 6.66699 -1.83398 12.334 -3.50098 17.001s-5.83398 7 -12.501 7
c-5.33301 0 -9.66602 -2.16699 -12.999 -6.5s-5.33301 -9.5 -6 -15.5l-67 -401c-8.66699 -53.333 -30.167 -96.333 -64.5 -129s-79.5 -49 -135.5 -49c-58 0 -104.333 16.833 -139 50.5s-56.334 76.5 -65.001 128.5l-70 399c-1.33301 7.33301 -3.66602 13 -6.99902 17
s-7.66602 6 -12.999 6c-6.66699 0 -11.167 -2.33301 -13.5 -7s-3.83301 -10.667 -4.5 -18l-40 -564h-193z" />
    <glyph glyph-name="N" unicode="N" horiz-adv-x="971" 
d="M65 0v550.001c0 34 5.66699 64.333 17 91s26.166 48.834 44.499 66.501s40 31.167 65 40.5s50.833 14 77.5 14c64 0 114.167 -17.167 150.5 -51.5s65.833 -79.5 88.5 -135.5l163 -398c2 -4.66699 4.16699 -9.16699 6.5 -13.5s6.16602 -6.5 11.499 -6.5
c6.66699 0 11.167 1.83301 13.5 5.5s3.5 8.83398 3.5 15.501v572h200v-551c0 -35.333 -5.66699 -66.333 -17 -93s-26.166 -48.834 -44.499 -66.501s-40 -30.834 -65 -39.501s-50.833 -13 -77.5 -13c-64 0 -113.833 16.667 -149.5 50s-65.5 79 -89.5 137l-163 398
c-2 4.66699 -4.16699 9.16699 -6.5 13.5s-6.16602 6.5 -11.499 6.5c-6.66699 0 -11.167 -1.83301 -13.5 -5.5s-3.5 -8.83398 -3.5 -15.501v-571h-200z" />
    <glyph glyph-name="O" unicode="O" horiz-adv-x="874" 
d="M834 323c0 -50 -7.5 -95.5 -22.5 -136.5s-37.5 -76 -67.5 -105s-68 -51.5 -114 -67.5s-99.333 -24 -160 -24h-66c-60.667 0 -114 8 -160 24s-84 38.5 -114 67.5s-52.5 64 -67.5 105s-22.5 86.5 -22.5 136.5v104c0 50 7.5 95.5 22.5 136.5s37.5 76 67.5 105
s68 51.5 114 67.5s99.333 24 160 24h66c60.667 0 114 -8 160 -24s84 -38.5 114 -67.5s52.5 -64 67.5 -105s22.5 -86.5 22.5 -136.5v-104zM250 315c0 -59.333 11.167 -101.333 33.5 -126s60.5 -37 114.5 -37h78c54 0 92.167 12.333 114.5 37s33.5 66.667 33.5 126v122
c0 59.333 -11.167 101.166 -33.5 125.499s-60.5 36.5 -114.5 36.5h-78c-54 0 -92.167 -12.167 -114.5 -36.5s-33.5 -66.166 -33.5 -125.499v-122z" />
    <glyph glyph-name="P" unicode="P" horiz-adv-x="778" 
d="M743 538v-74c0 -81.333 -24.667 -137.333 -74 -168s-125.666 -46 -228.999 -46h-175v-250h-200v750h375c103.333 0 179.666 -16.333 228.999 -49s74 -87 74 -163zM543 470v59c0 23.333 -7.16699 41.5 -21.5 54.5s-39.5 19.5 -75.5 19.5h-181v-206h181
c36 0 61.167 6.5 75.5 19.5s21.5 30.833 21.5 53.5z" />
    <glyph glyph-name="Q" unicode="Q" horiz-adv-x="874" 
d="M507 -150l-113.999 140.001c-58.667 0.666992 -110.334 9.33398 -155.001 26.001s-81.5 39.5 -110.5 68.5s-50.833 63.667 -65.5 104s-22 85.166 -22 134.499v104c0 50 7.5 95.5 22.5 136.5s37.5 76 67.5 105s68 51.5 114 67.5s99.333 24 160 24h66
c60.667 0 114 -8 160 -24s84 -38.5 114 -67.5s52.5 -64 67.5 -105s22.5 -86.5 22.5 -136.5v-104c0 -81.333 -20.333 -150.333 -61 -207s-101.667 -94.334 -183 -113.001l127 -153h-210zM250.001 315.001c0 -59.333 11.167 -101.333 33.5 -126s60.5 -37 114.5 -37h78
c54 0 92.167 12.333 114.5 37s33.5 66.667 33.5 126v122c0 59.333 -11.167 101.166 -33.5 125.499s-60.5 36.5 -114.5 36.5h-78c-54 0 -92.167 -12.167 -114.5 -36.5s-33.5 -66.166 -33.5 -125.499v-122z" />
    <glyph glyph-name="R" unicode="R" horiz-adv-x="808" 
d="M785 0l-224 -0.00195312l-199 229c-16.667 19.333 -28.334 38.333 -35.001 57s-10 35.334 -10 50.001c0 32.667 10 57.5 30 74.5s47 25.5 81 25.5h99c22 0 38.333 6.16699 49 18.5s16 27.833 16 46.5v33c0 20 -5.16699 35.333 -15.5 46s-27.5 16 -51.5 16h-260v-596h-200
v750h440c96.667 0 168 -16 214 -48s69 -83.667 69 -155v-43c0 -31.333 -6.33301 -59.166 -19 -83.499s-29.5 -44.833 -50.5 -61.5s-45.667 -29.5 -74 -38.5s-58.166 -13.5 -89.499 -13.5h-24z" />
    <glyph glyph-name="S" unicode="S" horiz-adv-x="752" 
d="M434 279l-180 52.999c-69.333 20.667 -120.666 49 -153.999 85s-50 79 -50 129c0 62.667 22 112.334 66 149.001s106 55 186 55h385v-165h-386c-21.333 0 -36.333 -3.83301 -45 -11.5s-13 -16.167 -13 -25.5c0 -12 4.16699 -21.833 12.5 -29.5s21.833 -14.167 40.5 -19.5
l183 -53c77.333 -22.667 135.5 -50.5 174.5 -83.5s58.5 -79.167 58.5 -138.5c0 -30.667 -5.83301 -59.667 -17.5 -87s-29.334 -51 -53.001 -71s-53.667 -36 -90 -48s-78.833 -18 -127.5 -18h-354v165h384c25.333 0 43 5 53 15s15 21.667 15 35
c0 16 -6.16699 28.167 -18.5 36.5s-35.5 17.5 -69.5 27.5z" />
    <glyph glyph-name="T" unicode="T" horiz-adv-x="820" 
d="M310 0v585h-285v165h770v-165h-285v-585h-200z" />
    <glyph glyph-name="U" unicode="U" horiz-adv-x="850" 
d="M372 -13c-112 0 -192 24.999 -240 74.999s-72 119.667 -72 209v479h200v-498c0 -36 8.16699 -62.5 24.5 -79.5s44.5 -25.5 84.5 -25.5h114c37.333 0 64.5 8.5 81.5 25.5s25.5 43.5 25.5 79.5v498h200v-479c0 -44.667 -5.16699 -84.667 -15.5 -120
s-27.333 -65.166 -51 -89.499s-55.5 -42.833 -95.5 -55.5s-89.333 -19 -148 -19h-108z" />
    <glyph glyph-name="V" unicode="V" horiz-adv-x="810" 
d="M230 750l160 -571.001c2 -7.33301 4.5 -13.166 7.5 -17.499s7.5 -6.5 13.5 -6.5c6.66699 0 11.5 2 14.5 6s5.83301 10.333 8.5 19l164 570h202l-186 -585c-17.333 -54 -41.333 -96.667 -72 -128s-74 -47 -130 -47c-60.667 0 -106.167 14.667 -136.5 44
s-54.833 73 -73.5 131l-192 585h220z" />
    <glyph glyph-name="W" unicode="W" horiz-adv-x="1220" 
d="M215 750l86.0039 -570.998c0.666992 -6.66699 2.66699 -12.334 6 -17.001s8.33301 -7 15 -7c6 0 10.5 2.16699 13.5 6.5s4.83301 9.5 5.5 15.5l64 379c10.667 62 32.5 111.833 65.5 149.5s81.167 56.5 144.5 56.5c64 0 110.5 -19 139.5 -57s48.833 -87.333 59.5 -148
l64 -379c1.33301 -7.33301 3.66602 -13 6.99902 -17s7.66602 -6 12.999 -6c8.66699 0 14.5 2.33301 17.5 7s4.83301 10.667 5.5 18l84 570h200l-104 -580c-10.667 -58.667 -31.5 -103.334 -62.5 -134.001s-75.167 -46 -132.5 -46c-64 0 -113.667 17 -149 51
s-57.666 80 -66.999 138l-65 394c-0.666992 6 -2.33398 10.667 -5.00098 14s-6.66699 5 -12 5s-9.33301 -1.66699 -12 -5s-4.33398 -8 -5.00098 -14l-67 -396c-10 -58 -30.833 -103.667 -62.5 -137s-77.834 -50 -138.501 -50c-64 0 -112.167 18.167 -144.5 54.5
s-53.5 82.5 -63.5 138.5l-100 567h200z" />
    <glyph glyph-name="X" unicode="X" horiz-adv-x="843" 
d="M456 224c-4.66699 6.66699 -9.83398 12 -15.501 16s-11.5 6 -17.5 6c-5.33301 0 -11 -1.83301 -17 -5.5s-11.333 -9.16699 -16 -16.5l-154 -224h-218l269 375l-277 375h234l150 -221c4 -6 8.33301 -10.667 13 -14s9.33398 -5.33301 14.001 -6
c4.66699 0 9.5 1.66699 14.5 5s9.83301 8.33301 14.5 15l150 221h225l-269 -375l277 -375h-221z" />
    <glyph glyph-name="Y" unicode="Y" horiz-adv-x="800" 
d="M300 0v260.999l-290 489h224l145 -260c5.33301 -10 12.833 -15.167 22.5 -15.5s17.5 4.83398 23.5 15.501l156 260h209l-290 -489v-261h-200z" />
    <glyph glyph-name="Z" unicode="Z" horiz-adv-x="719" 
d="M678 0l-441.999 0.00195312c-38 0 -70.833 4.5 -98.5 13.5s-50.334 21 -68.001 36s-30.834 32.5 -39.501 52.5s-13 41 -13 63c0 43.333 13.167 81.666 39.5 114.999s66.5 65.333 120.5 96l292 162c6.66699 3.33301 11.334 7 14.001 11s4 8.66699 4 14
c0 6.66699 -2.5 12 -7.5 16s-12.833 6 -23.5 6h-413v165h412c86 0 147 -12.833 183 -38.5s54 -65.5 54 -119.5c0 -34.667 -11 -69 -33 -103s-59 -66 -111 -96l-304 -173c-8 -4.66699 -14 -9 -18 -13s-6 -10 -6 -18c0 -8.66699 3 -14.834 9 -18.501s14.333 -5.5 25 -5.5h424
v-165z" />
    <glyph glyph-name="bracketleft" unicode="[" horiz-adv-x="437" 
d="M90 -170v920h287v-145h-107v-640h107v-135h-287z" />
    <glyph glyph-name="backslash" unicode="\" horiz-adv-x="390" 
d="M180 750l200 -860h-170l-200 860h170z" />
    <glyph glyph-name="bracketright" unicode="]" horiz-adv-x="437" 
d="M347 -170h-287v135h107v640h-107v145h287v-920z" />
    <glyph glyph-name="asciicircum" unicode="^" horiz-adv-x="707" 
d="M406 332l-52 82l-53 -82h-137l101 145c8 10.667 19.333 21.5 34 32.5s33 16.5 55 16.5s40 -5.16699 54 -15.5s25.333 -21.5 34 -33.5l101 -145h-137z" />
    <glyph glyph-name="underscore" unicode="_" horiz-adv-x="446" 
d="M0 -173v173h446v-173h-446z" />
    <glyph glyph-name="grave" unicode="`" horiz-adv-x="707" 
d="M430 672h-150l-70 188h155z" />
    <glyph glyph-name="a" unicode="a" horiz-adv-x="685" 
d="M627 325v-325h-411c-60 0 -106 13 -138 39s-48 60 -48 102c0 46 15.667 82.833 47 110.5s69 56.5 113 86.5l170 117h-316v145h263c114.667 0 196.667 -24.167 246 -72.5s74 -115.833 74 -202.5zM270 145h177v199l-181 -141c-11.333 -8.66699 -19.333 -15.167 -24 -19.5
s-7 -9.83301 -7 -16.5c0 -7.33301 2.66699 -12.833 8 -16.5s14.333 -5.5 27 -5.5z" />
    <glyph glyph-name="b" unicode="b" horiz-adv-x="758" 
d="M58 0v749.998h190v-140h236c74 0 132 -24.667 174 -74s63 -114.666 63 -195.999v-70c0 -81.333 -21 -146.666 -63 -195.999s-100 -74 -174 -74h-426zM419 461.998h-171v-314h171c40.667 0 68.667 9.33301 84 28s23 47.667 23 87v89c0 39.333 -7.66699 67.5 -23 84.5
s-43.333 25.5 -84 25.5z" />
    <glyph glyph-name="c" unicode="c" horiz-adv-x="621" 
d="M346 455c-39.333 0 -68.166 -8.83301 -86.499 -26.5s-27.5 -44.5 -27.5 -80.5v-103c0 -40 9.16699 -66.667 27.5 -80s47.166 -20 86.499 -20h225v-145h-231c-107.333 -0 -184.666 23.333 -231.999 70s-71 111 -71 193v73c0 82 23.667 146.5 71 193.5
s124.666 70.5 231.999 70.5h231v-145h-225z" />
    <glyph glyph-name="d" unicode="d" horiz-adv-x="758" 
d="M700 750v-749.998h-426c-74 0 -132 24.667 -174 74s-63 114.666 -63 195.999v60c0 81.333 21 146.666 63 195.999s100 74 174 74h236v150h190zM339 148.002h171v304h-171c-40.667 0 -68.667 -9.33301 -84 -28s-23 -47.667 -23 -87v-79c0 -39.333 7.66699 -67.5 23 -84.5
s43.333 -25.5 84 -25.5z" />
    <glyph glyph-name="e" unicode="e" horiz-adv-x="699" 
d="M659 244l-429.003 -0.000976562v-4c0 -38 8.33301 -63.333 25 -76s45.334 -19 86.001 -19h304v-145h-293c-58.667 0 -108.167 6.5 -148.5 19.5s-72.666 31.333 -96.999 55s-42 52.167 -53 85.5s-16.5 70 -16.5 110v76c0 79.333 23 142.833 69 190.5
s121.333 71.5 226 71.5h40c56 0 102.667 -6.66699 140 -20s66.833 -32.166 88.5 -56.499s36.834 -53.5 45.501 -87.5s13 -71.667 13 -113v-87zM393.997 473.999h-78c-32 0 -54.333 -7 -67 -21s-19 -37.333 -19 -70v-13h249v13c0 32.667 -6.5 56 -19.5 70
s-34.833 21 -65.5 21z" />
    <glyph glyph-name="f" unicode="f" horiz-adv-x="492" 
d="M122 0l-0.000976562 455h-92v145h93c4.66699 62.667 23.334 110 56.001 142s87.667 48 165 48h138v-124h-146c-14.667 0 -25.667 -3.66699 -33 -11s-11 -19.333 -11 -36v-19h190v-145h-170v-455h-190z" />
    <glyph glyph-name="g" unicode="g" horiz-adv-x="738" 
d="M365 -150l-286.998 0.000976562v142h289c51.333 0 84.666 6 99.999 18s23 30 23 54v13h-221c-70.667 0 -127 21.667 -169 65s-63 103.333 -63 180v23c0 79.333 21 141.666 63 186.999s98.333 68 169 68h411v-518c0 -83.333 -24.333 -142.833 -73 -178.5
s-129.334 -53.5 -242.001 -53.5zM328.002 213.001h162v241h-162c-36 0 -61 -7.16699 -75 -21.5s-21 -38.833 -21 -73.5v-46c0 -34 7 -59.167 21 -75.5s39 -24.5 75 -24.5z" />
    <glyph glyph-name="h" unicode="h" horiz-adv-x="737" 
d="M58 0v750h190v-150h182c87.333 0 150.666 -22 189.999 -66s59 -103.667 59 -179v-355h-190v360c0 30.667 -5.16699 52.5 -15.5 65.5s-30.166 19.5 -59.499 19.5h-166v-445h-190z" />
    <glyph glyph-name="i" unicode="i" horiz-adv-x="330" 
d="M260 652h-190v118h190v-118zM70 0v600h190v-600h-190z" />
    <glyph glyph-name="j" unicode="j" horiz-adv-x="315" 
d="M250 652h-190v118h190v-118zM60 600h190v-553c0 -66 -17.833 -115.333 -53.5 -148s-84.5 -49 -146.5 -49h-80v129h46c14 0 24.833 3.83301 32.5 11.5s11.5 21.167 11.5 40.5v569z" />
    <glyph glyph-name="k" unicode="k" horiz-adv-x="713" 
d="M58 0l-0.00195312 750h190v-365h21c18.667 0 32.834 1.66699 42.501 5s18.834 10.333 27.501 21l148 189h218l-248 -295l256 -305h-226l-156 197c-10.667 13.333 -20.167 21.333 -28.5 24s-20.833 4 -37.5 4h-17v-225h-190z" />
    <glyph glyph-name="l" unicode="l" horiz-adv-x="330" 
d="M70 750h190v-750h-190v750z" />
    <glyph glyph-name="m" unicode="m" horiz-adv-x="1088" 
d="M58 0l-0.000976562 600h712c91.333 0 157.333 -22 198 -66s61 -103.667 61 -179v-355h-190v360c0 30.667 -5.16699 52.5 -15.5 65.5s-30.166 19.5 -59.499 19.5h-126v-445h-190v445h-200v-445h-190z" />
    <glyph glyph-name="n" unicode="n" horiz-adv-x="737" 
d="M58 0v600h372c87.333 0 150.666 -22 189.999 -66s59 -103.667 59 -179v-355h-190v360c0 30.667 -5.16699 52.5 -15.5 65.5s-30.166 19.5 -59.499 19.5h-166v-445h-190z" />
    <glyph glyph-name="o" unicode="o" horiz-adv-x="727" 
d="M690 336v-72c0 -83.333 -25.167 -149.833 -75.5 -199.5s-122.166 -74.5 -215.499 -74.5h-70c-93.333 0 -165.333 24.833 -216 74.5s-76 116.167 -76 199.5v72c0 83.333 25.333 149.833 76 199.5s122.667 74.5 216 74.5h70c93.333 0 165.166 -24.833 215.499 -74.5
s75.5 -116.167 75.5 -199.5zM495 352c0 38.667 -7.16699 67.5 -21.5 86.5s-39.833 28.5 -76.5 28.5h-66c-36.667 0 -62.334 -9.5 -77.001 -28.5s-22 -47.833 -22 -86.5v-103c0 -39.333 7.33301 -68.5 22 -87.5s40.334 -28.5 77.001 -28.5h66c36.667 0 62.167 9.5 76.5 28.5
s21.5 48.167 21.5 87.5v103z" />
    <glyph glyph-name="p" unicode="p" horiz-adv-x="758" 
d="M58 -150v749.998h426c74 0 132 -24.667 174 -74s63 -114.666 63 -195.999v-60c0 -81.333 -21 -146.666 -63 -195.999s-100 -74 -174 -74h-236v-150h-190zM419 451.998h-171v-304h171c40.667 0 68.667 9.33301 84 28s23 47.667 23 87v79c0 39.333 -7.66699 67.5 -23 84.5
s-43.333 25.5 -84 25.5z" />
    <glyph glyph-name="q" unicode="q" horiz-adv-x="758" 
d="M700 600v-749.998h-190v150h-236c-74 0 -132 24.667 -174 74s-63 114.666 -63 195.999v60c0 81.333 21 146.666 63 195.999s100 74 174 74h426zM339 148.002h171v304h-171c-40.667 0 -68.667 -9.33301 -84 -28s-23 -47.667 -23 -87v-79c0 -39.333 7.66699 -67.5 23 -84.5
s43.333 -25.5 84 -25.5z" />
    <glyph glyph-name="r" unicode="r" horiz-adv-x="482" 
d="M58 377c0 28.667 4.33105 56.3311 12.998 82.998s22.334 50.334 41.001 71.001s42.834 37.334 72.501 50.001s65.167 19 106.5 19h176v-145h-133c-34 0 -56.833 -6 -68.5 -18s-17.5 -32.667 -17.5 -62v-375h-190v377z" />
    <glyph glyph-name="s" unicode="s" horiz-adv-x="637" 
d="M388 210l-163 32c-60 12 -105.833 33 -137.5 63s-47.5 70 -47.5 120c0 23.333 4.5 45.666 13.5 66.999s23 40 42 56s43.333 28.667 73 38s64.834 14 105.501 14h298v-145h-313c-20 0 -33.333 -3 -40 -9s-10 -12.667 -10 -20c0 -8 3 -15 9 -21s16.333 -10.333 31 -13
l148 -29c73.333 -14.667 125.833 -36.5 157.5 -65.5s47.5 -67.5 47.5 -115.5c0 -54 -20.5 -97.833 -61.5 -131.5s-103.167 -50.5 -186.5 -50.5h-294v145h326c21.333 0 35.166 3 41.499 9s9.5 13.667 9.5 23c0 10 -4.5 17.333 -13.5 22s-20.833 8.33398 -35.5 11.001z" />
    <glyph glyph-name="t" unicode="t" horiz-adv-x="542" 
d="M20 455l0.000976562 145h97v122h175v-122h205v-145h-205v-243c0 -25.333 5.33301 -42.833 16 -52.5s28 -14.5 52 -14.5h137v-145h-159c-82.667 0 -141.834 17.5 -177.501 52.5s-53.5 88.167 -53.5 159.5v243h-87z" />
    <glyph glyph-name="u" unicode="u" horiz-adv-x="737" 
d="M489 155v445h190v-600h-372c-87.333 0 -150.666 22 -189.999 66s-59 103.667 -59 179v355h190v-360c0 -30.667 5.16699 -52.5 15.5 -65.5s30.166 -19.5 59.499 -19.5h166z" />
    <glyph glyph-name="v" unicode="v" horiz-adv-x="723" 
d="M207 600l133.999 -420.999c4 -12.667 7.66699 -20.834 11 -24.501s8 -5.5 14 -5.5c4.66699 0 8.66699 2.16699 12 6.5s7 12.833 11 25.5l133 419h190l-162 -454c-19.333 -54 -43.666 -93.5 -72.999 -118.5s-66.333 -37.5 -111 -37.5c-48 0 -87.333 12.167 -118 36.5
s-55 61.5 -73 111.5l-164 462h196z" />
    <glyph glyph-name="w" unicode="w" horiz-adv-x="1070" 
d="M536 613c32 0 59.332 -4.66406 81.999 -13.9971s41.667 -21.5 57 -36.5s27.166 -32.5 35.499 -52.5s14.166 -40.667 17.499 -62l44 -287c0.666992 -6.66699 2.66699 -12.334 6 -17.001s8 -7 14 -7s10.333 2.33301 13 7s4.33398 10.334 5.00098 17.001l66 439h179
l-75 -459c-8 -47.333 -28.5 -84.333 -61.5 -111s-72.833 -40 -119.5 -40c-60 0 -107.167 15.333 -141.5 46s-55.5 71.334 -63.5 122.001l-43 275c-0.666992 6 -2.16699 10.667 -4.5 14s-6.5 5 -12.5 5s-10 -1.66699 -12 -5s-3.33301 -8.33301 -4 -15l-36 -275
c-6.66699 -50 -26.334 -90.333 -59.001 -121s-75.334 -46 -128.001 -46c-50.667 0 -92.667 12.667 -126 38s-55 63.666 -65 114.999l-89 457h191l70 -438c1.33301 -8.66699 3.5 -15 6.5 -19s7.16699 -6 12.5 -6c6 0 10.5 2.16699 13.5 6.5s4.83301 10.166 5.5 17.499l40 289
c2.66699 20.667 8.33398 40.667 17.001 60s20.334 36.666 35.001 51.999s32.834 27.666 54.501 36.999s46.834 14 75.501 14z" />
    <glyph glyph-name="x" unicode="x" horiz-adv-x="739" 
d="M392 160c-6.66699 9.33301 -13.833 14.333 -21.5 15s-15.167 -4.33301 -22.5 -15l-114 -160h-206l221 287l-229 313h212l118 -171c6.66699 -10 13 -15 19 -15s12.333 5 19 15l117 171h206l-212 -296l220 -304h-212z" />
    <glyph glyph-name="y" unicode="y" horiz-adv-x="720" 
d="M351 241c2.66699 -7.33301 6 -12.165 10 -14.498s7.66699 -3.5 11 -3.5c4 0 7.5 1.16699 10.5 3.5s5.83301 7.16602 8.5 14.499l117 359h202l-215 -582c-18 -48.667 -48.5 -88.834 -91.5 -120.501s-100.5 -47.5 -172.5 -47.5h-164v159h181c24 0 42.167 5.5 54.5 16.5
s22.833 29.167 31.5 54.5l7 20h-48c-27.333 0 -49.833 6 -67.5 18s-31.5 30.333 -41.5 55l-174 427h209z" />
    <glyph glyph-name="z" unicode="z" horiz-adv-x="669" 
d="M625 0l-372 -0.000976562c-71.333 0 -124.166 15.667 -158.499 47s-51.5 70.333 -51.5 117c0 47.333 15.667 85.333 47 114s71 50.334 119 65.001l211 66c8.66699 2.66699 15.167 6 19.5 10s6.5 9 6.5 15c0 6.66699 -2.33301 11.834 -7 15.501s-12 5.5 -22 5.5h-354v145
h350c79.333 0 135.5 -14.667 168.5 -44s49.5 -68 49.5 -116c0 -50 -14.167 -88.833 -42.5 -116.5s-66.5 -48.834 -114.5 -63.501l-219 -66c-8.66699 -2.66699 -15.334 -6 -20.001 -10s-7 -9.33301 -7 -16c0 -7.33301 2.5 -13 7.5 -17s12.167 -6 21.5 -6h368v-145z" />
    <glyph glyph-name="braceleft" unicode="{" horiz-adv-x="405" 
d="M200 292v-4c28 -4.66699 48 -16 60 -34s18 -44 18 -78v-130c0 -30.667 5.16699 -51.834 15.5 -63.501s27.833 -17.5 52.5 -17.5h39v-135h-104c-52.667 0 -94.667 14 -126 42s-47 72.333 -47 133v147c0 22.667 -4.5 39.334 -13.5 50.001s-23.833 16 -44.5 16h-30v144h30
c20.667 0 35.5 5.33301 44.5 16s13.5 27.334 13.5 50.001v147c0 60.667 15.667 105 47 133s73.333 42 126 42h104v-135h-39c-24.667 0 -42.167 -5.83301 -52.5 -17.5s-15.5 -32.834 -15.5 -63.501v-130c0 -34 -6 -60 -18 -78s-32 -29.333 -60 -34z" />
    <glyph glyph-name="bar" unicode="|" horiz-adv-x="310" 
d="M70 750h170v-860h-170v860z" />
    <glyph glyph-name="braceright" unicode="}" horiz-adv-x="405" 
d="M205 292c-28 4.66699 -48 16 -60 34s-18 44 -18 78v130c0 30.667 -5.16699 51.834 -15.5 63.501s-27.833 17.5 -52.5 17.5h-39v135h104c52.667 0 94.667 -14 126 -42s47 -72.333 47 -133v-147c0 -22.667 4.5 -39.334 13.5 -50.001s23.833 -16 44.5 -16h30v-144h-30
c-20.667 0 -35.5 -5.33301 -44.5 -16s-13.5 -27.334 -13.5 -50.001v-147c0 -60.667 -15.667 -105 -47 -133s-73.333 -42 -126 -42h-104v135h39c24.667 0 42.167 5.83301 52.5 17.5s15.5 32.834 15.5 63.501v130c0 34 6 60 18 78s32 29.333 60 34v4z" />
    <glyph glyph-name="asciitilde" unicode="~" horiz-adv-x="860" 
d="M485 428l18.001 -13.5c4 -3 9 -4.5 15 -4.5c5.33301 0 9.33301 1.83301 12 5.5s4 9.83398 4 18.501v62h99v-76c0 -35.333 -10.333 -63.166 -31 -83.499s-47 -30.5 -79 -30.5c-22.667 0 -41.5 3.83301 -56.5 11.5s-33.5 19.834 -55.5 36.501l-34 26
c-6.66699 5.33301 -12.334 9.66602 -17.001 12.999s-9.66699 5 -15 5c-4.66699 0 -8.66699 -1.83301 -12 -5.5s-5 -9.83398 -5 -18.501v-62h-99v78c0 36 10.667 63.667 32 83s47.333 29 78 29c22.667 0 41.5 -3.83301 56.5 -11.5s33.5 -19.834 55.5 -36.501z" />
    <glyph glyph-name="exclamdown" unicode="&#xa1;" horiz-adv-x="336" 
d="M273 600v-210h-210v210h210zM276 -150h-216l8 463h200z" />
    <glyph glyph-name="cent" unicode="&#xa2;" horiz-adv-x="671" 
d="M362 -100v100h-22c-107.333 -0 -184.666 23.333 -231.999 70s-71 111 -71 193v73c0 82 23.667 146.5 71 193.5s124.666 70.5 231.999 70.5h22v100h110v-100h149v-145h-149v-310h149v-145h-149v-100h-110zM346 455c-39.333 0 -68.166 -8.83301 -86.499 -26.5
s-27.5 -44.5 -27.5 -80.5v-103c0 -40 9.16699 -66.667 27.5 -80s47.166 -20 86.499 -20h16v310h-16z" />
    <glyph glyph-name="sterling" unicode="&#xa3;" horiz-adv-x="759" 
d="M30 157h150.001v143h-150v157h150v107c0 56 20.667 101 62 135s106.666 51 195.999 51h284v-157h-277c-21.333 0 -38.333 -3.33301 -51 -10s-19 -18.667 -19 -36v-90h347v-157h-347v-143h354v-157h-699v157z" />
    <glyph glyph-name="currency" unicode="&#xa4;" horiz-adv-x="688" 
d="M344 88c-26.667 0 -52.333 3.83008 -77 11.4971s-47 18.834 -67 33.501l-96 -98l-50 50l96 95c-14.667 18.667 -26.167 39.834 -34.5 63.501s-12.5 48.834 -12.5 75.501s4.33301 52.167 13 76.5s20.334 45.833 35.001 64.5l-97 96l50 50l97 -99
c20 14.667 42.167 25.834 66.5 33.501s49.833 11.5 76.5 11.5s52.167 -3.83301 76.5 -11.5s46.833 -18.5 67.5 -32.5l96 98l50 -51l-96 -94c14.667 -19.333 26.334 -41.166 35.001 -65.499s13 -49.833 13 -76.5s-4.16699 -51.834 -12.5 -75.501
s-19.833 -44.834 -34.5 -63.501l95 -94l-50 -51l-95 97c-20.667 -14 -43.334 -24.833 -68.001 -32.5s-50.334 -11.5 -77.001 -11.5zM344.001 233.997c24.667 0 45.667 8.16699 63 24.5s26 36.5 26 60.5c0 24.667 -8.66699 45.334 -26 62.001s-38.333 25 -63 25
c-24 0 -44.667 -8.33301 -62 -25s-26 -37.334 -26 -62.001c0 -24 8.66699 -44.167 26 -60.5s38 -24.5 62 -24.5z" />
    <glyph glyph-name="yen" unicode="&#xa5;" horiz-adv-x="800" 
d="M82 164v119.999h204l-35 60h-169v120h98l-170 286h224l145 -260c5.33301 -10 12.833 -15.167 22.5 -15.5s17.5 4.83398 23.5 15.501l156 260h209l-170 -286h99v-120h-170l-35 -60h205v-120h-219v-164h-200v164h-218z" />
    <glyph glyph-name="brokenbar" unicode="&#xa6;" horiz-adv-x="310" 
d="M70 439v311h170v-311h-170zM240 -110h-170v311h170v-311z" />
    <glyph glyph-name="section" unicode="&#xa7;" horiz-adv-x="792" 
d="M732 55c0 -27.333 -4.49902 -53.5029 -13.499 -78.5029s-23 -46.833 -42 -65.5s-43.333 -33.5 -73 -44.5s-64.834 -16.5 -105.501 -16.5h-428v150h423c20 0 33.333 3.5 40 10.5s10 14.833 10 23.5s-3.66699 16.167 -11 22.5s-21 11.166 -41 14.499l-285 47
c-56 8.66699 -97.667 30.334 -125 65.001s-41 76.334 -41 125.001c0 28.667 5 54.667 15 78s25 43 45 59c-12.667 15.333 -22.5 33 -29.5 53s-10.5 42.333 -10.5 67s4.5 48.167 13.5 70.5s23 42 42 59s43.333 30.5 73 40.5s64.834 15 105.501 15h428v-150h-423
c-20 0 -33.333 -3.5 -40 -10.5s-10 -14.833 -10 -23.5s3.5 -16.167 10.5 -22.5s19.167 -11.166 36.5 -14.499l275 -51c62 -11.333 107.667 -32.166 137 -62.499s44 -71.5 44 -123.5c0 -28 -4.66699 -53.5 -14 -76.5s-23.333 -42.5 -42 -58.5
c11.333 -13.333 20.166 -28.5 26.499 -45.5s9.5 -35.833 9.5 -56.5zM560.001 223.997l6 -1c6.66699 4.66699 11.834 10.834 15.501 18.501s5.5 16.834 5.5 27.501c0 15.333 -4.66699 27.166 -14 35.499s-21.666 13.833 -36.999 16.5l-304 55l-6 1
c-6.66699 -4.66699 -11.834 -10.834 -15.501 -18.501s-5.5 -16.834 -5.5 -27.501c0 -15.333 4.66699 -27.166 14 -35.499s21.666 -13.833 36.999 -16.5z" />
    <glyph glyph-name="dieresis" unicode="&#xa8;" horiz-adv-x="510" 
d="M424 692h-134v128h134v-128zM219 692h-134v128h134v-128z" />
    <glyph glyph-name="copyright" unicode="&#xa9;" horiz-adv-x="930" 
d="M875 315c0 -49.333 -6.5 -94.166 -19.5 -134.499s-32.833 -74.666 -59.5 -102.999s-60.834 -50.333 -102.501 -66s-91.167 -23.5 -148.5 -23.5h-160c-57.333 0 -107 7.83301 -149 23.5s-76.333 37.667 -103 66s-46.334 62.666 -59.001 102.999s-19 85.166 -19 134.499
v120c0 50 6.33301 95.167 19 135.5s32.334 74.833 59.001 103.5s61 50.667 103 66s91.667 23 149 23h160c57.333 0 106.833 -7.66699 148.5 -23s75.834 -37.333 102.501 -66s46.5 -63.167 59.5 -103.5s19.5 -85.5 19.5 -135.5v-120zM161 285
c0 -68.667 16.833 -120.167 50.5 -154.5s85.5 -51.5 155.5 -51.5h196c70.667 0 122.667 17.167 156 51.5s50 85.833 50 154.5v181c0 69.333 -16.667 121 -50 155s-85.333 51 -156 51h-196c-70 0 -121.833 -17 -155.5 -51s-50.5 -85.667 -50.5 -155v-181zM467 501
c-38 0 -65.167 -7.16504 -81.5 -21.498s-24.5 -40.5 -24.5 -78.5v-50c0 -38.667 8.16699 -65.334 24.5 -80.001s43.5 -22 81.5 -22h165v-89h-189c-54.667 0 -99 15.167 -133 45.5s-51 75.166 -51 134.499v71c0 58.667 17 103.167 51 133.5s78.333 45.5 133 45.5h189v-89
h-165z" />
    <glyph glyph-name="ordfeminine" unicode="&#xaa;" horiz-adv-x="362" 
d="M340 579l-0.000976562 -160h-233c-32 0 -55.833 7.5 -71.5 22.5s-23.5 33.167 -23.5 54.5c0 28.667 8.83301 51 26.5 67s37.834 31.333 60.501 46l66 44h-149v97h124c72.667 0 124.167 -15 154.5 -45s45.5 -72 45.5 -126zM133.999 517h90v69z" />
    <glyph glyph-name="guillemotleft" unicode="&#xab;" horiz-adv-x="801" 
d="M391 288v-173l-273 165c-14.667 8.66699 -28.834 20.5 -42.501 35.5s-20.5 33.5 -20.5 55.5v9c0 22 6.83301 40.5 20.5 55.5s27.834 26.833 42.501 35.5l273 165v-173l-166 -87zM731 288v-173l-273 165c-14.667 8.66699 -28.834 20.5 -42.501 35.5s-20.5 33.5 -20.5 55.5
v9c0 22 6.83301 40.5 20.5 55.5s27.834 26.833 42.501 35.5l273 165v-173l-166 -87z" />
    <glyph glyph-name="registered" unicode="&#xae;" horiz-adv-x="712" 
d="M657 432c0 -71.333 -19.333 -128.833 -58 -172.5s-100 -65.5 -184 -65.5h-118c-84 0 -145.333 21.833 -184 65.5s-58 101.167 -58 172.5v90c0 73.333 19.333 131.833 58 175.5s100 65.5 184 65.5h118c84 0 145.333 -21.833 184 -65.5s58 -102.167 58 -175.5v-90zM143 415
c0 -48 11.833 -84 35.5 -108s60.167 -36 109.5 -36h136c50 0 86.667 12 110 36s35 60 35 108v127c0 48 -11.667 84 -35 108s-60 36 -110 36h-136c-49.333 0 -85.833 -12 -109.5 -36s-35.5 -60 -35.5 -108v-127zM504 319h-92.999l-92 128
c-8.66699 11.333 -10.834 24.666 -6.50098 39.999s16.833 23 37.5 23h36c18.667 0 31.667 1.83301 39 5.5s11 11.167 11 22.5v6c0 12 -3.66699 19.833 -11 23.5s-20.333 5.5 -39 5.5h-94v-254h-76v318h187c30.667 0 56.667 -5.5 78 -16.5s32 -32.833 32 -65.5v-11
c0 -35.333 -8.83301 -59.666 -26.5 -72.999s-42.167 -20.333 -73.5 -21z" />
    <glyph glyph-name="macron" unicode="&#xaf;" horiz-adv-x="510" 
d="M385 697h-260v98h260v-98z" />
    <glyph glyph-name="degree" unicode="&#xb0;" horiz-adv-x="468" 
d="M50 566v54c0 44 14.667 79.167 44 105.5s66 39.5 110 39.5h64c41.333 0 76.666 -13.167 105.999 -39.5s44 -61.5 44 -105.5v-54c0 -44 -14.667 -79.5 -44 -106.5s-64.666 -40.5 -105.999 -40.5h-64c-44 0 -80.667 13.5 -110 40.5s-44 62.5 -44 106.5zM176 605v-27
c0 -16 3.16699 -28.667 9.5 -38s16.833 -14 31.5 -14h36c16.667 0 28.167 4.66699 34.5 14s9.5 22 9.5 38v27c0 18 -3.16699 31.833 -9.5 41.5s-17.833 14.5 -34.5 14.5h-36c-14.667 0 -25.167 -4.83301 -31.5 -14.5s-9.5 -23.5 -9.5 -41.5z" />
    <glyph glyph-name="plusminus" unicode="&#xb1;" horiz-adv-x="556" 
d="M50 400v160h163v113h160v-113h163v-160h-163v-123h-160v123h-163zM80 70v150h426v-150h-426z" />
    <glyph glyph-name="twosuperior" unicode="&#xb2;" horiz-adv-x="292" 
d="M278 513v-94.002h-274v53c0 34.667 6.33301 61.334 19 80.001s36 35.334 70 50.001l48 21c6 2.66699 10.167 5.5 12.5 8.5s3.5 6.16699 3.5 9.5c0 4.66699 -1.5 8.33398 -4.5 11.001s-8.83301 4 -17.5 4h-121v94h138c45.333 0 78.333 -8 99 -24s31 -38.333 31 -67
c0 -27.333 -6.83301 -48.333 -20.5 -63s-34.5 -28.334 -62.5 -41.001l-81 -38v-4h160z" />
    <glyph glyph-name="threesuperior" unicode="&#xb3;" horiz-adv-x="306" 
d="M95 629l38 24.998h-123v96h281v-85l-80 -52c34 -4 56.667 -13.5 68 -28.5s17 -29.833 17 -44.5v-29c0 -28 -11.833 -50.333 -35.5 -67s-58.5 -25 -104.5 -25h-138v96h163v27h-82c-14.667 0 -25.667 3.66699 -33 11s-11 15.333 -11 24c0 10.667 3.33301 19.834 10 27.501
s16.667 15.834 30 24.501z" />
    <glyph glyph-name="acute" unicode="&#xb4;" horiz-adv-x="707" 
d="M270 672l65 188h155l-70 -188h-150z" />
    <glyph glyph-name="paragraph" unicode="&#xb6;" horiz-adv-x="975" 
d="M35 538c0 76 24.667 130.333 74 163s125.666 49 228.999 49h275v-900h-200v400h-75c-103.333 0 -179.666 15.333 -228.999 46s-74 86.667 -74 168v74zM710 -150v900h200v-900h-200z" />
    <glyph glyph-name="periodcentered" unicode="&#xb7;" horiz-adv-x="450" 
d="M120 194v210h210v-210h-210z" />
    <glyph glyph-name="cedilla" unicode="&#xb8;" horiz-adv-x="637" 
d="M395 10l-68 -198h-155l73 198h150z" />
    <glyph glyph-name="onesuperior" unicode="&#xb9;" horiz-adv-x="321" 
d="M12 419v95h86v124c0 4.66699 -1.16699 8.16699 -3.5 10.5s-5.5 3.5 -9.5 3.5h-73v98h108c29.333 0 54 -9.83301 74 -29.5s30 -42.5 30 -68.5v-138h85v-95h-297z" />
    <glyph glyph-name="ordmasculine" unicode="&#xba;" horiz-adv-x="399" 
d="M384 599v-31c0 -46 -14.5 -83.167 -43.5 -111.5s-69.833 -42.5 -122.5 -42.5h-37c-50.667 0 -91 14.167 -121 42.5s-45 65.5 -45 111.5v31c0 46 15 83.167 45 111.5s70.667 42.5 122 42.5h36c52.667 0 93.5 -14.167 122.5 -42.5s43.5 -65.5 43.5 -111.5zM252 608
c0 16.667 -3 29.334 -9 38.001s-16.333 13 -31 13h-24c-16 0 -26.833 -4.33301 -32.5 -13s-8.5 -21.334 -8.5 -38.001v-48c0 -17.333 3 -30.333 9 -39s16.667 -13 32 -13h24c14.667 0 25 4.33301 31 13s9 21.667 9 39v48z" />
    <glyph glyph-name="guillemotright" unicode="&#xbb;" horiz-adv-x="801" 
d="M683 280l-273 -165v173l166 88l-166 87v173l273 -165c14.667 -8.66699 28.834 -20.5 42.501 -35.5s20.5 -33.5 20.5 -55.5v-9c0 -22 -6.83301 -40.5 -20.5 -55.5s-27.834 -26.833 -42.501 -35.5zM343 280l-273 -165v173l166 88l-166 87v173l273 -165
c14.667 -8.66699 28.834 -20.5 42.501 -35.5s20.5 -33.5 20.5 -55.5v-9c0 -22 -6.83301 -40.5 -20.5 -55.5s-27.834 -26.833 -42.501 -35.5z" />
    <glyph glyph-name="onequarter" unicode="&#xbc;" horiz-adv-x="850" 
d="M614 419h-159l175 331h160zM94 419v95h86v124c0 4.66699 -1.16699 8.16699 -3.5 10.5s-5.5 3.5 -9.5 3.5h-73v98h108c29.333 0 54 -9.83301 74 -29.5s30 -42.5 30 -68.5v-138h85v-95h-297zM474 39c-29.333 0 -51.333 6.16504 -66 18.498s-22 28.833 -22 49.5
c0 14 3.5 27.833 10.5 41.5s17.833 31.834 32.5 54.501l51 75c11.333 16.667 26.5 30.834 45.5 42.501s39.5 17.5 61.5 17.5h19c22.667 0 42.667 -7.5 60 -22.5s26 -38.833 26 -71.5v-109h50v-96h-50v-39h-118v39h-100zM236 330.998h159l-175 -331h-160zM510 134.998h64v96z
" />
    <glyph glyph-name="onehalf" unicode="&#xbd;" horiz-adv-x="850" 
d="M614 419h-159l175 331h160zM94 419v95h86v124c0 4.66699 -1.16699 8.16699 -3.5 10.5s-5.5 3.5 -9.5 3.5h-73v98h108c29.333 0 54 -9.83301 74 -29.5s30 -42.5 30 -68.5v-138h85v-95h-297zM730 106v-94.002h-274v53c0 34.667 6.33301 61.334 19 80.001
s36 35.334 70 50.001l48 21c6 2.66699 10.167 5.5 12.5 8.5s3.5 6.16699 3.5 9.5c0 4.66699 -1.5 8.33398 -4.5 11.001s-8.83301 4 -17.5 4h-121v94h138c45.333 0 78.333 -8 99 -24s31 -38.333 31 -67c0 -27.333 -6.83301 -48.333 -20.5 -63s-34.5 -28.334 -62.5 -41.001
l-81 -38v-4h160zM236 330.998h159l-175 -331h-160z" />
    <glyph glyph-name="questiondown" unicode="&#xbf;" horiz-adv-x="626" 
d="M481 600v-210h-210v210h210zM50 78c0 80.667 24.833 140.001 74.5 178.001s123.167 57 220.5 57h136v-156h-155c-32.667 0 -55.5 -5.66699 -68.5 -17s-19.5 -31 -19.5 -59s7.16699 -47.5 21.5 -58.5s39.833 -16.5 76.5 -16.5h240v-156h-231
c-97.333 0 -170.833 18.667 -220.5 56s-74.5 94.666 -74.5 171.999z" />
    <glyph glyph-name="Agrave" unicode="&#xc0;" horiz-adv-x="890" 
d="M677 0l-59 157h-351l-60 -157h-202l249 605c19.333 47.333 43.166 85.333 71.499 114s67.5 43 117.5 43c52 0 92.833 -14.167 122.5 -42.5s53.834 -65.833 72.501 -112.5l247 -607h-208zM426 569l-99 -257.002h232l-97 257c-2 4.66699 -4.16699 8.83398 -6.5 12.501
s-6.16602 5.5 -11.499 5.5c-4.66699 0 -8.33398 -1.66699 -11.001 -5s-5 -7.66602 -7 -12.999zM522 821.998h-150l-70 188h155z" />
    <glyph glyph-name="Aacute" unicode="&#xc1;" horiz-adv-x="890" 
d="M677 0l-59 157h-351l-60 -157h-202l249 605c19.333 47.333 43.166 85.333 71.499 114s67.5 43 117.5 43c52 0 92.833 -14.167 122.5 -42.5s53.834 -65.833 72.501 -112.5l247 -607h-208zM426 569l-99 -257.002h232l-97 257c-2 4.66699 -4.16699 8.83398 -6.5 12.501
s-6.16602 5.5 -11.499 5.5c-4.66699 0 -8.33398 -1.66699 -11.001 -5s-5 -7.66602 -7 -12.999zM373 821.998l65 188h155l-70 -188h-150z" />
    <glyph glyph-name="Acircumflex" unicode="&#xc2;" horiz-adv-x="890" 
d="M677 0l-59 157h-351l-60 -157h-202l249 605c19.333 47.333 43.166 85.333 71.499 114s67.5 43 117.5 43c52 0 92.833 -14.167 122.5 -42.5s53.834 -65.833 72.501 -112.5l247 -607h-208zM426 569l-99 -257.002h232l-97 257c-2 4.66699 -4.16699 8.83398 -6.5 12.501
s-6.16602 5.5 -11.499 5.5c-4.66699 0 -8.33398 -1.66699 -11.001 -5s-5 -7.66602 -7 -12.999zM497 821.998l-52 82l-53 -82h-137l101 145c8 10.667 19.333 21.5 34 32.5s33 16.5 55 16.5s40 -5.16699 54 -15.5s25.333 -21.5 34 -33.5l101 -145h-137z" />
    <glyph glyph-name="Atilde" unicode="&#xc3;" horiz-adv-x="890" 
d="M677 0l-59 157h-351l-60 -157h-202l249 605c19.333 47.333 43.166 85.333 71.499 114s67.5 43 117.5 43c52 0 92.833 -14.167 122.5 -42.5s53.834 -65.833 72.501 -112.5l247 -607h-208zM426 569l-99 -257.002h232l-97 257c-2 4.66699 -4.16699 8.83398 -6.5 12.501
s-6.16602 5.5 -11.499 5.5c-4.66699 0 -8.33398 -1.66699 -11.001 -5s-5 -7.66602 -7 -12.999zM500 937.998l18.001 -13.5c4 -3 9 -4.5 15 -4.5c5.33301 0 9.33301 1.83301 12 5.5s4 9.83398 4 18.501v62h99v-76c0 -35.333 -10.333 -63.166 -31 -83.499s-47 -30.5 -79 -30.5
c-22.667 0 -41.5 3.83301 -56.5 11.5s-33.5 19.834 -55.5 36.501l-34 26c-6.66699 5.33301 -12.334 9.66602 -17.001 12.999s-9.66699 5 -15 5c-4.66699 0 -8.66699 -1.83301 -12 -5.5s-5 -9.83398 -5 -18.501v-62h-99v78c0 36 10.667 63.667 32 83s47.333 29 78 29
c22.667 0 41.5 -3.83301 56.5 -11.5s33.5 -19.834 55.5 -36.501z" />
    <glyph glyph-name="Adieresis" unicode="&#xc4;" horiz-adv-x="890" 
d="M677 0l-59 157h-351l-60 -157h-202l249 605c19.333 47.333 43.166 85.333 71.499 114s67.5 43 117.5 43c52 0 92.833 -14.167 122.5 -42.5s53.834 -65.833 72.501 -112.5l247 -607h-208zM426 569l-99 -257.002h232l-97 257c-2 4.66699 -4.16699 8.83398 -6.5 12.501
s-6.16602 5.5 -11.499 5.5c-4.66699 0 -8.33398 -1.66699 -11.001 -5s-5 -7.66602 -7 -12.999zM614 841.998h-134v128h134v-128zM409 841.998h-134v128h134v-128z" />
    <glyph glyph-name="Aring" unicode="&#xc5;" horiz-adv-x="890" 
d="M677 0l-59 157h-351l-60 -157h-202l249 605c19.333 47.333 43.166 85.333 71.499 114s67.5 43 117.5 43c52 0 92.833 -14.167 122.5 -42.5s53.834 -65.833 72.501 -112.5l247 -607h-208zM426 569l-99 -257.002h232l-97 257c-2 4.66699 -4.16699 8.83398 -6.5 12.501
s-6.16602 5.5 -11.499 5.5c-4.66699 0 -8.33398 -1.66699 -11.001 -5s-5 -7.66602 -7 -12.999zM338 903.998v24c0 26 8.5 47 25.5 63s37.833 24 62.5 24h39c24.667 0 45.5 -8 62.5 -24s25.5 -37 25.5 -63v-24c0 -26 -8.5 -47 -25.5 -63s-37.833 -24 -62.5 -24h-39
c-24.667 0 -45.5 8 -62.5 24s-25.5 37 -25.5 63zM405 925.998v-20c0 -10.667 2.5 -18.5 7.5 -23.5s11.833 -7.5 20.5 -7.5h25c8.66699 0 15.667 2.5 21 7.5s8 12.833 8 23.5v20c0 10.667 -2.66699 18.5 -8 23.5s-12.333 7.5 -21 7.5h-25c-8.66699 0 -15.5 -2.5 -20.5 -7.5
s-7.5 -12.833 -7.5 -23.5z" />
    <glyph glyph-name="AE" unicode="&#xc6;" horiz-adv-x="1283" 
d="M620 0v750h626v-165h-431v-130h431v-160h-431v-130h431v-165h-626zM5 0l348.001 588c33.333 56 71.166 97 113.499 123s95.833 39 160.5 39h193v-750h-187v157h-314l-89 -157h-225zM529.001 529l-123 -217.001h227v268h-33c-14.667 0 -27.5 -3.66699 -38.5 -11
s-21.833 -20.666 -32.5 -39.999z" />
    <glyph glyph-name="Ccedilla" unicode="&#xc7;" horiz-adv-x="721" 
d="M691 165v-165.004h-290c-59.333 0 -111.666 7.5 -156.999 22.5s-83 36.333 -113 64s-52.667 61.334 -68 101.001s-23 83.834 -23 132.501v110c0 48.667 7.66699 92.834 23 132.501s38 73.334 68 101.001s67.667 49 113 64s97.666 22.5 156.999 22.5h285v-165h-275
c-62 0 -104.333 -12.167 -127 -36.5s-34 -64.5 -34 -120.5v-106c0 -56 11.667 -96.167 35 -120.5s67 -36.5 131 -36.5h275zM487 9.99609l-68 -198h-155l73 198h150z" />
    <glyph glyph-name="Egrave" unicode="&#xc8;" horiz-adv-x="748" 
d="M65 0v750h626v-165h-431v-130h431v-160h-431v-130h431v-165h-626zM471 822h-150l-70 188h155z" />
    <glyph glyph-name="Eacute" unicode="&#xc9;" horiz-adv-x="748" 
d="M65 0v750h626v-165h-431v-130h431v-160h-431v-130h431v-165h-626zM322 822l65 188h155l-70 -188h-150z" />
    <glyph glyph-name="Ecircumflex" unicode="&#xca;" horiz-adv-x="748" 
d="M65 0v750h626v-165h-431v-130h431v-160h-431v-130h431v-165h-626zM446 822l-52 82l-53 -82h-137l101 145c8 10.667 19.333 21.5 34 32.5s33 16.5 55 16.5s40 -5.16699 54 -15.5s25.333 -21.5 34 -33.5l101 -145h-137z" />
    <glyph glyph-name="Edieresis" unicode="&#xcb;" horiz-adv-x="748" 
d="M65 0v750h626v-165h-431v-130h431v-160h-431v-130h431v-165h-626zM563 842h-134v128h134v-128zM358 842h-134v128h134v-128z" />
    <glyph glyph-name="Igrave" unicode="&#xcc;" horiz-adv-x="340" 
d="M70 0v750h200v-750h-200zM246 822h-150l-70 188h155z" />
    <glyph glyph-name="Iacute" unicode="&#xcd;" horiz-adv-x="340" 
d="M70 0v750h200v-750h-200zM98 822l65 188h155l-70 -188h-150z" />
    <glyph glyph-name="Icircumflex" unicode="&#xce;" horiz-adv-x="340" 
d="M70 0v750h200v-750h-200zM222 822l-52 82l-53 -82h-137l101 145c8 10.667 19.333 21.5 34 32.5s33 16.5 55 16.5s40 -5.16699 54 -15.5s25.333 -21.5 34 -33.5l101 -145h-137z" />
    <glyph glyph-name="Idieresis" unicode="&#xcf;" horiz-adv-x="340" 
d="M70 0v750h200v-750h-200zM339 842h-134v128h134v-128zM134 842h-134v128h134v-128z" />
    <glyph glyph-name="Eth" unicode="&#xd0;" horiz-adv-x="873" 
d="M10 430l78 0.00390625v320h389c59.333 0 111.5 -7.5 156.5 -22.5s82.167 -36.333 111.5 -64s51.333 -61.334 66 -101.001s22 -83.834 22 -132.501v-110c0 -48.667 -7.33301 -92.834 -22 -132.501s-36.667 -73.334 -66 -101.001s-66.5 -49 -111.5 -64
s-97.167 -22.5 -156.5 -22.5h-389v320h-78v110zM464 592.004h-176.001v-162h183v-110h-183v-162h171c66 0 109.833 12.333 131.5 37s32.5 67 32.5 127v107c0 60 -10.667 102.167 -32 126.5s-63.666 36.5 -126.999 36.5z" />
    <glyph glyph-name="Ntilde" unicode="&#xd1;" horiz-adv-x="971" 
d="M65 0v550.001c0 34 5.66699 64.333 17 91s26.166 48.834 44.499 66.501s40 31.167 65 40.5s50.833 14 77.5 14c64 0 114.167 -17.167 150.5 -51.5s65.833 -79.5 88.5 -135.5l163 -398c2 -4.66699 4.16699 -9.16699 6.5 -13.5s6.16602 -6.5 11.499 -6.5
c6.66699 0 11.167 1.83301 13.5 5.5s3.5 8.83398 3.5 15.501v572h200v-551c0 -35.333 -5.66699 -66.333 -17 -93s-26.166 -48.834 -44.499 -66.501s-40 -30.834 -65 -39.501s-50.833 -13 -77.5 -13c-64 0 -113.833 16.667 -149.5 50s-65.5 79 -89.5 137l-163 398
c-2 4.66699 -4.16699 9.16699 -6.5 13.5s-6.16602 6.5 -11.499 6.5c-6.66699 0 -11.167 -1.83301 -13.5 -5.5s-3.5 -8.83398 -3.5 -15.501v-571h-200zM600 938.001l18.001 -13.5c4 -3 9 -4.5 15 -4.5c5.33301 0 9.33301 1.83301 12 5.5s4 9.83398 4 18.501v62h99v-76
c0 -35.333 -10.333 -63.166 -31 -83.499s-47 -30.5 -79 -30.5c-22.667 0 -41.5 3.83301 -56.5 11.5s-33.5 19.834 -55.5 36.501l-34 26c-6.66699 5.33301 -12.334 9.66602 -17.001 12.999s-9.66699 5 -15 5c-4.66699 0 -8.66699 -1.83301 -12 -5.5s-5 -9.83398 -5 -18.501
v-62h-99v78c0 36 10.667 63.667 32 83s47.333 29 78 29c22.667 0 41.5 -3.83301 56.5 -11.5s33.5 -19.834 55.5 -36.501z" />
    <glyph glyph-name="Ograve" unicode="&#xd2;" horiz-adv-x="874" 
d="M834 323c0 -50 -7.5 -95.5 -22.5 -136.5s-37.5 -76 -67.5 -105s-68 -51.5 -114 -67.5s-99.333 -24 -160 -24h-66c-60.667 0 -114 8 -160 24s-84 38.5 -114 67.5s-52.5 64 -67.5 105s-22.5 86.5 -22.5 136.5v104c0 50 7.5 95.5 22.5 136.5s37.5 76 67.5 105
s68 51.5 114 67.5s99.333 24 160 24h66c60.667 0 114 -8 160 -24s84 -38.5 114 -67.5s52.5 -64 67.5 -105s22.5 -86.5 22.5 -136.5v-104zM250 315c0 -59.333 11.167 -101.333 33.5 -126s60.5 -37 114.5 -37h78c54 0 92.167 12.333 114.5 37s33.5 66.667 33.5 126v122
c0 59.333 -11.167 101.166 -33.5 125.499s-60.5 36.5 -114.5 36.5h-78c-54 0 -92.167 -12.167 -114.5 -36.5s-33.5 -66.166 -33.5 -125.499v-122zM514 822h-150l-70 188h155z" />
    <glyph glyph-name="Oacute" unicode="&#xd3;" horiz-adv-x="874" 
d="M834 323c0 -50 -7.5 -95.5 -22.5 -136.5s-37.5 -76 -67.5 -105s-68 -51.5 -114 -67.5s-99.333 -24 -160 -24h-66c-60.667 0 -114 8 -160 24s-84 38.5 -114 67.5s-52.5 64 -67.5 105s-22.5 86.5 -22.5 136.5v104c0 50 7.5 95.5 22.5 136.5s37.5 76 67.5 105
s68 51.5 114 67.5s99.333 24 160 24h66c60.667 0 114 -8 160 -24s84 -38.5 114 -67.5s52.5 -64 67.5 -105s22.5 -86.5 22.5 -136.5v-104zM250 315c0 -59.333 11.167 -101.333 33.5 -126s60.5 -37 114.5 -37h78c54 0 92.167 12.333 114.5 37s33.5 66.667 33.5 126v122
c0 59.333 -11.167 101.166 -33.5 125.499s-60.5 36.5 -114.5 36.5h-78c-54 0 -92.167 -12.167 -114.5 -36.5s-33.5 -66.166 -33.5 -125.499v-122zM365 822l65 188h155l-70 -188h-150z" />
    <glyph glyph-name="Ocircumflex" unicode="&#xd4;" horiz-adv-x="874" 
d="M834 323c0 -50 -7.5 -95.5 -22.5 -136.5s-37.5 -76 -67.5 -105s-68 -51.5 -114 -67.5s-99.333 -24 -160 -24h-66c-60.667 0 -114 8 -160 24s-84 38.5 -114 67.5s-52.5 64 -67.5 105s-22.5 86.5 -22.5 136.5v104c0 50 7.5 95.5 22.5 136.5s37.5 76 67.5 105
s68 51.5 114 67.5s99.333 24 160 24h66c60.667 0 114 -8 160 -24s84 -38.5 114 -67.5s52.5 -64 67.5 -105s22.5 -86.5 22.5 -136.5v-104zM250 315c0 -59.333 11.167 -101.333 33.5 -126s60.5 -37 114.5 -37h78c54 0 92.167 12.333 114.5 37s33.5 66.667 33.5 126v122
c0 59.333 -11.167 101.166 -33.5 125.499s-60.5 36.5 -114.5 36.5h-78c-54 0 -92.167 -12.167 -114.5 -36.5s-33.5 -66.166 -33.5 -125.499v-122zM489 822l-52 82l-53 -82h-137l101 145c8 10.667 19.333 21.5 34 32.5s33 16.5 55 16.5s40 -5.16699 54 -15.5
s25.333 -21.5 34 -33.5l101 -145h-137z" />
    <glyph glyph-name="Otilde" unicode="&#xd5;" horiz-adv-x="874" 
d="M834 323c0 -50 -7.5 -95.5 -22.5 -136.5s-37.5 -76 -67.5 -105s-68 -51.5 -114 -67.5s-99.333 -24 -160 -24h-66c-60.667 0 -114 8 -160 24s-84 38.5 -114 67.5s-52.5 64 -67.5 105s-22.5 86.5 -22.5 136.5v104c0 50 7.5 95.5 22.5 136.5s37.5 76 67.5 105
s68 51.5 114 67.5s99.333 24 160 24h66c60.667 0 114 -8 160 -24s84 -38.5 114 -67.5s52.5 -64 67.5 -105s22.5 -86.5 22.5 -136.5v-104zM250 315c0 -59.333 11.167 -101.333 33.5 -126s60.5 -37 114.5 -37h78c54 0 92.167 12.333 114.5 37s33.5 66.667 33.5 126v122
c0 59.333 -11.167 101.166 -33.5 125.499s-60.5 36.5 -114.5 36.5h-78c-54 0 -92.167 -12.167 -114.5 -36.5s-33.5 -66.166 -33.5 -125.499v-122zM492 938l18.001 -13.5c4 -3 9 -4.5 15 -4.5c5.33301 0 9.33301 1.83301 12 5.5s4 9.83398 4 18.501v62h99v-76
c0 -35.333 -10.333 -63.166 -31 -83.499s-47 -30.5 -79 -30.5c-22.667 0 -41.5 3.83301 -56.5 11.5s-33.5 19.834 -55.5 36.501l-34 26c-6.66699 5.33301 -12.334 9.66602 -17.001 12.999s-9.66699 5 -15 5c-4.66699 0 -8.66699 -1.83301 -12 -5.5s-5 -9.83398 -5 -18.501
v-62h-99v78c0 36 10.667 63.667 32 83s47.333 29 78 29c22.667 0 41.5 -3.83301 56.5 -11.5s33.5 -19.834 55.5 -36.501z" />
    <glyph glyph-name="Odieresis" unicode="&#xd6;" horiz-adv-x="874" 
d="M834 323c0 -50 -7.5 -95.5 -22.5 -136.5s-37.5 -76 -67.5 -105s-68 -51.5 -114 -67.5s-99.333 -24 -160 -24h-66c-60.667 0 -114 8 -160 24s-84 38.5 -114 67.5s-52.5 64 -67.5 105s-22.5 86.5 -22.5 136.5v104c0 50 7.5 95.5 22.5 136.5s37.5 76 67.5 105
s68 51.5 114 67.5s99.333 24 160 24h66c60.667 0 114 -8 160 -24s84 -38.5 114 -67.5s52.5 -64 67.5 -105s22.5 -86.5 22.5 -136.5v-104zM250 315c0 -59.333 11.167 -101.333 33.5 -126s60.5 -37 114.5 -37h78c54 0 92.167 12.333 114.5 37s33.5 66.667 33.5 126v122
c0 59.333 -11.167 101.166 -33.5 125.499s-60.5 36.5 -114.5 36.5h-78c-54 0 -92.167 -12.167 -114.5 -36.5s-33.5 -66.166 -33.5 -125.499v-122zM606 842h-134v128h134v-128zM401 842h-134v128h134v-128z" />
    <glyph glyph-name="multiply" unicode="&#xd7;" horiz-adv-x="586" 
d="M54 496l113 113l126 -126l122 122l113 -113l-122 -122l126 -126l-113 -113l-126 126l-122 -122l-113 113l122 122z" />
    <glyph glyph-name="Oslash" unicode="&#xd8;" horiz-adv-x="874" 
d="M35 0l86.002 91c-26.667 28.667 -46.834 62.667 -60.501 102s-20.5 82.666 -20.5 129.999v104c0 50 7.5 95.5 22.5 136.5s37.5 76 67.5 105s68 51.5 114 67.5s99.333 24 160 24h66c47.333 0 90.166 -4.83301 128.499 -14.5s71.833 -23.5 100.5 -41.5l44 46h96l-86 -91
c26.667 -28.667 46.834 -62.667 60.501 -102s20.5 -82.666 20.5 -129.999v-104c0 -50 -7.5 -95.5 -22.5 -136.5s-37.5 -76 -67.5 -105s-68 -51.5 -114 -67.5s-99.333 -24 -160 -24h-66c-48 0 -91.333 5 -130 15s-72.334 24.333 -101.001 43l-45 -48h-93zM250.002 315
c0 -15.333 0.833008 -29.501 2.5 -42.501s3.83398 -24.833 6.50098 -35.5l318 337c-11.333 8.66699 -25.333 15 -42 19s-36.334 6 -59.001 6h-78c-54 0 -92.167 -12.167 -114.5 -36.5s-33.5 -66.166 -33.5 -125.499v-122zM398.002 151.999l77.999 -0.000976562
c54 0 92.167 12.333 114.5 37s33.5 66.667 33.5 126v122c0 15.333 -0.666992 29.333 -2 42s-3.33301 24.334 -6 35.001l-320 -337c12 -8.66699 26.333 -15 43 -19s36.334 -6 59.001 -6z" />
    <glyph glyph-name="Ugrave" unicode="&#xd9;" horiz-adv-x="850" 
d="M372 -13c-112 0 -192 24.999 -240 74.999s-72 119.667 -72 209v479h200v-498c0 -36 8.16699 -62.5 24.5 -79.5s44.5 -25.5 84.5 -25.5h114c37.333 0 64.5 8.5 81.5 25.5s25.5 43.5 25.5 79.5v498h200v-479c0 -44.667 -5.16699 -84.667 -15.5 -120
s-27.333 -65.166 -51 -89.499s-55.5 -42.833 -95.5 -55.5s-89.333 -19 -148 -19h-108zM512 821.999h-150l-70 188h155z" />
    <glyph glyph-name="Uacute" unicode="&#xda;" horiz-adv-x="850" 
d="M372 -13c-112 0 -192 24.999 -240 74.999s-72 119.667 -72 209v479h200v-498c0 -36 8.16699 -62.5 24.5 -79.5s44.5 -25.5 84.5 -25.5h114c37.333 0 64.5 8.5 81.5 25.5s25.5 43.5 25.5 79.5v498h200v-479c0 -44.667 -5.16699 -84.667 -15.5 -120
s-27.333 -65.166 -51 -89.499s-55.5 -42.833 -95.5 -55.5s-89.333 -19 -148 -19h-108zM363 821.999l65 188h155l-70 -188h-150z" />
    <glyph glyph-name="Ucircumflex" unicode="&#xdb;" horiz-adv-x="850" 
d="M372 -13c-112 0 -192 24.999 -240 74.999s-72 119.667 -72 209v479h200v-498c0 -36 8.16699 -62.5 24.5 -79.5s44.5 -25.5 84.5 -25.5h114c37.333 0 64.5 8.5 81.5 25.5s25.5 43.5 25.5 79.5v498h200v-479c0 -44.667 -5.16699 -84.667 -15.5 -120
s-27.333 -65.166 -51 -89.499s-55.5 -42.833 -95.5 -55.5s-89.333 -19 -148 -19h-108zM487 821.999l-52 82l-53 -82h-137l101 145c8 10.667 19.333 21.5 34 32.5s33 16.5 55 16.5s40 -5.16699 54 -15.5s25.333 -21.5 34 -33.5l101 -145h-137z" />
    <glyph glyph-name="Udieresis" unicode="&#xdc;" horiz-adv-x="850" 
d="M372 -13c-112 0 -192 24.999 -240 74.999s-72 119.667 -72 209v479h200v-498c0 -36 8.16699 -62.5 24.5 -79.5s44.5 -25.5 84.5 -25.5h114c37.333 0 64.5 8.5 81.5 25.5s25.5 43.5 25.5 79.5v498h200v-479c0 -44.667 -5.16699 -84.667 -15.5 -120
s-27.333 -65.166 -51 -89.499s-55.5 -42.833 -95.5 -55.5s-89.333 -19 -148 -19h-108zM604 841.999h-134v128h134v-128zM399 841.999h-134v128h134v-128z" />
    <glyph glyph-name="Yacute" unicode="&#xdd;" horiz-adv-x="800" 
d="M300 0v260.999l-290 489h224l145 -260c5.33301 -10 12.833 -15.167 22.5 -15.5s17.5 4.83398 23.5 15.501l156 260h209l-290 -489v-261h-200zM328 821.999l65 188h155l-70 -188h-150z" />
    <glyph glyph-name="Thorn" unicode="&#xde;" horiz-adv-x="778" 
d="M65 750h200v-100h175c103.333 0 179.666 -16.333 228.999 -49s74 -87 74 -163v-74c0 -81.333 -24.667 -137.333 -74 -168s-125.666 -46 -228.999 -46h-175v-150h-200v750zM446 503h-181v-206h181c36 0 61.167 6.5 75.5 19.5s21.5 30.833 21.5 53.5v59
c0 23.333 -7.16699 41.5 -21.5 54.5s-39.5 19.5 -75.5 19.5z" />
    <glyph glyph-name="germandbls" unicode="&#xdf;" horiz-adv-x="762" 
d="M323 770l133.004 0.00390625c91.333 0 157.833 -16.5 199.5 -49.5s62.5 -81.5 62.5 -145.5v-33c0 -28.667 -7.33301 -55.334 -22 -80.001s-41.334 -43.334 -80.001 -56.001c42 -12 71.833 -32 89.5 -60s26.5 -62.333 26.5 -103v-46c0 -38.667 -6 -70.834 -18 -96.501
s-29.833 -45.834 -53.5 -60.501s-53.334 -25 -89.001 -31s-76.5 -9 -122.5 -9h-141v160h151c39.333 0 64.666 5.33301 75.999 16s17 26 17 46v26c0 14.667 -6.5 27.167 -19.5 37.5s-36.5 15.5 -70.5 15.5h-134v170h134c28 0 47.167 5.5 57.5 16.5s15.5 26.833 15.5 47.5v18
c0 19.333 -5.5 34.333 -16.5 45s-28.833 16 -53.5 16h-151c-23.333 0 -41.5 -6 -54.5 -18s-19.5 -33.667 -19.5 -65v-531h-190v519c0 87.333 23.667 151 71 191s114.666 60 201.999 60z" />
    <glyph glyph-name="agrave" unicode="&#xe0;" horiz-adv-x="685" 
d="M627 325v-325h-411c-60 0 -106 13 -138 39s-48 60 -48 102c0 46 15.667 82.833 47 110.5s69 56.5 113 86.5l170 117h-316v145h263c114.667 0 196.667 -24.167 246 -72.5s74 -115.833 74 -202.5zM270 145h177v199l-181 -141c-11.333 -8.66699 -19.333 -15.167 -24 -19.5
s-7 -9.83301 -7 -16.5c0 -7.33301 2.66699 -12.833 8 -16.5s14.333 -5.5 27 -5.5zM432 672h-150l-70 188h155z" />
    <glyph glyph-name="aacute" unicode="&#xe1;" horiz-adv-x="685" 
d="M627 325v-325h-411c-60 0 -106 13 -138 39s-48 60 -48 102c0 46 15.667 82.833 47 110.5s69 56.5 113 86.5l170 117h-316v145h263c114.667 0 196.667 -24.167 246 -72.5s74 -115.833 74 -202.5zM270 145h177v199l-181 -141c-11.333 -8.66699 -19.333 -15.167 -24 -19.5
s-7 -9.83301 -7 -16.5c0 -7.33301 2.66699 -12.833 8 -16.5s14.333 -5.5 27 -5.5zM283 672l65 188h155l-70 -188h-150z" />
    <glyph glyph-name="acircumflex" unicode="&#xe2;" horiz-adv-x="685" 
d="M627 325v-325h-411c-60 0 -106 13 -138 39s-48 60 -48 102c0 46 15.667 82.833 47 110.5s69 56.5 113 86.5l170 117h-316v145h263c114.667 0 196.667 -24.167 246 -72.5s74 -115.833 74 -202.5zM270 145h177v199l-181 -141c-11.333 -8.66699 -19.333 -15.167 -24 -19.5
s-7 -9.83301 -7 -16.5c0 -7.33301 2.66699 -12.833 8 -16.5s14.333 -5.5 27 -5.5zM407 672l-52 82l-53 -82h-137l101 145c8 10.667 19.333 21.5 34 32.5s33 16.5 55 16.5s40 -5.16699 54 -15.5s25.333 -21.5 34 -33.5l101 -145h-137z" />
    <glyph glyph-name="atilde" unicode="&#xe3;" horiz-adv-x="685" 
d="M627 325v-325h-411c-60 0 -106 13 -138 39s-48 60 -48 102c0 46 15.667 82.833 47 110.5s69 56.5 113 86.5l170 117h-316v145h263c114.667 0 196.667 -24.167 246 -72.5s74 -115.833 74 -202.5zM270 145h177v199l-181 -141c-11.333 -8.66699 -19.333 -15.167 -24 -19.5
s-7 -9.83301 -7 -16.5c0 -7.33301 2.66699 -12.833 8 -16.5s14.333 -5.5 27 -5.5zM410 788l18.001 -13.5c4 -3 9 -4.5 15 -4.5c5.33301 0 9.33301 1.83301 12 5.5s4 9.83398 4 18.501v62h99v-76c0 -35.333 -10.333 -63.166 -31 -83.499s-47 -30.5 -79 -30.5
c-22.667 0 -41.5 3.83301 -56.5 11.5s-33.5 19.834 -55.5 36.501l-34 26c-6.66699 5.33301 -12.334 9.66602 -17.001 12.999s-9.66699 5 -15 5c-4.66699 0 -8.66699 -1.83301 -12 -5.5s-5 -9.83398 -5 -18.501v-62h-99v78c0 36 10.667 63.667 32 83s47.333 29 78 29
c22.667 0 41.5 -3.83301 56.5 -11.5s33.5 -19.834 55.5 -36.501z" />
    <glyph glyph-name="adieresis" unicode="&#xe4;" horiz-adv-x="685" 
d="M627 325v-325h-411c-60 0 -106 13 -138 39s-48 60 -48 102c0 46 15.667 82.833 47 110.5s69 56.5 113 86.5l170 117h-316v145h263c114.667 0 196.667 -24.167 246 -72.5s74 -115.833 74 -202.5zM270 145h177v199l-181 -141c-11.333 -8.66699 -19.333 -15.167 -24 -19.5
s-7 -9.83301 -7 -16.5c0 -7.33301 2.66699 -12.833 8 -16.5s14.333 -5.5 27 -5.5zM524 692h-134v128h134v-128zM319 692h-134v128h134v-128z" />
    <glyph glyph-name="aring" unicode="&#xe5;" horiz-adv-x="685" 
d="M627 325v-325h-411c-60 0 -106 13 -138 39s-48 60 -48 102c0 46 15.667 82.833 47 110.5s69 56.5 113 86.5l170 117h-316v145h263c114.667 0 196.667 -24.167 246 -72.5s74 -115.833 74 -202.5zM270 145h177v199l-181 -141c-11.333 -8.66699 -19.333 -15.167 -24 -19.5
s-7 -9.83301 -7 -16.5c0 -7.33301 2.66699 -12.833 8 -16.5s14.333 -5.5 27 -5.5zM247 754v24c0 26 8.5 47 25.5 63s37.833 24 62.5 24h39c24.667 0 45.5 -8 62.5 -24s25.5 -37 25.5 -63v-24c0 -26 -8.5 -47 -25.5 -63s-37.833 -24 -62.5 -24h-39
c-24.667 0 -45.5 8 -62.5 24s-25.5 37 -25.5 63zM314 776v-20c0 -10.667 2.5 -18.5 7.5 -23.5s11.833 -7.5 20.5 -7.5h25c8.66699 0 15.667 2.5 21 7.5s8 12.833 8 23.5v20c0 10.667 -2.66699 18.5 -8 23.5s-12.333 7.5 -21 7.5h-25c-8.66699 0 -15.5 -2.5 -20.5 -7.5
s-7.5 -12.833 -7.5 -23.5z" />
    <glyph glyph-name="ae" unicode="&#xe6;" horiz-adv-x="1120" 
d="M773 0c-54.667 0 -99.5039 6.66602 -134.504 19.999s-63.5 31.333 -85.5 54c-18 -22 -42.167 -39.833 -72.5 -53.5s-64.5 -20.5 -102.5 -20.5h-162c-60 0 -106 13 -138 39s-48 60 -48 102c0 46 15.5 83.167 46.5 111.5s68.833 56.833 113.5 85.5l183 117h-329v145h263
c59.333 0 107.333 -5.5 144 -16.5s66.334 -28.167 89.001 -51.5c22.667 26 51.334 45.167 86.001 57.5s77 18.5 127 18.5h40c56 0 102.667 -6.66699 140 -20s66.833 -32.166 88.5 -56.499s36.834 -53.5 45.501 -87.5s13 -71.667 13 -113v-87h-429v-4
c0 -38 8.33301 -63.333 25 -76s45.334 -19 86.001 -19h304v-145h-293zM814.996 473.999h-78c-32 0 -54.333 -7 -67 -21s-19 -37.333 -19 -70v-13h249v13c0 32.667 -6.5 56 -19.5 70s-34.833 21 -65.5 21zM249.996 144.999l148 0.000976562c20.667 0 35.667 5.5 45 16.5
s14 25.5 14 43.5v147l-211 -149c-11.333 -8 -19.333 -14.333 -24 -19s-7 -10.334 -7 -17.001c0 -7.33301 2.66699 -12.833 8 -16.5s14.333 -5.5 27 -5.5z" />
    <glyph glyph-name="ccedilla" unicode="&#xe7;" horiz-adv-x="621" 
d="M346 455c-39.333 0 -68.166 -8.83301 -86.499 -26.5s-27.5 -44.5 -27.5 -80.5v-103c0 -40 9.16699 -66.667 27.5 -80s47.166 -20 86.499 -20h225v-145h-231c-107.333 -0 -184.666 23.333 -231.999 70s-71 111 -71 193v73c0 82 23.667 146.5 71 193.5
s124.666 70.5 231.999 70.5h231v-145h-225zM438 20l-68 -198h-155l73 198h150z" />
    <glyph glyph-name="egrave" unicode="&#xe8;" horiz-adv-x="699" 
d="M659 244l-429.003 -0.000976562v-4c0 -38 8.33301 -63.333 25 -76s45.334 -19 86.001 -19h304v-145h-293c-58.667 0 -108.167 6.5 -148.5 19.5s-72.666 31.333 -96.999 55s-42 52.167 -53 85.5s-16.5 70 -16.5 110v76c0 79.333 23 142.833 69 190.5
s121.333 71.5 226 71.5h40c56 0 102.667 -6.66699 140 -20s66.833 -32.166 88.5 -56.499s36.834 -53.5 45.501 -87.5s13 -71.667 13 -113v-87zM393.997 473.999h-78c-32 0 -54.333 -7 -67 -21s-19 -37.333 -19 -70v-13h249v13c0 32.667 -6.5 56 -19.5 70
s-34.833 21 -65.5 21zM427.997 671.999h-150l-70 188h155z" />
    <glyph glyph-name="eacute" unicode="&#xe9;" horiz-adv-x="699" 
d="M659 244l-429.003 -0.000976562v-4c0 -38 8.33301 -63.333 25 -76s45.334 -19 86.001 -19h304v-145h-293c-58.667 0 -108.167 6.5 -148.5 19.5s-72.666 31.333 -96.999 55s-42 52.167 -53 85.5s-16.5 70 -16.5 110v76c0 79.333 23 142.833 69 190.5
s121.333 71.5 226 71.5h40c56 0 102.667 -6.66699 140 -20s66.833 -32.166 88.5 -56.499s36.834 -53.5 45.501 -87.5s13 -71.667 13 -113v-87zM393.997 473.999h-78c-32 0 -54.333 -7 -67 -21s-19 -37.333 -19 -70v-13h249v13c0 32.667 -6.5 56 -19.5 70
s-34.833 21 -65.5 21zM279.997 671.999l65 188h155l-70 -188h-150z" />
    <glyph glyph-name="ecircumflex" unicode="&#xea;" horiz-adv-x="699" 
d="M659 244l-429.003 -0.000976562v-4c0 -38 8.33301 -63.333 25 -76s45.334 -19 86.001 -19h304v-145h-293c-58.667 0 -108.167 6.5 -148.5 19.5s-72.666 31.333 -96.999 55s-42 52.167 -53 85.5s-16.5 70 -16.5 110v76c0 79.333 23 142.833 69 190.5
s121.333 71.5 226 71.5h40c56 0 102.667 -6.66699 140 -20s66.833 -32.166 88.5 -56.499s36.834 -53.5 45.501 -87.5s13 -71.667 13 -113v-87zM393.997 473.999h-78c-32 0 -54.333 -7 -67 -21s-19 -37.333 -19 -70v-13h249v13c0 32.667 -6.5 56 -19.5 70
s-34.833 21 -65.5 21zM403.997 671.999l-52 82l-53 -82h-137l101 145c8 10.667 19.333 21.5 34 32.5s33 16.5 55 16.5s40 -5.16699 54 -15.5s25.333 -21.5 34 -33.5l101 -145h-137z" />
    <glyph glyph-name="edieresis" unicode="&#xeb;" horiz-adv-x="699" 
d="M659 244l-429.003 -0.000976562v-4c0 -38 8.33301 -63.333 25 -76s45.334 -19 86.001 -19h304v-145h-293c-58.667 0 -108.167 6.5 -148.5 19.5s-72.666 31.333 -96.999 55s-42 52.167 -53 85.5s-16.5 70 -16.5 110v76c0 79.333 23 142.833 69 190.5
s121.333 71.5 226 71.5h40c56 0 102.667 -6.66699 140 -20s66.833 -32.166 88.5 -56.499s36.834 -53.5 45.501 -87.5s13 -71.667 13 -113v-87zM393.997 473.999h-78c-32 0 -54.333 -7 -67 -21s-19 -37.333 -19 -70v-13h249v13c0 32.667 -6.5 56 -19.5 70
s-34.833 21 -65.5 21zM520.997 691.999h-134v128h134v-128zM315.997 691.999h-134v128h134v-128z" />
    <glyph glyph-name="igrave" unicode="&#xec;" horiz-adv-x="330" 
d="M70 0v600h190v-600h-190zM241 672h-150l-70 188h155z" />
    <glyph glyph-name="iacute" unicode="&#xed;" horiz-adv-x="330" 
d="M70 0v600h190v-600h-190zM93 672l65 188h155l-70 -188h-150z" />
    <glyph glyph-name="icircumflex" unicode="&#xee;" horiz-adv-x="330" 
d="M70 0v600h190v-600h-190zM217 672l-52 82l-53 -82h-137l101 145c8 10.667 19.333 21.5 34 32.5s33 16.5 55 16.5s40 -5.16699 54 -15.5s25.333 -21.5 34 -33.5l101 -145h-137z" />
    <glyph glyph-name="idieresis" unicode="&#xef;" horiz-adv-x="330" 
d="M70 0v600h190v-600h-190zM334 692h-134v128h134v-128zM129 692h-134v128h134v-128z" />
    <glyph glyph-name="eth" unicode="&#xf0;" horiz-adv-x="719" 
d="M210 594l108.001 31.002l-157 125h260l85 -70l173 50v-80l-102 -30c21.333 -18.667 38.666 -36.167 51.999 -52.5s23.666 -33.333 30.999 -51s12.333 -37.167 15 -58.5s4 -45.666 4 -72.999v-131c0 -94 -24.333 -160.667 -73 -200s-129.667 -59 -243 -59h-49
c-106 0 -180.667 16.667 -224 50s-65 85.666 -65 156.999v64c0 73.333 21.833 125.666 65.5 156.999s116.834 47 219.501 47h171c-2.66699 10.667 -8.5 21.667 -17.5 33s-23.167 24.666 -42.5 39.999l-30 24l-181 -53v80zM379.001 138.002c40 0 67.5 6.50098 82.5 19.501
s22.5 38.833 22.5 77.5v92h-159c-41.333 0 -69.833 -5 -85.5 -15s-23.5 -27.667 -23.5 -53v-52c0 -22.667 6.66699 -39.834 20 -51.501s39.333 -17.5 78 -17.5h65z" />
    <glyph glyph-name="ntilde" unicode="&#xf1;" horiz-adv-x="737" 
d="M58 0v600h372c87.333 0 150.666 -22 189.999 -66s59 -103.667 59 -179v-355h-190v360c0 30.667 -5.16699 52.5 -15.5 65.5s-30.166 19.5 -59.499 19.5h-166v-445h-190zM423 788l18.001 -13.5c4 -3 9 -4.5 15 -4.5c5.33301 0 9.33301 1.83301 12 5.5s4 9.83398 4 18.501
v62h99v-76c0 -35.333 -10.333 -63.166 -31 -83.499s-47 -30.5 -79 -30.5c-22.667 0 -41.5 3.83301 -56.5 11.5s-33.5 19.834 -55.5 36.501l-34 26c-6.66699 5.33301 -12.334 9.66602 -17.001 12.999s-9.66699 5 -15 5c-4.66699 0 -8.66699 -1.83301 -12 -5.5
s-5 -9.83398 -5 -18.501v-62h-99v78c0 36 10.667 63.667 32 83s47.333 29 78 29c22.667 0 41.5 -3.83301 56.5 -11.5s33.5 -19.834 55.5 -36.501z" />
    <glyph glyph-name="ograve" unicode="&#xf2;" horiz-adv-x="727" 
d="M690 336v-72c0 -83.333 -25.167 -149.833 -75.5 -199.5s-122.166 -74.5 -215.499 -74.5h-70c-93.333 0 -165.333 24.833 -216 74.5s-76 116.167 -76 199.5v72c0 83.333 25.333 149.833 76 199.5s122.667 74.5 216 74.5h70c93.333 0 165.166 -24.833 215.499 -74.5
s75.5 -116.167 75.5 -199.5zM495 352c0 38.667 -7.16699 67.5 -21.5 86.5s-39.833 28.5 -76.5 28.5h-66c-36.667 0 -62.334 -9.5 -77.001 -28.5s-22 -47.833 -22 -86.5v-103c0 -39.333 7.33301 -68.5 22 -87.5s40.334 -28.5 77.001 -28.5h66c36.667 0 62.167 9.5 76.5 28.5
s21.5 48.167 21.5 87.5v103zM440 672h-150l-70 188h155z" />
    <glyph glyph-name="oacute" unicode="&#xf3;" horiz-adv-x="727" 
d="M690 336v-72c0 -83.333 -25.167 -149.833 -75.5 -199.5s-122.166 -74.5 -215.499 -74.5h-70c-93.333 0 -165.333 24.833 -216 74.5s-76 116.167 -76 199.5v72c0 83.333 25.333 149.833 76 199.5s122.667 74.5 216 74.5h70c93.333 0 165.166 -24.833 215.499 -74.5
s75.5 -116.167 75.5 -199.5zM495 352c0 38.667 -7.16699 67.5 -21.5 86.5s-39.833 28.5 -76.5 28.5h-66c-36.667 0 -62.334 -9.5 -77.001 -28.5s-22 -47.833 -22 -86.5v-103c0 -39.333 7.33301 -68.5 22 -87.5s40.334 -28.5 77.001 -28.5h66c36.667 0 62.167 9.5 76.5 28.5
s21.5 48.167 21.5 87.5v103zM292 672l65 188h155l-70 -188h-150z" />
    <glyph glyph-name="ocircumflex" unicode="&#xf4;" horiz-adv-x="727" 
d="M690 336v-72c0 -83.333 -25.167 -149.833 -75.5 -199.5s-122.166 -74.5 -215.499 -74.5h-70c-93.333 0 -165.333 24.833 -216 74.5s-76 116.167 -76 199.5v72c0 83.333 25.333 149.833 76 199.5s122.667 74.5 216 74.5h70c93.333 0 165.166 -24.833 215.499 -74.5
s75.5 -116.167 75.5 -199.5zM495 352c0 38.667 -7.16699 67.5 -21.5 86.5s-39.833 28.5 -76.5 28.5h-66c-36.667 0 -62.334 -9.5 -77.001 -28.5s-22 -47.833 -22 -86.5v-103c0 -39.333 7.33301 -68.5 22 -87.5s40.334 -28.5 77.001 -28.5h66c36.667 0 62.167 9.5 76.5 28.5
s21.5 48.167 21.5 87.5v103zM416 672l-52 82l-53 -82h-137l101 145c8 10.667 19.333 21.5 34 32.5s33 16.5 55 16.5s40 -5.16699 54 -15.5s25.333 -21.5 34 -33.5l101 -145h-137z" />
    <glyph glyph-name="otilde" unicode="&#xf5;" horiz-adv-x="727" 
d="M690 336v-72c0 -83.333 -25.167 -149.833 -75.5 -199.5s-122.166 -74.5 -215.499 -74.5h-70c-93.333 0 -165.333 24.833 -216 74.5s-76 116.167 -76 199.5v72c0 83.333 25.333 149.833 76 199.5s122.667 74.5 216 74.5h70c93.333 0 165.166 -24.833 215.499 -74.5
s75.5 -116.167 75.5 -199.5zM495 352c0 38.667 -7.16699 67.5 -21.5 86.5s-39.833 28.5 -76.5 28.5h-66c-36.667 0 -62.334 -9.5 -77.001 -28.5s-22 -47.833 -22 -86.5v-103c0 -39.333 7.33301 -68.5 22 -87.5s40.334 -28.5 77.001 -28.5h66c36.667 0 62.167 9.5 76.5 28.5
s21.5 48.167 21.5 87.5v103zM418 788l18.001 -13.5c4 -3 9 -4.5 15 -4.5c5.33301 0 9.33301 1.83301 12 5.5s4 9.83398 4 18.501v62h99v-76c0 -35.333 -10.333 -63.166 -31 -83.499s-47 -30.5 -79 -30.5c-22.667 0 -41.5 3.83301 -56.5 11.5s-33.5 19.834 -55.5 36.501
l-34 26c-6.66699 5.33301 -12.334 9.66602 -17.001 12.999s-9.66699 5 -15 5c-4.66699 0 -8.66699 -1.83301 -12 -5.5s-5 -9.83398 -5 -18.501v-62h-99v78c0 36 10.667 63.667 32 83s47.333 29 78 29c22.667 0 41.5 -3.83301 56.5 -11.5s33.5 -19.834 55.5 -36.501z" />
    <glyph glyph-name="odieresis" unicode="&#xf6;" horiz-adv-x="727" 
d="M690 336v-72c0 -83.333 -25.167 -149.833 -75.5 -199.5s-122.166 -74.5 -215.499 -74.5h-70c-93.333 0 -165.333 24.833 -216 74.5s-76 116.167 -76 199.5v72c0 83.333 25.333 149.833 76 199.5s122.667 74.5 216 74.5h70c93.333 0 165.166 -24.833 215.499 -74.5
s75.5 -116.167 75.5 -199.5zM495 352c0 38.667 -7.16699 67.5 -21.5 86.5s-39.833 28.5 -76.5 28.5h-66c-36.667 0 -62.334 -9.5 -77.001 -28.5s-22 -47.833 -22 -86.5v-103c0 -39.333 7.33301 -68.5 22 -87.5s40.334 -28.5 77.001 -28.5h66c36.667 0 62.167 9.5 76.5 28.5
s21.5 48.167 21.5 87.5v103zM533 692h-134v128h134v-128zM328 692h-134v128h134v-128z" />
    <glyph glyph-name="divide" unicode="&#xf7;" horiz-adv-x="546" 
d="M193 525v170h160v-170h-160zM50 295v160h446v-160h-446zM193 55v170h160v-170h-160z" />
    <glyph glyph-name="oslash" unicode="&#xf8;" horiz-adv-x="727" 
d="M35 0l69 73.0029c-22 23.333 -38.667 51.166 -50 83.499s-17 68.166 -17 107.499v72c0 83.333 25.333 149.833 76 199.5s122.667 74.5 216 74.5h70c33.333 0 64.166 -3.33301 92.499 -10s53.833 -16.334 76.5 -29.001l27 29h96l-68 -72c22 -23.333 38.667 -51.333 50 -84
s17 -68.667 17 -108v-72c0 -83.333 -25.167 -149.833 -75.5 -199.5s-122.166 -74.5 -215.499 -74.5h-70c-34 0 -65.5 3.5 -94.5 10.5s-54.833 17.167 -77.5 30.5l-29 -31h-93zM232 249.003c0 -6.66699 0.166992 -13 0.5 -19s0.833008 -11.667 1.5 -17l224 240
c-7.33301 4.66699 -16.166 8.16699 -26.499 10.5s-21.833 3.5 -34.5 3.5h-66c-36.667 0 -62.334 -9.5 -77.001 -28.5s-22 -47.833 -22 -86.5v-103zM495 352.003c0 6.66699 -0.166016 13.168 -0.499023 19.501s-0.833008 12.166 -1.5 17.499l-225 -240
c7.33301 -5.33301 16.166 -9.33301 26.499 -12s22.5 -4 36.5 -4h66c36.667 0 62.167 9.5 76.5 28.5s21.5 48.167 21.5 87.5v103z" />
    <glyph glyph-name="ugrave" unicode="&#xf9;" horiz-adv-x="737" 
d="M489 155v445h190v-600h-372c-87.333 0 -150.666 22 -189.999 66s-59 103.667 -59 179v355h190v-360c0 -30.667 5.16699 -52.5 15.5 -65.5s30.166 -19.5 59.499 -19.5h166zM445 672h-150l-70 188h155z" />
    <glyph glyph-name="uacute" unicode="&#xfa;" horiz-adv-x="737" 
d="M489 155v445h190v-600h-372c-87.333 0 -150.666 22 -189.999 66s-59 103.667 -59 179v355h190v-360c0 -30.667 5.16699 -52.5 15.5 -65.5s30.166 -19.5 59.499 -19.5h166zM297 672l65 188h155l-70 -188h-150z" />
    <glyph glyph-name="ucircumflex" unicode="&#xfb;" horiz-adv-x="737" 
d="M489 155v445h190v-600h-372c-87.333 0 -150.666 22 -189.999 66s-59 103.667 -59 179v355h190v-360c0 -30.667 5.16699 -52.5 15.5 -65.5s30.166 -19.5 59.499 -19.5h166zM421 672l-52 82l-53 -82h-137l101 145c8 10.667 19.333 21.5 34 32.5s33 16.5 55 16.5
s40 -5.16699 54 -15.5s25.333 -21.5 34 -33.5l101 -145h-137z" />
    <glyph glyph-name="udieresis" unicode="&#xfc;" horiz-adv-x="737" 
d="M489 155v445h190v-600h-372c-87.333 0 -150.666 22 -189.999 66s-59 103.667 -59 179v355h190v-360c0 -30.667 5.16699 -52.5 15.5 -65.5s30.166 -19.5 59.499 -19.5h166zM538 692h-134v128h134v-128zM333 692h-134v128h134v-128z" />
    <glyph glyph-name="yacute" unicode="&#xfd;" horiz-adv-x="720" 
d="M351 241c2.66699 -7.33301 6 -12.165 10 -14.498s7.66699 -3.5 11 -3.5c4 0 7.5 1.16699 10.5 3.5s5.83301 7.16602 8.5 14.499l117 359h202l-215 -582c-18 -48.667 -48.5 -88.834 -91.5 -120.501s-100.5 -47.5 -172.5 -47.5h-164v159h181c24 0 42.167 5.5 54.5 16.5
s22.833 29.167 31.5 54.5l7 20h-48c-27.333 0 -49.833 6 -67.5 18s-31.5 30.333 -41.5 55l-174 427h209zM288 672.001l65 188h155l-70 -188h-150z" />
    <glyph glyph-name="thorn" unicode="&#xfe;" horiz-adv-x="758" 
d="M58 -150v899.998h190v-150h236c74 0 132 -24.667 174 -74s63 -114.666 63 -195.999v-60c0 -81.333 -21 -146.666 -63 -195.999s-100 -74 -174 -74h-236v-150h-190zM419 451.998h-171v-304h171c40.667 0 68.667 9.33301 84 28s23 47.667 23 87v79
c0 39.333 -7.66699 67.5 -23 84.5s-43.333 25.5 -84 25.5z" />
    <glyph glyph-name="ydieresis" unicode="&#xff;" horiz-adv-x="720" 
d="M351 241c2.66699 -7.33301 6 -12.165 10 -14.498s7.66699 -3.5 11 -3.5c4 0 7.5 1.16699 10.5 3.5s5.83301 7.16602 8.5 14.499l117 359h202l-215 -582c-18 -48.667 -48.5 -88.834 -91.5 -120.501s-100.5 -47.5 -172.5 -47.5h-164v159h181c24 0 42.167 5.5 54.5 16.5
s22.833 29.167 31.5 54.5l7 20h-48c-27.333 0 -49.833 6 -67.5 18s-31.5 30.333 -41.5 55l-174 427h209zM529 692.001h-134v128h134v-128zM324 692.001h-134v128h134v-128z" />
    <glyph glyph-name="Amacron" unicode="&#x100;" horiz-adv-x="890" 
d="M677 0l-59 157h-351l-60 -157h-202l249 605c19.333 47.333 43.166 85.333 71.499 114s67.5 43 117.5 43c52 0 92.833 -14.167 122.5 -42.5s53.834 -65.833 72.501 -112.5l247 -607h-208zM426 569l-99 -257.002h232l-97 257c-2 4.66699 -4.16699 8.83398 -6.5 12.501
s-6.16602 5.5 -11.499 5.5c-4.66699 0 -8.33398 -1.66699 -11.001 -5s-5 -7.66602 -7 -12.999zM575 846.998h-260v98h260v-98z" />
    <glyph glyph-name="amacron" unicode="&#x101;" horiz-adv-x="685" 
d="M627 325v-325h-411c-60 0 -106 13 -138 39s-48 60 -48 102c0 46 15.667 82.833 47 110.5s69 56.5 113 86.5l170 117h-316v145h263c114.667 0 196.667 -24.167 246 -72.5s74 -115.833 74 -202.5zM270 145h177v199l-181 -141c-11.333 -8.66699 -19.333 -15.167 -24 -19.5
s-7 -9.83301 -7 -16.5c0 -7.33301 2.66699 -12.833 8 -16.5s14.333 -5.5 27 -5.5zM485 697h-260v98h260v-98z" />
    <glyph glyph-name="Abreve" unicode="&#x102;" horiz-adv-x="890" 
d="M677 0l-59 157h-351l-60 -157h-202l249 605c19.333 47.333 43.166 85.333 71.499 114s67.5 43 117.5 43c52 0 92.833 -14.167 122.5 -42.5s53.834 -65.833 72.501 -112.5l247 -607h-208zM426 569l-99 -257.002h232l-97 257c-2 4.66699 -4.16699 8.83398 -6.5 12.501
s-6.16602 5.5 -11.499 5.5c-4.66699 0 -8.33398 -1.66699 -11.001 -5s-5 -7.66602 -7 -12.999zM279 979.998h98v-51c0 -10.667 3.16699 -18.834 9.5 -24.501s14.5 -8.5 24.5 -8.5h60c10 0 18.167 2.83301 24.5 8.5s9.5 13.834 9.5 24.501v51h96v-84
c0 -24 -9.5 -43.833 -28.5 -59.5s-40.833 -23.5 -65.5 -23.5h-133c-26.667 0 -49.167 7.83301 -67.5 23.5s-27.5 35.5 -27.5 59.5v84z" />
    <glyph glyph-name="abreve" unicode="&#x103;" horiz-adv-x="685" 
d="M627 325v-325h-411c-60 0 -106 13 -138 39s-48 60 -48 102c0 46 15.667 82.833 47 110.5s69 56.5 113 86.5l170 117h-316v145h263c114.667 0 196.667 -24.167 246 -72.5s74 -115.833 74 -202.5zM270 145h177v199l-181 -141c-11.333 -8.66699 -19.333 -15.167 -24 -19.5
s-7 -9.83301 -7 -16.5c0 -7.33301 2.66699 -12.833 8 -16.5s14.333 -5.5 27 -5.5zM188 830h98v-51c0 -10.667 3.16699 -18.834 9.5 -24.501s14.5 -8.5 24.5 -8.5h60c10 0 18.167 2.83301 24.5 8.5s9.5 13.834 9.5 24.501v51h96v-84c0 -24 -9.5 -43.833 -28.5 -59.5
s-40.833 -23.5 -65.5 -23.5h-133c-26.667 0 -49.167 7.83301 -67.5 23.5s-27.5 35.5 -27.5 59.5v84z" />
    <glyph glyph-name="Aogonek" unicode="&#x104;" horiz-adv-x="890" 
d="M677 0l-59 157h-351l-60 -157h-202l249 605c19.333 47.333 43.166 85.333 71.499 114s67.5 43 117.5 43c52 0 92.833 -14.167 122.5 -42.5s53.834 -65.833 72.501 -112.5l247 -607h-208zM426 569l-99 -257.002h232l-97 257c-2 4.66699 -4.16699 8.83398 -6.5 12.501
s-6.16602 5.5 -11.499 5.5c-4.66699 0 -8.33398 -1.66699 -11.001 -5s-5 -7.66602 -7 -12.999zM773 -0.00195312h112l-44 -58c-6 -7.33301 -10.667 -13.5 -14 -18.5s-5 -10.5 -5 -16.5s2.33301 -10.833 7 -14.5s11.667 -5.5 21 -5.5h35v-77h-85
c-36.667 0 -63.167 7 -79.5 21s-24.5 31.333 -24.5 52c0 12.667 3.16699 25.667 9.5 39s17.833 28.333 34.5 45z" />
    <glyph glyph-name="aogonek" unicode="&#x105;" horiz-adv-x="685" 
d="M627 325v-325h-411c-60 0 -106 13 -138 39s-48 60 -48 102c0 46 15.667 82.833 47 110.5s69 56.5 113 86.5l170 117h-316v145h263c114.667 0 196.667 -24.167 246 -72.5s74 -115.833 74 -202.5zM270 145h177v199l-181 -141c-11.333 -8.66699 -19.333 -15.167 -24 -19.5
s-7 -9.83301 -7 -16.5c0 -7.33301 2.66699 -12.833 8 -16.5s14.333 -5.5 27 -5.5zM515 0h112l-44 -58c-6 -7.33301 -10.667 -13.5 -14 -18.5s-5 -10.5 -5 -16.5s2.33301 -10.833 7 -14.5s11.667 -5.5 21 -5.5h35v-77h-85c-36.667 0 -63.167 7 -79.5 21
s-24.5 31.333 -24.5 52c0 12.667 3.16699 25.667 9.5 39s17.833 28.333 34.5 45z" />
    <glyph glyph-name="Cacute" unicode="&#x106;" horiz-adv-x="721" 
d="M691 165v-165.004h-290c-59.333 0 -111.666 7.5 -156.999 22.5s-83 36.333 -113 64s-52.667 61.334 -68 101.001s-23 83.834 -23 132.501v110c0 48.667 7.66699 92.834 23 132.501s38 73.334 68 101.001s67.667 49 113 64s97.666 22.5 156.999 22.5h285v-165h-275
c-62 0 -104.333 -12.167 -127 -36.5s-34 -64.5 -34 -120.5v-106c0 -56 11.667 -96.167 35 -120.5s67 -36.5 131 -36.5h275zM339 821.996l65 188h155l-70 -188h-150z" />
    <glyph glyph-name="cacute" unicode="&#x107;" horiz-adv-x="621" 
d="M346 455c-39.333 0 -68.166 -8.83301 -86.499 -26.5s-27.5 -44.5 -27.5 -80.5v-103c0 -40 9.16699 -66.667 27.5 -80s47.166 -20 86.499 -20h225v-145h-231c-107.333 -0 -184.666 23.333 -231.999 70s-71 111 -71 193v73c0 82 23.667 146.5 71 193.5
s124.666 70.5 231.999 70.5h231v-145h-225zM279 672l65 188h155l-70 -188h-150z" />
    <glyph glyph-name="Cdotaccent" unicode="&#x10a;" horiz-adv-x="721" 
d="M691 165v-165.004h-290c-59.333 0 -111.666 7.5 -156.999 22.5s-83 36.333 -113 64s-52.667 61.334 -68 101.001s-23 83.834 -23 132.501v110c0 48.667 7.66699 92.834 23 132.501s38 73.334 68 101.001s67.667 49 113 64s97.666 22.5 156.999 22.5h285v-165h-275
c-62 0 -104.333 -12.167 -127 -36.5s-34 -64.5 -34 -120.5v-106c0 -56 11.667 -96.167 35 -120.5s67 -36.5 131 -36.5h275zM480 811.996h-139v128h139v-128z" />
    <glyph glyph-name="cdotaccent" unicode="&#x10b;" horiz-adv-x="621" 
d="M346 455c-39.333 0 -68.166 -8.83301 -86.499 -26.5s-27.5 -44.5 -27.5 -80.5v-103c0 -40 9.16699 -66.667 27.5 -80s47.166 -20 86.499 -20h225v-145h-231c-107.333 -0 -184.666 23.333 -231.999 70s-71 111 -71 193v73c0 82 23.667 146.5 71 193.5
s124.666 70.5 231.999 70.5h231v-145h-225zM420 662h-139v128h139v-128z" />
    <glyph glyph-name="Ccaron" unicode="&#x10c;" horiz-adv-x="721" 
d="M691 165v-165.004h-290c-59.333 0 -111.666 7.5 -156.999 22.5s-83 36.333 -113 64s-52.667 61.334 -68 101.001s-23 83.834 -23 132.501v110c0 48.667 7.66699 92.834 23 132.501s38 73.334 68 101.001s67.667 49 113 64s97.666 22.5 156.999 22.5h285v-165h-275
c-62 0 -104.333 -12.167 -127 -36.5s-34 -64.5 -34 -120.5v-106c0 -56 11.667 -96.167 35 -120.5s67 -36.5 131 -36.5h275zM500 849.996c-8.66699 -12 -20 -23.167 -34 -33.5s-32 -15.5 -54 -15.5s-40.333 5.5 -55 16.5s-26 21.833 -34 32.5l-101 145h137l53 -82l52 82h137z
" />
    <glyph glyph-name="ccaron" unicode="&#x10d;" horiz-adv-x="621" 
d="M346 455c-39.333 0 -68.166 -8.83301 -86.499 -26.5s-27.5 -44.5 -27.5 -80.5v-103c0 -40 9.16699 -66.667 27.5 -80s47.166 -20 86.499 -20h225v-145h-231c-107.333 -0 -184.666 23.333 -231.999 70s-71 111 -71 193v73c0 82 23.667 146.5 71 193.5
s124.666 70.5 231.999 70.5h231v-145h-225zM439 700c-8.66699 -12 -20 -23.167 -34 -33.5s-32 -15.5 -54 -15.5s-40.333 5.5 -55 16.5s-26 21.833 -34 32.5l-101 145h137l53 -82l52 82h137z" />
    <glyph glyph-name="Dcaron" unicode="&#x10e;" horiz-adv-x="850" 
d="M454 750c59.333 0 111.5 -7.49609 156.5 -22.4961s82.167 -36.333 111.5 -64s51.333 -61.334 66 -101.001s22 -83.834 22 -132.501v-110c0 -48.667 -7.33301 -92.834 -22 -132.501s-36.667 -73.334 -66 -101.001s-66.5 -49 -111.5 -64s-97.167 -22.5 -156.5 -22.5h-389
v750h389zM441 592.004h-176.001v-434h171c66 0 109.833 12.333 131.5 37s32.5 67 32.5 127v107c0 60 -10.667 102.167 -32 126.5s-63.666 36.5 -126.999 36.5zM513.999 850.004c-8.66699 -12 -20 -23.167 -34 -33.5s-32 -15.5 -54 -15.5s-40.333 5.5 -55 16.5
s-26 21.833 -34 32.5l-101 145h137l53 -82l52 82h137z" />
    <glyph glyph-name="dcaron" unicode="&#x10f;" horiz-adv-x="918" 
d="M700 750v-749.998h-426c-74 0 -132 24.667 -174 74s-63 114.666 -63 195.999v60c0 81.333 21 146.666 63 195.999s100 74 174 74h236v150h190zM339 148.002h171v304h-171c-40.667 0 -68.667 -9.33301 -84 -28s-23 -47.667 -23 -87v-79c0 -39.333 7.66699 -67.5 23 -84.5
s43.333 -25.5 84 -25.5zM736 483.002l42 267h130l-42 -267h-130z" />
    <glyph glyph-name="Dcroat" unicode="&#x110;" horiz-adv-x="873" 
d="M10 430l78 0.00390625v320h389c59.333 0 111.5 -7.5 156.5 -22.5s82.167 -36.333 111.5 -64s51.333 -61.334 66 -101.001s22 -83.834 22 -132.501v-110c0 -48.667 -7.33301 -92.834 -22 -132.501s-36.667 -73.334 -66 -101.001s-66.5 -49 -111.5 -64
s-97.167 -22.5 -156.5 -22.5h-389v320h-78v110zM464 592.004h-176.001v-162h183v-110h-183v-162h171c66 0 109.833 12.333 131.5 37s32.5 67 32.5 127v107c0 60 -10.667 102.167 -32 126.5s-63.666 36.5 -126.999 36.5z" />
    <glyph glyph-name="dcroat" unicode="&#x111;" horiz-adv-x="758" 
d="M387 720l123 0.00195312v30h190v-30h48v-90h-48v-630h-426c-74 0 -132 24.667 -174 74s-63 114.666 -63 195.999v60c0 81.333 21 146.666 63 195.999s100 74 174 74h236v30h-123v90zM339 148.002h171v304h-171c-40.667 0 -68.667 -9.33301 -84 -28s-23 -47.667 -23 -87
v-79c0 -39.333 7.66699 -67.5 23 -84.5s43.333 -25.5 84 -25.5z" />
    <glyph glyph-name="Emacron" unicode="&#x112;" horiz-adv-x="748" 
d="M65 0v750h626v-165h-431v-130h431v-160h-431v-130h431v-165h-626zM524 847h-260v98h260v-98z" />
    <glyph glyph-name="emacron" unicode="&#x113;" horiz-adv-x="699" 
d="M659 244l-429.003 -0.000976562v-4c0 -38 8.33301 -63.333 25 -76s45.334 -19 86.001 -19h304v-145h-293c-58.667 0 -108.167 6.5 -148.5 19.5s-72.666 31.333 -96.999 55s-42 52.167 -53 85.5s-16.5 70 -16.5 110v76c0 79.333 23 142.833 69 190.5
s121.333 71.5 226 71.5h40c56 0 102.667 -6.66699 140 -20s66.833 -32.166 88.5 -56.499s36.834 -53.5 45.501 -87.5s13 -71.667 13 -113v-87zM393.997 473.999h-78c-32 0 -54.333 -7 -67 -21s-19 -37.333 -19 -70v-13h249v13c0 32.667 -6.5 56 -19.5 70
s-34.833 21 -65.5 21zM481.997 696.999h-260v98h260v-98z" />
    <glyph glyph-name="Ebreve" unicode="&#x114;" horiz-adv-x="748" 
d="M65 0v750h626v-165h-431v-130h431v-160h-431v-130h431v-165h-626zM228 980h98v-51c0 -10.667 3.16699 -18.834 9.5 -24.501s14.5 -8.5 24.5 -8.5h60c10 0 18.167 2.83301 24.5 8.5s9.5 13.834 9.5 24.501v51h96v-84c0 -24 -9.5 -43.833 -28.5 -59.5
s-40.833 -23.5 -65.5 -23.5h-133c-26.667 0 -49.167 7.83301 -67.5 23.5s-27.5 35.5 -27.5 59.5v84z" />
    <glyph glyph-name="ebreve" unicode="&#x115;" horiz-adv-x="699" 
d="M659 244l-429.003 -0.000976562v-4c0 -38 8.33301 -63.333 25 -76s45.334 -19 86.001 -19h304v-145h-293c-58.667 0 -108.167 6.5 -148.5 19.5s-72.666 31.333 -96.999 55s-42 52.167 -53 85.5s-16.5 70 -16.5 110v76c0 79.333 23 142.833 69 190.5
s121.333 71.5 226 71.5h40c56 0 102.667 -6.66699 140 -20s66.833 -32.166 88.5 -56.499s36.834 -53.5 45.501 -87.5s13 -71.667 13 -113v-87zM393.997 473.999h-78c-32 0 -54.333 -7 -67 -21s-19 -37.333 -19 -70v-13h249v13c0 32.667 -6.5 56 -19.5 70
s-34.833 21 -65.5 21zM184.997 829.999h98v-51c0 -10.667 3.16699 -18.834 9.5 -24.501s14.5 -8.5 24.5 -8.5h60c10 0 18.167 2.83301 24.5 8.5s9.5 13.834 9.5 24.501v51h96v-84c0 -24 -9.5 -43.833 -28.5 -59.5s-40.833 -23.5 -65.5 -23.5h-133
c-26.667 0 -49.167 7.83301 -67.5 23.5s-27.5 35.5 -27.5 59.5v84z" />
    <glyph glyph-name="Edotaccent" unicode="&#x116;" horiz-adv-x="748" 
d="M65 0v750h626v-165h-431v-130h431v-160h-431v-130h431v-165h-626zM463 812h-139v128h139v-128z" />
    <glyph glyph-name="edotaccent" unicode="&#x117;" horiz-adv-x="699" 
d="M659 244l-429.003 -0.000976562v-4c0 -38 8.33301 -63.333 25 -76s45.334 -19 86.001 -19h304v-145h-293c-58.667 0 -108.167 6.5 -148.5 19.5s-72.666 31.333 -96.999 55s-42 52.167 -53 85.5s-16.5 70 -16.5 110v76c0 79.333 23 142.833 69 190.5
s121.333 71.5 226 71.5h40c56 0 102.667 -6.66699 140 -20s66.833 -32.166 88.5 -56.499s36.834 -53.5 45.501 -87.5s13 -71.667 13 -113v-87zM393.997 473.999h-78c-32 0 -54.333 -7 -67 -21s-19 -37.333 -19 -70v-13h249v13c0 32.667 -6.5 56 -19.5 70
s-34.833 21 -65.5 21zM420.997 661.999h-139v128h139v-128z" />
    <glyph glyph-name="Eogonek" unicode="&#x118;" horiz-adv-x="748" 
d="M65 0v750h626v-165h-431v-130h431v-160h-431v-130h431v-165h-626zM579 0h112l-44 -58c-6 -7.33301 -10.667 -13.5 -14 -18.5s-5 -10.5 -5 -16.5s2.33301 -10.833 7 -14.5s11.667 -5.5 21 -5.5h35v-77h-85c-36.667 0 -63.167 7 -79.5 21s-24.5 31.333 -24.5 52
c0 12.667 3.16699 25.667 9.5 39s17.833 28.333 34.5 45z" />
    <glyph glyph-name="eogonek" unicode="&#x119;" horiz-adv-x="699" 
d="M659 244l-429.003 -0.000976562v-4c0 -38 8.33301 -63.333 25 -76s45.334 -19 86.001 -19h304v-145h-293c-58.667 0 -108.167 6.5 -148.5 19.5s-72.666 31.333 -96.999 55s-42 52.167 -53 85.5s-16.5 70 -16.5 110v76c0 79.333 23 142.833 69 190.5
s121.333 71.5 226 71.5h40c56 0 102.667 -6.66699 140 -20s66.833 -32.166 88.5 -56.499s36.834 -53.5 45.501 -87.5s13 -71.667 13 -113v-87zM393.997 473.999h-78c-32 0 -54.333 -7 -67 -21s-19 -37.333 -19 -70v-13h249v13c0 32.667 -6.5 56 -19.5 70
s-34.833 21 -65.5 21zM532.997 -0.000976562h112l-44 -58c-6 -7.33301 -10.667 -13.5 -14 -18.5s-5 -10.5 -5 -16.5s2.33301 -10.833 7 -14.5s11.667 -5.5 21 -5.5h35v-77h-85c-36.667 0 -63.167 7 -79.5 21s-24.5 31.333 -24.5 52c0 12.667 3.16699 25.667 9.5 39
s17.833 28.333 34.5 45z" />
    <glyph glyph-name="Ecaron" unicode="&#x11a;" horiz-adv-x="748" 
d="M65 0v750h626v-165h-431v-130h431v-160h-431v-130h431v-165h-626zM483 850c-8.66699 -12 -20 -23.167 -34 -33.5s-32 -15.5 -54 -15.5s-40.333 5.5 -55 16.5s-26 21.833 -34 32.5l-101 145h137l53 -82l52 82h137z" />
    <glyph glyph-name="ecaron" unicode="&#x11b;" horiz-adv-x="699" 
d="M659 244l-429.003 -0.000976562v-4c0 -38 8.33301 -63.333 25 -76s45.334 -19 86.001 -19h304v-145h-293c-58.667 0 -108.167 6.5 -148.5 19.5s-72.666 31.333 -96.999 55s-42 52.167 -53 85.5s-16.5 70 -16.5 110v76c0 79.333 23 142.833 69 190.5
s121.333 71.5 226 71.5h40c56 0 102.667 -6.66699 140 -20s66.833 -32.166 88.5 -56.499s36.834 -53.5 45.501 -87.5s13 -71.667 13 -113v-87zM393.997 473.999h-78c-32 0 -54.333 -7 -67 -21s-19 -37.333 -19 -70v-13h249v13c0 32.667 -6.5 56 -19.5 70
s-34.833 21 -65.5 21zM439.997 699.999c-8.66699 -12 -20 -23.167 -34 -33.5s-32 -15.5 -54 -15.5s-40.333 5.5 -55 16.5s-26 21.833 -34 32.5l-101 145h137l53 -82l52 82h137z" />
    <glyph glyph-name="Gbreve" unicode="&#x11e;" horiz-adv-x="855" 
d="M791 750l0.00195312 -165.003h-380c-62 0 -104.333 -12.167 -127 -36.5s-34 -64.5 -34 -120.5v-113c0 -59.333 11.167 -101.333 33.5 -126s60.5 -37 114.5 -37h122c37.333 0 64.166 5.5 80.499 16.5s24.5 28.5 24.5 52.5v66h-202v158h382v-237
c0 -74.667 -25.167 -129.667 -75.5 -165s-122.5 -53 -216.5 -53h-109c-122 0 -213.167 29.333 -273.5 88s-90.5 140.334 -90.5 245.001v107c0 48.667 7.66699 92.834 23 132.501s38 73.334 68 101.001s67.667 49 113 64s97.666 22.5 156.999 22.5h390zM285.002 979.997h98
v-51c0 -10.667 3.16699 -18.834 9.5 -24.501s14.5 -8.5 24.5 -8.5h60c10 0 18.167 2.83301 24.5 8.5s9.5 13.834 9.5 24.501v51h96v-84c0 -24 -9.5 -43.833 -28.5 -59.5s-40.833 -23.5 -65.5 -23.5h-133c-26.667 0 -49.167 7.83301 -67.5 23.5s-27.5 35.5 -27.5 59.5v84z
" />
    <glyph glyph-name="gbreve" unicode="&#x11f;" horiz-adv-x="738" 
d="M365 -150l-286.998 0.000976562v142h289c51.333 0 84.666 6 99.999 18s23 30 23 54v13h-221c-70.667 0 -127 21.667 -169 65s-63 103.333 -63 180v23c0 79.333 21 141.666 63 186.999s98.333 68 169 68h411v-518c0 -83.333 -24.333 -142.833 -73 -178.5
s-129.334 -53.5 -242.001 -53.5zM328.002 213.001h162v241h-162c-36 0 -61 -7.16699 -75 -21.5s-21 -38.833 -21 -73.5v-46c0 -34 7 -59.167 21 -75.5s39 -24.5 75 -24.5zM223.002 830.001h98v-51c0 -10.667 3.16699 -18.834 9.5 -24.501s14.5 -8.5 24.5 -8.5h60
c10 0 18.167 2.83301 24.5 8.5s9.5 13.834 9.5 24.501v51h96v-84c0 -24 -9.5 -43.833 -28.5 -59.5s-40.833 -23.5 -65.5 -23.5h-133c-26.667 0 -49.167 7.83301 -67.5 23.5s-27.5 35.5 -27.5 59.5v84z" />
    <glyph glyph-name="Gdotaccent" unicode="&#x120;" horiz-adv-x="855" 
d="M791 750l0.00195312 -165.003h-380c-62 0 -104.333 -12.167 -127 -36.5s-34 -64.5 -34 -120.5v-113c0 -59.333 11.167 -101.333 33.5 -126s60.5 -37 114.5 -37h122c37.333 0 64.166 5.5 80.499 16.5s24.5 28.5 24.5 52.5v66h-202v158h382v-237
c0 -74.667 -25.167 -129.667 -75.5 -165s-122.5 -53 -216.5 -53h-109c-122 0 -213.167 29.333 -273.5 88s-90.5 140.334 -90.5 245.001v107c0 48.667 7.66699 92.834 23 132.501s38 73.334 68 101.001s67.667 49 113 64s97.666 22.5 156.999 22.5h390zM520.002 811.997h-139
v128h139v-128z" />
    <glyph glyph-name="gdotaccent" unicode="&#x121;" horiz-adv-x="738" 
d="M365 -150l-286.998 0.000976562v142h289c51.333 0 84.666 6 99.999 18s23 30 23 54v13h-221c-70.667 0 -127 21.667 -169 65s-63 103.333 -63 180v23c0 79.333 21 141.666 63 186.999s98.333 68 169 68h411v-518c0 -83.333 -24.333 -142.833 -73 -178.5
s-129.334 -53.5 -242.001 -53.5zM328.002 213.001h162v241h-162c-36 0 -61 -7.16699 -75 -21.5s-21 -38.833 -21 -73.5v-46c0 -34 7 -59.167 21 -75.5s39 -24.5 75 -24.5zM458.002 662.001h-139v128h139v-128z" />
    <glyph glyph-name="Gcommaaccent" unicode="&#x122;" horiz-adv-x="855" 
d="M791 750l0.00195312 -165.003h-380c-62 0 -104.333 -12.167 -127 -36.5s-34 -64.5 -34 -120.5v-113c0 -59.333 11.167 -101.333 33.5 -126s60.5 -37 114.5 -37h122c37.333 0 64.166 5.5 80.499 16.5s24.5 28.5 24.5 52.5v66h-202v158h382v-237
c0 -74.667 -25.167 -129.667 -75.5 -165s-122.5 -53 -216.5 -53h-109c-122 0 -213.167 29.333 -273.5 88s-90.5 140.334 -90.5 245.001v107c0 48.667 7.66699 92.834 23 132.501s38 73.334 68 101.001s67.667 49 113 64s97.666 22.5 156.999 22.5h390zM350.002 -188.003
c10.667 32 17.667 55.333 21 70s5 32.334 5 53.001v25h152v-25c0 -20.667 -1.66699 -38.334 -5 -53.001s-11.333 -38 -24 -70h-149z" />
    <glyph glyph-name="gcommaaccent" unicode="&#x123;" horiz-adv-x="738" 
d="M365 -150l-286.998 0.000976562v142h289c51.333 0 84.666 6 99.999 18s23 30 23 54v13h-221c-70.667 0 -127 21.667 -169 65s-63 103.333 -63 180v23c0 79.333 21 141.666 63 186.999s98.333 68 169 68h411v-518c0 -83.333 -24.333 -142.833 -73 -178.5
s-129.334 -53.5 -242.001 -53.5zM328.002 213.001h162v241h-162c-36 0 -61 -7.16699 -75 -21.5s-21 -38.833 -21 -73.5v-46c0 -34 7 -59.167 21 -75.5s39 -24.5 75 -24.5z" />
    <glyph glyph-name="Hbar" unicode="&#x126;" horiz-adv-x="865" 
d="M65 0v550h-58v110h58v90h200v-90h355v90h200v-90h58v-110h-58v-550h-200v291h-355v-291h-200zM265 466h355v84h-355v-84z" />
    <glyph glyph-name="hbar" unicode="&#x127;" horiz-adv-x="737" 
d="M58 0v630h-51v90h51v30h190v-30h190v-90h-190v-30h182c87.333 0 150.666 -22 189.999 -66s59 -103.667 59 -179v-355h-190v360c0 30.667 -5.16699 52.5 -15.5 65.5s-30.166 19.5 -59.499 19.5h-166v-445h-190z" />
    <glyph glyph-name="Itilde" unicode="&#x128;" horiz-adv-x="340" 
d="M70 0v750h200v-750h-200zM225 938l18.001 -13.5c4 -3 9 -4.5 15 -4.5c5.33301 0 9.33301 1.83301 12 5.5s4 9.83398 4 18.501v62h99v-76c0 -35.333 -10.333 -63.166 -31 -83.499s-47 -30.5 -79 -30.5c-22.667 0 -41.5 3.83301 -56.5 11.5s-33.5 19.834 -55.5 36.501
l-34 26c-6.66699 5.33301 -12.334 9.66602 -17.001 12.999s-9.66699 5 -15 5c-4.66699 0 -8.66699 -1.83301 -12 -5.5s-5 -9.83398 -5 -18.501v-62h-99v78c0 36 10.667 63.667 32 83s47.333 29 78 29c22.667 0 41.5 -3.83301 56.5 -11.5s33.5 -19.834 55.5 -36.501z" />
    <glyph glyph-name="itilde" unicode="&#x129;" horiz-adv-x="330" 
d="M70 0v600h190v-600h-190zM220 788l18.001 -13.5c4 -3 9 -4.5 15 -4.5c5.33301 0 9.33301 1.83301 12 5.5s4 9.83398 4 18.501v62h99v-76c0 -35.333 -10.333 -63.166 -31 -83.499s-47 -30.5 -79 -30.5c-22.667 0 -41.5 3.83301 -56.5 11.5s-33.5 19.834 -55.5 36.501
l-34 26c-6.66699 5.33301 -12.334 9.66602 -17.001 12.999s-9.66699 5 -15 5c-4.66699 0 -8.66699 -1.83301 -12 -5.5s-5 -9.83398 -5 -18.501v-62h-99v78c0 36 10.667 63.667 32 83s47.333 29 78 29c22.667 0 41.5 -3.83301 56.5 -11.5s33.5 -19.834 55.5 -36.501z" />
    <glyph glyph-name="Imacron" unicode="&#x12a;" horiz-adv-x="340" 
d="M70 0v750h200v-750h-200zM300 847h-260v98h260v-98z" />
    <glyph glyph-name="imacron" unicode="&#x12b;" horiz-adv-x="330" 
d="M70 0v600h190v-600h-190zM295 697h-260v98h260v-98z" />
    <glyph glyph-name="Ibreve" unicode="&#x12c;" horiz-adv-x="340" 
d="M70 0v750h200v-750h-200zM3 980h98v-51c0 -10.667 3.16699 -18.834 9.5 -24.501s14.5 -8.5 24.5 -8.5h60c10 0 18.167 2.83301 24.5 8.5s9.5 13.834 9.5 24.501v51h96v-84c0 -24 -9.5 -43.833 -28.5 -59.5s-40.833 -23.5 -65.5 -23.5h-133
c-26.667 0 -49.167 7.83301 -67.5 23.5s-27.5 35.5 -27.5 59.5v84z" />
    <glyph glyph-name="ibreve" unicode="&#x12d;" horiz-adv-x="330" 
d="M70 0v600h190v-600h-190zM-2 830h98v-51c0 -10.667 3.16699 -18.834 9.5 -24.501s14.5 -8.5 24.5 -8.5h60c10 0 18.167 2.83301 24.5 8.5s9.5 13.834 9.5 24.501v51h96v-84c0 -24 -9.5 -43.833 -28.5 -59.5s-40.833 -23.5 -65.5 -23.5h-133
c-26.667 0 -49.167 7.83301 -67.5 23.5s-27.5 35.5 -27.5 59.5v84z" />
    <glyph glyph-name="Iogonek" unicode="&#x12e;" horiz-adv-x="340" 
d="M70 0v750h200v-750h-200zM138 0h112l-44 -58c-6 -7.33301 -10.667 -13.5 -14 -18.5s-5 -10.5 -5 -16.5s2.33301 -10.833 7 -14.5s11.667 -5.5 21 -5.5h35v-77h-85c-36.667 0 -63.167 7 -79.5 21s-24.5 31.333 -24.5 52c0 12.667 3.16699 25.667 9.5 39
s17.833 28.333 34.5 45z" />
    <glyph glyph-name="iogonek" unicode="&#x12f;" horiz-adv-x="330" 
d="M260 652h-190v118h190v-118zM70 0v600h190v-600h-190zM133 0h112l-44 -58c-6 -7.33301 -10.667 -13.5 -14 -18.5s-5 -10.5 -5 -16.5s2.33301 -10.833 7 -14.5s11.667 -5.5 21 -5.5h35v-77h-85c-36.667 0 -63.167 7 -79.5 21s-24.5 31.333 -24.5 52
c0 12.667 3.16699 25.667 9.5 39s17.833 28.333 34.5 45z" />
    <glyph glyph-name="Idotaccent" unicode="&#x130;" horiz-adv-x="340" 
d="M70 0v750h200v-750h-200zM239 812h-139v128h139v-128z" />
    <glyph glyph-name="dotlessi" unicode="&#x131;" horiz-adv-x="330" 
d="M70 0v600h190v-600h-190z" />
    <glyph glyph-name="Kcommaaccent" unicode="&#x136;" horiz-adv-x="805" 
d="M60 0l0.000976562 750h200v-288h37c20.667 0 36.334 2.66699 47.001 8s23 17.333 37 36l181 244h225l-285 -366l293 -384h-231l-176 238c-16.667 22.667 -30.834 37.667 -42.501 45s-27.834 11 -48.501 11h-37v-294h-200zM312.001 -188c10.667 32 17.667 55.333 21 70
s5 32.334 5 53.001v25h152v-25c0 -20.667 -1.66699 -38.334 -5 -53.001s-11.333 -38 -24 -70h-149z" />
    <glyph glyph-name="kcommaaccent" unicode="&#x137;" horiz-adv-x="713" 
d="M58 0l-0.00195312 750h190v-365h21c18.667 0 32.834 1.66699 42.501 5s18.834 10.333 27.501 21l148 189h218l-248 -295l256 -305h-226l-156 197c-10.667 13.333 -20.167 21.333 -28.5 24s-20.833 4 -37.5 4h-17v-225h-190zM270.998 -188c10.667 32 17.667 55.333 21 70
s5 32.334 5 53.001v25h152v-25c0 -20.667 -1.66699 -38.334 -5 -53.001s-11.333 -38 -24 -70h-149z" />
    <glyph glyph-name="kra" unicode="&#x138;" horiz-adv-x="713" 
d="M58 0l-0.00195312 600h190v-215h21c18.667 0 32.834 1.66699 42.501 5s18.834 10.333 27.501 21l148 189h218l-248 -295l256 -305h-226l-156 197c-10.667 13.333 -20.167 21.333 -28.5 24s-20.833 4 -37.5 4h-17v-225h-190z" />
    <glyph glyph-name="Lacute" unicode="&#x139;" horiz-adv-x="676" 
d="M65 0v750h200v-585h381v-165h-581zM94 822l65 188h155l-70 -188h-150z" />
    <glyph glyph-name="lacute" unicode="&#x13a;" horiz-adv-x="330" 
d="M70 750h190v-750h-190v750zM93 822l65 188h155l-70 -188h-150z" />
    <glyph glyph-name="Lcommaaccent" unicode="&#x13b;" horiz-adv-x="676" 
d="M65 0v750h200v-585h381v-165h-581zM244 -188c10.667 32 17.667 55.333 21 70s5 32.334 5 53.001v25h152v-25c0 -20.667 -1.66699 -38.334 -5 -53.001s-11.333 -38 -24 -70h-149z" />
    <glyph glyph-name="lcommaaccent" unicode="&#x13c;" horiz-adv-x="330" 
d="M70 750h190v-750h-190v750zM63 -188c10.667 32 17.667 55.333 21 70s5 32.334 5 53.001v25h152v-25c0 -20.667 -1.66699 -38.334 -5 -53.001s-11.333 -38 -24 -70h-149z" />
    <glyph glyph-name="Lcaron" unicode="&#x13d;" horiz-adv-x="676" 
d="M65 0v750h200v-585h381v-165h-581zM336 483l42 267h130l-42 -267h-130z" />
    <glyph glyph-name="lcaron" unicode="&#x13e;" horiz-adv-x="478" 
d="M70 750h190v-750h-190v750zM306 483l42 267h130l-42 -267h-130z" />
    <glyph glyph-name="Ldot" unicode="&#x13f;" horiz-adv-x="676" 
d="M65 0v750h200v-585h381v-165h-581zM574 392h-139v128h139v-128z" />
    <glyph glyph-name="ldot" unicode="&#x140;" horiz-adv-x="474" 
d="M70 750h190v-750h-190v750zM454 332h-139v128h139v-128z" />
    <glyph glyph-name="Lslash" unicode="&#x141;" horiz-adv-x="734" 
d="M108 0v276l-98 -36v110l98 36v364h200v-292l253 92v-110l-253 -92v-183h381v-165h-581z" />
    <glyph glyph-name="lslash" unicode="&#x142;" horiz-adv-x="330" 
d="M10 350l60 39v361h190v-239l60 39v-110l-60 -39v-401h-190v279l-60 -39v110z" />
    <glyph glyph-name="Nacute" unicode="&#x143;" horiz-adv-x="971" 
d="M65 0v550.001c0 34 5.66699 64.333 17 91s26.166 48.834 44.499 66.501s40 31.167 65 40.5s50.833 14 77.5 14c64 0 114.167 -17.167 150.5 -51.5s65.833 -79.5 88.5 -135.5l163 -398c2 -4.66699 4.16699 -9.16699 6.5 -13.5s6.16602 -6.5 11.499 -6.5
c6.66699 0 11.167 1.83301 13.5 5.5s3.5 8.83398 3.5 15.501v572h200v-551c0 -35.333 -5.66699 -66.333 -17 -93s-26.166 -48.834 -44.499 -66.501s-40 -30.834 -65 -39.501s-50.833 -13 -77.5 -13c-64 0 -113.833 16.667 -149.5 50s-65.5 79 -89.5 137l-163 398
c-2 4.66699 -4.16699 9.16699 -6.5 13.5s-6.16602 6.5 -11.499 6.5c-6.66699 0 -11.167 -1.83301 -13.5 -5.5s-3.5 -8.83398 -3.5 -15.501v-571h-200zM473 822.001l65 188h155l-70 -188h-150z" />
    <glyph glyph-name="nacute" unicode="&#x144;" horiz-adv-x="737" 
d="M58 0v600h372c87.333 0 150.666 -22 189.999 -66s59 -103.667 59 -179v-355h-190v360c0 30.667 -5.16699 52.5 -15.5 65.5s-30.166 19.5 -59.499 19.5h-166v-445h-190zM297 672l65 188h155l-70 -188h-150z" />
    <glyph glyph-name="Ncommaaccent" unicode="&#x145;" horiz-adv-x="971" 
d="M65 0v550.001c0 34 5.66699 64.333 17 91s26.166 48.834 44.499 66.501s40 31.167 65 40.5s50.833 14 77.5 14c64 0 114.167 -17.167 150.5 -51.5s65.833 -79.5 88.5 -135.5l163 -398c2 -4.66699 4.16699 -9.16699 6.5 -13.5s6.16602 -6.5 11.499 -6.5
c6.66699 0 11.167 1.83301 13.5 5.5s3.5 8.83398 3.5 15.501v572h200v-551c0 -35.333 -5.66699 -66.333 -17 -93s-26.166 -48.834 -44.499 -66.501s-40 -30.834 -65 -39.501s-50.833 -13 -77.5 -13c-64 0 -113.833 16.667 -149.5 50s-65.5 79 -89.5 137l-163 398
c-2 4.66699 -4.16699 9.16699 -6.5 13.5s-6.16602 6.5 -11.499 6.5c-6.66699 0 -11.167 -1.83301 -13.5 -5.5s-3.5 -8.83398 -3.5 -15.501v-571h-200zM314 -187.999c10.667 32 17.667 55.333 21 70s5 32.334 5 53.001v25h152v-25c0 -20.667 -1.66699 -38.334 -5 -53.001
s-11.333 -38 -24 -70h-149z" />
    <glyph glyph-name="ncommaaccent" unicode="&#x146;" horiz-adv-x="737" 
d="M58 0v600h372c87.333 0 150.666 -22 189.999 -66s59 -103.667 59 -179v-355h-190v360c0 30.667 -5.16699 52.5 -15.5 65.5s-30.166 19.5 -59.499 19.5h-166v-445h-190zM267 -188c10.667 32 17.667 55.333 21 70s5 32.334 5 53.001v25h152v-25
c0 -20.667 -1.66699 -38.334 -5 -53.001s-11.333 -38 -24 -70h-149z" />
    <glyph glyph-name="Ncaron" unicode="&#x147;" horiz-adv-x="971" 
d="M65 0v550.001c0 34 5.66699 64.333 17 91s26.166 48.834 44.499 66.501s40 31.167 65 40.5s50.833 14 77.5 14c64 0 114.167 -17.167 150.5 -51.5s65.833 -79.5 88.5 -135.5l163 -398c2 -4.66699 4.16699 -9.16699 6.5 -13.5s6.16602 -6.5 11.499 -6.5
c6.66699 0 11.167 1.83301 13.5 5.5s3.5 8.83398 3.5 15.501v572h200v-551c0 -35.333 -5.66699 -66.333 -17 -93s-26.166 -48.834 -44.499 -66.501s-40 -30.834 -65 -39.501s-50.833 -13 -77.5 -13c-64 0 -113.833 16.667 -149.5 50s-65.5 79 -89.5 137l-163 398
c-2 4.66699 -4.16699 9.16699 -6.5 13.5s-6.16602 6.5 -11.499 6.5c-6.66699 0 -11.167 -1.83301 -13.5 -5.5s-3.5 -8.83398 -3.5 -15.501v-571h-200zM634 850.001c-8.66699 -12 -20 -23.167 -34 -33.5s-32 -15.5 -54 -15.5s-40.333 5.5 -55 16.5s-26 21.833 -34 32.5
l-101 145h137l53 -82l52 82h137z" />
    <glyph glyph-name="ncaron" unicode="&#x148;" horiz-adv-x="737" 
d="M58 0v600h372c87.333 0 150.666 -22 189.999 -66s59 -103.667 59 -179v-355h-190v360c0 30.667 -5.16699 52.5 -15.5 65.5s-30.166 19.5 -59.499 19.5h-166v-445h-190zM457 700c-8.66699 -12 -20 -23.167 -34 -33.5s-32 -15.5 -54 -15.5s-40.333 5.5 -55 16.5
s-26 21.833 -34 32.5l-101 145h137l53 -82l52 82h137z" />
    <glyph glyph-name="Eng" unicode="&#x14a;" horiz-adv-x="971" 
d="M65 0l0.000976562 549.999c0 34 5.66699 64.333 17 91s26.166 48.834 44.499 66.501s40 31.167 65 40.5s50.833 14 77.5 14c64 0 113.5 -17.5 148.5 -52.5s65.167 -79.833 90.5 -134.5l198 -428v603h200v-612c0 -89.333 -25.167 -159.666 -75.5 -210.999
s-131.833 -77 -244.5 -77h-207v150h192l-271 562c-2.66699 4.66699 -5.5 9.16699 -8.5 13.5s-6.83301 6.5 -11.5 6.5c-6 0 -10 -1.83301 -12 -5.5s-3 -8.83398 -3 -15.501v-561h-200z" />
    <glyph glyph-name="eng" unicode="&#x14b;" horiz-adv-x="737" 
d="M58 0v600h372c87.333 0 150.666 -22 189.999 -66s59 -103.667 59 -179v-308c0 -66 -17.833 -115.333 -53.5 -148s-84.5 -49 -146.5 -49h-80v129h46c14 0 24.833 3.83301 32.5 11.5s11.5 21.167 11.5 40.5v329c0 30.667 -5.16699 52.5 -15.5 65.5
s-30.166 19.5 -59.499 19.5h-166v-445h-190z" />
    <glyph glyph-name="Omacron" unicode="&#x14c;" horiz-adv-x="874" 
d="M834 323c0 -50 -7.5 -95.5 -22.5 -136.5s-37.5 -76 -67.5 -105s-68 -51.5 -114 -67.5s-99.333 -24 -160 -24h-66c-60.667 0 -114 8 -160 24s-84 38.5 -114 67.5s-52.5 64 -67.5 105s-22.5 86.5 -22.5 136.5v104c0 50 7.5 95.5 22.5 136.5s37.5 76 67.5 105
s68 51.5 114 67.5s99.333 24 160 24h66c60.667 0 114 -8 160 -24s84 -38.5 114 -67.5s52.5 -64 67.5 -105s22.5 -86.5 22.5 -136.5v-104zM250 315c0 -59.333 11.167 -101.333 33.5 -126s60.5 -37 114.5 -37h78c54 0 92.167 12.333 114.5 37s33.5 66.667 33.5 126v122
c0 59.333 -11.167 101.166 -33.5 125.499s-60.5 36.5 -114.5 36.5h-78c-54 0 -92.167 -12.167 -114.5 -36.5s-33.5 -66.166 -33.5 -125.499v-122zM567 847h-260v98h260v-98z" />
    <glyph glyph-name="omacron" unicode="&#x14d;" horiz-adv-x="727" 
d="M690 336v-72c0 -83.333 -25.167 -149.833 -75.5 -199.5s-122.166 -74.5 -215.499 -74.5h-70c-93.333 0 -165.333 24.833 -216 74.5s-76 116.167 -76 199.5v72c0 83.333 25.333 149.833 76 199.5s122.667 74.5 216 74.5h70c93.333 0 165.166 -24.833 215.499 -74.5
s75.5 -116.167 75.5 -199.5zM495 352c0 38.667 -7.16699 67.5 -21.5 86.5s-39.833 28.5 -76.5 28.5h-66c-36.667 0 -62.334 -9.5 -77.001 -28.5s-22 -47.833 -22 -86.5v-103c0 -39.333 7.33301 -68.5 22 -87.5s40.334 -28.5 77.001 -28.5h66c36.667 0 62.167 9.5 76.5 28.5
s21.5 48.167 21.5 87.5v103zM494 697h-260v98h260v-98z" />
    <glyph glyph-name="Obreve" unicode="&#x14e;" horiz-adv-x="874" 
d="M834 323c0 -50 -7.5 -95.5 -22.5 -136.5s-37.5 -76 -67.5 -105s-68 -51.5 -114 -67.5s-99.333 -24 -160 -24h-66c-60.667 0 -114 8 -160 24s-84 38.5 -114 67.5s-52.5 64 -67.5 105s-22.5 86.5 -22.5 136.5v104c0 50 7.5 95.5 22.5 136.5s37.5 76 67.5 105
s68 51.5 114 67.5s99.333 24 160 24h66c60.667 0 114 -8 160 -24s84 -38.5 114 -67.5s52.5 -64 67.5 -105s22.5 -86.5 22.5 -136.5v-104zM250 315c0 -59.333 11.167 -101.333 33.5 -126s60.5 -37 114.5 -37h78c54 0 92.167 12.333 114.5 37s33.5 66.667 33.5 126v122
c0 59.333 -11.167 101.166 -33.5 125.499s-60.5 36.5 -114.5 36.5h-78c-54 0 -92.167 -12.167 -114.5 -36.5s-33.5 -66.166 -33.5 -125.499v-122zM271 980h98v-51c0 -10.667 3.16699 -18.834 9.5 -24.501s14.5 -8.5 24.5 -8.5h60c10 0 18.167 2.83301 24.5 8.5
s9.5 13.834 9.5 24.501v51h96v-84c0 -24 -9.5 -43.833 -28.5 -59.5s-40.833 -23.5 -65.5 -23.5h-133c-26.667 0 -49.167 7.83301 -67.5 23.5s-27.5 35.5 -27.5 59.5v84z" />
    <glyph glyph-name="obreve" unicode="&#x14f;" horiz-adv-x="727" 
d="M690 336v-72c0 -83.333 -25.167 -149.833 -75.5 -199.5s-122.166 -74.5 -215.499 -74.5h-70c-93.333 0 -165.333 24.833 -216 74.5s-76 116.167 -76 199.5v72c0 83.333 25.333 149.833 76 199.5s122.667 74.5 216 74.5h70c93.333 0 165.166 -24.833 215.499 -74.5
s75.5 -116.167 75.5 -199.5zM495 352c0 38.667 -7.16699 67.5 -21.5 86.5s-39.833 28.5 -76.5 28.5h-66c-36.667 0 -62.334 -9.5 -77.001 -28.5s-22 -47.833 -22 -86.5v-103c0 -39.333 7.33301 -68.5 22 -87.5s40.334 -28.5 77.001 -28.5h66c36.667 0 62.167 9.5 76.5 28.5
s21.5 48.167 21.5 87.5v103zM197 830h98v-51c0 -10.667 3.16699 -18.834 9.5 -24.501s14.5 -8.5 24.5 -8.5h60c10 0 18.167 2.83301 24.5 8.5s9.5 13.834 9.5 24.501v51h96v-84c0 -24 -9.5 -43.833 -28.5 -59.5s-40.833 -23.5 -65.5 -23.5h-133
c-26.667 0 -49.167 7.83301 -67.5 23.5s-27.5 35.5 -27.5 59.5v84z" />
    <glyph glyph-name="Ohungarumlaut" unicode="&#x150;" horiz-adv-x="874" 
d="M834 323c0 -50 -7.5 -95.5 -22.5 -136.5s-37.5 -76 -67.5 -105s-68 -51.5 -114 -67.5s-99.333 -24 -160 -24h-66c-60.667 0 -114 8 -160 24s-84 38.5 -114 67.5s-52.5 64 -67.5 105s-22.5 86.5 -22.5 136.5v104c0 50 7.5 95.5 22.5 136.5s37.5 76 67.5 105
s68 51.5 114 67.5s99.333 24 160 24h66c60.667 0 114 -8 160 -24s84 -38.5 114 -67.5s52.5 -64 67.5 -105s22.5 -86.5 22.5 -136.5v-104zM250 315c0 -59.333 11.167 -101.333 33.5 -126s60.5 -37 114.5 -37h78c54 0 92.167 12.333 114.5 37s33.5 66.667 33.5 126v122
c0 59.333 -11.167 101.166 -33.5 125.499s-60.5 36.5 -114.5 36.5h-78c-54 0 -92.167 -12.167 -114.5 -36.5s-33.5 -66.166 -33.5 -125.499v-122zM270 822l65 188h155l-70 -188h-150zM470 822l65 188h155l-70 -188h-150z" />
    <glyph glyph-name="ohungarumlaut" unicode="&#x151;" horiz-adv-x="727" 
d="M690 336v-72c0 -83.333 -25.167 -149.833 -75.5 -199.5s-122.166 -74.5 -215.499 -74.5h-70c-93.333 0 -165.333 24.833 -216 74.5s-76 116.167 -76 199.5v72c0 83.333 25.333 149.833 76 199.5s122.667 74.5 216 74.5h70c93.333 0 165.166 -24.833 215.499 -74.5
s75.5 -116.167 75.5 -199.5zM495 352c0 38.667 -7.16699 67.5 -21.5 86.5s-39.833 28.5 -76.5 28.5h-66c-36.667 0 -62.334 -9.5 -77.001 -28.5s-22 -47.833 -22 -86.5v-103c0 -39.333 7.33301 -68.5 22 -87.5s40.334 -28.5 77.001 -28.5h66c36.667 0 62.167 9.5 76.5 28.5
s21.5 48.167 21.5 87.5v103zM197 672l65 188h155l-70 -188h-150zM397 672l65 188h155l-70 -188h-150z" />
    <glyph glyph-name="OE" unicode="&#x152;" horiz-adv-x="1228" 
d="M40 430c0 48.667 7.33301 92.8301 22 132.497s36.667 73.334 66 101.001s66.5 49 111.5 64s97.167 22.5 156.5 22.5h775v-165h-386v-130h386v-160h-386v-130h386v-165h-775c-59.333 0 -111.5 7.5 -156.5 22.5s-82.167 36.333 -111.5 64s-51.333 61.334 -66 101.001
s-22 83.834 -22 132.501v110zM414 157.996h170.999v434h-176c-63.333 0 -105.666 -12.167 -126.999 -36.5s-32 -66.5 -32 -126.5v-107c0 -60 10.833 -102.333 32.5 -127s65.5 -37 131.5 -37z" />
    <glyph glyph-name="oe" unicode="&#x153;" horiz-adv-x="1157" 
d="M690 336v-72c0 -83.333 -25.167 -149.833 -75.5 -199.5s-122.166 -74.5 -215.499 -74.5h-70c-93.333 0 -165.333 24.833 -216 74.5s-76 116.167 -76 199.5v72c0 83.333 25.333 149.833 76 199.5s122.667 74.5 216 74.5h70c93.333 0 165.166 -24.833 215.499 -74.5
s75.5 -116.167 75.5 -199.5zM495 352c0 38.667 -7.16699 67.5 -21.5 86.5s-39.833 28.5 -76.5 28.5h-66c-36.667 0 -62.334 -9.5 -77.001 -28.5s-22 -47.833 -22 -86.5v-103c0 -39.333 7.33301 -68.5 22 -87.5s40.334 -28.5 77.001 -28.5h66c36.667 0 62.167 9.5 76.5 28.5
s21.5 48.167 21.5 87.5v103zM1117 244l-429.003 -0.000976562v-4c0 -38 8.33301 -63.333 25 -76s45.334 -19 86.001 -19h304v-145h-293c-58.667 0 -108.167 6.5 -148.5 19.5s-72.666 31.333 -96.999 55s-42 52.167 -53 85.5s-16.5 70 -16.5 110v76
c0 79.333 23 142.833 69 190.5s121.333 71.5 226 71.5h40c56 0 102.667 -6.66699 140 -20s66.833 -32.166 88.5 -56.499s36.834 -53.5 45.501 -87.5s13 -71.667 13 -113v-87zM851.997 473.999h-78c-32 0 -54.333 -7 -67 -21s-19 -37.333 -19 -70v-13h249v13
c0 32.667 -6.5 56 -19.5 70s-34.833 21 -65.5 21z" />
    <glyph glyph-name="Racute" unicode="&#x154;" horiz-adv-x="808" 
d="M785 0l-224 -0.00195312l-199 229c-16.667 19.333 -28.334 38.333 -35.001 57s-10 35.334 -10 50.001c0 32.667 10 57.5 30 74.5s47 25.5 81 25.5h99c22 0 38.333 6.16699 49 18.5s16 27.833 16 46.5v33c0 20 -5.16699 35.333 -15.5 46s-27.5 16 -51.5 16h-260v-596h-200
v750h440c96.667 0 168 -16 214 -48s69 -83.667 69 -155v-43c0 -31.333 -6.33301 -59.166 -19 -83.499s-29.5 -44.833 -50.5 -61.5s-45.667 -29.5 -74 -38.5s-58.166 -13.5 -89.499 -13.5h-24zM322 821.998l65 188h155l-70 -188h-150z" />
    <glyph glyph-name="racute" unicode="&#x155;" horiz-adv-x="482" 
d="M58 377c0 28.667 4.33105 56.3311 12.998 82.998s22.334 50.334 41.001 71.001s42.834 37.334 72.501 50.001s65.167 19 106.5 19h176v-145h-133c-34 0 -56.833 -6 -68.5 -18s-17.5 -32.667 -17.5 -62v-375h-190v377zM168.998 671.997l65 188h155l-70 -188h-150z" />
    <glyph glyph-name="Rcommaaccent" unicode="&#x156;" horiz-adv-x="808" 
d="M785 0l-224 -0.00195312l-199 229c-16.667 19.333 -28.334 38.333 -35.001 57s-10 35.334 -10 50.001c0 32.667 10 57.5 30 74.5s47 25.5 81 25.5h99c22 0 38.333 6.16699 49 18.5s16 27.833 16 46.5v33c0 20 -5.16699 35.333 -15.5 46s-27.5 16 -51.5 16h-260v-596h-200
v750h440c96.667 0 168 -16 214 -48s69 -83.667 69 -155v-43c0 -31.333 -6.33301 -59.166 -19 -83.499s-29.5 -44.833 -50.5 -61.5s-45.667 -29.5 -74 -38.5s-58.166 -13.5 -89.499 -13.5h-24zM293 -188.002c10.667 32 17.667 55.333 21 70s5 32.334 5 53.001v25h152v-25
c0 -20.667 -1.66699 -38.334 -5 -53.001s-11.333 -38 -24 -70h-149z" />
    <glyph glyph-name="rcommaaccent" unicode="&#x157;" horiz-adv-x="482" 
d="M58 377c0 28.667 4.33105 56.3311 12.998 82.998s22.334 50.334 41.001 71.001s42.834 37.334 72.501 50.001s65.167 19 106.5 19h176v-145h-133c-34 0 -56.833 -6 -68.5 -18s-17.5 -32.667 -17.5 -62v-375h-190v377zM138.998 -188.003c10.667 32 17.667 55.333 21 70
s5 32.334 5 53.001v25h152v-25c0 -20.667 -1.66699 -38.334 -5 -53.001s-11.333 -38 -24 -70h-149z" />
    <glyph glyph-name="Rcaron" unicode="&#x158;" horiz-adv-x="808" 
d="M785 0l-224 -0.00195312l-199 229c-16.667 19.333 -28.334 38.333 -35.001 57s-10 35.334 -10 50.001c0 32.667 10 57.5 30 74.5s47 25.5 81 25.5h99c22 0 38.333 6.16699 49 18.5s16 27.833 16 46.5v33c0 20 -5.16699 35.333 -15.5 46s-27.5 16 -51.5 16h-260v-596h-200
v750h440c96.667 0 168 -16 214 -48s69 -83.667 69 -155v-43c0 -31.333 -6.33301 -59.166 -19 -83.499s-29.5 -44.833 -50.5 -61.5s-45.667 -29.5 -74 -38.5s-58.166 -13.5 -89.499 -13.5h-24zM483 849.998c-8.66699 -12 -20 -23.167 -34 -33.5s-32 -15.5 -54 -15.5
s-40.333 5.5 -55 16.5s-26 21.833 -34 32.5l-101 145h137l53 -82l52 82h137z" />
    <glyph glyph-name="rcaron" unicode="&#x159;" horiz-adv-x="482" 
d="M58 377c0 28.667 4.33105 56.3311 12.998 82.998s22.334 50.334 41.001 71.001s42.834 37.334 72.501 50.001s65.167 19 106.5 19h176v-145h-133c-34 0 -56.833 -6 -68.5 -18s-17.5 -32.667 -17.5 -62v-375h-190v377zM328.998 699.997
c-8.66699 -12 -20 -23.167 -34 -33.5s-32 -15.5 -54 -15.5s-40.333 5.5 -55 16.5s-26 21.833 -34 32.5l-101 145h137l53 -82l52 82h137z" />
    <glyph glyph-name="Sacute" unicode="&#x15a;" horiz-adv-x="752" 
d="M434 279l-180 52.999c-69.333 20.667 -120.666 49 -153.999 85s-50 79 -50 129c0 62.667 22 112.334 66 149.001s106 55 186 55h385v-165h-386c-21.333 0 -36.333 -3.83301 -45 -11.5s-13 -16.167 -13 -25.5c0 -12 4.16699 -21.833 12.5 -29.5s21.833 -14.167 40.5 -19.5
l183 -53c77.333 -22.667 135.5 -50.5 174.5 -83.5s58.5 -79.167 58.5 -138.5c0 -30.667 -5.83301 -59.667 -17.5 -87s-29.334 -51 -53.001 -71s-53.667 -36 -90 -48s-78.833 -18 -127.5 -18h-354v165h384c25.333 0 43 5 53 15s15 21.667 15 35
c0 16 -6.16699 28.167 -18.5 36.5s-35.5 17.5 -69.5 27.5zM334 821.999l65 188h155l-70 -188h-150z" />
    <glyph glyph-name="sacute" unicode="&#x15b;" horiz-adv-x="637" 
d="M388 210l-163 32c-60 12 -105.833 33 -137.5 63s-47.5 70 -47.5 120c0 23.333 4.5 45.666 13.5 66.999s23 40 42 56s43.333 28.667 73 38s64.834 14 105.501 14h298v-145h-313c-20 0 -33.333 -3 -40 -9s-10 -12.667 -10 -20c0 -8 3 -15 9 -21s16.333 -10.333 31 -13
l148 -29c73.333 -14.667 125.833 -36.5 157.5 -65.5s47.5 -67.5 47.5 -115.5c0 -54 -20.5 -97.833 -61.5 -131.5s-103.167 -50.5 -186.5 -50.5h-294v145h326c21.333 0 35.166 3 41.499 9s9.5 13.667 9.5 23c0 10 -4.5 17.333 -13.5 22s-20.833 8.33398 -35.5 11.001z
M247 672l65 188h155l-70 -188h-150z" />
    <glyph glyph-name="Scedilla" unicode="&#x15e;" horiz-adv-x="752" 
d="M434 279l-180 52.999c-69.333 20.667 -120.666 49 -153.999 85s-50 79 -50 129c0 62.667 22 112.334 66 149.001s106 55 186 55h385v-165h-386c-21.333 0 -36.333 -3.83301 -45 -11.5s-13 -16.167 -13 -25.5c0 -12 4.16699 -21.833 12.5 -29.5s21.833 -14.167 40.5 -19.5
l183 -53c77.333 -22.667 135.5 -50.5 174.5 -83.5s58.5 -79.167 58.5 -138.5c0 -30.667 -5.83301 -59.667 -17.5 -87s-29.334 -51 -53.001 -71s-53.667 -36 -90 -48s-78.833 -18 -127.5 -18h-354v165h384c25.333 0 43 5 53 15s15 21.667 15 35
c0 16 -6.16699 28.167 -18.5 36.5s-35.5 17.5 -69.5 27.5zM453 9.99902l-68 -198h-155l73 198h150z" />
    <glyph glyph-name="scedilla" unicode="&#x15f;" horiz-adv-x="637" 
d="M388 210l-163 32c-60 12 -105.833 33 -137.5 63s-47.5 70 -47.5 120c0 23.333 4.5 45.666 13.5 66.999s23 40 42 56s43.333 28.667 73 38s64.834 14 105.501 14h298v-145h-313c-20 0 -33.333 -3 -40 -9s-10 -12.667 -10 -20c0 -8 3 -15 9 -21s16.333 -10.333 31 -13
l148 -29c73.333 -14.667 125.833 -36.5 157.5 -65.5s47.5 -67.5 47.5 -115.5c0 -54 -20.5 -97.833 -61.5 -131.5s-103.167 -50.5 -186.5 -50.5h-294v145h326c21.333 0 35.166 3 41.499 9s9.5 13.667 9.5 23c0 10 -4.5 17.333 -13.5 22s-20.833 8.33398 -35.5 11.001zM396 10
l-68 -198h-155l73 198h150z" />
    <glyph glyph-name="Scaron" unicode="&#x160;" horiz-adv-x="752" 
d="M434 279l-180 52.999c-69.333 20.667 -120.666 49 -153.999 85s-50 79 -50 129c0 62.667 22 112.334 66 149.001s106 55 186 55h385v-165h-386c-21.333 0 -36.333 -3.83301 -45 -11.5s-13 -16.167 -13 -25.5c0 -12 4.16699 -21.833 12.5 -29.5s21.833 -14.167 40.5 -19.5
l183 -53c77.333 -22.667 135.5 -50.5 174.5 -83.5s58.5 -79.167 58.5 -138.5c0 -30.667 -5.83301 -59.667 -17.5 -87s-29.334 -51 -53.001 -71s-53.667 -36 -90 -48s-78.833 -18 -127.5 -18h-354v165h384c25.333 0 43 5 53 15s15 21.667 15 35
c0 16 -6.16699 28.167 -18.5 36.5s-35.5 17.5 -69.5 27.5zM495 849.999c-8.66699 -12 -20 -23.167 -34 -33.5s-32 -15.5 -54 -15.5s-40.333 5.5 -55 16.5s-26 21.833 -34 32.5l-101 145h137l53 -82l52 82h137z" />
    <glyph glyph-name="scaron" unicode="&#x161;" horiz-adv-x="637" 
d="M388 210l-163 32c-60 12 -105.833 33 -137.5 63s-47.5 70 -47.5 120c0 23.333 4.5 45.666 13.5 66.999s23 40 42 56s43.333 28.667 73 38s64.834 14 105.501 14h298v-145h-313c-20 0 -33.333 -3 -40 -9s-10 -12.667 -10 -20c0 -8 3 -15 9 -21s16.333 -10.333 31 -13
l148 -29c73.333 -14.667 125.833 -36.5 157.5 -65.5s47.5 -67.5 47.5 -115.5c0 -54 -20.5 -97.833 -61.5 -131.5s-103.167 -50.5 -186.5 -50.5h-294v145h326c21.333 0 35.166 3 41.499 9s9.5 13.667 9.5 23c0 10 -4.5 17.333 -13.5 22s-20.833 8.33398 -35.5 11.001z
M407 700c-8.66699 -12 -20 -23.167 -34 -33.5s-32 -15.5 -54 -15.5s-40.333 5.5 -55 16.5s-26 21.833 -34 32.5l-101 145h137l53 -82l52 82h137z" />
    <glyph glyph-name="Tcedilla" unicode="&#x162;" horiz-adv-x="820" 
d="M310 0v585h-285v165h770v-165h-285v-585h-200zM486 10l-68 -198h-155l73 198h150z" />
    <glyph glyph-name="tcedilla" unicode="&#x163;" horiz-adv-x="542" 
d="M20 455l0.000976562 145h97v122h175v-122h205v-145h-205v-243c0 -25.333 5.33301 -42.833 16 -52.5s28 -14.5 52 -14.5h137v-145h-159c-82.667 0 -141.834 17.5 -177.501 52.5s-53.5 88.167 -53.5 159.5v243h-87zM418.001 10l-68 -198h-155l73 198h150z" />
    <glyph glyph-name="Tcaron" unicode="&#x164;" horiz-adv-x="820" 
d="M310 0v585h-285v165h770v-165h-285v-585h-200zM499 850c-8.66699 -12 -20 -23.167 -34 -33.5s-32 -15.5 -54 -15.5s-40.333 5.5 -55 16.5s-26 21.833 -34 32.5l-101 145h137l53 -82l52 82h137z" />
    <glyph glyph-name="tcaron" unicode="&#x165;" horiz-adv-x="542" 
d="M338 649l42 150h120l-42 -150h-120zM20 455l0.000976562 145h97v122h175v-122h205v-145h-205v-243c0 -25.333 5.33301 -42.833 16 -52.5s28 -14.5 52 -14.5h137v-145h-159c-82.667 0 -141.834 17.5 -177.501 52.5s-53.5 88.167 -53.5 159.5v243h-87z" />
    <glyph glyph-name="Tbar" unicode="&#x166;" horiz-adv-x="820" 
d="M310 0v270h-183v110h183v205h-285v165h770v-165h-285v-205h183v-110h-183v-270h-200z" />
    <glyph glyph-name="tbar" unicode="&#x167;" horiz-adv-x="542" 
d="M47 350h60.001v105h-87v145h97v122h175v-122h205v-145h-205v-105h146v-90h-146v-48c0 -25.333 5.33301 -42.833 16 -52.5s28 -14.5 52 -14.5h137v-145h-159c-82.667 0 -141.834 17.5 -177.501 52.5s-53.5 88.167 -53.5 159.5v48h-60v90z" />
    <glyph glyph-name="Utilde" unicode="&#x168;" horiz-adv-x="850" 
d="M372 -13c-112 0 -192 24.999 -240 74.999s-72 119.667 -72 209v479h200v-498c0 -36 8.16699 -62.5 24.5 -79.5s44.5 -25.5 84.5 -25.5h114c37.333 0 64.5 8.5 81.5 25.5s25.5 43.5 25.5 79.5v498h200v-479c0 -44.667 -5.16699 -84.667 -15.5 -120
s-27.333 -65.166 -51 -89.499s-55.5 -42.833 -95.5 -55.5s-89.333 -19 -148 -19h-108zM490 937.999l18.001 -13.5c4 -3 9 -4.5 15 -4.5c5.33301 0 9.33301 1.83301 12 5.5s4 9.83398 4 18.501v62h99v-76c0 -35.333 -10.333 -63.166 -31 -83.499s-47 -30.5 -79 -30.5
c-22.667 0 -41.5 3.83301 -56.5 11.5s-33.5 19.834 -55.5 36.501l-34 26c-6.66699 5.33301 -12.334 9.66602 -17.001 12.999s-9.66699 5 -15 5c-4.66699 0 -8.66699 -1.83301 -12 -5.5s-5 -9.83398 -5 -18.501v-62h-99v78c0 36 10.667 63.667 32 83s47.333 29 78 29
c22.667 0 41.5 -3.83301 56.5 -11.5s33.5 -19.834 55.5 -36.501z" />
    <glyph glyph-name="utilde" unicode="&#x169;" horiz-adv-x="737" 
d="M489 155v445h190v-600h-372c-87.333 0 -150.666 22 -189.999 66s-59 103.667 -59 179v355h190v-360c0 -30.667 5.16699 -52.5 15.5 -65.5s30.166 -19.5 59.499 -19.5h166zM423 788l18.001 -13.5c4 -3 9 -4.5 15 -4.5c5.33301 0 9.33301 1.83301 12 5.5
s4 9.83398 4 18.501v62h99v-76c0 -35.333 -10.333 -63.166 -31 -83.499s-47 -30.5 -79 -30.5c-22.667 0 -41.5 3.83301 -56.5 11.5s-33.5 19.834 -55.5 36.501l-34 26c-6.66699 5.33301 -12.334 9.66602 -17.001 12.999s-9.66699 5 -15 5
c-4.66699 0 -8.66699 -1.83301 -12 -5.5s-5 -9.83398 -5 -18.501v-62h-99v78c0 36 10.667 63.667 32 83s47.333 29 78 29c22.667 0 41.5 -3.83301 56.5 -11.5s33.5 -19.834 55.5 -36.501z" />
    <glyph glyph-name="Umacron" unicode="&#x16a;" horiz-adv-x="850" 
d="M372 -13c-112 0 -192 24.999 -240 74.999s-72 119.667 -72 209v479h200v-498c0 -36 8.16699 -62.5 24.5 -79.5s44.5 -25.5 84.5 -25.5h114c37.333 0 64.5 8.5 81.5 25.5s25.5 43.5 25.5 79.5v498h200v-479c0 -44.667 -5.16699 -84.667 -15.5 -120
s-27.333 -65.166 -51 -89.499s-55.5 -42.833 -95.5 -55.5s-89.333 -19 -148 -19h-108zM565 846.999h-260v98h260v-98z" />
    <glyph glyph-name="umacron" unicode="&#x16b;" horiz-adv-x="737" 
d="M489 155v445h190v-600h-372c-87.333 0 -150.666 22 -189.999 66s-59 103.667 -59 179v355h190v-360c0 -30.667 5.16699 -52.5 15.5 -65.5s30.166 -19.5 59.499 -19.5h166zM499 697h-260v98h260v-98z" />
    <glyph glyph-name="Ubreve" unicode="&#x16c;" horiz-adv-x="850" 
d="M372 -13c-112 0 -192 24.999 -240 74.999s-72 119.667 -72 209v479h200v-498c0 -36 8.16699 -62.5 24.5 -79.5s44.5 -25.5 84.5 -25.5h114c37.333 0 64.5 8.5 81.5 25.5s25.5 43.5 25.5 79.5v498h200v-479c0 -44.667 -5.16699 -84.667 -15.5 -120
s-27.333 -65.166 -51 -89.499s-55.5 -42.833 -95.5 -55.5s-89.333 -19 -148 -19h-108zM269 979.999h98v-51c0 -10.667 3.16699 -18.834 9.5 -24.501s14.5 -8.5 24.5 -8.5h60c10 0 18.167 2.83301 24.5 8.5s9.5 13.834 9.5 24.501v51h96v-84c0 -24 -9.5 -43.833 -28.5 -59.5
s-40.833 -23.5 -65.5 -23.5h-133c-26.667 0 -49.167 7.83301 -67.5 23.5s-27.5 35.5 -27.5 59.5v84z" />
    <glyph glyph-name="ubreve" unicode="&#x16d;" horiz-adv-x="737" 
d="M489 155v445h190v-600h-372c-87.333 0 -150.666 22 -189.999 66s-59 103.667 -59 179v355h190v-360c0 -30.667 5.16699 -52.5 15.5 -65.5s30.166 -19.5 59.499 -19.5h166zM202 830h98v-51c0 -10.667 3.16699 -18.834 9.5 -24.501s14.5 -8.5 24.5 -8.5h60
c10 0 18.167 2.83301 24.5 8.5s9.5 13.834 9.5 24.501v51h96v-84c0 -24 -9.5 -43.833 -28.5 -59.5s-40.833 -23.5 -65.5 -23.5h-133c-26.667 0 -49.167 7.83301 -67.5 23.5s-27.5 35.5 -27.5 59.5v84z" />
    <glyph glyph-name="Uring" unicode="&#x16e;" horiz-adv-x="850" 
d="M372 -13c-112 0 -192 24.999 -240 74.999s-72 119.667 -72 209v479h200v-498c0 -36 8.16699 -62.5 24.5 -79.5s44.5 -25.5 84.5 -25.5h114c37.333 0 64.5 8.5 81.5 25.5s25.5 43.5 25.5 79.5v498h200v-479c0 -44.667 -5.16699 -84.667 -15.5 -120
s-27.333 -65.166 -51 -89.499s-55.5 -42.833 -95.5 -55.5s-89.333 -19 -148 -19h-108zM328 903.999v24c0 26 8.5 47 25.5 63s37.833 24 62.5 24h39c24.667 0 45.5 -8 62.5 -24s25.5 -37 25.5 -63v-24c0 -26 -8.5 -47 -25.5 -63s-37.833 -24 -62.5 -24h-39
c-24.667 0 -45.5 8 -62.5 24s-25.5 37 -25.5 63zM395 925.999v-20c0 -10.667 2.5 -18.5 7.5 -23.5s11.833 -7.5 20.5 -7.5h25c8.66699 0 15.667 2.5 21 7.5s8 12.833 8 23.5v20c0 10.667 -2.66699 18.5 -8 23.5s-12.333 7.5 -21 7.5h-25c-8.66699 0 -15.5 -2.5 -20.5 -7.5
s-7.5 -12.833 -7.5 -23.5z" />
    <glyph glyph-name="uring" unicode="&#x16f;" horiz-adv-x="737" 
d="M489 155v445h190v-600h-372c-87.333 0 -150.666 22 -189.999 66s-59 103.667 -59 179v355h190v-360c0 -30.667 5.16699 -52.5 15.5 -65.5s30.166 -19.5 59.499 -19.5h166zM261 754v24c0 26 8.5 47 25.5 63s37.833 24 62.5 24h39c24.667 0 45.5 -8 62.5 -24
s25.5 -37 25.5 -63v-24c0 -26 -8.5 -47 -25.5 -63s-37.833 -24 -62.5 -24h-39c-24.667 0 -45.5 8 -62.5 24s-25.5 37 -25.5 63zM328 776v-20c0 -10.667 2.5 -18.5 7.5 -23.5s11.833 -7.5 20.5 -7.5h25c8.66699 0 15.667 2.5 21 7.5s8 12.833 8 23.5v20
c0 10.667 -2.66699 18.5 -8 23.5s-12.333 7.5 -21 7.5h-25c-8.66699 0 -15.5 -2.5 -20.5 -7.5s-7.5 -12.833 -7.5 -23.5z" />
    <glyph glyph-name="Uhungarumlaut" unicode="&#x170;" horiz-adv-x="850" 
d="M372 -13c-112 0 -192 24.999 -240 74.999s-72 119.667 -72 209v479h200v-498c0 -36 8.16699 -62.5 24.5 -79.5s44.5 -25.5 84.5 -25.5h114c37.333 0 64.5 8.5 81.5 25.5s25.5 43.5 25.5 79.5v498h200v-479c0 -44.667 -5.16699 -84.667 -15.5 -120
s-27.333 -65.166 -51 -89.499s-55.5 -42.833 -95.5 -55.5s-89.333 -19 -148 -19h-108zM268 821.999l65 188h155l-70 -188h-150zM468 821.999l65 188h155l-70 -188h-150z" />
    <glyph glyph-name="uhungarumlaut" unicode="&#x171;" horiz-adv-x="737" 
d="M489 155v445h190v-600h-372c-87.333 0 -150.666 22 -189.999 66s-59 103.667 -59 179v355h190v-360c0 -30.667 5.16699 -52.5 15.5 -65.5s30.166 -19.5 59.499 -19.5h166zM202 672l65 188h155l-70 -188h-150zM402 672l65 188h155l-70 -188h-150z" />
    <glyph glyph-name="Uogonek" unicode="&#x172;" horiz-adv-x="850" 
d="M372 -13c-112 0 -192 24.999 -240 74.999s-72 119.667 -72 209v479h200v-498c0 -36 8.16699 -62.5 24.5 -79.5s44.5 -25.5 84.5 -25.5h114c37.333 0 64.5 8.5 81.5 25.5s25.5 43.5 25.5 79.5v498h200v-479c0 -44.667 -5.16699 -84.667 -15.5 -120
s-27.333 -65.166 -51 -89.499s-55.5 -42.833 -95.5 -55.5s-89.333 -19 -148 -19h-108zM393 -0.000976562h112l-44 -58c-6 -7.33301 -10.667 -13.5 -14 -18.5s-5 -10.5 -5 -16.5s2.33301 -10.833 7 -14.5s11.667 -5.5 21 -5.5h35v-77h-85c-36.667 0 -63.167 7 -79.5 21
s-24.5 31.333 -24.5 52c0 12.667 3.16699 25.667 9.5 39s17.833 28.333 34.5 45z" />
    <glyph glyph-name="uogonek" unicode="&#x173;" horiz-adv-x="737" 
d="M489 155v445h190v-600h-372c-87.333 0 -150.666 22 -189.999 66s-59 103.667 -59 179v355h190v-360c0 -30.667 5.16699 -52.5 15.5 -65.5s30.166 -19.5 59.499 -19.5h166zM567 0h112l-44 -58c-6 -7.33301 -10.667 -13.5 -14 -18.5s-5 -10.5 -5 -16.5
s2.33301 -10.833 7 -14.5s11.667 -5.5 21 -5.5h35v-77h-85c-36.667 0 -63.167 7 -79.5 21s-24.5 31.333 -24.5 52c0 12.667 3.16699 25.667 9.5 39s17.833 28.333 34.5 45z" />
    <glyph glyph-name="Wcircumflex" unicode="&#x174;" horiz-adv-x="1210" 
d="M215 750l86.0039 -570.998c0.666992 -6.66699 2.66699 -12.334 6 -17.001s8.33301 -7 15 -7c6 0 10.5 2.16699 13.5 6.5s4.83301 9.5 5.5 15.5l64 379c10.667 62 32.5 111.833 65.5 149.5s81.167 56.5 144.5 56.5c64 0 110.5 -19 139.5 -57s48.833 -87.333 59.5 -148
l64 -379c1.33301 -7.33301 3.66602 -13 6.99902 -17s7.66602 -6 12.999 -6c8.66699 0 14.5 2.33301 17.5 7s4.83301 10.667 5.5 18l84 570h200l-104 -580c-10.667 -58.667 -31.5 -103.334 -62.5 -134.001s-75.167 -46 -132.5 -46c-64 0 -113.667 17 -149 51
s-57.666 80 -66.999 138l-65 394c-0.666992 6 -2.33398 10.667 -5.00098 14s-6.66699 5 -12 5s-9.33301 -1.66699 -12 -5s-4.33398 -8 -5.00098 -14l-67 -396c-10 -58 -30.833 -103.667 -62.5 -137s-77.834 -50 -138.501 -50c-64 0 -112.167 18.167 -144.5 54.5
s-53.5 82.5 -63.5 138.5l-100 567h200zM662.004 822.002l-52 82l-53 -82h-137l101 145c8 10.667 19.333 21.5 34 32.5s33 16.5 55 16.5s40 -5.16699 54 -15.5s25.333 -21.5 34 -33.5l101 -145h-137z" />
    <glyph glyph-name="wcircumflex" unicode="&#x175;" horiz-adv-x="1070" 
d="M536 613c32 0 59.332 -4.66406 81.999 -13.9971s41.667 -21.5 57 -36.5s27.166 -32.5 35.499 -52.5s14.166 -40.667 17.499 -62l44 -287c0.666992 -6.66699 2.66699 -12.334 6 -17.001s8 -7 14 -7s10.333 2.33301 13 7s4.33398 10.334 5.00098 17.001l66 439h179
l-75 -459c-8 -47.333 -28.5 -84.333 -61.5 -111s-72.833 -40 -119.5 -40c-60 0 -107.167 15.333 -141.5 46s-55.5 71.334 -63.5 122.001l-43 275c-0.666992 6 -2.16699 10.667 -4.5 14s-6.5 5 -12.5 5s-10 -1.66699 -12 -5s-3.33301 -8.33301 -4 -15l-36 -275
c-6.66699 -50 -26.334 -90.333 -59.001 -121s-75.334 -46 -128.001 -46c-50.667 0 -92.667 12.667 -126 38s-55 63.666 -65 114.999l-89 457h191l70 -438c1.33301 -8.66699 3.5 -15 6.5 -19s7.16699 -6 12.5 -6c6 0 10.5 2.16699 13.5 6.5s4.83301 10.166 5.5 17.499l40 289
c2.66699 20.667 8.33398 40.667 17.001 60s20.334 36.666 35.001 51.999s32.834 27.666 54.501 36.999s46.834 14 75.501 14zM582.999 672.003l-52 82l-53 -82h-137l101 145c8 10.667 19.333 21.5 34 32.5s33 16.5 55 16.5s40 -5.16699 54 -15.5s25.333 -21.5 34 -33.5
l101 -145h-137z" />
    <glyph glyph-name="Ycircumflex" unicode="&#x176;" horiz-adv-x="800" 
d="M300 0v260.999l-290 489h224l145 -260c5.33301 -10 12.833 -15.167 22.5 -15.5s17.5 4.83398 23.5 15.501l156 260h209l-290 -489v-261h-200zM452 821.999l-52 82l-53 -82h-137l101 145c8 10.667 19.333 21.5 34 32.5s33 16.5 55 16.5s40 -5.16699 54 -15.5
s25.333 -21.5 34 -33.5l101 -145h-137z" />
    <glyph glyph-name="ycircumflex" unicode="&#x177;" horiz-adv-x="720" 
d="M351 241c2.66699 -7.33301 6 -12.165 10 -14.498s7.66699 -3.5 11 -3.5c4 0 7.5 1.16699 10.5 3.5s5.83301 7.16602 8.5 14.499l117 359h202l-215 -582c-18 -48.667 -48.5 -88.834 -91.5 -120.501s-100.5 -47.5 -172.5 -47.5h-164v159h181c24 0 42.167 5.5 54.5 16.5
s22.833 29.167 31.5 54.5l7 20h-48c-27.333 0 -49.833 6 -67.5 18s-31.5 30.333 -41.5 55l-174 427h209zM412 672.001l-52 82l-53 -82h-137l101 145c8 10.667 19.333 21.5 34 32.5s33 16.5 55 16.5s40 -5.16699 54 -15.5s25.333 -21.5 34 -33.5l101 -145h-137z" />
    <glyph glyph-name="Ydieresis" unicode="&#x178;" horiz-adv-x="800" 
d="M300 0v260.999l-290 489h224l145 -260c5.33301 -10 12.833 -15.167 22.5 -15.5s17.5 4.83398 23.5 15.501l156 260h209l-290 -489v-261h-200zM569 841.999h-134v128h134v-128zM364 841.999h-134v128h134v-128z" />
    <glyph glyph-name="Zacute" unicode="&#x179;" horiz-adv-x="719" 
d="M678 0l-441.999 0.00195312c-38 0 -70.833 4.5 -98.5 13.5s-50.334 21 -68.001 36s-30.834 32.5 -39.501 52.5s-13 41 -13 63c0 43.333 13.167 81.666 39.5 114.999s66.5 65.333 120.5 96l292 162c6.66699 3.33301 11.334 7 14.001 11s4 8.66699 4 14
c0 6.66699 -2.5 12 -7.5 16s-12.833 6 -23.5 6h-413v165h412c86 0 147 -12.833 183 -38.5s54 -65.5 54 -119.5c0 -34.667 -11 -69 -33 -103s-59 -66 -111 -96l-304 -173c-8 -4.66699 -14 -9 -18 -13s-6 -10 -6 -18c0 -8.66699 3 -14.834 9 -18.501s14.333 -5.5 25 -5.5h424
v-165zM298.001 822.002l65 188h155l-70 -188h-150z" />
    <glyph glyph-name="zacute" unicode="&#x17a;" horiz-adv-x="669" 
d="M625 0l-372 -0.000976562c-71.333 0 -124.166 15.667 -158.499 47s-51.5 70.333 -51.5 117c0 47.333 15.667 85.333 47 114s71 50.334 119 65.001l211 66c8.66699 2.66699 15.167 6 19.5 10s6.5 9 6.5 15c0 6.66699 -2.33301 11.834 -7 15.501s-12 5.5 -22 5.5h-354v145
h350c79.333 0 135.5 -14.667 168.5 -44s49.5 -68 49.5 -116c0 -50 -14.167 -88.833 -42.5 -116.5s-66.5 -48.834 -114.5 -63.501l-219 -66c-8.66699 -2.66699 -15.334 -6 -20.001 -10s-7 -9.33301 -7 -16c0 -7.33301 2.5 -13 7.5 -17s12.167 -6 21.5 -6h368v-145z
M268 671.999l65 188h155l-70 -188h-150z" />
    <glyph glyph-name="Zdotaccent" unicode="&#x17b;" horiz-adv-x="719" 
d="M678 0l-441.999 0.00195312c-38 0 -70.833 4.5 -98.5 13.5s-50.334 21 -68.001 36s-30.834 32.5 -39.501 52.5s-13 41 -13 63c0 43.333 13.167 81.666 39.5 114.999s66.5 65.333 120.5 96l292 162c6.66699 3.33301 11.334 7 14.001 11s4 8.66699 4 14
c0 6.66699 -2.5 12 -7.5 16s-12.833 6 -23.5 6h-413v165h412c86 0 147 -12.833 183 -38.5s54 -65.5 54 -119.5c0 -34.667 -11 -69 -33 -103s-59 -66 -111 -96l-304 -173c-8 -4.66699 -14 -9 -18 -13s-6 -10 -6 -18c0 -8.66699 3 -14.834 9 -18.501s14.333 -5.5 25 -5.5h424
v-165zM439.001 812.002h-139v128h139v-128z" />
    <glyph glyph-name="zdotaccent" unicode="&#x17c;" horiz-adv-x="669" 
d="M625 0l-372 -0.000976562c-71.333 0 -124.166 15.667 -158.499 47s-51.5 70.333 -51.5 117c0 47.333 15.667 85.333 47 114s71 50.334 119 65.001l211 66c8.66699 2.66699 15.167 6 19.5 10s6.5 9 6.5 15c0 6.66699 -2.33301 11.834 -7 15.501s-12 5.5 -22 5.5h-354v145
h350c79.333 0 135.5 -14.667 168.5 -44s49.5 -68 49.5 -116c0 -50 -14.167 -88.833 -42.5 -116.5s-66.5 -48.834 -114.5 -63.501l-219 -66c-8.66699 -2.66699 -15.334 -6 -20.001 -10s-7 -9.33301 -7 -16c0 -7.33301 2.5 -13 7.5 -17s12.167 -6 21.5 -6h368v-145z
M409 661.999h-139v128h139v-128z" />
    <glyph glyph-name="Zcaron" unicode="&#x17d;" horiz-adv-x="719" 
d="M678 0l-441.999 0.00195312c-38 0 -70.833 4.5 -98.5 13.5s-50.334 21 -68.001 36s-30.834 32.5 -39.501 52.5s-13 41 -13 63c0 43.333 13.167 81.666 39.5 114.999s66.5 65.333 120.5 96l292 162c6.66699 3.33301 11.334 7 14.001 11s4 8.66699 4 14
c0 6.66699 -2.5 12 -7.5 16s-12.833 6 -23.5 6h-413v165h412c86 0 147 -12.833 183 -38.5s54 -65.5 54 -119.5c0 -34.667 -11 -69 -33 -103s-59 -66 -111 -96l-304 -173c-8 -4.66699 -14 -9 -18 -13s-6 -10 -6 -18c0 -8.66699 3 -14.834 9 -18.501s14.333 -5.5 25 -5.5h424
v-165zM459.001 850.002c-8.66699 -12 -20 -23.167 -34 -33.5s-32 -15.5 -54 -15.5s-40.333 5.5 -55 16.5s-26 21.833 -34 32.5l-101 145h137l53 -82l52 82h137z" />
    <glyph glyph-name="zcaron" unicode="&#x17e;" horiz-adv-x="649" 
d="M625 0l-372 -0.000976562c-71.333 0 -124.166 15.667 -158.499 47s-51.5 70.333 -51.5 117c0 47.333 15.667 85.333 47 114s71 50.334 119 65.001l211 66c8.66699 2.66699 15.167 6 19.5 10s6.5 9 6.5 15c0 6.66699 -2.33301 11.834 -7 15.501s-12 5.5 -22 5.5h-354v145
h350c79.333 0 135.5 -14.667 168.5 -44s49.5 -68 49.5 -116c0 -50 -14.167 -88.833 -42.5 -116.5s-66.5 -48.834 -114.5 -63.501l-219 -66c-8.66699 -2.66699 -15.334 -6 -20.001 -10s-7 -9.33301 -7 -16c0 -7.33301 2.5 -13 7.5 -17s12.167 -6 21.5 -6h368v-145z
M418 699.999c-8.66699 -12 -20 -23.167 -34 -33.5s-32 -15.5 -54 -15.5s-40.333 5.5 -55 16.5s-26 21.833 -34 32.5l-101 145h137l53 -82l52 82h137z" />
    <glyph glyph-name="Schwa" unicode="&#x18f;" horiz-adv-x="812" 
d="M40 454l529.003 -0.000976562v41c0 38 -8.33301 63.333 -25 76s-45.334 19 -86.001 19h-404v160h403c58.667 0 108.167 -6.5 148.5 -19.5s72.666 -31.333 96.999 -55s42 -52.167 53 -85.5s16.5 -70 16.5 -110v-168c0 -47.333 -5.5 -90.166 -16.5 -128.499
s-28.333 -71 -52 -98s-54.167 -48 -91.5 -63s-82.333 -22.5 -135 -22.5h-150c-56 0 -102.667 7.5 -140 22.5s-66.833 35.833 -88.5 62.5s-36.834 59 -45.501 97s-13 79.667 -13 125v147zM325.003 158.999h158c32 0 54.333 7 67 21s19 37.333 19 70v53h-329v-53
c0 -32.667 6.5 -56 19.5 -70s34.833 -21 65.5 -21z" />
    <glyph glyph-name="Scommaaccent" unicode="&#x218;" horiz-adv-x="752" 
d="M434 279l-180 52.999c-69.333 20.667 -120.666 49 -153.999 85s-50 79 -50 129c0 62.667 22 112.334 66 149.001s106 55 186 55h385v-165h-386c-21.333 0 -36.333 -3.83301 -45 -11.5s-13 -16.167 -13 -25.5c0 -12 4.16699 -21.833 12.5 -29.5s21.833 -14.167 40.5 -19.5
l183 -53c77.333 -22.667 135.5 -50.5 174.5 -83.5s58.5 -79.167 58.5 -138.5c0 -30.667 -5.83301 -59.667 -17.5 -87s-29.334 -51 -53.001 -71s-53.667 -36 -90 -48s-78.833 -18 -127.5 -18h-354v165h384c25.333 0 43 5 53 15s15 21.667 15 35
c0 16 -6.16699 28.167 -18.5 36.5s-35.5 17.5 -69.5 27.5zM275 -188.001c10.667 32 17.667 55.333 21 70s5 32.334 5 53.001v25h152v-25c0 -20.667 -1.66699 -38.334 -5 -53.001s-11.333 -38 -24 -70h-149z" />
    <glyph glyph-name="scommaaccent" unicode="&#x219;" horiz-adv-x="637" 
d="M388 210l-163 32c-60 12 -105.833 33 -137.5 63s-47.5 70 -47.5 120c0 23.333 4.5 45.666 13.5 66.999s23 40 42 56s43.333 28.667 73 38s64.834 14 105.501 14h298v-145h-313c-20 0 -33.333 -3 -40 -9s-10 -12.667 -10 -20c0 -8 3 -15 9 -21s16.333 -10.333 31 -13
l148 -29c73.333 -14.667 125.833 -36.5 157.5 -65.5s47.5 -67.5 47.5 -115.5c0 -54 -20.5 -97.833 -61.5 -131.5s-103.167 -50.5 -186.5 -50.5h-294v145h326c21.333 0 35.166 3 41.499 9s9.5 13.667 9.5 23c0 10 -4.5 17.333 -13.5 22s-20.833 8.33398 -35.5 11.001z
M218 -188c10.667 32 17.667 55.333 21 70s5 32.334 5 53.001v25h152v-25c0 -20.667 -1.66699 -38.334 -5 -53.001s-11.333 -38 -24 -70h-149z" />
    <glyph glyph-name="Tcommaaccent" unicode="&#x21a;" horiz-adv-x="820" 
d="M310 0v585h-285v165h770v-165h-285v-585h-200zM309 -188c10.667 32 17.667 55.333 21 70s5 32.334 5 53.001v25h152v-25c0 -20.667 -1.66699 -38.334 -5 -53.001s-11.333 -38 -24 -70h-149z" />
    <glyph glyph-name="tcommaaccent" unicode="&#x21b;" horiz-adv-x="542" 
d="M20 455l0.000976562 145h97v122h175v-122h205v-145h-205v-243c0 -25.333 5.33301 -42.833 16 -52.5s28 -14.5 52 -14.5h137v-145h-159c-82.667 0 -141.834 17.5 -177.501 52.5s-53.5 88.167 -53.5 159.5v243h-87zM240.001 -188c10.667 32 17.667 55.333 21 70
s5 32.334 5 53.001v25h152v-25c0 -20.667 -1.66699 -38.334 -5 -53.001s-11.333 -38 -24 -70h-149z" />
    <glyph glyph-name="ipa:schwa" unicode="&#x259;" horiz-adv-x="699" 
d="M40 356l429.003 0.000976562v4c0 38 -8.33301 63.333 -25 76s-45.334 19 -86.001 19h-304v145h293c58.667 0 108.167 -6.5 148.5 -19.5s72.666 -31.333 96.999 -55s42 -52.167 53 -85.5s16.5 -70 16.5 -110v-76c0 -79.333 -23 -142.833 -69 -190.5
s-121.333 -71.5 -226 -71.5h-40c-56 0 -102.667 6.66699 -140 20s-66.833 32.166 -88.5 56.499s-36.834 53.5 -45.501 87.5s-13 71.667 -13 113v87zM305.003 126.001h78c32 0 54.333 7 67 21s19 37.333 19 70v13h-249v-13c0 -32.667 6.5 -56 19.5 -70s34.833 -21 65.5 -21z
" />
    <glyph glyph-name="circumflex" unicode="&#x2c6;" horiz-adv-x="707" 
d="M406 672l-52 82l-53 -82h-137l101 145c8 10.667 19.333 21.5 34 32.5s33 16.5 55 16.5s40 -5.16699 54 -15.5s25.333 -21.5 34 -33.5l101 -145h-137z" />
    <glyph glyph-name="caron" unicode="&#x2c7;" horiz-adv-x="707" 
d="M442 700c-8.66699 -12 -20 -23.167 -34 -33.5s-32 -15.5 -54 -15.5s-40.333 5.5 -55 16.5s-26 21.833 -34 32.5l-101 145h137l53 -82l52 82h137z" />
    <glyph glyph-name="breve" unicode="&#x2d8;" horiz-adv-x="727" 
d="M197 830h98v-51c0 -10.667 3.16699 -18.834 9.5 -24.501s14.5 -8.5 24.5 -8.5h60c10 0 18.167 2.83301 24.5 8.5s9.5 13.834 9.5 24.501v51h96v-84c0 -24 -9.5 -43.833 -28.5 -59.5s-40.833 -23.5 -65.5 -23.5h-133c-26.667 0 -49.167 7.83301 -67.5 23.5
s-27.5 35.5 -27.5 59.5v84z" />
    <glyph glyph-name="dotaccent" unicode="&#x2d9;" horiz-adv-x="510" 
d="M324 662h-139v128h139v-128z" />
    <glyph glyph-name="ring" unicode="&#x2da;" horiz-adv-x="727" 
d="M256 754v24c0 26 8.5 47 25.5 63s37.833 24 62.5 24h39c24.667 0 45.5 -8 62.5 -24s25.5 -37 25.5 -63v-24c0 -26 -8.5 -47 -25.5 -63s-37.833 -24 -62.5 -24h-39c-24.667 0 -45.5 8 -62.5 24s-25.5 37 -25.5 63zM323 776v-20c0 -10.667 2.5 -18.5 7.5 -23.5
s11.833 -7.5 20.5 -7.5h25c8.66699 0 15.667 2.5 21 7.5s8 12.833 8 23.5v20c0 10.667 -2.66699 18.5 -8 23.5s-12.333 7.5 -21 7.5h-25c-8.66699 0 -15.5 -2.5 -20.5 -7.5s-7.5 -12.833 -7.5 -23.5z" />
    <glyph glyph-name="ogonek" unicode="&#x2db;" horiz-adv-x="326" 
d="M119 0h112l-44 -58c-6 -7.33301 -10.667 -13.5 -14 -18.5s-5 -10.5 -5 -16.5s2.33301 -10.833 7 -14.5s11.667 -5.5 21 -5.5h35v-77h-85c-36.667 0 -63.167 7 -79.5 21s-24.5 31.333 -24.5 52c0 12.667 3.16699 25.667 9.5 39s17.833 28.333 34.5 45z" />
    <glyph glyph-name="tilde" unicode="&#x2dc;" horiz-adv-x="860" 
d="M485 788l18.001 -13.5c4 -3 9 -4.5 15 -4.5c5.33301 0 9.33301 1.83301 12 5.5s4 9.83398 4 18.501v62h99v-76c0 -35.333 -10.333 -63.166 -31 -83.499s-47 -30.5 -79 -30.5c-22.667 0 -41.5 3.83301 -56.5 11.5s-33.5 19.834 -55.5 36.501l-34 26
c-6.66699 5.33301 -12.334 9.66602 -17.001 12.999s-9.66699 5 -15 5c-4.66699 0 -8.66699 -1.83301 -12 -5.5s-5 -9.83398 -5 -18.501v-62h-99v78c0 36 10.667 63.667 32 83s47.333 29 78 29c22.667 0 41.5 -3.83301 56.5 -11.5s33.5 -19.834 55.5 -36.501z" />
    <glyph glyph-name="hungarumlaut" unicode="&#x2dd;" horiz-adv-x="510" 
d="M88 672l65 188h155l-70 -188h-150zM288 672l65 188h155l-70 -188h-150z" />
    <glyph glyph-name="thinspace" unicode="&#x2009;" horiz-adv-x="120" 
 />
    <glyph glyph-name="endash" unicode="&#x2013;" horiz-adv-x="516" 
d="M60 212v173h396v-173h-396z" />
    <glyph glyph-name="emdash" unicode="&#x2014;" horiz-adv-x="766" 
d="M60 212v173h646v-173h-646z" />
    <glyph glyph-name="quoteleft" unicode="&#x2018;" horiz-adv-x="306" 
d="M270 750c-16.667 -34.667 -27.833 -67.5 -33.5 -98.5s-8.5 -64.167 -8.5 -99.5v-81h-170v70c0 42 6 79.167 18 111.5s30 64.833 54 97.5h140z" />
    <glyph glyph-name="quoteright" unicode="&#x2019;" horiz-adv-x="306" 
d="M36 471c16.667 34.667 27.833 67.5 33.5 98.5s8.5 64.167 8.5 99.5v81h170v-70c0 -42 -6 -79.167 -18 -111.5s-30 -64.833 -54 -97.5h-140z" />
    <glyph glyph-name="quotesinglbase" unicode="&#x201a;" horiz-adv-x="306" 
d="M36 -139c16.667 34.667 27.833 67.5 33.5 98.5s8.5 64.167 8.5 99.5v81h170v-70c0 -42 -6 -79.167 -18 -111.5s-30 -64.833 -54 -97.5h-140z" />
    <glyph glyph-name="quotedblleft" unicode="&#x201c;" horiz-adv-x="526" 
d="M270 750c-16.667 -34.667 -27.833 -67.5 -33.5 -98.5s-8.5 -64.167 -8.5 -99.5v-81h-170v70c0 42 6 79.167 18 111.5s30 64.833 54 97.5h140zM490.001 750c-16.667 -34.667 -27.833 -67.5 -33.5 -98.5s-8.5 -64.167 -8.5 -99.5v-81h-170v70c0 42 6 79.167 18 111.5
s30 64.833 54 97.5h140z" />
    <glyph glyph-name="quotedblright" unicode="&#x201d;" horiz-adv-x="526" 
d="M256 471c16.667 34.667 27.833 67.5 33.5 98.5s8.5 64.167 8.5 99.5v81h170v-70c0 -42 -6 -79.167 -18 -111.5s-30 -64.833 -54 -97.5h-140zM35.999 471c16.667 34.667 27.833 67.5 33.5 98.5s8.5 64.167 8.5 99.5v81h170v-70c0 -42 -6 -79.167 -18 -111.5
s-30 -64.833 -54 -97.5h-140z" />
    <glyph glyph-name="quotedblbase" unicode="&#x201e;" horiz-adv-x="526" 
d="M256 -139c16.667 34.667 27.833 67.5 33.5 98.5s8.5 64.167 8.5 99.5v81h170v-70c0 -42 -6 -79.167 -18 -111.5s-30 -64.833 -54 -97.5h-140zM35.999 -139c16.667 34.667 27.833 67.5 33.5 98.5s8.5 64.167 8.5 99.5v81h170v-70c0 -42 -6 -79.167 -18 -111.5
s-30 -64.833 -54 -97.5h-140z" />
    <glyph glyph-name="dagger" unicode="&#x2020;" horiz-adv-x="610" 
d="M30 425v155h180v170h190v-170h180v-155h-180v-425h-190v425h-180z" />
    <glyph glyph-name="daggerdbl" unicode="&#x2021;" horiz-adv-x="610" 
d="M30 170v155h180v100h-180v155h180v170h190v-170h180v-155h-180v-100h180v-155h-180v-170h-190v170h-180z" />
    <glyph glyph-name="bullet" unicode="&#x2022;" horiz-adv-x="566" 
d="M130 272v56c0 35.333 11.167 65.166 33.5 89.499s51.5 36.5 87.5 36.5h64c36 0 65.167 -12.167 87.5 -36.5s33.5 -54.166 33.5 -89.499v-56c0 -35.333 -11.167 -65.333 -33.5 -90s-51.5 -37 -87.5 -37h-64c-36 0 -65.167 12.333 -87.5 37s-33.5 54.667 -33.5 90z" />
    <glyph glyph-name="ellipsis" unicode="&#x2026;" horiz-adv-x="950" 
d="M680 0v210h210v-210h-210zM60 0v210h210v-210h-210zM370 0v210h210v-210h-210z" />
    <glyph glyph-name="perthousand" unicode="&#x2030;" horiz-adv-x="1286" 
d="M40 551v57c0 46 15.5 82.833 46.5 110.5s68.833 41.5 113.5 41.5h70c42 0 78.5 -13.833 109.5 -41.5s46.5 -64.5 46.5 -110.5v-57c0 -46 -15.5 -83.167 -46.5 -111.5s-67.5 -42.5 -109.5 -42.5h-70c-44.667 0 -82.5 14.167 -113.5 42.5s-46.5 65.5 -46.5 111.5zM632 419
h-159l155 331h160zM171 589v-25c0 -16.667 3.66699 -30 11 -40s19.333 -15 36 -15h29c18 0 30.5 5 37.5 15s10.5 23.333 10.5 40v25c0 18 -3.5 32.333 -10.5 43s-19.5 16 -37.5 16h-29c-16.667 0 -28.667 -5.33301 -36 -16s-11 -25 -11 -43zM860 146v57
c0 46 15.5 82.833 46.5 110.5s68.833 41.5 113.5 41.5h70c42 0 78.5 -13.833 109.5 -41.5s46.5 -64.5 46.5 -110.5v-57c0 -46 -15.5 -83.167 -46.5 -111.5s-67.5 -42.5 -109.5 -42.5h-70c-44.667 0 -82.5 14.167 -113.5 42.5s-46.5 65.5 -46.5 111.5zM420 144v57
c0 46 15.5 82.833 46.5 110.5s68.833 41.5 113.5 41.5h70c42 0 78.5 -13.833 109.5 -41.5s46.5 -64.5 46.5 -110.5v-57c0 -46 -15.5 -83.167 -46.5 -111.5s-67.5 -42.5 -109.5 -42.5h-70c-44.667 0 -82.5 14.167 -113.5 42.5s-46.5 65.5 -46.5 111.5zM214 331h159l-155 -331
h-160zM991 184v-25c0 -16.667 3.66699 -30 11 -40s19.333 -15 36 -15h29c18 0 30.5 5 37.5 15s10.5 23.333 10.5 40v25c0 18 -3.5 32.333 -10.5 43s-19.5 16 -37.5 16h-29c-16.667 0 -28.667 -5.33301 -36 -16s-11 -25 -11 -43zM551 182v-25c0 -16.667 3.66699 -30 11 -40
s19.333 -15 36 -15h29c18 0 30.5 5 37.5 15s10.5 23.333 10.5 40v25c0 18 -3.5 32.333 -10.5 43s-19.5 16 -37.5 16h-29c-16.667 0 -28.667 -5.33301 -36 -16s-11 -25 -11 -43z" />
    <glyph glyph-name="guilsinglleft" unicode="&#x2039;" horiz-adv-x="461" 
d="M391 288v-173l-273 165c-14.667 8.66699 -28.834 20.5 -42.501 35.5s-20.5 33.5 -20.5 55.5v9c0 22 6.83301 40.5 20.5 55.5s27.834 26.833 42.501 35.5l273 165v-173l-166 -87z" />
    <glyph glyph-name="guilsinglright" unicode="&#x203a;" horiz-adv-x="461" 
d="M343 280l-273 -165v173l166 88l-166 87v173l273 -165c14.667 -8.66699 28.834 -20.5 42.501 -35.5s20.5 -33.5 20.5 -55.5v-9c0 -22 -6.83301 -40.5 -20.5 -55.5s-27.834 -26.833 -42.501 -35.5z" />
    <glyph glyph-name="Euro" unicode="&#x20ac;" horiz-adv-x="797" 
d="M20 225v120.002h96v60h-96v120h107c17.333 69.333 55.5 124.166 114.5 164.499s137.5 60.5 235.5 60.5h285v-155h-275c-42 0 -74.833 -5.5 -98.5 -16.5s-40.167 -28.833 -49.5 -53.5h318v-120h-331v-60h331v-120h-318c10 -24.667 27 -42.5 51 -53.5s58 -16.5 102 -16.5
h275v-155h-290c-98 0 -176.5 20.167 -235.5 60.5s-97.167 95.166 -114.5 164.499h-107z" />
    <glyph glyph-name="manat" unicode="&#x20bc;" horiz-adv-x="998" 
d="M609 420h-15.002v-320h-190v320h-15c-35.333 0 -60.666 -6.66699 -75.999 -20s-23 -37.666 -23 -72.999v-327h-200v285c0 99.333 25.167 175.833 75.5 229.5s129.833 82.167 238.5 85.5v150h190v-150c108.667 -3.33301 188.167 -31.833 238.5 -85.5
s75.5 -130.167 75.5 -229.5v-285h-200v327c0 35.333 -7.66699 59.666 -23 72.999s-40.666 20 -75.999 20z" />
    <glyph glyph-name="ruble" unicode="&#x20bd;" horiz-adv-x="878" 
d="M7 220h158.002v55h-158v147h158v328h375c103.333 0 179.666 -16.333 228.999 -49s74 -87 74 -163v-49c0 -81.333 -24.833 -137.333 -74.5 -168s-125.834 -46 -228.501 -46h-175v-55h273v-120h-273v-100h-200v100h-158v120zM365.002 603v-181h181
c36 0 61.167 6.5 75.5 19.5s21.5 30.833 21.5 53.5v34c0 23.333 -7.16699 41.5 -21.5 54.5s-39.5 19.5 -75.5 19.5h-181z" />
    <glyph glyph-name="numero" unicode="&#x2116;" horiz-adv-x="1493" 
d="M65 0v550.001c0 34 5.66699 64.333 17 91s26.166 48.834 44.499 66.501s40 31.167 65 40.5s50.833 14 77.5 14c64 0 114.167 -17.167 150.5 -51.5s65.833 -79.5 88.5 -135.5l163 -398c2 -4.66699 4.16699 -9.16699 6.5 -13.5s6.16602 -6.5 11.499 -6.5
c6.66699 0 11.167 1.83301 13.5 5.5s3.5 8.83398 3.5 15.501v572h200v-551c0 -35.333 -5.66699 -66.333 -17 -93s-26.166 -48.834 -44.499 -66.501s-40 -30.834 -65 -39.501s-50.833 -13 -77.5 -13c-64 0 -113.833 16.667 -149.5 50s-65.5 79 -89.5 137l-163 398
c-2 4.66699 -4.16699 9.16699 -6.5 13.5s-6.16602 6.5 -11.499 6.5c-6.66699 0 -11.167 -1.83301 -13.5 -5.5s-3.5 -8.83398 -3.5 -15.501v-571h-200zM1493 518.001v-25c0 -75.333 -20.667 -133.666 -62 -174.999s-102 -62 -182 -62h-22
c-83.333 0 -144.833 20.667 -184.5 62s-59.5 99.666 -59.5 174.999v25c0 75.333 19.833 133.833 59.5 175.5s101.167 62.5 184.5 62.5h22c80 0 140.667 -20.833 182 -62.5s62 -100.167 62 -175.5zM1341 531.001c0 28.667 -6 50.167 -18 64.5s-32.333 21.5 -61 21.5h-47
c-26.667 0 -46.334 -7.16699 -59.001 -21.5s-19 -35.833 -19 -64.5v-49c0 -29.333 6.33301 -51.166 19 -65.499s32.334 -21.5 59.001 -21.5h47c28.667 0 49 7.16699 61 21.5s18 36.166 18 65.499v49zM1030 62.001v126h416v-126h-416z" />
    <glyph glyph-name="trademark" unicode="&#x2122;" horiz-adv-x="756" 
d="M505 545c2.66699 0 4.67188 1.00195 6.00488 3.00195s2.33301 4.66699 3 8l15 102c5.33301 37.333 18.166 64.166 38.499 80.499s43.166 24.5 68.499 24.5c31.333 0 55.5 -8.83301 72.5 -26.5s26.167 -41.834 27.5 -72.501l10 -202h-97l-7 186
c0 5.33301 -0.666992 9.5 -2 12.5s-3.33301 4.5 -6 4.5c-3.33301 0 -5.83301 -1.5 -7.5 -4.5s-2.83398 -6.83301 -3.50098 -11.5l-15 -104c-4.66699 -34 -16.834 -57.667 -36.501 -71s-41.834 -20 -66.501 -20c-23.333 0 -45.5 6.66699 -66.5 20s-33.833 37 -38.5 71
l-15 104c-0.666992 4.66699 -1.83398 8.5 -3.50098 11.5s-3.83398 4.5 -6.50098 4.5c-3.33301 0 -5.66602 -1.5 -6.99902 -4.5s-2 -7.16699 -2 -12.5l-7 -186h-96l10 202c1.33301 30.667 10.666 54.834 27.999 72.501s41.333 26.5 72 26.5
c28.667 0 52.5 -7.83301 71.5 -23.5s31.167 -42.834 36.5 -81.501l14 -102c0.666992 -4 1.83398 -6.83301 3.50098 -8.5s3.83398 -2.5 6.50098 -2.5zM73.0049 462.002v201h-73v92h251v-92h-73v-201h-105z" />
    <glyph glyph-name="onethird" unicode="&#x2153;" horiz-adv-x="850" 
d="M614 419h-159l175 331h160zM94 419v95h86v124c0 4.66699 -1.16699 8.16699 -3.5 10.5s-5.5 3.5 -9.5 3.5h-73v98h108c29.333 0 54 -9.83301 74 -29.5s30 -42.5 30 -68.5v-138h85v-95h-297zM236 331h159l-175 -331h-160zM537 210l38 24.998h-123v96h281v-85l-80 -52
c34 -4 56.667 -13.5 68 -28.5s17 -29.833 17 -44.5v-29c0 -28 -11.833 -50.333 -35.5 -67s-58.5 -25 -104.5 -25h-138v96h163v27h-82c-14.667 0 -25.667 3.66699 -33 11s-11 15.333 -11 24c0 10.667 3.33301 19.834 10 27.501s16.667 15.834 30 24.501z" />
    <glyph glyph-name="arrowleft" unicode="&#x2190;" horiz-adv-x="794" 
d="M754 465l0.000976562 -179.999h-450l321 -286h-258l-270 245c-28 25.333 -47.833 47.666 -59.5 66.999s-17.5 40.333 -17.5 63s6.16699 44.167 18.5 64.5s32.166 42.833 59.499 67.5l269 244h258l-321 -285h450z" />
    <glyph glyph-name="arrowup" unicode="&#x2191;" horiz-adv-x="871" 
d="M536 0l-200 0.000976562v489l-296 -248v228l265 210c30 23.333 53.5 42 70.5 56s36.833 21 59.5 21s43.167 -7.33301 61.5 -22s41.833 -33.334 70.5 -56.001l264 -209v-228l-295 248v-489z" />
    <glyph glyph-name="arrowright" unicode="&#x2192;" horiz-adv-x="794" 
d="M169 -1l320.999 284.999h-450v180h450l-321 286h258l270 -245c28 -25.333 47.833 -47.666 59.5 -66.999s17.5 -40.333 17.5 -63s-6.16699 -44.167 -18.5 -64.5s-32.166 -42.833 -59.499 -67.5l-269 -244h-258z" />
    <glyph glyph-name="arrowdown" unicode="&#x2193;" horiz-adv-x="871" 
d="M536 750v-488.999l295 248v-228l-264 -209c-28.667 -22.667 -52.167 -41.334 -70.5 -56.001s-38.833 -22 -61.5 -22s-42.5 7 -59.5 21s-40.5 32.667 -70.5 56l-265 210v228l296 -248v489h200z" />
    <glyph glyph-name="arrowNW" unicode="&#x2196;" horiz-adv-x="788" 
d="M748 183l-144 -143l-366 366v-366h-178v503c0 37.333 2.33301 67 7 89s15 41 31 57c16 16.667 35.5 27.167 58.5 31.5s52.833 6.5 89.5 6.5h502v-178h-366z" />
    <glyph glyph-name="arrowNE" unicode="&#x2197;" horiz-adv-x="788" 
d="M40 183l366 366h-366v178h502c36.667 0 66.5 -2.16699 89.5 -6.5s42.5 -14.833 58.5 -31.5c16 -16 26.333 -35 31 -57s7 -51.667 7 -89v-503h-178v366l-366 -366z" />
    <glyph glyph-name="arrowSE" unicode="&#x2198;" horiz-adv-x="788" 
d="M40 201h366l-366 366l144 143l366 -366v366h178v-503c0 -37.333 -2.33301 -67 -7 -89s-15 -41 -31 -57c-16 -16.667 -35.5 -27.167 -58.5 -31.5s-52.833 -6.5 -89.5 -6.5h-502v178z" />
    <glyph glyph-name="arrowSW" unicode="&#x2199;" horiz-adv-x="788" 
d="M748 201v-178h-502c-36.667 0 -66.5 2.16699 -89.5 6.5s-42.5 14.833 -58.5 31.5c-16 16 -26.333 35 -31 57s-7 51.667 -7 89v503h178v-366l366 366l144 -143l-366 -366h366z" />
    <glyph glyph-name="minus" unicode="&#x2212;" horiz-adv-x="526" 
d="M50 295v160h426v-160h-426z" />
    <glyph glyph-name="squareblack" unicode="&#x25a0;" horiz-adv-x="670" 
d="M579 132h-487v487h487v-487z" />
    <glyph glyph-name="triangleupblack" unicode="&#x25b2;" horiz-adv-x="691" 
d="M86 186l259 449l260 -449h-519z" />
    <glyph glyph-name="trianglerightblack" unicode="&#x25b6;" horiz-adv-x="610" 
d="M86 635l449 -259l-449 -260v519z" />
    <glyph glyph-name="triangledownblack" unicode="&#x25bc;" horiz-adv-x="691" 
d="M86 584h519l-260 -449z" />
    <glyph glyph-name="triangleleftblack" unicode="&#x25c0;" horiz-adv-x="610" 
d="M524 635v-519l-449 260z" />
    <glyph glyph-name="circleblack" unicode="&#x25cf;" horiz-adv-x="723" 
d="M361 114c-50 0 -92.333 4.16699 -127 12.5s-62.5 22.333 -83.5 42s-36.333 46.334 -46 80.001s-14.5 75.5 -14.5 125.5c0 52.667 4.83301 96 14.5 130s25 60.833 46 80.5s48.833 33.334 83.5 41.001s77 11.5 127 11.5s92.333 -3.83301 127 -11.5
s62.667 -21.334 84 -41.001s36.833 -46.5 46.5 -80.5s14.5 -77.333 14.5 -130c0 -50 -4.83301 -91.833 -14.5 -125.5s-25.167 -60.334 -46.5 -80.001s-49.333 -33.667 -84 -42s-77 -12.5 -127 -12.5z" />
    <glyph glyph-name="commaaccent" unicode="&#xf6c3;" horiz-adv-x="637" 
d="M217 -188c10.667 32 17.667 55.333 21 70s5 32.334 5 53.001v25h152v-25c0 -20.667 -1.66699 -38.334 -5 -53.001s-11.333 -38 -24 -70h-149z" />
    <glyph glyph-name="twothird" horiz-adv-x="850" 
d="M614 419h-159l175 331h160zM334 513v-94.002h-274v53c0 34.667 6.33301 61.334 19 80.001s36 35.334 70 50.001l48 21c6 2.66699 10.167 5.5 12.5 8.5s3.5 6.16699 3.5 9.5c0 4.66699 -1.5 8.33398 -4.5 11.001s-8.83301 4 -17.5 4h-121v94h138
c45.333 0 78.333 -8 99 -24s31 -38.333 31 -67c0 -27.333 -6.83301 -48.333 -20.5 -63s-34.5 -28.334 -62.5 -41.001l-81 -38v-4h160zM236 330.998h159l-175 -331h-160zM537 209.998l38 24.998h-123v96h281v-85l-80 -52c34 -4 56.667 -13.5 68 -28.5s17 -29.833 17 -44.5
v-29c0 -28 -11.833 -50.333 -35.5 -67s-58.5 -25 -104.5 -25h-138v96h163v27h-82c-14.667 0 -25.667 3.66699 -33 11s-11 15.333 -11 24c0 10.667 3.33301 19.834 10 27.501s16.667 15.834 30 24.501z" />
    <glyph glyph-name="threequarter" horiz-adv-x="850" 
d="M614 419h-159l175 331h160zM207 629l38 24.998h-123v96h281v-85l-80 -52c34 -4 56.667 -13.5 68 -28.5s17 -29.833 17 -44.5v-29c0 -28 -11.833 -50.333 -35.5 -67s-58.5 -25 -104.5 -25h-138v96h163v27h-82c-14.667 0 -25.667 3.66699 -33 11s-11 15.333 -11 24
c0 10.667 3.33301 19.834 10 27.501s16.667 15.834 30 24.501zM484 38.998c-29.333 0 -51.333 6.16504 -66 18.498s-22 28.833 -22 49.5c0 14 3.5 27.833 10.5 41.5s17.833 31.834 32.5 54.501l51 75c11.333 16.667 26.5 30.834 45.5 42.501s39.5 17.5 61.5 17.5h19
c22.667 0 42.667 -7.5 60 -22.5s26 -38.833 26 -71.5v-109h50v-96h-50v-39h-118v39h-100zM236 330.996h159l-175 -331h-160zM520 134.996h64v96z" />
    <glyph glyph-name="caron.alt" horiz-adv-x="306" 
d="M36 483l42 267h130l-42 -267h-130z" />
    <glyph glyph-name="zero.tnum" 
d="M799 325c0 -50 -6.83301 -95.6689 -20.5 -137.002s-34.334 -76.666 -62.001 -105.999s-62.5 -52 -104.5 -68s-91 -24 -147 -24h-76c-56 0 -105 8.16699 -147 24.5s-76.833 39.166 -104.5 68.499s-48.334 64.833 -62.001 106.5s-20.5 87.5 -20.5 137.5v104
c0 49.333 6.83301 94.333 20.5 135s34.334 75.334 62.001 104.001s62.5 50.834 104.5 66.501s91 23.5 147 23.5h76c56 0 105 -8 147 -24s76.833 -38.333 104.5 -67s48.334 -63.5 62.001 -104.5s20.5 -86.167 20.5 -135.5v-104zM265 294.998c0 -52 10.5 -88.833 31.5 -110.5
s56.5 -32.5 106.5 -32.5h48c50 0 85.5 10.833 106.5 32.5s31.5 58.5 31.5 110.5v162c0 52 -10.5 88.667 -31.5 110s-56.5 32 -106.5 32h-48c-50 0 -85.5 -10.667 -106.5 -32s-31.5 -58 -31.5 -110v-162z" />
    <glyph glyph-name="one.tnum" 
d="M106 0l-0.000976562 152.999h229v402c0 10.667 -2.5 18.834 -7.5 24.501s-12.5 8.5 -22.5 8.5h-199v162h282c50.667 0 87.834 -12.833 111.501 -38.5s35.5 -63.5 35.5 -113.5v-445h213v-153h-642z" />
    <glyph glyph-name="two.tnum" 
d="M732 157v-157.001h-619v122c0 32 3.33301 60.667 10 86s18.334 48.833 35.001 70.5s38.834 42.667 66.501 63s62.5 41.5 104.5 63.5l159 83c17.333 8.66699 29.666 17.167 36.999 25.5s11 18.833 11 31.5c0 18.667 -6.33301 31.334 -19 38.001s-29.667 10 -51 10h-337
v157h354c89.333 0 154.666 -16.167 195.999 -48.5s62 -76.5 62 -132.5c0 -31.333 -4.66699 -58.333 -14 -81s-23.166 -43 -41.499 -61s-40.833 -35.167 -67.5 -51.5s-57.334 -33.833 -92.001 -52.5l-145 -79c-22.667 -12 -37.167 -23 -43.5 -33s-9.5 -21.333 -9.5 -34v-20
h404z" />
    <glyph glyph-name="three.tnum" 
d="M280 453l183.001 137.001h-351v160h629v-130l-258 -187h9c47.333 0 87 -4.5 119 -13.5s57.667 -21 77 -36s33.166 -32.5 41.499 -52.5s12.5 -41 12.5 -63v-73c0 -66 -24.333 -115 -73 -147s-120.334 -48 -215.001 -48h-327v160h353c21.333 0 36.833 3.83301 46.5 11.5
s14.5 22.834 14.5 45.501v27c0 22.667 -5.16699 37.5 -15.5 44.5s-24.833 10.5 -43.5 10.5h-185c-25.333 0 -44.666 6.66699 -57.999 20s-20 30.333 -20 51c0 17.333 5.5 32.166 16.5 44.499s25.833 25.166 44.5 38.499z" />
    <glyph glyph-name="four.tnum" 
d="M221 115c-62 0 -107.5 12.5 -136.5 37.5s-43.5 56.5 -43.5 94.5c0 26 6.16699 51.5 18.5 76.5s32.833 55.5 61.5 91.5l181 227c28.667 36 60.167 64.667 94.5 86s71.5 32 111.5 32h26c46 0 84.833 -14.333 116.5 -43s47.5 -74 47.5 -136v-313h115v-153h-115v-115h-195
v115h-282zM279 268l223.999 -0.000976562v297c0 6.66699 -1.66699 11.5 -5 14.5s-7.66602 4.5 -12.999 4.5c-4 0 -7.5 -1.16699 -10.5 -3.5s-5.83301 -5.5 -8.5 -9.5l-205 -263c-2.66699 -4 -4.83398 -7.66699 -6.50098 -11s-2.5 -6.66602 -2.5 -9.99902
c0 -5.33301 1.83301 -9.83301 5.5 -13.5s10.834 -5.5 21.501 -5.5z" />
    <glyph glyph-name="five.tnum" 
d="M476 474c95.333 0 162.5 -18 201.5 -54s58.5 -93 58.5 -171v-27c0 -70 -19.5 -124.5 -58.5 -163.5s-108.5 -58.5 -208.5 -58.5h-352v157h331c34 0 57 4.16699 69 12.5s18 25.833 18 52.5v27c0 28 -5.83301 46.833 -17.5 56.5s-33.167 14.5 -64.5 14.5h-336v430h612v-167
h-432v-109h179z" />
    <glyph glyph-name="six.tnum" 
d="M469 466c100.667 0 175.001 -17.6689 223.001 -53.002s72 -86.666 72 -153.999v-34c0 -74.667 -23.667 -131.667 -71 -171s-123.333 -59 -228 -59h-39c-116.667 0 -201.834 24.833 -255.501 74.5s-80.5 127.834 -80.5 234.501v131c0 48 6.83301 91.5 20.5 130.5
s35 72 64 99s66.167 48 111.5 63s99.333 22.5 162 22.5h283v-152h-290c-58 0 -96.833 -9.33301 -116.5 -28s-29.5 -50 -29.5 -94v-10h174zM420.001 137.998l25 0.00195312c46.667 0 78 6.83301 94 20.5s24 33.167 24 58.5v22c0 29.333 -7.83301 49.666 -23.5 60.999
s-44.167 17 -85.5 17h-159v-62c0 -46.667 8.83301 -77.834 26.5 -93.501s50.5 -23.5 98.5 -23.5z" />
    <glyph glyph-name="seven.tnum" 
d="M411 0l-218.001 0.00195312l321 535c5.33301 8.66699 8.83301 16.167 10.5 22.5s2.5 12.166 2.5 17.499c0 7.33301 -2.66699 12.833 -8 16.5s-13.333 5.5 -24 5.5h-378v153h441c62 0 107.333 -12.333 136 -37s43 -58.334 43 -101.001
c0 -24.667 -5.16699 -49.667 -15.5 -75s-23.166 -51.333 -38.499 -78z" />
    <glyph glyph-name="eight.tnum" 
d="M103 574c0 64.667 25.5 111.834 76.5 141.501s129.833 44.5 236.5 44.5h23c106.667 0 185.5 -14.833 236.5 -44.5s76.5 -76.834 76.5 -141.501v-40c0 -32 -8.5 -62.333 -25.5 -91s-51.5 -50 -103.5 -64c58 -14 97.5 -35.5 118.5 -64.5s31.5 -59.833 31.5 -92.5v-42
c0 -64.667 -26 -112.5 -78 -143.5s-134 -46.5 -246 -46.5h-43c-112 0 -194 15.5 -246 46.5s-78 78.833 -78 143.5v42c0 32.667 10.5 63.5 31.5 92.5s60.5 50.5 118.5 64.5c-52 14 -86.5 35.333 -103.5 64s-25.5 59 -25.5 91v40zM561 550c0 22.667 -7.83301 38.667 -23.5 48
s-45.5 14 -89.5 14h-41c-44 0 -73.833 -4.66699 -89.5 -14s-23.5 -25.333 -23.5 -48v-35c0 -22.667 8 -38.667 24 -48s47.333 -14 94 -14h31c46.667 0 78 4.66699 94 14s24 25.333 24 48v35zM582 242c0 22.667 -7.83301 39 -23.5 49s-45.5 15 -89.5 15h-83
c-44 0 -73.833 -5 -89.5 -15s-23.5 -26.333 -23.5 -49v-35c0 -22.667 8 -39.834 24 -51.501s47.333 -17.5 94 -17.5h73c46.667 0 78 5.83301 94 17.5s24 28.834 24 51.501v35z" />
    <glyph glyph-name="nine.tnum" 
d="M386 284c-100.667 0 -175.001 17.6689 -223.001 53.002s-72 86.666 -72 153.999v34c0 74.667 23.667 131.667 71 171s123.333 59 228 59h39c116.667 0 201.834 -24.833 255.501 -74.5s80.5 -127.834 80.5 -234.501v-131c0 -48 -6.83301 -91.5 -20.5 -130.5
s-35 -72 -64 -99s-66.167 -48 -111.5 -63s-99.333 -22.5 -162 -22.5h-283v152h290c58 0 96.833 9.33301 116.5 28s29.5 50 29.5 94v10h-174zM400.999 433.002l159 -0.00195312v62c0 46.667 -8.83301 77.834 -26.5 93.501s-50.5 23.5 -98.5 23.5h-25
c-46.667 0 -78 -6.83301 -94 -20.5s-24 -33.167 -24 -58.5v-22c0 -29.333 7.83301 -49.666 23.5 -60.999s44.167 -17 85.5 -17z" />
    <glyph glyph-name="space.tnum" horiz-adv-x="427" 
 />
    <glyph glyph-name="Euro.tnum" 
d="M53 225v120.002h96v60h-96v120h107c17.333 69.333 55.5 124.166 114.5 164.499s137.5 60.5 235.5 60.5h285v-155h-275c-42 0 -74.833 -5.5 -98.5 -16.5s-40.167 -28.833 -49.5 -53.5h318v-120h-331v-60h331v-120h-318c10 -24.667 27 -42.5 51 -53.5s58 -16.5 102 -16.5
h275v-155h-290c-98 0 -176.5 20.167 -235.5 60.5s-97.167 95.166 -114.5 164.499h-107z" />
    <glyph glyph-name="dollar.tnum" 
d="M378 -100l-0.000976562 99.9971h-262v165h262v144l-78 23c-69.333 20.667 -120.666 49 -153.999 85s-50 79 -50 129c0 62.667 22 112.334 66 149.001s106 55 186 55h30v100h110v-100h245v-165h-245v-128l37 -11c77.333 -22.667 135.5 -50.5 174.5 -83.5
s58.5 -79.167 58.5 -138.5c0 -29.333 -5.5 -57.333 -16.5 -84s-27.5 -50.167 -49.5 -70.5s-50 -36.666 -84 -48.999s-74 -19.166 -120 -20.499v-100h-110zM341.999 498.997l36 -10v96h-31c-21.333 0 -36.333 -3.83301 -45 -11.5s-13 -16.167 -13 -25.5
c0 -12 4.16699 -21.833 12.5 -29.5s21.833 -14.167 40.5 -19.5zM567.999 214.997c0 16 -5.66699 28.167 -17 36.5s-32.333 16.833 -63 25.5v-112h12c25.333 0 43 5 53 15s15 21.667 15 35z" />
    <glyph glyph-name="cent.tnum" 
d="M460 -100v100h-22c-107.333 -0 -184.666 23.333 -231.999 70s-71 111 -71 193v73c0 82 23.667 146.5 71 193.5s124.666 70.5 231.999 70.5h22v100h110v-100h149v-145h-149v-310h149v-145h-149v-100h-110zM444 455c-39.333 0 -68.166 -8.83301 -86.499 -26.5
s-27.5 -44.5 -27.5 -80.5v-103c0 -40 9.16699 -66.667 27.5 -80s47.166 -20 86.499 -20h16v310h-16z" />
    <glyph glyph-name="sterling.tnum" 
d="M77 157h150.001v143h-150v157h150v107c0 56 20.667 101 62 135s106.666 51 195.999 51h284v-157h-277c-21.333 0 -38.333 -3.33301 -51 -10s-19 -18.667 -19 -36v-90h347v-157h-347v-143h354v-157h-699v157z" />
    <glyph glyph-name="yen.tnum" 
d="M109 164v119.999h204l-35 60h-169v120h98l-170 286h224l145 -260c5.33301 -10 12.833 -15.167 22.5 -15.5s17.5 4.83398 23.5 15.501l156 260h209l-170 -286h99v-120h-170l-35 -60h205v-120h-219v-164h-200v164h-218z" />
    <glyph glyph-name="ruble.tnum" 
d="M9 220h158.002v55h-158v147h158v328h375c103.333 0 179.666 -16.333 228.999 -49s74 -87 74 -163v-49c0 -81.333 -24.833 -137.333 -74.5 -168s-125.834 -46 -228.501 -46h-175v-55h273v-120h-273v-100h-200v100h-158v120zM367.002 603v-181h181
c36 0 61.167 6.5 75.5 19.5s21.5 30.833 21.5 53.5v34c0 23.333 -7.16699 41.5 -21.5 54.5s-39.5 19.5 -75.5 19.5h-181z" />
    <glyph glyph-name="manat.tnum" 
d="M537 420h-15.002v-320h-190v320h-15c-35.333 0 -60.666 -6.66699 -75.999 -20s-23 -37.666 -23 -72.999v-327h-200v285c0 99.333 25.167 175.833 75.5 229.5s129.833 82.167 238.5 85.5v150h190v-150c108.667 -3.33301 188.167 -31.833 238.5 -85.5
s75.5 -130.167 75.5 -229.5v-285h-200v327c0 35.333 -7.66699 59.666 -23 72.999s-40.666 20 -75.999 20z" />
    <glyph glyph-name="percent.tnum" 
d="M44 551v57c0 46 15.5 82.833 46.5 110.5s68.833 41.5 113.5 41.5h70c42 0 78.5 -13.833 109.5 -41.5s46.5 -64.5 46.5 -110.5v-57c0 -46 -15.5 -83.167 -46.5 -111.5s-67.5 -42.5 -109.5 -42.5h-70c-44.667 0 -82.5 14.167 -113.5 42.5s-46.5 65.5 -46.5 111.5zM636 419
h-159l155 331h160zM175 589v-25c0 -16.667 3.66699 -30 11 -40s19.333 -15 36 -15h29c18 0 30.5 5 37.5 15s10.5 23.333 10.5 40v25c0 18 -3.5 32.333 -10.5 43s-19.5 16 -37.5 16h-29c-16.667 0 -28.667 -5.33301 -36 -16s-11 -25 -11 -43zM424 144v57
c0 46 15.5 82.833 46.5 110.5s68.833 41.5 113.5 41.5h70c42 0 78.5 -13.833 109.5 -41.5s46.5 -64.5 46.5 -110.5v-57c0 -46 -15.5 -83.167 -46.5 -111.5s-67.5 -42.5 -109.5 -42.5h-70c-44.667 0 -82.5 14.167 -113.5 42.5s-46.5 65.5 -46.5 111.5zM218 331h159l-155 -331
h-160zM555 182v-25c0 -16.667 3.66699 -30 11 -40s19.333 -15 36 -15h29c18 0 30.5 5 37.5 15s10.5 23.333 10.5 40v25c0 18 -3.5 32.333 -10.5 43s-19.5 16 -37.5 16h-29c-16.667 0 -28.667 -5.33301 -36 -16s-11 -25 -11 -43z" />
    <glyph glyph-name="plus.tnum" 
d="M184 295v160h163v163h160v-163h163v-160h-163v-173h-160v173h-163z" />
    <glyph glyph-name="minus.tnum" 
d="M214 295v160h426v-160h-426z" />
    <glyph glyph-name="plusminus.tnum" 
d="M184 400v160h163v113h160v-113h163v-160h-163v-123h-160v123h-163zM214 70v150h426v-150h-426z" />
    <glyph glyph-name="multiply.tnum" 
d="M188 496l113 113l126 -126l122 122l113 -113l-122 -122l126 -126l-113 -113l-126 126l-122 -122l-113 113l122 122z" />
    <glyph glyph-name="divide.tnum" 
d="M347 525v170h160v-170h-160zM204 295v160h446v-160h-446zM347 55v170h160v-170h-160z" />
    <glyph glyph-name="equal.tnum" 
d="M214 425v160h426v-160h-426zM214 165v160h426v-160h-426z" />
    <glyph glyph-name="less.tnum" 
d="M595 288v-173l-273 165c-14.667 8.66699 -28.834 20.5 -42.501 35.5s-20.5 33.5 -20.5 55.5v9c0 22 6.83301 40.5 20.5 55.5s27.834 26.833 42.501 35.5l273 165v-173l-166 -87z" />
    <glyph glyph-name="greater.tnum" 
d="M532 280l-273 -165v173l166 88l-166 87v173l273 -165c14.667 -8.66699 28.834 -20.5 42.501 -35.5s20.5 -33.5 20.5 -55.5v-9c0 -22 -6.83301 -40.5 -20.5 -55.5s-27.834 -26.833 -42.501 -35.5z" />
    <glyph glyph-name="period.tnum" horiz-adv-x="427" 
d="M108 0v210h210v-210h-210z" />
    <glyph glyph-name="comma.tnum" horiz-adv-x="427" 
d="M75 -130c10.667 20.667 18.832 38 24.499 52s9.83398 27.333 12.501 40s4.16699 26.5 4.5 41.5s0.5 33.833 0.5 56.5v140h193v-139c0 -38 -4 -70.333 -12 -97s-25.333 -58 -52 -94h-171z" />
    <glyph glyph-name="colon.tnum" horiz-adv-x="427" 
d="M108 0v210h210v-210h-210z" />
    <glyph glyph-name="semicolon.tnum" horiz-adv-x="427" 
d="M77 -130c10.667 20.667 18.832 38 24.499 52s9.83398 27.333 12.501 40s4.16699 26.5 4.5 41.5s0.5 33.833 0.5 56.5v140h193v-139c0 -38 -4 -70.333 -12 -97s-25.333 -58 -52 -94h-171z" />
    <glyph glyph-name="numbersign.tnum" 
d="M730 323v-133h-148l-49 -190h-145l49 190h-120l-49 -190h-145l49 190h-112v133h147l34 133h-118v134h153l47 180h145l-47 -180h120l47 180h145l-47 -180h107v-134h-142l-34 -133h113zM352 323h120l34 133h-120z" />
    <glyph glyph-name="slash.tnum" horiz-adv-x="427" 
d="M228 750h170l-200 -860h-170z" />
    <glyph glyph-name="c.long" horiz-adv-x="591" 
d="M346 455c-39.333 0 -68.166 -8.83301 -86.499 -26.5s-27.5 -44.5 -27.5 -80.5v-103c0 -40 9.16699 -66.667 27.5 -80s47.166 -20 86.499 -20h195v-145h-201c-107.333 -0 -184.666 23.333 -231.999 70s-71 111 -71 193v73c0 82 23.667 146.5 71 193.5
s124.666 70.5 231.999 70.5h431v-145h-425z" />
    <glyph glyph-name="f.long" horiz-adv-x="452" 
d="M122 0l-0.000976562 455h-92v145h93c4.66699 62.667 23.334 110 56.001 142s87.667 48 165 48h138v-124h-146c-14.667 0 -25.667 -3.66699 -33 -11s-11 -19.333 -11 -36v-19h290v-145h-270v-455h-190z" />
    <glyph glyph-name="k.alt1" horiz-adv-x="744" 
d="M100 0v750h175v-486l245 336h214l-333 -446h307v-154h-608z" />
    <glyph glyph-name="r.long" horiz-adv-x="382" 
d="M58 357c0 30.667 5.83301 60.666 17.5 89.999s29 55.333 52 78s52.333 40.834 88 54.501s77.5 20.5 125.5 20.5h206v-145h-218c-32 0 -53.5 -6 -64.5 -18s-16.5 -32.667 -16.5 -62v-375h-190v357z" />
    <glyph glyph-name="s.long1" horiz-adv-x="597" 
d="M388 210l-163.001 32c-60 12 -105.833 33 -137.5 63s-47.5 70 -47.5 120c0 23.333 4.5 45.666 13.5 66.999s23 40 42 56s43.333 28.667 73 38s64.834 14 105.501 14h498v-145h-513c-20 0 -33.333 -3 -40 -9s-10 -12.667 -10 -20c0 -8 3 -15 9 -21s16.333 -10.333 31 -13
l148 -29c73.333 -14.667 125.833 -36.5 157.5 -65.5s47.5 -67.5 47.5 -115.5c0 -54 -20.5 -97.833 -61.5 -131.5s-103.167 -50.5 -186.5 -50.5h-294v145h321c21.333 0 36 3 44 9s12 13.667 12 23c0 10 -4.5 17.333 -13.5 22s-20.833 8.33398 -35.5 11.001z" />
    <glyph glyph-name="s.long2" horiz-adv-x="597" 
d="M348 210l-163.001 32.0029c-60 12 -105.833 33 -137.5 63s-47.5 70 -47.5 120c0 23.333 4.5 45.666 13.5 66.999s23 40 42 56s43.333 28.667 73 38s64.834 14 105.501 14h298v-145h-313c-20 0 -33.333 -2.83301 -40 -8.5s-10 -12.834 -10 -21.501s3 -15.667 9 -21
s16.333 -9.33301 31 -12l148 -29c73.333 -14.667 125.833 -36.5 157.5 -65.5s47.5 -67.5 47.5 -115.5c0 -54 -20.5 -97.833 -61.5 -131.5s-103.167 -50.5 -186.5 -50.5h-494v145h521c21.333 0 36 3.16699 44 9.5s12 14.166 12 23.499c0 10 -4.5 17.167 -13.5 21.5
s-20.833 7.83301 -35.5 10.5z" />
    <glyph glyph-name="t.long" horiz-adv-x="512" 
d="M20 455l0.000976562 145h97v122h175v-122h325v-145h-325v-243c0 -25.333 5.33301 -42.833 16 -52.5s28 -14.5 52 -14.5h97v-145h-119c-82.667 0 -141.834 17.5 -177.501 52.5s-53.5 88.167 -53.5 159.5v243h-87z" />
    <glyph glyph-name="w.alt1" horiz-adv-x="1087" 
d="M639 600l0.000976562 -445h200v445h190v-600h-712c-91.333 0 -157.333 22 -198 66s-61 103.667 -61 179v355h190v-360c0 -30.667 5.16699 -52.5 15.5 -65.5s30.166 -19.5 59.499 -19.5h126v445h190z" />
    <glyph glyph-name="x.alt1" 
d="M195 455h-145v145h141c60 0 109.167 -9 147.5 -27s67.833 -44 88.5 -78c20.667 34 50.167 60 88.5 78s87.5 27 147.5 27h141v-145h-145c-39.333 0 -68.166 -8.83301 -86.499 -26.5s-27.5 -44.5 -27.5 -80.5v-103c0 -40 9.16699 -66.667 27.5 -80s47.166 -20 86.499 -20
h145v-145h-141c-60 0 -109.167 9 -147.5 27s-67.833 43.667 -88.5 77c-20.667 -33.333 -50.167 -59 -88.5 -77s-87.5 -27 -147.5 -27h-141v145h145c39.333 0 68.166 6.66699 86.499 20s27.5 40 27.5 80v103c0 36 -9.16699 62.833 -27.5 80.5s-47.166 26.5 -86.499 26.5z" />
    <glyph glyph-name="x.long" 
d="M185 455h-135v145h141c60 0 109.167 -9 147.5 -27s67.833 -44 88.5 -78c20.667 34 50.167 60 88.5 78s87.5 27 147.5 27h291v-145h-285c-39.333 0 -68.166 -8.83301 -86.499 -26.5s-27.5 -44.5 -27.5 -80.5v-103c0 -40 9.16699 -66.667 27.5 -80s47.166 -20 86.499 -20
h105v-145h-111c-60 0 -109.167 9 -147.5 27s-67.833 43.667 -88.5 77c-20.667 -33.333 -50.167 -59 -88.5 -77s-87.5 -27 -147.5 -27h-141v145h135c39.333 0 68.166 6.66699 86.499 20s27.5 40 27.5 80v103c0 36 -9.16699 62.833 -27.5 80.5s-47.166 26.5 -86.499 26.5z" />
    <glyph glyph-name="y.alt1" horiz-adv-x="741" 
d="M218 600l263 -363v363h170v-413c0 -34.667 -5.83301 -64 -17.5 -88s-27 -43.333 -46 -58s-40.833 -25.167 -65.5 -31.5s-50 -9.5 -76 -9.5h-410v155h300l-326 445h208z" />
    <glyph glyph-name="A.alt1" horiz-adv-x="915" 
d="M10 0l348.001 588c33.333 56 71.166 97 113.499 123s95.833 39 160.5 39h193v-750h-187v157h-314l-89 -157h-225zM534.001 529l-123 -217.001h227v268h-33c-14.667 0 -27.5 -3.66699 -38.5 -11s-21.833 -20.666 -32.5 -39.999z" />
    <glyph glyph-name="A.alt2" horiz-adv-x="915" 
d="M905 0h-224.999l-89 157h-314v-157h-187v750h193c64.667 0 118.167 -13 160.5 -39s80.166 -67 113.499 -123zM277.001 580v-267.999h227l-123 217c-10.667 19.333 -21.5 32.666 -32.5 39.999s-23.833 11 -38.5 11h-33z" />
    <glyph glyph-name="A.alt3" horiz-adv-x="763" 
d="M743 405v-404.998h-521c-67.333 0 -118.5 15.667 -153.5 47s-52.5 72.666 -52.5 123.999c0 26.667 3.16699 49.667 9.5 69s15.833 37.333 28.5 54s29.167 33 49.5 49s44.5 34.333 72.5 55l256 187h-402v165h373c121.333 0 208.333 -30.333 261 -91
s79 -145.334 79 -254.001zM281 165.002h272.001v305l-280 -216c-12.667 -10 -21.834 -18.167 -27.501 -24.5s-8.5 -14.5 -8.5 -24.5c0 -14 4.5 -24.167 13.5 -30.5s19.167 -9.5 30.5 -9.5z" />
    <glyph glyph-name="C.long" horiz-adv-x="711" 
d="M631 165v-165.004h-230c-59.333 0 -111.666 7.5 -156.999 22.5s-83 36.333 -113 64s-52.667 61.334 -68 101.001s-23 83.834 -23 132.501v110c0 48.667 7.66699 92.834 23 132.501s38 73.334 68 101.001s67.667 49 113 64s97.666 22.5 156.999 22.5h455v-165h-445
c-62 0 -104.333 -11.833 -127 -35.5s-34 -63.5 -34 -119.5v-108c0 -56 11.667 -96.167 35 -120.5s67 -36.5 131 -36.5h215z" />
    <glyph glyph-name="D.alt1" horiz-adv-x="865" 
d="M75 0v480.004h200v-315h186c62 0 103.167 10.333 123.5 31s30.5 56 30.5 106v140c0 52.667 -10 89.667 -30 111s-59.667 32 -119 32h-566v165h569c59.333 0 111.5 -7.5 156.5 -22.5s82.167 -36.333 111.5 -64s51.333 -61.334 66 -101.001s22 -83.834 22 -132.501v-110
c0 -48.667 -7.33301 -92.834 -22 -132.501s-36.667 -73.334 -66 -101.001s-66.5 -49 -111.5 -64s-97.167 -22.5 -156.5 -22.5h-394z" />
    <glyph glyph-name="D.alt2" horiz-adv-x="855" 
d="M65 0v480.004h200v-315h186c62 0 103.167 10.333 123.5 31s30.5 56 30.5 106v140c0 52.667 -10 89.667 -30 111s-59.667 32 -119 32h-391v165h394c59.333 0 111.5 -7.5 156.5 -22.5s82.167 -36.333 111.5 -64s51.333 -61.334 66 -101.001s22 -83.834 22 -132.501v-110
c0 -48.667 -7.33301 -92.834 -22 -132.501s-36.667 -73.334 -66 -101.001s-66.5 -49 -111.5 -64s-97.167 -22.5 -156.5 -22.5h-394z" />
    <glyph glyph-name="E.alt1" horiz-adv-x="741" 
d="M691 165l-0.000976562 -165.004h-290c-59.333 0 -111.666 7.5 -156.999 22.5s-83 36.333 -113 64s-52.667 61.334 -68 101.001s-23 83.834 -23 132.501v110c0 48.667 7.66699 92.834 23 132.501s38 73.334 68 101.001s67.667 49 113 64s97.666 22.5 156.999 22.5h285
v-165h-275c-53.333 0 -92 -10.167 -116 -30.5s-38.333 -53.5 -43 -99.5h429v-160h-430c2.66699 -47.333 15.834 -80.833 39.501 -100.5s65.5 -29.5 125.5 -29.5h275z" />
    <glyph glyph-name="E.open" horiz-adv-x="728" 
d="M65 585v165h606v-165h-606zM65 140v179.006c0 19.333 4.16699 37.666 12.5 54.999s19.333 32.166 33 44.499s29.667 22.166 48 29.499s37.166 11 56.499 11h456v-160h-406v-134h406v-165h-456c-19.333 0 -38.166 3.66699 -56.499 11s-34.333 17.166 -48 29.499
s-24.667 27.166 -33 44.499s-12.5 35.666 -12.5 54.999z" />
    <glyph glyph-name="F.alt1" horiz-adv-x="711" 
d="M250 0l-209.999 -0.00195312v430c0 48.667 7.66699 92.834 23 132.501s38 73.334 68 101.001s67.667 49 113 64s97.666 22.5 156.999 22.5h255v-165h-275c-50 0 -84.333 -10.5 -103 -31.5s-28 -54.833 -28 -101.5h401v-160h-401v-292z" />
    <glyph glyph-name="F.open" horiz-adv-x="716" 
d="M63 585v165h593v-165h-593zM64 0l-0.00195312 237.001c0 30.667 5.66699 59 17 85s26.833 48.167 46.5 66.5s42.834 32.666 69.501 42.999s55.334 15.5 86.001 15.5h373v-165h-382v-282h-210z" />
    <glyph glyph-name="G.alt1" horiz-adv-x="849" 
d="M581 389c25.333 26.667 51.167 42.998 77.5 48.998s50 5.33301 71 -2s38.333 -20 52 -38s20.5 -38 20.5 -60v-338h-173v205l-90 -98c-38 -42 -74.5 -72.5 -109.5 -91.5s-79.5 -28.5 -133.5 -28.5c-80.667 0 -140.5 22.5 -179.5 67.5s-58.167 114.833 -57.5 209.5l2 166
c0.666992 48.667 8.66699 92.834 24 132.501s37.833 73.334 67.5 101.001s67.167 49 112.5 64s97.666 22.5 156.999 22.5h378v-165h-398c-50 0 -84.333 -9.83301 -103 -29.5s-28 -52.167 -28 -97.5v-226c0 -22 4.33301 -39.167 13 -51.5s22.334 -18.5 41.001 -18.5
c20.667 0 36.667 4.5 48 13.5s25 21.833 41 38.5z" />
    <glyph glyph-name="H.connect" horiz-adv-x="885" 
d="M65 0v750h200v-284h355v123c0 47.333 15 86 45 116s68.667 45 116 45h39v-750h-200v291h-355v-291h-200z" />
    <glyph glyph-name="K.alt1" horiz-adv-x="864" 
d="M90 750h200v-474l325 474h229l-405 -585h389v-165h-738v750z" />
    <glyph glyph-name="L.alt1" horiz-adv-x="611" 
d="M255 290c0 -36.667 7.66699 -64.167 23 -82.5s41 -27.5 77 -27.5h226v-180h-186c-121.333 0 -208.333 28 -261 84s-79 134 -79 234v432h200v-460z" />
    <glyph glyph-name="M.alt1" horiz-adv-x="1214" 
d="M616 158c6.66699 0 11.332 2.16406 13.999 6.49707s5 10.833 7 19.5l83 386c12 56.667 36 102.834 72 138.501s83 53.5 141 53.5c38 0 70.667 -5.83301 98 -17.5s49.666 -26.834 66.999 -45.501s30.166 -39.667 38.499 -63s12.5 -46.666 12.5 -69.999v-566h-200v548
c0 6.66699 -1 12.334 -3 17.001s-6.33301 7 -13 7c-5.33301 0 -9.5 -2.16699 -12.5 -6.5s-5.16699 -9.5 -6.5 -15.5l-80 -374c-12.667 -59.333 -36.334 -105.5 -71.001 -138.5s-85.334 -49.5 -152.001 -49.5c-66 0 -116.833 17 -152.5 51s-59.834 80 -72.501 138l-81 372
c-1.33301 7.33301 -3.66602 13 -6.99902 17s-7.66602 6 -12.999 6c-8 0 -13.333 -2.33301 -16 -7s-4 -10.667 -4 -18v-547h-200v566c0 23.333 4.33301 46.833 13 70.5s21.834 44.667 39.501 63s40.167 33.333 67.5 45s59 17.5 95 17.5s66.833 -5.66699 92.5 -17
s47.334 -26 65.001 -44s31.834 -38.667 42.501 -62s18.667 -46.666 24 -69.999l91 -385c2 -8.66699 4.33301 -15.167 7 -19.5s7.33398 -6.5 14.001 -6.5z" />
    <glyph glyph-name="M.alt2" horiz-adv-x="1324" 
d="M5 0l317 611c26 50 55.667 85.667 89 107s72.666 32 117.999 32h161v-537l207 398c26.667 50.667 56.334 86.5 89.001 107.5s71.667 31.5 117 31.5h156v-750h-195v558l-280 -558h-284v560l-280 -560h-215z" />
    <glyph glyph-name="M.alt3" horiz-adv-x="1254" 
d="M527 0l-0.000976562 575h-262v-575h-200v750h885c88 0 149.833 -20.333 185.5 -61s53.5 -98.667 53.5 -174v-515h-200v490c0 30.667 -5.16699 52.5 -15.5 65.5s-30.166 19.5 -59.499 19.5h-187v-575h-200z" />
    <glyph glyph-name="N.alt1" horiz-adv-x="871" 
d="M65 0l-0.000976562 750h502c88 0 149.833 -20.333 185.5 -61s53.5 -98.667 53.5 -174v-515h-200v490c0 30.667 -5.16699 52.5 -15.5 65.5s-30.166 19.5 -59.499 19.5h-266v-575h-200z" />
    <glyph glyph-name="N.connect" horiz-adv-x="971" 
d="M65 0v550.001c0 34 5.66699 64.333 17 91s26.166 48.834 44.499 66.501s40 31.167 65 40.5s50.833 14 77.5 14c64 0 114.167 -17.167 150.5 -51.5s65.833 -79.5 88.5 -135.5l163 -398c2 -4.66699 4.16699 -9.16699 6.5 -13.5s6.16602 -6.5 11.499 -6.5
c6.66699 0 11.167 1.83301 13.5 5.5s3.5 8.83398 3.5 15.501v411c0 47.333 15 86 45 116s68.667 45 116 45h39v-551c0 -35.333 -5.66699 -66.333 -17 -93s-26.166 -48.834 -44.499 -66.501s-40 -30.834 -65 -39.501s-50.833 -13 -77.5 -13c-64 0 -113.833 16.667 -149.5 50
s-65.5 79 -89.5 137l-163 398c-2 4.66699 -4.16699 9.16699 -6.5 13.5s-6.16602 6.5 -11.499 6.5c-6.66699 0 -11.167 -1.83301 -13.5 -5.5s-3.5 -8.83398 -3.5 -15.501v-571h-200z" />
    <glyph glyph-name="P.alt1" horiz-adv-x="768" 
d="M-100 585v165.001h530c103.333 0 179.666 -16.333 228.999 -49s74 -87 74 -163v-74c0 -81.333 -24.667 -137.333 -74 -168s-125.666 -46 -228.999 -46h-125v-250h-210v217c0 53.333 18.5 96.666 55.5 129.999s85.167 50 144.5 50h141c36 0 61.167 6.5 75.5 19.5
s21.5 30.833 21.5 53.5v41c0 23.333 -7.16699 41.5 -21.5 54.5s-39.5 19.5 -75.5 19.5h-536z" />
    <glyph glyph-name="P.alt2" horiz-adv-x="768" 
d="M95 585v165.001h335c103.333 0 179.666 -16.333 228.999 -49s74 -87 74 -163v-74c0 -81.333 -24.667 -137.333 -74 -168s-125.666 -46 -228.999 -46h-125v-250h-210v217c0 53.333 18.5 96.666 55.5 129.999s85.167 50 144.5 50h141c36 0 61.167 6.5 75.5 19.5
s21.5 30.833 21.5 53.5v41c0 23.333 -7.16699 41.5 -21.5 54.5s-39.5 19.5 -75.5 19.5h-341z" />
    <glyph glyph-name="R.alt1" horiz-adv-x="553" 
d="M-160 585l-0.00195312 165.001h415c96.667 0 168 -15.5 214 -46.5s69 -86.5 69 -166.5v-43c0 -58 -19.667 -103.833 -59 -137.5s-95.666 -50.5 -168.999 -50.5h-35l272 -306h-238l-192 212c-19.333 21.333 -34.166 40.666 -44.499 57.999s-15.5 37.333 -15.5 60
c0 32.667 12 57.834 36 75.501s54 26.5 90 26.5h95c22 0 38.333 5.83301 49 17.5s16 26.167 16 43.5v26c0 21.333 -6 37.666 -18 48.999s-31.667 17 -59 17h-426z" />
    <glyph glyph-name="R.alt2" horiz-adv-x="758" 
d="M225 0l-189.999 -0.00195312v374c0 18.667 6 33.667 18 45s26.333 17 43 17h373c27.333 0 46.166 4.33301 56.499 13s15.5 28.667 15.5 60v5c0 29.333 -5.16699 48.5 -15.5 57.5s-29.166 13.5 -56.499 13.5h-634v165h629c36.667 0 71.667 -3 105 -9
s62.166 -16.333 86.499 -31s43.833 -34.5 58.5 -59.5s22 -56.5 22 -94.5v-47c0 -40 -6.33301 -73.167 -19 -99.5s-30.5 -47.166 -53.5 -62.499s-51.167 -26.166 -84.5 -32.499s-70 -9.5 -110 -9.5h-11l277 -305h-234l-276 301v-301z" />
    <glyph glyph-name="R.alt3" horiz-adv-x="788" 
d="M255 0l-189.999 -0.000976562v374c0 18.667 6 33.667 18 45s26.333 17 43 17h373c27.333 0 46.166 5.66699 56.499 17s15.5 32.666 15.5 63.999v5c0 29.333 -5.16699 49 -15.5 59s-29.166 15 -56.499 15h-434v154h429c36.667 0 71.667 -3 105 -9
s62.166 -16.333 86.499 -31s43.833 -34.5 58.5 -59.5s22 -56.5 22 -94.5v-47c0 -40 -6.33301 -73.167 -19 -99.5s-30.5 -47.166 -53.5 -62.499s-51.167 -26.166 -84.5 -32.499s-70 -9.5 -110 -9.5h-11l277 -305h-249l-261 285v-285z" />
    <glyph glyph-name="S.alt1" horiz-adv-x="858" 
d="M433 162c-28.667 -60 -65.6689 -102 -111.002 -126s-96.333 -36 -153 -36h-149v165h98c40.667 0 73.667 6.5 99 19.5s48 40.5 68 82.5l152 321c28.667 60 67.334 102 116.001 126s101.334 36 158.001 36h127v-165h-86c-40.667 0 -73.667 -6.5 -99 -19.5
s-48 -40.5 -68 -82.5z" />
    <glyph glyph-name="S.long1" horiz-adv-x="602" 
d="M435 279l-181.003 52.998c-69.333 20.667 -120.666 50.834 -153.999 90.501s-50 84.167 -50 133.5c0 60 21.5 107.333 64.5 142s108.833 52 197.5 52h375v-165h-393c-18.667 0 -31.834 -3.66699 -39.501 -11s-11.5 -16 -11.5 -26c0 -12 4.83301 -21.5 14.5 -28.5
s24.834 -13.833 45.501 -20.5l176 -53c78 -23.333 136.333 -52.666 175 -87.999s58 -80 58 -134c0 -66 -23.667 -119.833 -71 -161.5s-119.666 -62.5 -216.999 -62.5h-354v165h374c32 0 53 4.66699 63 14s15 21.333 15 36c0 16 -5.66699 28 -17 36
s-34.666 17.333 -69.999 28z" />
    <glyph glyph-name="S.long2" horiz-adv-x="742" 
d="M425 279l-181.002 52.999c-69.333 20.667 -120.666 48.5 -153.999 83.5s-50 78.5 -50 130.5c0 62.667 20.667 112.334 62 149.001s104.666 55 189.999 55h385v-165h-378c-24.667 0 -41.834 -3.83301 -51.501 -11.5s-14.5 -16.167 -14.5 -25.5
c0 -12 4.83301 -21.5 14.5 -28.5s24.834 -13.833 45.501 -20.5l176 -53c78 -23.333 136.333 -51.333 175 -84s58 -78.667 58 -138c0 -66 -23.667 -119.833 -71 -161.5s-119.666 -62.5 -216.999 -62.5h-554v165h574c32 0 53 5 63 15s15 21.667 15 35c0 16 -5.66699 28 -17 36
s-34.666 17.333 -69.999 28z" />
    <glyph glyph-name="U.alt1" horiz-adv-x="871" 
d="M606 175l0.000976562 575h200v-750h-502c-88 -0 -149.833 20.333 -185.5 61s-53.5 98.667 -53.5 174v515h200v-490c0 -30.667 5.16699 -52.5 15.5 -65.5s30.166 -19.5 59.499 -19.5h266z" />
    <glyph glyph-name="U.connect" horiz-adv-x="850" 
d="M590 589c0 47.333 15 85.999 45 115.999s68.667 45 116 45h39v-479c0 -44.667 -5.16699 -84.667 -15.5 -120s-27.333 -65.166 -51 -89.499s-55.5 -42.833 -95.5 -55.5s-89.333 -19 -148 -19h-108c-112 0 -192 25 -240 75s-72 119.667 -72 209v479h200v-498
c0 -36 8.16699 -62.5 24.5 -79.5s44.5 -25.5 84.5 -25.5h114c37.333 0 64.5 8.5 81.5 25.5s25.5 43.5 25.5 79.5v337z" />
    <glyph glyph-name="V.alt1" horiz-adv-x="915" 
d="M905 750l-348.001 -587.999c-33.333 -56 -71.166 -97 -113.499 -123s-95.833 -39 -160.5 -39h-193v750h187v-580h33c14.667 0 27.5 3.66699 38.5 11s21.833 20.666 32.5 39.999l299 529h225z" />
    <glyph glyph-name="W.alt1" horiz-adv-x="1354" 
d="M1344 750l-317 -611c-26 -50 -55.667 -85.667 -89 -107s-72.666 -32 -117.999 -32h-161v537l-207 -398c-26.667 -50.667 -56.334 -86.5 -89.001 -107.5s-71.667 -31.5 -117 -31.5h-156v750h195v-558l280 558h284v-560l280 560h215z" />
    <glyph glyph-name="W.alt2" horiz-adv-x="1254" 
d="M727 750l0.000976562 -575h262v575h200v-750h-885c-88 -0 -149.833 20.333 -185.5 61s-53.5 98.667 -53.5 174v515h200v-490c0 -30.667 5.16699 -52.5 15.5 -65.5s30.166 -19.5 59.499 -19.5h187v575h200z" />
    <glyph glyph-name="X.alt1" horiz-adv-x="891" 
d="M731 0c-70 0 -128.833 9.33301 -176.5 28s-84.167 46.667 -109.5 84c-24.667 -37.333 -60.834 -65.333 -108.501 -84s-106.5 -28 -176.5 -28h-140v165h145c64 0 107.667 12.167 131 36.5s35 64.5 35 120.5v106c0 56 -11.333 96.167 -34 120.5s-65 36.5 -127 36.5h-145
v165h135c70 0 128.833 -9.33301 176.5 -28s84.167 -46.667 109.5 -84c24.667 37.333 60.834 65.333 108.501 84s106.5 28 176.5 28h135v-165h-145c-62 0 -104.333 -12.167 -127 -36.5s-34 -64.5 -34 -120.5v-116c0 -56 11.667 -94.5 35 -115.5s67 -31.5 131 -31.5h145v-165
h-140z" />
    <glyph glyph-name="Y.alt1" horiz-adv-x="868" 
d="M38 0v165h274l-302 585h224l209 -434l195 434h220l-279 -569c-32 -64.667 -70.167 -111 -114.5 -139s-106.5 -42 -186.5 -42h-240z" />
    <glyph glyph-name="Y.alt2" horiz-adv-x="829" 
d="M38 0v164.999h355l-383 585h233l300 -479c0.666992 4 1 8 1 12v13v454h195v-412c0 -50 -6.16699 -96 -18.5 -138s-32.5 -77.667 -60.5 -107s-65.167 -52.166 -111.5 -68.499s-103.5 -24.5 -171.5 -24.5h-339z" />
    <glyph glyph-name="Y.alt3" horiz-adv-x="791" 
d="M60 0v165h351c36 0 61.667 8.16699 77 24.5s23 41.5 23 75.5v15h-171c-54 0 -99.667 7 -137 21s-67.333 33.5 -90 58.5s-38.834 55.333 -48.501 91s-14.5 74.834 -14.5 117.501v182h205v-200c0 -30.667 6.83301 -53.334 20.5 -68.001s36.834 -22 69.501 -22h166v290h190
v-452c0 -44 -5.5 -84.5 -16.5 -121.5s-29.333 -68.5 -55 -94.5s-59.667 -46.167 -102 -60.5s-94.5 -21.5 -156.5 -21.5h-311z" />
    <glyph glyph-name="ccedilla.long" horiz-adv-x="591" 
d="M346 455c-39.333 0 -68.166 -8.83301 -86.499 -26.5s-27.5 -44.5 -27.5 -80.5v-103c0 -40 9.16699 -66.667 27.5 -80s47.166 -20 86.499 -20h195v-145h-201c-107.333 -0 -184.666 23.333 -231.999 70s-71 111 -71 193v73c0 82 23.667 146.5 71 193.5
s124.666 70.5 231.999 70.5h431v-145h-425zM422 10l-68 -198h-155l73 198h150z" />
    <glyph glyph-name="cacute.long" horiz-adv-x="591" 
d="M346 455c-39.333 0 -68.166 -8.83301 -86.499 -26.5s-27.5 -44.5 -27.5 -80.5v-103c0 -40 9.16699 -66.667 27.5 -80s47.166 -20 86.499 -20h195v-145h-201c-107.333 -0 -184.666 23.333 -231.999 70s-71 111 -71 193v73c0 82 23.667 146.5 71 193.5
s124.666 70.5 231.999 70.5h431v-145h-425zM284 672l65 188h155l-70 -188h-150z" />
    <glyph glyph-name="cdotaccent.long" horiz-adv-x="591" 
d="M346 455c-39.333 0 -68.166 -8.83301 -86.499 -26.5s-27.5 -44.5 -27.5 -80.5v-103c0 -40 9.16699 -66.667 27.5 -80s47.166 -20 86.499 -20h195v-145h-201c-107.333 -0 -184.666 23.333 -231.999 70s-71 111 -71 193v73c0 82 23.667 146.5 71 193.5
s124.666 70.5 231.999 70.5h431v-145h-425zM425 662h-139v128h139v-128z" />
    <glyph glyph-name="ccaron.long" horiz-adv-x="591" 
d="M346 455c-39.333 0 -68.166 -8.83301 -86.499 -26.5s-27.5 -44.5 -27.5 -80.5v-103c0 -40 9.16699 -66.667 27.5 -80s47.166 -20 86.499 -20h195v-145h-201c-107.333 -0 -184.666 23.333 -231.999 70s-71 111 -71 193v73c0 82 23.667 146.5 71 193.5
s124.666 70.5 231.999 70.5h431v-145h-425zM445 700c-8.66699 -12 -20 -23.167 -34 -33.5s-32 -15.5 -54 -15.5s-40.333 5.5 -55 16.5s-26 21.833 -34 32.5l-101 145h137l53 -82l52 82h137z" />
    <glyph glyph-name="kcommaaccent.alt1" horiz-adv-x="744" 
d="M100 0v750h175v-486l245 336h214l-333 -446h307v-154h-608zM321 -188c10.667 32 17.667 55.333 21 70s5 32.334 5 53.001v25h152v-25c0 -20.667 -1.66699 -38.334 -5 -53.001s-11.333 -38 -24 -70h-149z" />
    <glyph glyph-name="racute.long" horiz-adv-x="382" 
d="M58 357c0 30.667 5.83301 60.666 17.5 89.999s29 55.333 52 78s52.333 40.834 88 54.501s77.5 20.5 125.5 20.5h206v-145h-218c-32 0 -53.5 -6 -64.5 -18s-16.5 -32.667 -16.5 -62v-375h-190v357zM269 671.999l65 188h155l-70 -188h-150z" />
    <glyph glyph-name="rcommaaccent.long" horiz-adv-x="382" 
d="M58 357c0 30.667 5.83301 60.666 17.5 89.999s29 55.333 52 78s52.333 40.834 88 54.501s77.5 20.5 125.5 20.5h206v-145h-218c-32 0 -53.5 -6 -64.5 -18s-16.5 -32.667 -16.5 -62v-375h-190v357zM55 -188.001c10.667 32 17.667 55.333 21 70s5 32.334 5 53.001v25h152
v-25c0 -20.667 -1.66699 -38.334 -5 -53.001s-11.333 -38 -24 -70h-149z" />
    <glyph glyph-name="rcaron.long" horiz-adv-x="382" 
d="M58 357c0 30.667 5.83301 60.666 17.5 89.999s29 55.333 52 78s52.333 40.834 88 54.501s77.5 20.5 125.5 20.5h206v-145h-218c-32 0 -53.5 -6 -64.5 -18s-16.5 -32.667 -16.5 -62v-375h-190v357zM429 699.999c-8.66699 -12 -20 -23.167 -34 -33.5s-32 -15.5 -54 -15.5
s-40.333 5.5 -55 16.5s-26 21.833 -34 32.5l-101 145h137l53 -82l52 82h137z" />
    <glyph glyph-name="sacute.long1" horiz-adv-x="597" 
d="M388 210l-163.001 32c-60 12 -105.833 33 -137.5 63s-47.5 70 -47.5 120c0 23.333 4.5 45.666 13.5 66.999s23 40 42 56s43.333 28.667 73 38s64.834 14 105.501 14h498v-145h-513c-20 0 -33.333 -3 -40 -9s-10 -12.667 -10 -20c0 -8 3 -15 9 -21s16.333 -10.333 31 -13
l148 -29c73.333 -14.667 125.833 -36.5 157.5 -65.5s47.5 -67.5 47.5 -115.5c0 -54 -20.5 -97.833 -61.5 -131.5s-103.167 -50.5 -186.5 -50.5h-294v145h321c21.333 0 36 3 44 9s12 13.667 12 23c0 10 -4.5 17.333 -13.5 22s-20.833 8.33398 -35.5 11.001zM225.999 672
l65 188h155l-70 -188h-150z" />
    <glyph glyph-name="scedilla.long1" horiz-adv-x="597" 
d="M388 210l-163.001 32c-60 12 -105.833 33 -137.5 63s-47.5 70 -47.5 120c0 23.333 4.5 45.666 13.5 66.999s23 40 42 56s43.333 28.667 73 38s64.834 14 105.501 14h498v-145h-513c-20 0 -33.333 -3 -40 -9s-10 -12.667 -10 -20c0 -8 3 -15 9 -21s16.333 -10.333 31 -13
l148 -29c73.333 -14.667 125.833 -36.5 157.5 -65.5s47.5 -67.5 47.5 -115.5c0 -54 -20.5 -97.833 -61.5 -131.5s-103.167 -50.5 -186.5 -50.5h-294v145h321c21.333 0 36 3 44 9s12 13.667 12 23c0 10 -4.5 17.333 -13.5 22s-20.833 8.33398 -35.5 11.001zM373.999 10
l-68 -198h-155l73 198h150z" />
    <glyph glyph-name="scommaaccent.long1" horiz-adv-x="597" 
d="M388 210l-163.001 32c-60 12 -105.833 33 -137.5 63s-47.5 70 -47.5 120c0 23.333 4.5 45.666 13.5 66.999s23 40 42 56s43.333 28.667 73 38s64.834 14 105.501 14h498v-145h-513c-20 0 -33.333 -3 -40 -9s-10 -12.667 -10 -20c0 -8 3 -15 9 -21s16.333 -10.333 31 -13
l148 -29c73.333 -14.667 125.833 -36.5 157.5 -65.5s47.5 -67.5 47.5 -115.5c0 -54 -20.5 -97.833 -61.5 -131.5s-103.167 -50.5 -186.5 -50.5h-294v145h321c21.333 0 36 3 44 9s12 13.667 12 23c0 10 -4.5 17.333 -13.5 22s-20.833 8.33398 -35.5 11.001zM196.999 -188
c10.667 32 17.667 55.333 21 70s5 32.334 5 53.001v25h152v-25c0 -20.667 -1.66699 -38.334 -5 -53.001s-11.333 -38 -24 -70h-149z" />
    <glyph glyph-name="scaron.long1" horiz-adv-x="597" 
d="M388 210l-163.001 32c-60 12 -105.833 33 -137.5 63s-47.5 70 -47.5 120c0 23.333 4.5 45.666 13.5 66.999s23 40 42 56s43.333 28.667 73 38s64.834 14 105.501 14h498v-145h-513c-20 0 -33.333 -3 -40 -9s-10 -12.667 -10 -20c0 -8 3 -15 9 -21s16.333 -10.333 31 -13
l148 -29c73.333 -14.667 125.833 -36.5 157.5 -65.5s47.5 -67.5 47.5 -115.5c0 -54 -20.5 -97.833 -61.5 -131.5s-103.167 -50.5 -186.5 -50.5h-294v145h321c21.333 0 36 3 44 9s12 13.667 12 23c0 10 -4.5 17.333 -13.5 22s-20.833 8.33398 -35.5 11.001zM386.999 700
c-8.66699 -12 -20 -23.167 -34 -33.5s-32 -15.5 -54 -15.5s-40.333 5.5 -55 16.5s-26 21.833 -34 32.5l-101 145h137l53 -82l52 82h137z" />
    <glyph glyph-name="sacute.long2" horiz-adv-x="597" 
d="M348 210l-163.001 32.0029c-60 12 -105.833 33 -137.5 63s-47.5 70 -47.5 120c0 23.333 4.5 45.666 13.5 66.999s23 40 42 56s43.333 28.667 73 38s64.834 14 105.501 14h298v-145h-313c-20 0 -33.333 -2.83301 -40 -8.5s-10 -12.834 -10 -21.501s3 -15.667 9 -21
s16.333 -9.33301 31 -12l148 -29c73.333 -14.667 125.833 -36.5 157.5 -65.5s47.5 -67.5 47.5 -115.5c0 -54 -20.5 -97.833 -61.5 -131.5s-103.167 -50.5 -186.5 -50.5h-494v145h521c21.333 0 36 3.16699 44 9.5s12 14.166 12 23.499c0 10 -4.5 17.167 -13.5 21.5
s-20.833 7.83301 -35.5 10.5zM225.999 672.003l65 188h155l-70 -188h-150z" />
    <glyph glyph-name="scedilla.long2" horiz-adv-x="597" 
d="M348 210l-163.001 32.0029c-60 12 -105.833 33 -137.5 63s-47.5 70 -47.5 120c0 23.333 4.5 45.666 13.5 66.999s23 40 42 56s43.333 28.667 73 38s64.834 14 105.501 14h298v-145h-313c-20 0 -33.333 -2.83301 -40 -8.5s-10 -12.834 -10 -21.501s3 -15.667 9 -21
s16.333 -9.33301 31 -12l148 -29c73.333 -14.667 125.833 -36.5 157.5 -65.5s47.5 -67.5 47.5 -115.5c0 -54 -20.5 -97.833 -61.5 -131.5s-103.167 -50.5 -186.5 -50.5h-494v145h521c21.333 0 36 3.16699 44 9.5s12 14.166 12 23.499c0 10 -4.5 17.167 -13.5 21.5
s-20.833 7.83301 -35.5 10.5zM373.999 10.0029l-68 -198h-155l73 198h150z" />
    <glyph glyph-name="scommaaccent.long2" horiz-adv-x="597" 
d="M348 210l-163.001 32.0029c-60 12 -105.833 33 -137.5 63s-47.5 70 -47.5 120c0 23.333 4.5 45.666 13.5 66.999s23 40 42 56s43.333 28.667 73 38s64.834 14 105.501 14h298v-145h-313c-20 0 -33.333 -2.83301 -40 -8.5s-10 -12.834 -10 -21.501s3 -15.667 9 -21
s16.333 -9.33301 31 -12l148 -29c73.333 -14.667 125.833 -36.5 157.5 -65.5s47.5 -67.5 47.5 -115.5c0 -54 -20.5 -97.833 -61.5 -131.5s-103.167 -50.5 -186.5 -50.5h-494v145h521c21.333 0 36 3.16699 44 9.5s12 14.166 12 23.499c0 10 -4.5 17.167 -13.5 21.5
s-20.833 7.83301 -35.5 10.5zM196.999 -187.997c10.667 32 17.667 55.333 21 70s5 32.334 5 53.001v25h152v-25c0 -20.667 -1.66699 -38.334 -5 -53.001s-11.333 -38 -24 -70h-149z" />
    <glyph glyph-name="scaron.long2" horiz-adv-x="597" 
d="M348 210l-163.001 32.0029c-60 12 -105.833 33 -137.5 63s-47.5 70 -47.5 120c0 23.333 4.5 45.666 13.5 66.999s23 40 42 56s43.333 28.667 73 38s64.834 14 105.501 14h298v-145h-313c-20 0 -33.333 -2.83301 -40 -8.5s-10 -12.834 -10 -21.501s3 -15.667 9 -21
s16.333 -9.33301 31 -12l148 -29c73.333 -14.667 125.833 -36.5 157.5 -65.5s47.5 -67.5 47.5 -115.5c0 -54 -20.5 -97.833 -61.5 -131.5s-103.167 -50.5 -186.5 -50.5h-494v145h521c21.333 0 36 3.16699 44 9.5s12 14.166 12 23.499c0 10 -4.5 17.167 -13.5 21.5
s-20.833 7.83301 -35.5 10.5zM386.999 700.003c-8.66699 -12 -20 -23.167 -34 -33.5s-32 -15.5 -54 -15.5s-40.333 5.5 -55 16.5s-26 21.833 -34 32.5l-101 145h137l53 -82l52 82h137z" />
    <glyph glyph-name="tcedilla.long" horiz-adv-x="532" 
d="M20 455l0.000976562 145h97v122h175v-122h325v-145h-325v-243c0 -25.333 5.33301 -42.833 16 -52.5s28 -14.5 52 -14.5h97v-145h-119c-82.667 0 -141.834 17.5 -177.501 52.5s-53.5 88.167 -53.5 159.5v243h-87zM412.001 10l-68 -198h-155l73 198h150z" />
    <glyph glyph-name="tcommaaccent.long" horiz-adv-x="532" 
d="M20 455l0.000976562 145h97v122h175v-122h325v-145h-325v-243c0 -25.333 5.33301 -42.833 16 -52.5s28 -14.5 52 -14.5h97v-145h-119c-82.667 0 -141.834 17.5 -177.501 52.5s-53.5 88.167 -53.5 159.5v243h-87zM235.001 -188c10.667 32 17.667 55.333 21 70
s5 32.334 5 53.001v25h152v-25c0 -20.667 -1.66699 -38.334 -5 -53.001s-11.333 -38 -24 -70h-149z" />
    <glyph glyph-name="tcaron.long" horiz-adv-x="532" 
d="M338 649l42 150h120l-42 -150h-120zM20 455l0.000976562 145h97v122h175v-122h325v-145h-325v-243c0 -25.333 5.33301 -42.833 16 -52.5s28 -14.5 52 -14.5h97v-145h-119c-82.667 0 -141.834 17.5 -177.501 52.5s-53.5 88.167 -53.5 159.5v243h-87z" />
    <glyph glyph-name="tbar.long" horiz-adv-x="532" 
d="M47 350h60.001v105h-87v145h97v122h175v-122h325v-145h-325v-105h146v-90h-146v-48c0 -25.333 5.33301 -42.833 16 -52.5s28 -14.5 52 -14.5h97v-145h-119c-82.667 0 -141.834 17.5 -177.501 52.5s-53.5 88.167 -53.5 159.5v48h-60v90z" />
    <glyph glyph-name="wcircumflex.alt1" horiz-adv-x="1087" 
d="M639 600l0.000976562 -445h200v445h190v-600h-712c-91.333 0 -157.333 22 -198 66s-61 103.667 -61 179v355h190v-360c0 -30.667 5.16699 -52.5 15.5 -65.5s30.166 -19.5 59.499 -19.5h126v445h190zM596.001 672l-52 82l-53 -82h-137l101 145
c8 10.667 19.333 21.5 34 32.5s33 16.5 55 16.5s40 -5.16699 54 -15.5s25.333 -21.5 34 -33.5l101 -145h-137z" />
    <glyph glyph-name="yacute.alt1" horiz-adv-x="741" 
d="M218 600l263 -363v363h170v-413c0 -34.667 -5.83301 -64 -17.5 -88s-27 -43.333 -46 -58s-40.833 -25.167 -65.5 -31.5s-50 -9.5 -76 -9.5h-410v155h300l-326 445h208zM299 672l65 188h155l-70 -188h-150z" />
    <glyph glyph-name="ydieresis.alt1" horiz-adv-x="741" 
d="M218 600l263 -363v363h170v-413c0 -34.667 -5.83301 -64 -17.5 -88s-27 -43.333 -46 -58s-40.833 -25.167 -65.5 -31.5s-50 -9.5 -76 -9.5h-410v155h300l-326 445h208zM540 692h-134v128h134v-128zM335 692h-134v128h134v-128z" />
    <glyph glyph-name="ycircumflex.alt1" horiz-adv-x="741" 
d="M218 600l263 -363v363h170v-413c0 -34.667 -5.83301 -64 -17.5 -88s-27 -43.333 -46 -58s-40.833 -25.167 -65.5 -31.5s-50 -9.5 -76 -9.5h-410v155h300l-326 445h208zM423 672l-52 82l-53 -82h-137l101 145c8 10.667 19.333 21.5 34 32.5s33 16.5 55 16.5
s40 -5.16699 54 -15.5s25.333 -21.5 34 -33.5l101 -145h-137z" />
    <glyph glyph-name="Agrave.alt1" horiz-adv-x="915" 
d="M10 0l348.001 588c33.333 56 71.166 97 113.499 123s95.833 39 160.5 39h193v-750h-187v157h-314l-89 -157h-225zM534.001 529l-123 -217.001h227v268h-33c-14.667 0 -27.5 -3.66699 -38.5 -11s-21.833 -20.666 -32.5 -39.999zM715.001 821.999h-150l-70 188h155z" />
    <glyph glyph-name="Aacute.alt1" horiz-adv-x="915" 
d="M10 0l348.001 588c33.333 56 71.166 97 113.499 123s95.833 39 160.5 39h193v-750h-187v157h-314l-89 -157h-225zM534.001 529l-123 -217.001h227v268h-33c-14.667 0 -27.5 -3.66699 -38.5 -11s-21.833 -20.666 -32.5 -39.999zM566.001 821.999l65 188h155l-70 -188h-150
z" />
    <glyph glyph-name="Acircumflex.alt1" horiz-adv-x="915" 
d="M10 0l348.001 588c33.333 56 71.166 97 113.499 123s95.833 39 160.5 39h193v-750h-187v157h-314l-89 -157h-225zM534.001 529l-123 -217.001h227v268h-33c-14.667 0 -27.5 -3.66699 -38.5 -11s-21.833 -20.666 -32.5 -39.999zM688.001 821.999l-52 82l-53 -82h-137
l101 145c8 10.667 19.333 21.5 34 32.5s33 16.5 55 16.5s40 -5.16699 54 -15.5s25.333 -21.5 34 -33.5l101 -145h-137z" />
    <glyph glyph-name="Atilde.alt1" horiz-adv-x="915" 
d="M10 0l348.001 588c33.333 56 71.166 97 113.499 123s95.833 39 160.5 39h193v-750h-187v157h-314l-89 -157h-225zM534.001 529l-123 -217.001h227v268h-33c-14.667 0 -27.5 -3.66699 -38.5 -11s-21.833 -20.666 -32.5 -39.999zM677.001 937.999l18.001 -13.5
c4 -3 9 -4.5 15 -4.5c5.33301 0 9.33301 1.83301 12 5.5s4 9.83398 4 18.501v62h99v-76c0 -35.333 -10.333 -63.166 -31 -83.499s-47 -30.5 -79 -30.5c-22.667 0 -41.5 3.83301 -56.5 11.5s-33.5 19.834 -55.5 36.501l-34 26
c-6.66699 5.33301 -12.334 9.66602 -17.001 12.999s-9.66699 5 -15 5c-4.66699 0 -8.66699 -1.83301 -12 -5.5s-5 -9.83398 -5 -18.501v-62h-99v78c0 36 10.667 63.667 32 83s47.333 29 78 29c22.667 0 41.5 -3.83301 56.5 -11.5s33.5 -19.834 55.5 -36.501z" />
    <glyph glyph-name="Adieresis.alt1" horiz-adv-x="915" 
d="M10 0l348.001 588c33.333 56 71.166 97 113.499 123s95.833 39 160.5 39h193v-750h-187v157h-314l-89 -157h-225zM534.001 529l-123 -217.001h227v268h-33c-14.667 0 -27.5 -3.66699 -38.5 -11s-21.833 -20.666 -32.5 -39.999zM825.001 841.999h-134v128h134v-128z
M620.001 841.999h-134v128h134v-128z" />
    <glyph glyph-name="Aring.alt1" horiz-adv-x="915" 
d="M10 0l348.001 588c33.333 56 71.166 97 113.499 123s95.833 39 160.5 39h193v-750h-187v157h-314l-89 -157h-225zM534.001 529l-123 -217.001h227v268h-33c-14.667 0 -27.5 -3.66699 -38.5 -11s-21.833 -20.666 -32.5 -39.999zM610.001 903.999v24c0 26 8.5 47 25.5 63
s37.833 24 62.5 24h39c24.667 0 45.5 -8 62.5 -24s25.5 -37 25.5 -63v-24c0 -26 -8.5 -47 -25.5 -63s-37.833 -24 -62.5 -24h-39c-24.667 0 -45.5 8 -62.5 24s-25.5 37 -25.5 63zM677.001 925.999v-20c0 -10.667 2.5 -18.5 7.5 -23.5s11.833 -7.5 20.5 -7.5h25
c8.66699 0 15.667 2.5 21 7.5s8 12.833 8 23.5v20c0 10.667 -2.66699 18.5 -8 23.5s-12.333 7.5 -21 7.5h-25c-8.66699 0 -15.5 -2.5 -20.5 -7.5s-7.5 -12.833 -7.5 -23.5z" />
    <glyph glyph-name="Amacron.alt1" horiz-adv-x="915" 
d="M10 0l348.001 588c33.333 56 71.166 97 113.499 123s95.833 39 160.5 39h193v-750h-187v157h-314l-89 -157h-225zM534.001 529l-123 -217.001h227v268h-33c-14.667 0 -27.5 -3.66699 -38.5 -11s-21.833 -20.666 -32.5 -39.999zM768.001 846.999h-260v98h260v-98z" />
    <glyph glyph-name="Abreve.alt1" horiz-adv-x="915" 
d="M10 0l348.001 588c33.333 56 71.166 97 113.499 123s95.833 39 160.5 39h193v-750h-187v157h-314l-89 -157h-225zM534.001 529l-123 -217.001h227v268h-33c-14.667 0 -27.5 -3.66699 -38.5 -11s-21.833 -20.666 -32.5 -39.999zM503.001 979.999h98v-51
c0 -10.667 3.16699 -18.834 9.5 -24.501s14.5 -8.5 24.5 -8.5h60c10 0 18.167 2.83301 24.5 8.5s9.5 13.834 9.5 24.501v51h96v-84c0 -24 -9.5 -43.833 -28.5 -59.5s-40.833 -23.5 -65.5 -23.5h-133c-26.667 0 -49.167 7.83301 -67.5 23.5s-27.5 35.5 -27.5 59.5v84z" />
    <glyph glyph-name="Aogonek.alt1" horiz-adv-x="915" 
d="M10 0l348.001 588c33.333 56 71.166 97 113.499 123s95.833 39 160.5 39h193v-750h-187v157h-314l-89 -157h-225zM534.001 529l-123 -217.001h227v268h-33c-14.667 0 -27.5 -3.66699 -38.5 -11s-21.833 -20.666 -32.5 -39.999zM713.001 -0.000976562h112l-44 -58
c-6 -7.33301 -10.667 -13.5 -14 -18.5s-5 -10.5 -5 -16.5s2.33301 -10.833 7 -14.5s11.667 -5.5 21 -5.5h35v-77h-85c-36.667 0 -63.167 7 -79.5 21s-24.5 31.333 -24.5 52c0 12.667 3.16699 25.667 9.5 39s17.833 28.333 34.5 45z" />
    <glyph glyph-name="Agrave.alt2" horiz-adv-x="915" 
d="M905 0h-224.999l-89 157h-314v-157h-187v750h193c64.667 0 118.167 -13 160.5 -39s80.166 -67 113.499 -123zM277.001 580v-267.999h227l-123 217c-10.667 19.333 -21.5 32.666 -32.5 39.999s-23.833 11 -38.5 11h-33zM334.001 822.001h-150l-70 188h155z" />
    <glyph glyph-name="Aacute.alt2" horiz-adv-x="915" 
d="M905 0h-224.999l-89 157h-314v-157h-187v750h193c64.667 0 118.167 -13 160.5 -39s80.166 -67 113.499 -123zM277.001 580v-267.999h227l-123 217c-10.667 19.333 -21.5 32.666 -32.5 39.999s-23.833 11 -38.5 11h-33zM206.001 822.001l65 188h155l-70 -188h-150z" />
    <glyph glyph-name="Acircumflex.alt2" horiz-adv-x="915" 
d="M905 0h-224.999l-89 157h-314v-157h-187v750h193c64.667 0 118.167 -13 160.5 -39s80.166 -67 113.499 -123zM277.001 580v-267.999h227l-123 217c-10.667 19.333 -21.5 32.666 -32.5 39.999s-23.833 11 -38.5 11h-33zM332.001 822.001l-52 82l-53 -82h-137l101 145
c8 10.667 19.333 21.5 34 32.5s33 16.5 55 16.5s40 -5.16699 54 -15.5s25.333 -21.5 34 -33.5l101 -145h-137z" />
    </font>
</defs>
</svg>
