<svg width="147" height="106" viewBox="0 0 147 106" fill="none" xmlns="http://www.w3.org/2000/svg">
<path d="M5.13078 103.062L100.608 103.285L131.746 103.285C132.698 103.285 133.649 103.203 134.586 103.039L136.248 102.751C137.604 102.515 138.889 101.977 140.009 101.177C140.948 100.506 141.753 99.6639 142.38 98.6948L143.156 97.4958C143.639 96.7491 144.006 95.9333 144.244 95.0763C144.736 93.3061 144.659 91.4261 144.026 89.7014L116.094 13.6182C115.439 11.8329 114.575 10.1312 113.52 8.54873L112.235 6.62244C111.773 5.9292 111.212 5.30777 110.568 4.77813L109.301 3.73455C108.309 2.91704 107.023 2.54422 105.747 2.70373C104.729 2.83103 103.78 3.28974 103.048 4.00916L91.2385 15.6154L87.9187 19.2369C86.8666 20.3847 86.0004 21.69 85.3516 23.1055C84.3819 25.2213 83.9202 27.5344 84.0033 29.8602L84.0234 30.4232C84.0743 31.8484 84.3011 33.2619 84.6987 34.6315L85.2389 36.4921C85.8134 38.4708 86.7411 40.3292 87.9773 41.9775C89.3925 43.8643 91.1831 45.4376 93.2364 46.5982L93.6943 46.857C94.7318 47.4434 95.8207 47.9339 96.9474 48.3225L108.192 52.2L111.151 53.6091C112.297 54.1547 113.37 54.8418 114.345 55.6543C115.149 56.324 115.881 57.0749 116.53 57.8951L118.154 59.9461C119.24 61.3181 120.118 62.8432 120.757 64.4719L121.198 65.5928C121.888 67.3492 122.171 69.2389 122.026 71.1204L121.911 72.6216C121.838 73.5686 121.546 74.4855 121.057 75.2999C120.245 76.6525 118.943 77.6394 117.421 78.0545L116.123 78.4085C115.301 78.6326 114.453 78.7448 113.601 78.7421L45.2846 78.5231L40.5609 78.0344C39.3992 77.9142 38.2492 77.6994 37.1224 77.3921L35.0157 76.8176C34.2814 76.6173 33.5824 76.3049 32.9434 75.8915L32.0186 75.293C30.8095 74.5107 29.9985 73.2431 29.7948 71.8174C29.7117 71.236 29.7322 70.6445 29.8553 70.0703L29.9501 69.6279C30.2052 68.4374 30.7457 67.3267 31.5251 66.3914L32.5692 65.1385L33.337 64.4347C34.5848 63.2909 36.1279 62.5193 37.7917 62.2073C38.4719 62.0798 39.1645 62.0306 39.8559 62.0606L41.7178 62.1416C43.2005 62.206 44.6746 62.4009 46.1231 62.724L73.4394 68.8161C74.4211 69.035 75.4477 68.9214 76.3578 68.4932L77.3494 68.0265C78.2128 67.6202 78.7914 66.7815 78.8645 65.8301C78.9302 64.9761 78.5794 64.1429 77.9227 63.593L61.4453 49.7981C60.3527 48.8833 59.4837 47.7307 58.9049 46.4285C58.31 45.0898 58.0381 43.63 58.1113 42.1669L58.2231 39.9308L58.8888 36.4688C59.1871 34.9178 59.2659 33.3326 59.1229 31.7596L59.0097 30.5146C58.9319 29.6585 58.7259 28.8188 58.3985 28.0239C57.7047 26.339 56.4927 24.9186 54.9379 23.9684L54.8279 23.9012C53.8292 23.2909 52.7208 22.8818 51.5651 22.6969L50.0972 22.462C48.5329 22.2117 46.9955 21.7293 45.5663 21.0457C43.6275 20.1185 41.861 18.817 40.4079 17.2336L26.5261 2.10595C25.6711 1.17418 24.5328 0.550131 23.2874 0.330356L22.5587 0.20177C21.8162 0.0707411 21.0513 0.182043 20.3769 0.519228C19.3502 1.03259 18.639 2.01515 18.4721 3.15086L9.99133 60.857C8.99244 67.6537 9.40489 74.5835 11.2029 81.2138L12.0461 84.3231L12.1816 85.2033C12.381 86.4996 12.0725 87.8228 11.3204 88.8972C11.0618 89.2667 10.7552 89.6001 10.4088 89.8888L2.22242 96.7108C1.78655 97.074 1.43054 97.5235 1.1768 98.031L0.785037 98.8145C0.306467 99.7717 0.428094 100.92 1.09659 101.755C1.53815 102.307 2.1757 102.668 2.87634 102.761L5.13078 103.062Z" transform="translate(0.726074 1.20012)" stroke="white" stroke-width="2"/>
</svg>
