<svg width="148" height="94" viewBox="0 0 148 94" fill="none" xmlns="http://www.w3.org/2000/svg">
<path d="M3.07958 20.7892H37.3855L38.5347 20.7892C39.2729 20.7892 39.893 21.3442 39.9745 22.0779C39.9953 22.2651 39.9794 22.4546 39.9276 22.6358L39.3072 24.8072L39.1247 25.4766C38.9261 26.2048 39.2691 26.9719 39.9441 27.3094C40.1008 27.3877 40.2693 27.4395 40.4429 27.4627L42.8012 27.7771L46.4699 28.1265L51.7108 28.8253L58.5241 30.0482L63.8242 30.9995C64.8312 31.1802 65.8212 31.4453 66.7838 31.7918L67.6273 32.0955C69.0024 32.5905 70.2842 33.3141 71.4185 34.2357C72.1374 34.8199 72.7918 35.4792 73.3705 36.2026L75.2952 38.6084L79.3132 43.5L80.9708 46.0899C81.7253 47.2689 82.3074 48.5497 82.6993 49.8935C83.1182 51.3295 83.3151 52.8212 83.2833 54.3168L83.1566 60.2711V65.5086C83.1566 67.6033 83.3397 69.6939 83.7037 71.7567C84.0372 73.6468 84.5216 75.5071 85.1521 77.3199L85.6024 78.6145L87.2229 81.8555C88.004 83.4177 88.9413 84.8968 90.0204 86.2702L91.629 88.3175C92.035 88.8343 92.5105 89.2924 93.042 89.679C93.7822 90.2173 94.619 90.6081 95.5069 90.83L95.6147 90.857C96.503 91.0791 97.4238 91.141 98.3338 91.0399L100.102 90.8434L103.247 90.1446L107.09 88.747L109.091 87.9968C109.61 87.8019 110.066 87.4669 110.407 87.0289C110.859 86.4476 111.081 85.7206 111.032 84.9859L110.988 84.3175C110.952 83.7804 110.825 83.2533 110.613 82.7585L110.292 82.0082C110.022 81.3781 109.685 80.7789 109.286 80.221L107.265 77.3916L105.651 74.9711C105.101 74.1451 104.696 73.2306 104.455 72.2675L104.286 71.5914C104.063 70.6961 104.056 69.7602 104.267 68.8618C104.514 67.8141 105.048 66.8558 105.809 66.0947L106.164 65.7397C106.432 65.4718 106.719 65.2245 107.024 64.9998L109.239 63.3677C109.668 63.052 110.048 62.6752 110.367 62.2494L110.7 61.8052C111.192 61.1496 111.458 60.3522 111.458 59.5326C111.458 58.7622 111.223 58.01 110.784 57.3766L109.886 56.0783L105.867 51.7108L101.5 46.8193L99.7674 44.5771C98.9463 43.5145 98.2724 42.3459 97.764 41.103L97.5473 40.5735C97.1563 39.6177 96.903 38.6112 96.7949 37.5842C96.6714 36.4113 96.7389 35.2262 96.9947 34.0749L97.0974 33.6129C97.237 32.9846 97.4304 32.3694 97.6755 31.7743L98.1123 30.7135C98.3881 30.0437 98.7938 29.4351 99.3061 28.9229C99.8315 28.3974 100.458 27.9842 101.148 27.7082L101.247 27.6688C101.647 27.5085 102.064 27.3919 102.49 27.321L102.742 27.2789C103.54 27.1459 104.354 27.1293 105.157 27.2297L105.812 27.3116C106.431 27.3889 107.042 27.5109 107.643 27.6766L127.006 33.0181L128.863 33.5984C129.485 33.7927 130.074 34.0802 130.609 34.4511L131.014 34.7313C131.707 35.2107 132.256 35.8687 132.605 36.6354C132.83 37.1316 132.967 37.6636 133.009 38.2071L133.12 39.6566L132.972 43.3761C132.954 43.8072 132.976 44.239 133.038 44.6661L133.155 45.4898C133.247 46.1328 133.499 46.7423 133.889 47.2619C134.189 47.6618 134.564 47.9997 134.992 48.2569L135.421 48.5143C135.866 48.7809 136.341 48.9927 136.836 49.1451L137.315 49.2926C138.009 49.506 138.73 49.6145 139.456 49.6145H140.044C140.548 49.6145 141.049 49.5215 141.52 49.3403C142.519 48.956 143.329 48.1971 143.778 47.2251L143.914 46.9301C144.055 46.6241 144.165 46.3044 144.24 45.976L144.651 44.1988C144.882 42.1132 144.814 40.0051 144.448 37.9388L142.554 27.253L141.855 24.4578L141.17 22.5385C141.045 22.1897 140.866 21.8631 140.639 21.5708C140.075 20.8462 139.248 20.3732 138.338 20.2544L136.403 20.002C135.962 19.9445 135.527 19.8515 135.102 19.7239L132.247 18.8675L132.175 18.8496C131.343 18.6414 130.661 18.046 130.342 17.2491C130.215 16.9333 130.151 16.5964 130.151 16.2563V15.2318C130.151 14.5257 129.949 13.8342 129.57 13.2385C129.152 12.5821 128.539 12.0735 127.817 11.7845L126.938 11.4332C126.519 11.2653 126.083 11.1407 125.638 11.0612L111.633 8.56024L99.9277 5.93976L84.3795 2.79518L72.3253 1.04819L68.8313 0.698795L63.5904 0.873493L57.6506 1.57229L57.22 1.59762C55.5392 1.69649 53.8538 1.51073 52.2349 1.04819L51.2164 0.640778C50.1619 0.218974 49.0262 0.0392196 47.8929 0.114767C47.2957 0.154581 46.7053 0.264901 46.134 0.443428L45.7705 0.557038C44.7287 0.882591 43.7423 1.36421 42.8449 1.98548L42.8099 2.00971C42.2232 2.41594 41.5985 2.76451 40.9447 3.05057L40.6397 3.18401C39.6381 3.62218 38.5903 3.9458 37.5161 4.14871L23.4096 6.81326L18.8675 8.21085L16.0723 9.43374L12.0542 11.3554L4.89157 15.0241L1.64069 16.7973C1.25274 17.0089 0.928319 17.3203 0.700955 17.6992L0.443059 18.129C0.167108 18.589 0.145255 19.158 0.385119 19.6377C0.584715 20.0369 0.944896 20.3322 1.37548 20.4496L2.17757 20.6684C2.47153 20.7485 2.77488 20.7892 3.07958 20.7892Z" transform="translate(1.65845 1.00452)" stroke="white" stroke-width="2"/>
</svg>
