<svg width="147" height="81" viewBox="0 0 147 81" fill="none" xmlns="http://www.w3.org/2000/svg">
<path d="M82.5416 31.2932L73.5902 28.7547L18.6701 11.9925L16.8433 11.3835C15.3839 10.8971 14.1467 9.90462 13.3553 8.58552L12.7575 7.39001C12.2487 6.37246 11.6407 5.40766 10.9422 4.50966C10.3714 3.77572 9.74224 3.08906 9.06089 2.45638L8.17669 1.63534L7.39095 1.04603C6.83122 0.626235 6.18706 0.332914 5.50293 0.186316C4.9281 0.063138 4.33563 0.0458203 3.75459 0.135212L3.17905 0.223756C2.96852 0.256146 2.76322 0.316391 2.56856 0.402904C1.97223 0.667942 1.50935 1.16414 1.28634 1.77743L1.09023 2.31673L0.181301 5.69274C0.151348 5.804 0.131468 5.91772 0.121899 6.03254L0.100034 6.29492C0.0409808 7.00354 0.463755 7.66394 1.13202 7.90694C1.37307 7.9946 1.63187 8.02209 1.88596 7.98705L4.81438 7.58313C5.2355 7.52504 5.66361 7.54252 6.0786 7.63474L6.17635 7.65646C6.50811 7.73019 6.82489 7.85989 7.11309 8.04002C7.54257 8.30844 7.89688 8.68149 8.14284 9.12422L8.21887 9.26107C8.3718 9.53633 8.48793 9.83048 8.5643 10.136L8.70499 10.6987C8.80646 11.1046 8.84559 11.5236 8.82102 11.9412L8.77782 12.6755C8.74193 13.2858 8.94744 13.8857 9.35 14.3458C9.56477 14.5912 9.8287 14.7888 10.1247 14.9258L18.8064 18.9427L23.3036 20.8506L26.1293 22.398C28.0568 23.4535 29.8789 24.6912 31.5706 26.0941L32.4636 26.8347C33.893 28.0199 35.4532 29.0377 37.114 29.8681L39.1017 30.8619C39.561 31.0916 40.0467 31.264 40.548 31.3754L41.2419 31.5296C41.8991 31.6757 42.5836 31.6404 43.2223 31.4275C43.389 31.3719 43.5516 31.3045 43.7089 31.2259L44.034 31.0633C44.7445 30.7081 45.3867 30.2303 45.9311 29.6519L46.739 28.7935C47.0978 28.4123 47.5585 28.1421 48.0664 28.0151C48.6238 27.8758 49.211 27.9156 49.7445 28.129L49.963 28.2164C50.1782 28.3025 50.3843 28.41 50.578 28.5373L101.612 62.0664C101.826 62.2068 102.066 62.3027 102.317 62.3484L102.924 62.4587C103.239 62.516 103.56 62.3958 103.76 62.1458C103.901 61.9691 103.968 61.7443 103.947 61.519L103.708 59.0084V57.0068C103.708 56.0964 104.013 55.2124 104.576 54.4965C104.99 53.9694 105.528 53.553 106.142 53.2843L106.269 53.2289C107.002 52.9082 107.806 52.7837 108.601 52.8674L108.816 52.8901C109.581 52.9706 110.32 53.2126 110.984 53.6001L111.612 53.9662L113.929 55.7378L115.799 56.9849C116.459 57.4245 117.156 57.8046 117.883 58.1207C119.235 58.7085 120.675 59.0684 122.144 59.186L123.332 59.281H124.892C126.117 59.281 127.337 59.1135 128.517 58.7831C129.599 58.4802 130.638 58.0431 131.611 57.4819L133.689 56.2829L134.932 55.6248C135.616 55.2626 136.421 55.2047 137.15 55.465C137.648 55.6431 138.085 55.9609 138.408 56.3806L138.617 56.6517C139.048 57.213 139.32 57.8808 139.403 58.584L139.433 58.8405C139.509 59.4909 139.454 60.15 139.269 60.7782L139.158 61.1542C138.965 61.8095 138.675 62.4319 138.296 63.0003L136.96 65.0047L134.098 69.5019L132.966 71.7643C132.723 72.2508 132.57 72.777 132.513 73.3179L132.498 73.4589C132.387 74.5069 132.677 75.5578 133.31 76.4008C133.737 76.9706 134.303 77.4216 134.954 77.7109L135.66 78.0248C136.952 78.5987 138.384 78.7769 139.777 78.5368L140.299 78.4467C141.148 78.3004 141.946 77.9416 142.618 77.4037C143.287 76.8687 143.81 76.174 144.139 75.3835L144.355 74.865C144.78 73.8467 144.967 72.7454 144.904 71.6441L144.727 68.5479L144.319 61.8703L144.046 57.5919C143.956 56.1872 143.598 54.8126 142.99 53.5427L142.971 53.5022C142.599 52.7242 142.134 51.9942 141.585 51.3285C140.868 50.4578 140.017 49.7066 139.064 49.103L138.341 48.6451C137.063 47.8357 135.677 47.2117 134.223 46.7918L130.282 45.6532L118.153 41.9737L107.523 38.8393L104.599 37.9011C101.74 36.9842 98.9772 35.7923 96.3487 34.3421L91.6351 31.0426C91.1481 30.7017 90.7322 30.2691 90.4107 29.769L89.9952 29.1227C89.7837 28.7937 89.4806 28.5338 89.1232 28.3749C88.6853 28.1803 88.1922 28.149 87.7332 28.2867L87.6179 28.3213C87.2655 28.427 86.9431 28.6147 86.6772 28.8691L84.7045 30.756C84.2246 31.215 83.566 31.4379 82.906 31.3646C82.7828 31.3509 82.6609 31.327 82.5416 31.2932Z" transform="translate(0.91156 0.941055)" stroke="white" stroke-width="2"/>
</svg>
