<svg width="148" height="82" viewBox="0 0 148 82" fill="none" xmlns="http://www.w3.org/2000/svg">
<path d="M39.0127 76.6859L54.4169 74.8441L64.7979 73.3372L66.1569 73.0418C67.8145 72.6814 69.4339 72.1636 70.9931 71.4954L71.57 71.1807C72.3913 70.7327 73.0466 70.0321 73.4387 69.1825C73.7027 68.6104 73.8395 67.9877 73.8395 67.3576V65.97L73.7164 64.6776C73.5761 63.2047 73.6742 61.7188 74.0069 60.2771L74.0968 59.8276C74.2599 59.0124 74.4885 58.2117 74.7804 57.4332L75.0673 56.668C75.2529 56.1732 75.4894 55.699 75.7732 55.2532L76.2634 54.4829C76.4321 54.2178 76.6473 53.9854 76.8986 53.7969L76.997 53.7231C77.5435 53.3133 78.2418 53.1627 78.9086 53.3108C79.2098 53.3778 79.4948 53.5036 79.7472 53.6812L97.8516 66.4156C98.6949 67.0088 99.6146 67.4853 100.586 67.832L100.865 67.932C101.265 68.0749 101.677 68.1848 102.094 68.2608C102.899 68.4071 103.721 68.4261 104.531 68.3171L142.784 63.1738C143.032 63.1405 143.274 63.071 143.502 62.9675L144.359 62.5779C144.749 62.4004 145 62.0109 145 61.5818C145 61.1892 144.79 60.8267 144.449 60.6319L144.167 60.4708C143.944 60.3434 143.695 60.2697 143.438 60.2555L140.814 60.1097L133.279 59.44L120.722 58.1005L109.838 57.0958L101.299 55.4215L94.4342 53.4122L87.5693 50.9007L81.2067 47.552L73.1697 41.8591L66.6397 35.8314L61.1143 29.4688L57.2633 24.6132L54.2494 19.7575L52.9257 17.5914C52.5809 17.0272 52.2842 16.4351 52.0386 15.8212L51.7668 15.1416C51.3066 13.9911 51.1038 12.7538 51.1725 11.5166C51.2144 10.7629 51.3565 10.0182 51.5952 9.30216L51.9053 8.37183L52.6192 6.46821C52.8123 5.95319 52.9424 5.41669 53.0067 4.87042L53.1306 3.8173C53.2051 3.18389 53.0928 2.5425 52.8076 1.97205C52.4426 1.24196 51.8095 0.671524 51.0476 0.378505C50.4116 0.13389 49.7088 0.0886756 49.0477 0.253943L48.0543 0.502307L24.4457 8.87413L16.2413 12.2229L15.2682 12.6346C13.0178 13.5867 10.8401 14.7025 8.75284 15.973L8.03695 16.4088L5.23898 18.1893C4.6493 18.5645 4.08701 18.9812 3.55632 19.436L2.87595 20.0192C2.30086 20.5122 1.79618 21.0817 1.37604 21.7119L1.3287 21.7829C0.674458 22.7643 0.248297 23.8797 0.0814972 25.0473C0.0272378 25.4271 0.00072406 25.8104 0.00216643 26.194L0.162604 68.8702C0.165821 69.7259 0.23812 70.58 0.378797 71.424L0.631376 72.9395C0.767542 73.7565 1.04487 74.5436 1.45093 75.2655L1.55493 75.4504C2.07275 76.3709 2.81348 77.1467 3.70915 77.7065C4.57228 78.2459 5.55316 78.5685 6.56801 78.6466L7.70606 78.7341C8.81321 78.8193 9.92688 78.7356 11.0089 78.4859L13.1265 77.9972C13.5276 77.9046 13.9179 77.7702 14.2909 77.5961L15.0215 77.2552C15.8092 76.8876 16.4412 76.2529 16.8055 75.4636C17.0934 74.8399 17.2008 74.1479 17.1156 73.4662L16.5133 68.6481C16.4438 68.0917 16.3246 67.5426 16.1574 67.0073C15.771 65.7709 15.1337 64.6276 14.2854 63.6487L13.3949 62.6213L12.8868 61.9099C12.1217 60.8388 11.6399 59.5916 11.4861 58.2844C11.4194 57.717 11.4151 57.144 11.4734 56.5757L11.9556 51.8741C12.022 51.2268 12.1532 50.5878 12.3473 49.9667L12.6501 48.9977C12.8104 48.4849 13.0648 48.0064 13.4005 47.5869L13.5204 47.437C13.9841 46.8573 14.6115 46.4306 15.321 46.2123C16.0298 45.9942 16.7878 45.9942 17.4966 46.2123L17.5488 46.2284C18.2269 46.437 18.8361 46.8293 19.3074 47.3595C19.7126 47.8154 20.0061 48.3615 20.162 48.9512L25.5882 69.4829C25.94 70.8141 26.5242 72.0727 27.3138 73.2007L27.824 73.9296C28.2477 74.5349 28.7714 75.0635 29.3726 75.493C30.3128 76.1645 31.4148 76.5736 32.5654 76.6782L34.4919 76.8533L39.0127 76.6859Z" transform="translate(1.63623 1.81378)" stroke="white" stroke-width="2"/>
</svg>
