<svg width="148" height="79" viewBox="0 0 148 79" fill="none" xmlns="http://www.w3.org/2000/svg">
<path d="M56.9942 76.104L118.012 76.4393L121.867 76.2717L128.405 75.6012L131.742 75.2674C132.866 75.155 133.976 74.9239 135.052 74.578L136.319 74.1708C137.512 73.7872 138.617 73.1693 139.569 72.3535C140.17 71.8386 140.704 71.2501 141.157 70.6019L141.791 69.6969C142.476 68.7184 143.061 67.6736 143.537 66.5783L143.997 65.521C144.329 64.7571 144.557 63.952 144.675 63.1274L144.836 61.9985C144.944 61.244 144.866 60.4746 144.61 59.7569C144.317 58.9371 143.802 58.2149 143.122 57.6711L142.761 57.3821C142.028 56.7956 141.173 56.3798 140.259 56.1647L139.774 56.0505C139.125 55.8979 138.461 55.8218 137.795 55.8237L80.9653 55.9884C79.3443 55.8804 77.8177 55.1876 76.6689 54.0389L76.6069 53.9769L75.5866 53.1606C75.1581 52.8178 74.6411 52.6037 74.0957 52.5431C73.6525 52.4938 73.2039 52.5475 72.7849 52.6999L72.2977 52.877C71.8216 53.0502 71.3189 53.1387 70.8123 53.1387C69.8937 53.1387 68.9987 52.8477 68.2557 52.3074L67.5549 51.7977L41.0045 28.7874C38.5965 26.7004 36.4258 24.3544 34.5318 21.7919L24.9769 4.69364L23.771 2.88482C23.4586 2.41624 23.0888 1.9886 22.6702 1.61186L22.5105 1.46812C21.926 0.942043 21.2392 0.542168 20.4932 0.293485C19.91 0.0990997 19.2993 0 18.6846 0L17.6012 2.51352e-06L8.04624 1.00578L4.52601 1.84393L3.65894 2.17742C2.79902 2.50816 2.04002 3.05706 1.4566 3.77013C1.04773 4.26986 0.733486 4.84 0.529306 5.45254L0.428594 5.75468C0.145466 6.60407 0.0270118 7.49968 0.0795863 8.39346L0.0948285 8.65259C0.143098 9.47319 0.311764 10.2822 0.595415 11.0538L8.10173 31.4709C8.38912 32.2526 8.96389 32.8952 9.70882 33.2677C10.2652 33.5459 10.7307 33.977 11.0507 34.5103L11.1611 34.6943C11.4288 35.1405 11.607 35.6345 11.6859 36.1488L15.422 60.5145L15.8667 62.3674C16.2383 63.916 16.855 65.3953 17.6932 66.7495C18.3003 67.7301 19.0188 68.6373 19.8344 69.4529L20.3678 69.9863C22.0846 71.7031 24.1049 73.0866 26.3263 74.0666C27.8787 74.7515 29.5134 75.2323 31.1894 75.4969L32.4804 75.7007C34.18 75.9691 35.8998 76.0891 37.6202 76.0595L43.7108 75.9545C44.4058 75.9425 45.0968 75.8459 45.7684 75.6668C46.7625 75.4017 47.7005 74.9596 48.5377 74.3616L49.6185 73.5896L52.599 71.1768C52.9444 70.8972 53.3873 70.7675 53.8289 70.8166L54.0244 70.8383C54.417 70.8819 54.7667 71.1063 54.9699 71.4451C55.0879 71.6418 55.1503 71.8668 55.1503 72.0962V73.774C55.1503 73.9854 55.1785 74.1958 55.2341 74.3998L55.2976 74.6326C55.5128 75.4215 56.1828 76.0026 56.9942 76.104Z" transform="translate(1.44513 1.23108)" stroke="white" stroke-width="2"/>
</svg>
