<svg width="148" height="86" viewBox="0 0 148 86" fill="none" xmlns="http://www.w3.org/2000/svg">
<path d="M115.368 27.9201L143.835 70.9464C144.084 71.3227 144.295 71.7257 144.463 72.1446V72.1446C144.815 73.0263 144.975 73.9788 144.928 74.9272V74.9272C144.889 75.7171 144.707 76.4935 144.393 77.2192L143.156 80.0727L142.712 80.8617C142.228 81.7225 141.508 82.4268 140.637 82.8916V82.8916C140.211 83.1184 139.756 83.2847 139.285 83.3857L138.958 83.4557C138.425 83.57 137.875 83.586 137.336 83.5031V83.5031C136.744 83.412 136.177 83.2035 135.667 82.8897L135.356 82.6986C134.939 82.4415 134.552 82.1363 134.205 81.7894L134.046 81.63C133.537 81.1208 133.097 80.5468 132.737 79.9229L126.599 69.2671C126.399 68.9211 126.164 68.597 125.897 68.3001V68.3001C125.38 67.7258 124.752 67.2627 124.05 66.9389L123.851 66.8471C123.552 66.7089 123.243 66.5927 122.926 66.4996L121.775 66.1611C121.367 66.0412 120.97 65.8901 120.585 65.7092L119.978 65.4236C119.284 65.0967 118.669 64.6218 118.178 64.032V64.032C117.8 63.5786 117.501 63.0647 117.294 62.512L117.247 62.3877C116.963 61.6301 116.834 60.8233 116.868 60.0149L116.888 59.5199C116.928 58.5667 116.8 57.6139 116.511 56.7048L116.26 55.9166C116.106 55.4312 115.859 54.9805 115.533 54.5892V54.5892C114.998 53.9472 114.272 53.4921 113.462 53.2894L112.797 53.1231C112.318 53.0033 111.826 52.9428 111.332 52.9428H109.804C108.952 52.9428 108.104 52.8217 107.286 52.583L106.569 52.374C105.772 52.1414 105.036 51.7361 104.413 51.1866V51.1866C103.57 50.4428 102.968 49.4643 102.685 48.3764L102.646 48.2292C102.437 47.4289 102.392 46.5946 102.513 45.7764L102.857 43.4605L103.188 41.389C103.316 40.5906 103.22 39.7724 102.912 39.0247V39.0247C102.617 38.3072 102.137 37.6808 101.52 37.2095L101.205 36.9683C100.557 36.4729 99.8131 36.1182 99.0204 35.9269L97.6486 35.5958C96.8206 35.3959 95.9743 35.2809 95.1229 35.2525L94.1299 35.2194C93.0153 35.1823 91.9 35.274 90.8064 35.4927L90.7139 35.5112C89.2485 35.8043 87.8399 36.3317 86.5423 37.0731V37.0731C85.3958 37.7283 84.3485 38.5434 83.4319 39.4939L81.258 41.7484L77.5704 46.2262L71.7726 53.3526C71.4252 53.7796 71.0191 54.1554 70.5665 54.4688V54.4688C69.8877 54.9387 69.1171 55.2594 68.3054 55.4097L67.0471 55.6427C66.3378 55.7741 65.618 55.8402 64.8967 55.8402H63.3005C62.3695 55.8402 61.4422 55.7219 60.5409 55.4883L59.3259 55.1732C58.6771 55.005 58.0695 54.706 57.5404 54.2945V54.2945C56.5342 53.5119 55.8711 52.3692 55.6908 51.1073L55.6593 50.8864C55.6044 50.5024 55.5905 50.1137 55.6179 49.7268L57.3165 25.7037C57.3857 24.7246 57.5363 23.753 57.7666 22.7989V22.7989C58.1487 21.216 58.7473 19.6935 59.5456 18.2743L61.8983 14.0917L63.8449 10.1984C64.1264 9.63557 64.3338 9.03869 64.4622 8.42262L64.5004 8.23908C64.7784 6.90472 64.6428 5.51731 64.1117 4.26202L63.7695 3.45298C63.5784 3.00132 63.2821 2.60187 62.9054 2.28791L62.8848 2.27076C62.2545 1.74554 61.4374 1.49989 60.622 1.59049V1.59049C59.9153 1.66902 59.2591 1.99482 58.7694 2.51033L57.0254 4.34605L52.2843 10.7993L47.5431 16.9891L44.9212 19.8209C44.4756 20.3021 43.9772 20.7315 43.4353 21.1009V21.1009C42.0752 22.0283 40.4802 22.5516 38.835 22.6104L38.5958 22.6189C37.9772 22.641 37.358 22.6029 36.7468 22.5051L36.527 22.4699C35.1032 22.2421 33.733 21.756 32.4841 21.0354L32.2117 20.8783C31.3724 20.3941 30.5833 19.8173 29.8664 19.1655V19.1655C28.6708 18.0787 27.6702 16.7821 26.9248 15.3486L26.3397 14.2234L24.2325 8.6921L22.5501 5.22826C22.1803 4.46702 21.7248 3.75054 21.1923 3.09277L20.5631 2.31552C20.0298 1.65673 19.368 1.11341 18.6179 0.718642V0.718642C17.7211 0.246646 16.7229 1.39175e-06 15.7095 7.60999e-07L15.2028 4.45617e-07C14.7264 1.4909e-07 14.2508 0.0410427 13.7815 0.122673L12.9158 0.273214C11.9453 0.441996 10.9899 0.688125 10.0586 1.00925L9.23711 1.29254C8.17285 1.65952 7.1374 2.10523 6.13932 2.62596L5.33175 3.04731C4.85091 3.29818 4.38764 3.58682 3.95028 3.90755V3.90755C3.08068 4.54525 2.30857 5.31446 1.66888 6.1826L1.25596 6.74301C0.946933 7.16239 0.697416 7.62252 0.5145 8.11029V8.11029C0.177085 9.01006 0.0748139 9.98105 0.217364 10.9314L0.245144 11.1166C0.344491 11.7789 0.547663 12.4214 0.847173 13.0204L1.26449 13.855C1.56234 14.4507 1.91071 15.0198 2.30578 15.556V15.556C3.13246 16.6779 4.15371 17.6424 5.321 18.4037L6.58493 19.228L13.6966 23.3106L20.8084 27.1299L36.3488 34.505L53.3379 42.1435L58.5259 44.0034C59.7165 44.4302 60.9529 44.7163 62.2099 44.856L62.7437 44.9153C63.4951 44.9988 64.2531 45.0048 65.0056 44.9331L65.4935 44.8866C66.2533 44.8143 66.9981 44.6298 67.7038 44.3392V44.3392C68.4816 44.0189 69.2019 43.5739 69.8363 43.0216L80.0727 34.1099L84.0445 30.5894C85.2577 29.5141 86.5572 28.5401 87.9297 27.6773V27.6773C89.6235 26.6127 91.4206 25.7224 93.2938 25.0199L94.6912 24.4959L97.989 23.7631C98.1608 23.7249 98.3352 23.6998 98.5108 23.6881L98.8257 23.6672C99.706 23.6085 100.563 23.9636 101.144 24.6276V24.6276V24.6276C101.808 25.2917 102.744 25.6084 103.675 25.4843L103.855 25.4602C104.067 25.432 104.275 25.3838 104.478 25.3163L106.008 24.8064C106.627 24.5999 107.266 24.4551 107.914 24.3741L108.153 24.3442C108.747 24.27 109.347 24.2641 109.942 24.3268L110.343 24.3691C111.138 24.4527 111.908 24.6981 112.605 25.09V25.09C113.298 25.4801 113.905 26.0071 114.388 26.6391L115.368 27.9201Z" transform="translate(1.7489 1.12975)" stroke="white" stroke-width="2"/>
</svg>
