<svg width="148" height="98" viewBox="0 0 148 98" fill="none" xmlns="http://www.w3.org/2000/svg">
<path d="M137.343 9.53918L144.828 60.574L144.837 60.6512C144.942 61.5959 144.694 62.5461 144.142 63.3195L138.982 68.7745C138.429 69.3593 137.725 69.7807 136.949 69.9925C136.485 70.1189 136.004 70.1684 135.524 70.1388L111.75 68.6733C111.383 68.6507 111.024 68.5611 110.689 68.4089C109.82 68.014 109.19 67.2307 108.99 66.2975L108.793 65.3787L108.321 63.4922C108.185 62.947 107.817 62.4885 107.314 62.2371C107.157 62.1583 106.989 62.1015 106.816 62.0683L94.7874 59.7615C94.6297 59.7312 94.4695 59.716 94.3089 59.716H94.0366C93.2931 59.716 92.6067 60.1143 92.2378 60.7598C92.178 60.8645 92.1274 60.9742 92.0867 61.0877L90.0028 66.8929C89.8368 67.3554 89.5112 67.7434 89.0845 67.9872C88.7323 68.1885 88.3285 68.2815 87.9236 68.2545L83.3965 67.9527L75.6746 67.4379L72.8826 67.0572C72.2417 66.9698 71.6412 66.6936 71.1577 66.2638C70.6364 65.8004 70.2775 65.1819 70.1338 64.4993L69.6686 62.2899L69.3975 60.934C69.2429 60.1613 68.7569 59.4954 68.068 59.1128C67.7652 58.9445 67.4326 58.8364 67.0888 58.7945L63.7009 58.3813C61.6363 58.1296 59.6412 57.4753 57.8284 56.4556L50.4497 51.4793L43.929 47.361L41.8739 46.1521C41.3163 45.8241 40.6627 45.6987 40.0233 45.7971C39.2329 45.9187 38.5319 46.3715 38.0961 47.042L36.983 48.7544C36.6954 49.1969 36.4561 49.6691 36.2693 50.1628L34.1479 55.7692L32.6036 61.0888L27.4556 92.1479L27.2166 93.5818C27.1493 93.9861 26.9438 94.3546 26.6354 94.6245L26.5215 94.7242C26.0486 95.138 25.3725 95.2247 24.8104 94.9437C24.5219 94.7994 24.2857 94.5687 24.1348 94.2836L22.8225 91.8047C21.6845 90.2116 20.3216 88.7918 18.7761 87.5899L18.0178 87L12.6982 83.2249L11.6848 82.2838C10.7905 81.4534 10.2347 80.3218 10.1243 79.1065V77.4219C10.1243 76.9447 10.1747 76.4689 10.2747 76.0023L10.411 75.3659C10.5606 74.6678 10.5315 73.9432 10.3264 73.2594L10.2277 72.9305C10.1592 72.7023 10.0536 72.4869 9.9151 72.293C9.50793 71.7229 8.85052 71.3846 8.14999 71.3846H7.5882C6.89465 71.3846 6.21917 71.1635 5.65988 70.7533L3.94675 69.497L1.32254 67.1353C0.796056 66.6614 0.423021 66.0412 0.251228 65.354C0.0871503 64.6977 0.11363 64.0082 0.327562 63.3664L0.494713 62.865C0.622097 62.4828 0.792057 62.1162 1.00139 61.7721L20.4113 29.8609C20.7534 29.2984 21.2473 28.8438 21.8362 28.5494L22.2262 28.3543C22.7217 28.1066 23.2895 28.0443 23.8269 28.1786C24.1819 28.2674 24.5108 28.4387 24.7869 28.6788L35.5307 38.0213C35.9726 38.4055 36.5143 38.6567 37.0931 38.7458C37.9501 38.8776 38.8232 38.6444 39.5004 38.1027L39.6827 37.9568C39.9947 37.7072 40.2633 37.4079 40.4778 37.0709L48.3512 24.6984C48.4911 24.4785 48.6617 24.2797 48.8578 24.1081L49.0873 23.9074C49.6183 23.4428 50.3431 23.2677 51.0276 23.4389C51.2135 23.4853 51.3924 23.5564 51.5595 23.6502L75.8255 37.2732C79.0121 39.0622 82.5158 40.2154 86.142 40.6686L91.2899 41.1834L122.525 42.1856C123.092 42.2038 123.659 42.1508 124.212 42.0278L125.084 41.8342C125.981 41.6348 126.787 41.1436 127.375 40.4375C127.902 39.8051 128.229 39.0304 128.316 38.2116L128.421 37.2145C128.491 36.546 128.471 35.871 128.36 35.2079L127.974 32.8931C127.771 31.6722 127.476 30.4683 127.092 29.2915L125.095 23.1657L122.696 16.2519C122.351 15.2585 122.116 14.2306 121.993 13.1863C121.887 12.2909 121.866 11.3876 121.928 10.4881L122.178 6.8639L122.711 3.39396C122.812 2.74295 123.071 2.12669 123.466 1.59976L123.938 0.97061C124.24 0.567284 124.684 0.293086 125.18 0.2029C125.872 0.0770487 126.579 0.324147 127.043 0.853606L127.333 1.18577C127.442 1.3102 127.54 1.44409 127.625 1.58586L128.391 2.86319C128.822 3.58168 129.356 4.23313 129.976 4.79676C130.608 5.37085 131.322 5.84747 132.094 6.21087L133.846 7.0355L135.7 7.61484C136.273 7.79394 136.757 8.18326 137.055 8.7046C137.202 8.96237 137.3 9.24544 137.343 9.53918Z" transform="translate(1.55176 1.54205)" stroke="white" stroke-width="2"/>
</svg>
