<svg width="148" height="46" viewBox="0 0 148 46" fill="none" xmlns="http://www.w3.org/2000/svg">
<path d="M26.8574 42.7814L134.917 42.9113C136.208 42.9128 137.486 42.6674 138.684 42.1883L139.041 42.0453C140.243 41.5644 141.319 40.8138 142.185 39.8513C142.9 39.0569 143.458 38.1342 143.829 37.1319L144.06 36.5104C144.418 35.5413 144.65 34.5296 144.748 33.5009L144.867 32.2518L145 29.3199V28.0486C145 27.1644 144.611 26.325 143.936 25.7538C143.499 25.3846 142.967 25.1474 142.4 25.0701L140.997 24.8788C140.559 24.8191 140.136 24.6822 139.746 24.4744C138.846 23.9942 138.182 23.166 137.909 22.1828L137.824 21.8783C137.722 21.51 137.667 21.1301 137.662 20.7479L137.548 12.9053C137.541 12.3893 137.463 11.8768 137.317 11.3817L137.23 11.0831C136.995 10.2843 136.546 9.56478 135.932 9.00213C135.496 8.60195 134.986 8.29036 134.43 8.08467L122.089 3.51381C121.288 3.21714 120.44 3.06526 119.586 3.06526H119.121C118.434 3.06526 117.754 3.20738 117.125 3.4827L117.078 3.50341C116.336 3.82792 115.689 4.33555 115.197 4.97868L115.177 5.00451C114.553 5.82126 114.214 6.82087 114.214 7.84907C114.214 8.64488 114.417 9.42757 114.803 10.1232L114.945 10.3785C115.342 11.0924 115.885 11.7147 116.538 12.2047L116.979 12.5354C117.445 12.8846 117.945 13.1845 118.473 13.4301L124.765 16.3593C125.193 16.5586 125.601 16.7989 125.983 17.0767L126.137 17.1884C126.626 17.5442 127.06 17.9713 127.423 18.4553C127.854 19.0302 128.179 19.677 128.384 20.3657L131.302 30.1675C131.371 30.4002 131.398 30.6433 131.382 30.8855L131.363 31.1746C131.31 31.9598 130.72 32.6035 129.942 32.7232C129.678 32.7638 129.408 32.7409 129.155 32.6565L125.488 31.4342C124.196 31.0034 122.958 30.4246 121.798 29.7093L79.137 3.38905C78.3628 2.91141 77.5014 2.59238 76.6029 2.45051C75.828 2.32816 75.0379 2.33951 74.2669 2.48408L73.9356 2.54619C73.5123 2.62557 73.0959 2.73821 72.6903 2.88307L72.6158 2.90966C71.833 3.18925 71.1005 3.59366 70.4469 4.10723C69.864 4.56521 69.3503 5.10491 68.9216 5.70963L57.6572 21.5983C57.1609 22.2983 56.7897 23.079 56.5601 23.9058C56.3486 24.6672 56.26 25.4574 56.2975 26.2467L56.4816 30.1109C56.4987 30.4701 56.463 30.8298 56.3758 31.1787C56.2008 31.8787 55.824 32.5118 55.2921 32.9993L55.2272 33.0588C54.7549 33.4917 54.185 33.804 53.5659 33.9691L53.2257 34.0599C52.7502 34.1866 52.2597 34.248 51.7677 34.2421L42.6326 34.1333C41.7551 34.1229 40.8796 34.0452 40.0139 33.9009C38.7524 33.6907 37.5184 33.3402 36.3348 32.856L35.1838 32.3851L22.523 25.8548L20.1339 24.4612C19.6008 24.1502 19.1424 23.726 18.791 23.2185C18.3552 22.589 18.099 21.8528 18.0497 21.0888L17.937 19.3423C17.8863 18.5567 18.118 17.7789 18.5903 17.1491C18.8978 16.7392 19.2965 16.4064 19.7549 16.1772L20.5134 15.798C20.9633 15.573 21.4364 15.398 21.9244 15.276L22.2146 15.2035C22.9507 15.0194 23.7059 14.9232 24.4646 14.9166L37.7135 14.8024C38.4246 14.7963 39.1339 14.7292 39.8336 14.602L40.2221 14.5314C41.211 14.3516 42.1667 14.0219 43.0561 13.5538C43.8459 13.1381 44.5758 12.6173 45.2258 12.0056L46.5119 10.795L47.6324 9.41601C48.0383 8.91647 48.369 8.36031 48.6141 7.76516C48.985 6.86425 49.1522 5.89245 49.1035 4.91936L49.069 4.23002C49.0525 3.89929 48.991 3.57235 48.8863 3.2582C48.6424 2.52649 48.173 1.89087 47.5453 1.44257L47.4212 1.35394C46.9106 0.989225 46.3235 0.746007 45.7045 0.642851L43.1384 0.215158C42.2793 0.0719791 41.4096 0.00215678 40.5387 0.00644701L16.6024 0.12436C15.3998 0.130284 14.2015 0.26689 13.0284 0.531772C11.459 0.886158 9.94943 1.46686 8.54712 2.25566L7.89313 2.62353C6.89848 3.18302 5.96516 3.84514 5.10845 4.59905L4.78448 4.88414C3.64617 5.88585 2.68133 7.06892 1.92903 8.38545L1.67541 8.82928C1.18301 9.69098 0.81835 10.6196 0.592835 11.5861L0.574906 11.6629C0.197648 13.2798 0.23131 14.9653 0.672821 16.5658C0.933624 17.5112 1.33288 18.4128 1.85762 19.2414L2.26396 19.883C3.14753 21.2781 4.25473 22.5182 5.54116 23.5536L9.0625 26.3879L17.7727 31.7384C18.1829 31.9904 18.5528 32.3028 18.8698 32.6652C19.1714 33.0098 19.4219 33.3958 19.6138 33.8116L19.8003 34.2159C20.0157 34.6824 20.1848 35.1688 20.3053 35.6682L20.9265 38.2417C21.0134 38.6015 21.1285 38.9538 21.2708 39.2954L21.4363 39.6924C21.6263 40.1486 21.8909 40.57 22.2192 40.9393C22.596 41.3631 23.0501 41.7112 23.5573 41.9648L23.8082 42.0902C24.1941 42.2832 24.6 42.4333 25.0186 42.538L25.1446 42.5695C25.7048 42.7095 26.28 42.7807 26.8574 42.7814Z" transform="translate(1.17615 1.29066)" stroke="white" stroke-width="2"/>
</svg>
