<svg width="148" height="93" viewBox="0 0 148 93" fill="none" xmlns="http://www.w3.org/2000/svg">
<path d="M142.978 0.117204L32.9547 0.000403053C32.7029 0.000135793 32.4525 0.0367557 32.2114 0.109096L31.4437 0.339413C30.7311 0.553178 30.2637 1.23447 30.3208 1.9762C30.3339 2.14719 30.3748 2.3149 30.4418 2.47277L31.7718 5.60793C31.9126 5.93978 31.9601 6.30378 31.9091 6.66063C31.8114 7.3443 31.3644 7.92759 30.7296 8.19964L30.1054 8.46716L26.6951 10.3487C24.1928 12.2254 21.889 14.353 19.8196 16.6984L19.4039 17.1695C17.2934 20.0617 15.5033 23.1747 14.0652 26.4536L13.2887 28.2238L8.58475 41.5126L5.17437 51.5085L3.23257 59.1913C2.72457 61.2012 2.36146 63.245 2.14604 65.3069L0.0880545 85.0047C0.0323528 85.5379 0.220156 86.0677 0.599198 86.4467C0.965381 86.8129 1.47302 87.0013 1.98943 86.9625L4.80849 86.7511C5.49335 86.6997 6.16975 86.9283 6.68306 87.3846C6.8525 87.5352 7.00098 87.7079 7.12454 87.8979L7.79462 88.9288C8.21409 89.5742 8.93153 89.9635 9.70121 89.9635C9.97388 89.9635 10.2443 89.9145 10.4996 89.8187L19.344 86.5021C20.0382 86.2418 20.5458 85.6375 20.6824 84.9089C20.7684 84.4499 20.7005 83.9755 20.4891 83.5592L9.88814 62.6852C9.57248 62.0636 9.40796 61.3763 9.40796 60.6792C9.40796 60.2903 9.45917 59.903 9.56028 59.5275L12.4399 48.8317C12.6118 48.1934 12.9199 47.6 13.343 47.0922C13.6959 46.6687 14.1225 46.3125 14.6021 46.0407L20.9327 42.4534L22.0423 41.9602C22.661 41.6852 23.3814 41.7781 23.9101 42.2011C24.1178 42.3672 24.2864 42.5771 24.4038 42.8157L27.3563 48.8128C27.7506 49.6138 28.524 50.1603 29.4106 50.2646C29.7909 50.3094 30.1763 50.2706 30.54 50.1511L37.5387 47.8515C37.9791 47.7068 38.3558 47.414 38.6047 47.0229C38.8857 46.5813 38.983 46.0474 38.8758 45.5351L38.2356 42.4767C38.0689 41.6803 37.8025 40.9081 37.4427 40.1784L29.6351 24.3431L29.0586 23.0255C28.8959 22.6535 28.8119 22.2519 28.8119 21.8459C28.8119 21.3248 28.9502 20.8131 29.2127 20.3631L29.3886 20.0616C29.5524 19.7808 29.7479 19.5199 29.9713 19.2839L39.4521 9.27056C39.8789 8.81972 40.4061 8.47593 40.9908 8.26711C41.4903 8.08871 42.0207 8.01281 42.5502 8.04396L42.9305 8.06633C43.4684 8.09797 43.9932 8.24566 44.4686 8.49924C45.147 8.86101 45.6971 9.42332 46.044 10.1094L66.4909 50.5514C66.6933 50.9517 66.9581 51.3174 67.2753 51.6346L67.471 51.8303C68.024 52.3833 68.7487 52.7316 69.5259 52.8179C70.1261 52.8846 70.7333 52.7923 71.2865 52.5502L72.3236 52.0965L85.1419 44.2174L86.5358 43.077C87.3153 42.4391 87.8982 41.5934 88.2167 40.6378C88.3614 40.2036 88.4496 39.7526 88.4791 39.2958L88.6699 36.3382V32.8102L88.8438 30.4623C88.8846 29.9119 88.9752 29.3664 89.1145 28.8324C89.4416 27.5787 90.0318 26.4089 90.8459 25.401L91.064 25.1309C91.7371 24.2975 92.5403 23.5783 93.4426 23.0008C94.4852 22.3335 95.6432 21.8665 96.8571 21.6237L97.2239 21.5504C98.104 21.3743 99.0011 21.2981 99.8983 21.323L102.782 21.4031L108.309 20.8151L112.895 19.7567L116.306 18.4631L128.066 12.7007L130.979 11.5957C131.307 11.4714 131.604 11.279 131.852 11.0311C132.36 10.523 132.623 9.81941 132.571 9.10271L132.534 8.58475L132.348 7.28247C132.316 7.05442 132.319 6.82272 132.356 6.59549L132.413 6.25583C132.49 5.79542 132.772 5.3951 133.18 5.16842C133.449 5.01906 133.757 4.95407 134.063 4.98191L134.886 5.05677L138.767 5.40957L140.807 5.48804C141.476 5.51374 142.14 5.37695 142.744 5.08938L143.246 4.85025C143.917 4.53076 144.433 3.9573 144.681 3.25656L144.729 3.11916C144.905 2.62194 144.909 2.08041 144.743 1.58018L144.66 1.33049C144.502 0.857479 144.152 0.472632 143.697 0.270135C143.471 0.169561 143.226 0.117467 142.978 0.117204Z" transform="translate(1.34793 1.36603)" stroke="white" stroke-width="2"/>
</svg>
