<svg width="147" height="83" viewBox="0 0 147 83" fill="none" xmlns="http://www.w3.org/2000/svg">
<path d="M124.453 9.85599L91.2097 27.0622L85.0288 30.0691L82.8901 31.3523C81.5368 32.1643 80.2882 33.1392 79.1723 34.2551L79.0418 34.3855C77.9153 35.5121 76.9439 36.7839 76.1535 38.1671C75.6122 39.1144 75.1585 40.1091 74.7981 41.1389L74.1705 42.932L73.3352 47.1083L73.0846 47.8601C72.7011 49.0107 72.0326 50.0455 71.1415 50.8681C70.6025 51.3655 69.9907 51.7776 69.3271 52.0898L68.7897 52.3427C67.9303 52.7471 67.0009 52.9821 66.0525 53.0348C65.0168 53.0924 63.9806 52.9313 63.0112 52.562L62.0294 52.188C61.3269 51.9203 60.6504 51.5891 60.0083 51.1982L57.1313 49.447L52.2869 46.106L49.5364 44.2724C49.0321 43.9361 48.5544 43.5616 48.1076 43.152L48.029 43.08C47.1973 42.3176 46.4866 41.4329 45.9213 40.4565L45.6046 39.9095C45.1627 39.1463 44.8582 38.3114 44.7049 37.4429C44.5272 36.4354 44.5563 35.4024 44.7906 34.4066L44.8466 34.1685C45.0173 33.4432 45.2801 32.7427 45.6288 32.0842L45.8289 31.7061C46.342 30.7369 47.0527 29.8861 47.915 29.2086C48.5975 28.6723 49.3643 28.2531 50.1841 27.9679L52.788 27.0622L58.1336 25.7258L65.818 23.053L68.9698 21.7312C70.3164 21.1665 71.593 20.4476 72.7739 19.5887C74.0342 18.6721 75.1762 17.603 76.1739 16.4058L76.479 16.0397C77.4967 14.8185 78.3434 13.4643 78.9957 12.0147C79.3422 11.2448 79.6325 10.4508 79.8645 9.63903L80.5184 7.35023L81.0557 4.52929C81.1424 4.07434 81.1532 3.60819 81.0877 3.14972L81.0235 2.7003C80.9137 1.93145 80.5149 1.23338 79.9085 0.748207C79.4349 0.36937 78.8593 0.140156 78.2549 0.0897936L78.0524 0.0729197C77.477 0.0249656 76.8983 0.111649 76.3621 0.326105L69.6601 3.00691L59.6371 7.18318L45.2707 12.1947L39.7581 13.5311L23.7212 17.8744L14.8675 21.3825L5.78832 25.999C5.27368 26.2607 4.80356 26.602 4.39531 27.0102L1.1699 30.2356C0.548694 30.8568 0.612514 31.8819 1.30598 32.4213C1.43668 32.5229 1.58372 32.6016 1.7408 32.654L17.0392 37.7534L23.9745 40.6793C26.4743 41.7339 28.8841 42.9902 31.1801 44.4358L32.2408 45.1037L44.1014 54.6256L53.2892 61.8087L61.4747 66.6532L74.3375 73.5023L78.3468 75.674L82.356 78.1797L84.3965 79.4914C84.5945 79.6188 84.8077 79.7208 85.031 79.7953C85.7754 80.0434 86.5894 79.9709 87.2782 79.5952L87.6593 79.3873C87.9095 79.2509 88.1436 79.0869 88.3573 78.8985L137.483 35.5818L139.437 33.402C141.028 31.6278 142.509 29.713 143.831 27.7304L144.494 26.4038C144.823 25.7453 144.94 25.0009 144.828 24.2733C144.722 23.5862 144.417 22.9452 143.951 22.4296L134.139 11.5765C133.807 11.2096 133.448 10.8681 133.065 10.5548L132.658 10.2212C132.092 9.75812 131.454 9.3909 130.769 9.13414L130.561 9.0562C129.623 8.70437 128.61 8.59961 127.62 8.75197C127.18 8.81956 126.75 8.93703 126.337 9.10211L124.453 9.85599Z" transform="translate(0.503113 1.12438)" stroke="white" stroke-width="2"/>
</svg>
