<svg width="147" height="75" viewBox="0 0 147 75" fill="none" xmlns="http://www.w3.org/2000/svg">
<path d="M62.8979 71.1838L113.472 70.2037C113.953 70.1944 114.431 70.127 114.895 70.0031L115.226 69.915C116.67 69.53 117.879 68.5444 118.547 67.208C118.87 66.5625 119.055 65.8569 119.091 65.1361L119.256 61.8285L119.512 59.4036C119.619 58.3811 120.43 57.5746 121.453 57.4723C121.746 57.443 122.042 57.4736 122.322 57.5622L129.263 59.754C129.925 59.9631 130.604 60.1144 131.293 60.2062L134.531 60.638C136.006 60.8347 137.493 60.3671 138.59 59.3613C139.187 58.8139 139.643 58.1304 139.919 57.3688L144.249 45.4186C144.711 44.1428 144.433 42.7161 143.525 41.7074C143.192 41.3368 142.786 41.0379 142.334 40.829L137.299 38.5053L128.058 33.0046L127.155 32.6177C123.686 31.1309 119.951 30.3642 116.176 30.3642L107.155 30.8042L101.914 31.5322C100.175 31.7737 98.562 32.5761 97.3205 33.8176C96.8377 34.3004 96.4181 34.8426 96.0719 35.4312L95.3978 36.5772C94.7407 37.6942 93.7879 38.608 92.6445 39.2178C91.6256 39.7613 90.4885 40.0455 89.3337 40.0455H85.5918H82.3603C79.826 40.0455 77.2972 39.8123 74.8057 39.3488L72.3763 38.8968C70.1959 38.4911 68.083 37.782 66.0993 36.7902C63.1382 35.3096 60.5193 33.2262 58.4108 30.6738L57.4279 29.4841L53.2473 23.9833L53.0178 23.6582C51.4492 21.4359 50.607 18.7824 50.607 16.0622C50.607 13.4177 49.4139 10.9142 47.3597 9.2487L42.4659 5.28073L39.0833 2.88472C37.8247 1.99326 36.4416 1.29235 34.9784 0.804643C33.3796 0.2717 31.7053 0 30.02 0H28.824H27.2806C25.6864 0 24.1095 0.329865 22.6489 0.968851C21.7816 1.34832 20.9641 1.83294 20.215 2.41182L17.5775 4.44985C16.8628 5.00212 16.09 5.47474 15.2727 5.85933L13.6411 6.62718C13.062 6.89968 12.4299 7.04097 11.79 7.04097C10.1009 7.04097 8.56468 8.01931 7.8504 9.54993L7.73196 9.80373C7.56531 10.1608 7.4434 10.5371 7.36898 10.9241L6.81789 13.7898C6.52703 15.3022 6.11333 16.7884 5.58089 18.2336L4.84067 20.2428L0.775339 32.254C0.273029 33.7381 0.28344 35.3478 0.804902 36.8253C1.14432 37.787 1.68987 38.6628 2.40336 39.3915L10.6214 47.7844C11.2882 48.4654 11.6616 49.3805 11.6616 50.3336C11.6616 51.0842 11.4298 51.8166 10.9978 52.4305L8.48269 56.0045C7.88755 56.8502 7.9147 57.9855 8.54961 58.8018C8.85606 59.1958 9.27994 59.4821 9.7599 59.6192L18.7233 62.1802C21.4831 62.9687 24.3393 63.3687 27.2094 63.3687H48.6797C49.9364 63.3687 51.165 63.7407 52.2106 64.4378C52.8953 64.8943 53.4849 65.4791 53.947 66.16L54.356 66.7627C56.2721 69.5865 59.486 71.2499 62.8979 71.1838Z" transform="translate(0.96759 1.98254)" stroke="white" stroke-width="2"/>
</svg>
