<svg width="148" height="66" viewBox="0 0 148 66" fill="none" xmlns="http://www.w3.org/2000/svg">
<path d="M1.85159 42.2773L0.0893231 47.0218C0.0302476 47.1808 0 47.3491 0 47.5188C0 47.9132 0.163194 48.29 0.450858 48.5599L15.4045 62.5872C15.9992 63.145 16.9303 63.1266 17.5024 62.5457L25.7677 54.1532C25.8882 54.0309 26.0287 53.9301 26.1833 53.8553L39.4218 47.4452C39.6687 47.3255 39.8783 47.1404 40.0276 46.9101L44.6394 39.7947C44.8101 39.5315 45.0589 39.3282 45.351 39.2135L64.3996 31.7352C64.5212 31.6874 64.6486 31.6558 64.7785 31.641L143.668 22.6536C144.508 22.5578 145.104 21.7875 144.985 20.95L142.195 1.29109C142.083 0.500904 141.372 -0.0636074 140.577 0.0057624L120.272 1.77727L88.2713 6.5286C87.4919 6.64432 86.9343 7.34266 86.9941 8.12836L87.795 18.6543C87.8578 19.4791 87.2416 20.1995 86.417 20.2655L77.1145 21.0098C77.0215 21.0172 76.9293 21.0333 76.8392 21.0578L68.0865 23.445C67.6252 23.5707 67.2514 23.9086 67.0798 24.3549L66.7943 25.0973C66.6833 25.3856 66.6641 25.7011 66.739 26.0007L67.0185 27.1187C67.2076 27.8751 66.7865 28.6504 66.049 28.9037L44.9871 36.1357C44.0581 36.4548 43.0781 35.811 43.0018 34.8318L42.3298 26.2092C42.2967 25.7835 42.0839 25.3921 41.7447 25.1327L39.927 23.7426C39.8422 23.6778 39.7506 23.6221 39.6541 23.5766L37.9586 22.7788C37.5547 22.5888 37.2563 22.2288 37.1442 21.7967L36.5423 19.4749C36.395 18.9067 35.9301 18.4764 35.3523 18.3732L32.4984 17.8636C32.3135 17.8306 32.124 17.8326 31.9398 17.8694L28.5739 18.5425L14.7415 20.992C14.6332 21.0113 14.5273 21.0423 14.4257 21.0846L11.4642 22.3186C11.2126 22.4234 10.9943 22.5947 10.8326 22.8141L5.07578 30.627C4.99675 30.7342 4.93234 30.8515 4.88424 30.9757L3.25624 35.1814C3.22367 35.2655 3.19873 35.3524 3.18176 35.4412L1.91877 42.0367C1.90309 42.1187 1.88062 42.1991 1.85159 42.2773Z" transform="translate(1.96362 1.7803)" stroke="white" stroke-width="2"/>
</svg>
