<svg width="147" height="89" viewBox="0 0 147 89" fill="none" xmlns="http://www.w3.org/2000/svg">
<path d="M14.6068 32.5511L71.2238 2.43085C72.2681 1.94889 73.3929 1.66543 74.5408 1.59494L86.6597 0.850798L115.738 0.0738942C117.566 0.0250584 119.387 0.316996 121.108 0.934783C122.524 1.44299 123.853 2.16506 125.05 3.07587L126.667 4.30584C128.109 5.40306 129.44 6.63809 130.643 7.99346L133.439 11.1447C135.47 13.4335 137.287 15.9038 138.866 18.5247L140.859 21.8327C141.754 23.3171 142.492 24.8903 143.062 26.5269C144.337 30.1841 144.748 34.0866 144.263 37.929L143.512 43.8749C143.451 44.3582 143.302 44.826 143.071 45.2549C142.742 45.865 142.259 46.3781 141.67 46.7428L141.1 47.0957C140.385 47.5384 139.59 47.8373 138.76 47.9755L138.367 48.0412C137.054 48.2599 135.709 48.1671 134.439 47.7703L124.702 44.7276L114.02 40.5164C112.733 40.0087 111.581 39.2071 110.658 38.1756C110.218 37.6834 109.834 37.1437 109.513 36.5664L107.565 33.0595L107.092 31.8776C106.762 31.0526 106.593 30.1721 106.593 29.2835C106.593 28.3268 106.789 27.3804 107.17 26.5028L109.388 21.3914L115.83 10.6957L116.741 8.8731C116.936 8.4827 116.974 8.03211 116.845 7.61494C116.668 7.03885 116.199 6.59999 115.612 6.46194L115.023 6.32347C114.673 6.24106 114.31 6.22814 113.955 6.28543L112.606 6.50294C111.364 6.70329 110.173 7.14465 109.1 7.80216L106.109 9.63557C101.738 12.3143 98.2064 16.1647 95.9139 20.7497L95.5323 21.513L94.7476 22.6901C93.8281 24.0692 92.5647 25.1845 91.0822 25.9258L90.8857 26.0241C90.2589 26.3374 89.5932 26.5659 88.906 26.7033L88.519 26.7807C87.459 26.9927 86.3625 26.931 85.3329 26.6016L84.775 26.4231C84.1765 26.2315 83.6324 25.8998 83.188 25.4554C82.6005 24.8679 82.2135 24.1098 82.0822 23.2894L81.9692 22.5829C81.8559 21.8751 81.8672 21.1529 82.0026 20.449L82.4057 18.3529L83.4996 13.9774L83.8609 11.5387C83.938 11.0178 83.7287 10.4958 83.3131 10.1726C83.0411 9.96099 82.703 9.85248 82.3586 9.86626L80.6182 9.93588C80.1102 9.9562 79.6066 10.0387 79.1186 10.1815L74.8701 11.425L72.4923 12.2642C69.9492 13.1618 67.4829 14.2636 65.1175 15.5589L63.5666 16.4082L62.5455 16.9973C61.1692 17.7914 60.1382 19.0699 59.6539 20.5832C59.5079 21.0396 59.4137 21.5109 59.3731 21.9883L59.1653 24.4298C59.0212 26.1221 59.1305 27.8263 59.4894 29.4863L59.6829 30.381C59.8406 31.1107 60.0847 31.8191 60.4099 32.4911C61.2766 34.2823 62.6889 35.7527 64.4437 36.691L74.0193 41.8106L81.798 45.0922L91.3998 48.6169L102.192 52.25C103.179 52.582 104.136 53.0181 105.035 53.5426C106.064 54.1427 107.027 54.8669 107.888 55.6901C108.883 56.6422 109.745 57.7254 110.448 58.9097L111.047 59.9183C111.48 60.6478 111.856 61.4099 112.171 62.1977C112.823 63.829 113.209 65.5546 113.314 67.3084L113.764 74.8701L113.56 78.8399C113.534 79.3519 113.452 79.8595 113.315 80.3538L113.116 81.0754C112.752 82.3953 111.884 83.5194 110.699 84.2054C110.393 84.3826 110.07 84.5283 109.734 84.6401L108.833 84.9407C107.349 85.4352 105.795 85.6873 104.231 85.6873H30.021L28.6301 85.7213C26.2484 85.7794 23.8713 85.4834 21.5765 84.843L21.0313 84.6908C20.2192 84.4642 19.4255 84.1761 18.6572 83.8291C16.9276 83.048 15.3442 81.9763 13.9762 80.6609C13.2493 79.962 12.5874 79.1982 11.9988 78.3794L11.7051 77.9707C10.6312 76.4766 9.7477 74.8546 9.07493 73.1421L8.75105 72.3177L8.2548 70.2776C7.8578 68.6454 7.65717 66.9717 7.65717 65.292C7.65717 64.0631 7.76457 62.8365 7.97814 61.6263L8.38642 59.3127L9.35876 55.6664L9.41411 55.3712C9.60529 54.3516 9.2342 53.3078 8.44225 52.6377C8.24389 52.4698 8.02375 52.3296 7.78782 52.2207L6.18404 51.4805C5.38489 51.1116 4.61774 50.677 3.89053 50.1812L2.97993 49.5603C2.53419 49.2564 2.12315 48.9045 1.75417 48.511L1.09627 47.8092C0.695767 47.382 0.407211 46.8623 0.256329 46.2965C0.0886747 45.6678 0.0971073 45.0051 0.280704 44.3809L0.339142 44.1822C0.516034 43.5808 0.822673 43.0254 1.23745 42.5554L1.92254 41.7789C2.26079 41.3956 2.63125 41.0419 3.02987 40.7218L6.7837 37.7074C9.22427 35.7475 11.8435 34.0212 14.6068 32.5511Z" transform="translate(1.2417 1.54288)" stroke="white" stroke-width="2"/>
</svg>
