<svg width="148" height="70" viewBox="0 0 148 70" fill="none" xmlns="http://www.w3.org/2000/svg">
<path d="M92.7685 31.011L88.9401 29.4084L79.5458 25.4261L68.9261 20.831L60.4507 17.4613L51.7711 14.6021L44.5211 12.1514L38.088 9.80281L29.5106 7.65845L25.1197 6.63732L18.8908 5.30986L18.4759 5.21411C16.1008 4.666 13.7689 3.94493 11.4989 3.05669L10.2113 2.55281L4.59507 0.612673L3.02472 0.220086C2.45809 0.0784286 1.85904 0.152175 1.34369 0.427032L1.2043 0.501376C0.821366 0.705606 0.519513 1.03429 0.348556 1.43319C0.127495 1.94899 0.144744 2.53596 0.395714 3.0379L0.519472 3.28541C0.714386 3.67523 1.00766 4.00744 1.3703 4.2492L1.93767 4.62745C2.21098 4.80965 2.50135 4.96488 2.80467 5.09093L9.69378 7.95394C15.2353 10.2569 20.317 13.5386 24.6957 17.6421L35.9437 28.1831L38.755 30.9205C39.4574 31.6044 39.9857 32.4466 40.2957 33.3766C40.4571 33.8607 40.5575 34.3631 40.5945 34.872L40.6381 35.4715C40.8369 38.205 42.0547 40.7641 44.0504 42.6425L44.419 42.9894L50.0352 47.6866L54.6303 51.5669L60.4507 55.4472L67.3943 59.7359L75.6586 64.0105C76.0701 64.2234 76.5059 64.3856 76.9564 64.4937L77.7666 64.6882C78.4572 64.854 79.1831 64.7896 79.8338 64.5049C80.2499 64.3229 80.6233 64.0559 80.9302 63.7212L81.087 63.5501C81.4186 63.1883 81.6868 62.7731 81.8801 62.322L82.2007 61.5739L82.6542 59.9867C82.7586 59.6213 82.9544 59.2886 83.2231 59.0199C83.6768 58.5662 84.3034 58.3293 84.9437 58.3693L84.9602 58.3703C85.3599 58.3953 85.7459 58.5254 86.0791 58.7476L87.1021 59.4296L89.5528 61.5739L93.4331 64.1267L96.9049 65.8627L98.3414 66.4612C99.0163 66.7424 99.7141 66.9653 100.427 67.1273C101.209 67.3049 102.005 67.4088 102.806 67.4374L104.461 67.4965L104.756 67.4659C106.529 67.2825 108.278 66.9164 109.975 66.3732L112.252 65.6667C112.708 65.5253 113.174 65.4232 113.648 65.3615L114.28 65.279C114.944 65.1924 115.618 65.2366 116.265 65.4091C116.632 65.507 116.987 65.6452 117.323 65.8215L118.961 66.6796L119.726 66.9769C120.435 67.2528 121.19 67.3944 121.951 67.3944C122.542 67.3944 123.129 67.3092 123.695 67.1414L125.599 66.5775L137.342 61.8803L140.711 60.3486L142.022 59.5369C142.575 59.1948 143.076 58.7752 143.509 58.2909L144.056 57.6791C144.408 57.2859 144.662 56.8153 144.798 56.3054C144.931 55.808 144.947 55.2867 144.847 54.7819L144.811 54.6057C144.668 53.8914 144.304 53.2403 143.771 52.7446C143.37 52.3732 142.888 52.1014 142.364 51.9514L142.082 51.871C141.382 51.671 140.645 51.6367 139.929 51.7709L139.802 51.7948C139.524 51.847 139.25 51.9217 138.984 52.0181L134.213 53.7453C133.714 53.9261 133.194 54.0419 132.665 54.09L132.349 54.1187C131.603 54.1865 130.851 54.0805 130.153 53.8089C129.639 53.6091 129.163 53.3232 128.746 52.9634L125.033 49.7648C123.507 48.4501 121.865 47.2763 120.128 46.2576L119.778 46.0528L97.0008 36.0187C96.7333 35.9009 96.478 35.7571 96.2386 35.5895L95.5339 35.0963C94.9133 34.6618 94.513 33.9784 94.4376 33.2246C94.3821 32.6694 94.1495 32.1468 93.7742 31.734L93.7412 31.6977C93.471 31.4005 93.139 31.1661 92.7685 31.011Z" transform="translate(1.28778 1.29829)" stroke="white" stroke-width="2"/>
</svg>
