<svg width="148" height="86" viewBox="0 0 148 86" fill="none" xmlns="http://www.w3.org/2000/svg">
<path d="M63.3524 12.2393L55.431 32.9808L40.4598 72.2944C40.3345 72.6234 40.1754 72.9386 39.985 73.2348L39.7607 73.5837C39.4132 74.1242 38.9266 74.5611 38.3519 74.8484C37.8636 75.0925 37.3259 75.2216 36.78 75.2258L9.66633 75.4336C8.17935 75.445 6.71471 75.7967 5.38467 76.4617L0.492491 78.9078C0.190661 79.0587 0 79.3672 0 79.7047C0 79.8741 0.0483179 80.04 0.139286 80.183L0.49822 80.747C0.704412 81.071 0.967475 81.3551 1.27472 81.5855L1.30004 81.6045C1.8833 82.042 2.59299 82.2779 3.32206 82.2766L135.962 82.0493C136.814 82.0478 137.66 81.9167 138.471 81.6604L138.513 81.6471C139.132 81.4516 139.725 81.1816 140.279 80.8431C141.105 80.3384 141.833 79.6884 142.427 78.9244L143.148 77.9968L143.831 76.8173C144.222 76.1417 144.509 75.4109 144.682 74.6497C144.892 73.7259 144.931 72.7713 144.797 71.8335L144.537 70.012L144.062 68.3163C143.84 67.5223 143.502 66.7655 143.06 66.0699C142.431 65.0829 141.604 64.2378 140.631 63.5888L140.444 63.4647C139.705 62.9719 138.897 62.5917 138.046 62.3365L137.697 62.2316C137.244 62.0958 136.777 62.0146 136.305 61.9897C135.328 61.9383 134.353 62.1294 133.468 62.5459L133.092 62.7227C132.93 62.7989 132.774 62.887 132.626 62.9863C131.876 63.486 131.339 64.2473 131.121 65.1214L131.075 65.3062C131.023 65.511 130.998 65.7213 130.998 65.9324C130.998 66.5487 131.218 67.1447 131.619 67.6126L133.096 69.3361C133.516 69.8251 133.639 70.5022 133.419 71.1076C133.348 71.3015 133.245 71.4817 133.112 71.6402L133.098 71.6578C132.86 71.9431 132.544 72.1531 132.189 72.2623L131.773 72.3905C131.413 72.5013 131.037 72.5512 130.66 72.5381L71.8022 70.4928C71.4591 70.4809 71.1195 70.4197 70.7939 70.3112C69.9901 70.0433 69.3074 69.4991 68.8669 68.7754L68.4947 68.164C68.1211 67.5503 67.8706 66.8697 67.7571 66.1603L67.5495 64.8631C67.4942 64.5175 67.4925 64.1654 67.5444 63.8192C67.7125 62.6988 68.4264 61.7351 69.4494 61.248L70.2434 60.8699L89.0371 53.1121C89.7722 52.8086 90.4512 52.3838 91.0457 51.8554L91.2012 51.7172C91.8791 51.1145 92.4159 50.3698 92.7732 49.536C93.1024 48.768 93.2721 47.941 93.2721 47.1054V46.7863C93.2721 45.4734 92.9376 44.1823 92.3 43.0347L92.0123 42.5167C91.6957 41.9469 91.3243 41.4094 90.9033 40.9119L89.8582 39.6768C89.2815 38.9953 88.7837 38.2508 88.3743 37.4575C87.5611 35.8818 87.1118 34.1437 87.0597 32.3714L87.0231 31.1293C87.2529 28.8313 87.8691 26.5887 88.8458 24.496L88.9904 24.186L89.5124 23.2539C90.2354 21.9628 91.2371 20.8491 92.4446 19.9937C93.0714 19.5498 93.7473 19.1799 94.4591 18.8913L95.0762 18.6411C96.7916 17.9457 98.6165 17.5592 100.466 17.4996L101.257 17.4741C103.174 17.4741 105.079 17.7727 106.904 18.3594L126.832 24.7646L127.489 24.896C128.2 25.0382 128.933 25.0274 129.639 24.8644C129.927 24.798 130.209 24.7067 130.481 24.5915L133.081 23.4916L135.117 22.3034C135.592 22.0268 135.937 21.5737 136.079 21.0432C136.233 20.4663 136.131 19.851 135.8 19.3542L135.759 19.2932C135.521 18.9366 135.186 18.6556 134.794 18.4836L113.428 9.12322C111.892 8.45048 110.222 8.14015 108.547 8.21628L106.117 8.44773L82.8481 13.8175C82.3166 13.9402 81.7708 13.9898 81.2258 13.9651C80.0989 13.9138 79.0092 13.5461 78.0817 12.904L77.9968 12.8452L76.4395 11.4518C76.021 11.0774 75.721 10.5888 75.5763 10.0463L75.508 9.79011C75.3957 9.3689 75.4195 8.92294 75.576 8.51607L75.6088 8.4307C75.8026 7.92691 76.205 7.53176 76.7123 7.3473C77.023 7.23432 77.3582 7.20595 77.6834 7.26509L77.9564 7.31471C78.2893 7.37525 78.6091 7.49379 78.901 7.66493L81.3953 9.12708C81.6729 9.28981 81.9795 9.39691 82.298 9.44241C83.0196 9.5455 83.75 9.32566 84.2948 8.8414L84.5857 8.58274C85.1872 8.04814 85.5738 7.31317 85.6736 6.5147L85.7157 6.17785C85.8139 5.39251 85.6892 4.59539 85.3559 3.87754L85.2091 3.56145C84.6622 2.38348 83.7115 1.44036 82.5292 0.902937L81.9987 0.661839C81.0404 0.226216 79.9962 0.0121453 78.9437 0.0355336L77.4471 0.0687909C76.0483 0.0998763 74.6635 0.355611 73.3458 0.826209C71.4572 1.5007 69.7494 2.60118 68.3548 4.04227L68.1088 4.29649C67.3739 5.05587 66.7238 5.89295 66.17 6.79294L65.509 7.86703C64.6554 9.25405 63.9334 10.7178 63.3524 12.2393Z" transform="translate(1.95056 1.9321)" stroke="white" stroke-width="2"/>
</svg>
