<svg width="148" height="143" viewBox="0 0 148 143" fill="none" xmlns="http://www.w3.org/2000/svg">
<path d="M0.274885 4.06947L0.00406165 124.855C0.00137711 126.052 0.22048 127.24 0.650284 128.357L0.784597 128.707C1.18302 129.743 1.7944 130.683 2.57921 131.468C3.95924 132.848 5.79959 133.671 7.74824 133.779L8.7324 133.834C9.39082 133.87 10.0512 133.845 10.7049 133.758L11.7224 133.622C13.1378 133.433 14.471 132.848 15.5679 131.934C16.6493 131.033 17.458 129.848 17.9032 128.513L17.975 128.297C18.2128 127.584 18.3534 126.842 18.3929 126.091L18.6111 121.944L18.8889 116.667V108.889L19.4444 101.389L20 94.4445L20.645 91.0584C20.9467 89.4741 21.7781 88.0394 23.0027 86.9898C24.2915 85.885 25.9459 85.2778 27.6434 85.2778C28.8202 85.2778 29.9876 85.5675 31.0259 86.1212L31.4584 86.3519C32.8688 87.1041 34.057 88.2134 34.9042 89.5689L35.4938 90.5124C36.0882 91.4633 36.5598 92.4855 36.8974 93.5548L37.0688 94.0975C37.7211 96.1633 37.9892 98.3505 37.862 100.513C37.8063 101.46 37.675 102.41 37.4703 103.336L32.841 124.29C32.6144 125.316 32.5 126.363 32.5 127.414V129.443C32.5 130.357 32.7129 131.259 33.1218 132.077C33.6228 133.079 34.3991 133.917 35.3597 134.494L35.8011 134.758C36.3757 135.103 36.993 135.371 37.6373 135.555L40.1151 136.263C41.7017 136.716 43.3263 137.024 44.9688 137.183L51.1111 137.778L58.8889 138.889L83.5218 139.905C85.038 139.967 86.5453 139.644 87.9026 138.965L88.184 138.825C89.1966 138.318 90.083 137.592 90.7781 136.698C91.3652 135.943 91.8042 135.084 92.0719 134.166L93.0034 130.972C93.4078 129.586 93.6913 128.167 93.8508 126.732L94.1643 123.91C94.3506 122.233 94.6978 120.578 95.2011 118.968L95.5601 117.819C95.742 117.237 95.9703 116.67 96.243 116.125L96.283 116.045C96.9035 114.804 97.755 113.693 98.7919 112.771C99.4101 112.222 100.089 111.744 100.815 111.348L102.778 110.278L106.111 108.889L125 101.944L127.067 100.911C128.242 100.323 129.167 99.3326 129.672 98.1198C130.068 97.1703 130.188 96.1285 130.019 95.1139L129.876 94.2534C129.774 93.6419 129.605 93.0433 129.373 92.4683L123.333 77.5L123.011 76.4513C122.503 74.8004 122.617 73.0207 123.332 71.4482C123.518 71.0392 123.742 70.6489 124.002 70.2825L135.425 54.1864C135.696 53.8042 136.012 53.4552 136.364 53.1466L136.81 52.7563C137.613 52.0539 138.644 51.6667 139.71 51.6667C140.447 51.6667 141.172 51.4818 141.819 51.1289L142.744 50.6244C143.489 50.2179 144.092 49.593 144.472 48.8338C144.817 48.1434 144.963 47.3706 144.894 46.6019L142.713 22.3648C142.572 20.8021 142.14 19.2797 141.438 17.8763L140.885 16.7701C140.304 15.6088 139.44 14.6126 138.373 13.8735C137.081 12.9791 135.544 12.5 133.973 12.5C132.298 12.5 130.664 13.0434 129.324 14.0487L128.224 14.8735C127.375 15.5105 126.615 16.2586 125.965 17.0978L118.333 26.9444L115.609 30.5075C115.021 31.2766 114.329 31.9613 113.555 32.5422L113.49 32.5906C112.112 33.6246 110.495 34.2944 108.789 34.5381C107.933 34.6604 107.065 34.6739 106.206 34.5785L104.668 34.4076C103.226 34.2474 101.772 34.2273 100.326 34.3478L99.1667 34.4444L54.7296 41.8083C51.957 42.2678 49.2499 43.0596 46.6667 44.1667L45.1982 44.8444C43.7845 45.4969 42.5185 46.4301 41.4769 47.5874C40.8649 48.2674 40.3363 49.0182 39.9026 49.8238L38.6111 52.2222L34.1667 63.0556L33.1525 65.084C32.5468 66.2952 31.585 67.292 30.3962 67.9405L30.2981 67.994C29.552 68.4009 28.7292 68.6476 27.8823 68.7181C26.553 68.8289 25.224 68.5012 24.0987 67.785L23.6587 67.505C23.0741 67.133 22.5428 66.6834 22.0793 66.1683L21.85 65.9136C20.8155 64.7641 20.057 63.3938 19.6321 61.9069L19.511 61.4831C19.2821 60.6817 19.1367 59.8588 19.0774 59.0274L18.8889 56.3889L19.4444 30.5556V25.8333V25.0775C19.4444 22.0693 19.1655 19.0677 18.6111 16.1111C17.696 13.1826 16.3814 10.3587 14.7222 7.77778L13.322 6.06639C12.5902 5.17202 11.781 4.344 10.9036 3.59196L9.42852 2.32762C8.70374 1.70638 7.878 1.21376 6.98704 0.871084L5.86318 0.438829C5.1179 0.152183 4.30652 0.0831399 3.52353 0.239739L3.40167 0.26411C2.46327 0.451791 1.62699 0.978831 1.0528 1.74442C0.549629 2.41531 0.276765 3.23086 0.274885 4.06947Z" transform="translate(1.63623 1.50696)" stroke="white" stroke-width="2"/>
</svg>
