<svg width="148" height="93" viewBox="0 0 148 93" fill="none" xmlns="http://www.w3.org/2000/svg">
<path d="M48.0855 0.61966H17.1026L11.9876 0.710998C10.7761 0.73263 9.5729 0.914733 8.40931 1.25255L7.8986 1.40082C6.85308 1.70436 5.86194 2.17081 4.96167 2.78299C3.81375 3.56357 2.83442 4.5669 2.08186 5.73338L1.97082 5.90549C1.16062 7.1613 0.605985 8.56453 0.338644 10.0349L0.0728465 11.4968C0.0244395 11.763 0.00649838 12.0339 0.0193697 12.3042L0.0837487 13.6562C0.108385 14.1735 0.422626 14.6328 0.895923 14.8431C1.1207 14.943 1.36823 14.9806 1.61253 14.9518L5.453 14.5H7.18804L11.721 14.8163C12.2409 14.8525 12.7602 14.7392 13.2177 14.4897C13.6513 14.2531 14.0126 13.9033 14.2631 13.4776L14.8978 12.3986C15.0435 12.1508 15.247 11.9418 15.4908 11.7894L15.6221 11.7073C15.9355 11.5115 16.3133 11.4466 16.6741 11.5268C17.0286 11.6056 17.339 11.8183 17.5404 12.1204L17.7363 12.4142C17.8908 12.6461 18.0018 12.9043 18.0635 13.176L20.9831 26.022C21.0397 26.2714 21.1262 26.513 21.2406 26.7418L21.2987 26.858C21.5522 27.365 21.9548 27.7822 22.4524 28.0536C22.8458 28.2682 23.2853 28.3844 23.7334 28.3922L51.5556 28.8761L58.8675 29.4957L64.4444 30.735L73.4184 33.6113C73.8793 33.759 74.3262 33.9472 74.754 34.1737L75.1124 34.3634C75.8421 34.7497 76.4873 35.2779 77.0101 35.9169C77.2252 36.1798 77.4184 36.46 77.5876 36.7546L80.1303 41.1808C80.4922 41.8107 80.9855 42.3553 81.5766 42.7775C82.1295 43.1725 82.7564 43.452 83.4197 43.5994L84.5883 43.8591C85.3675 44.0323 86.1634 44.1197 86.9617 44.1197H96.8127C97.2088 44.1197 97.6028 44.1789 97.9814 44.2954C98.6622 44.5049 99.2741 44.8934 99.7533 45.4205L100.261 45.9786L103.763 50.8197C104.235 51.4723 104.796 52.0559 105.429 52.5535C105.948 52.961 106.511 53.3078 107.108 53.5874L111.614 55.6963C111.893 55.8271 112.158 55.9881 112.402 56.1763C113.204 56.7934 113.76 57.6767 113.968 58.667L114.03 58.9605C114.104 59.3106 114.14 59.6676 114.139 60.0254L114.019 86.2291C114.018 86.5766 114.057 86.9232 114.135 87.2618L114.257 87.792C114.344 88.167 114.521 88.5148 114.775 88.8044C115.088 89.1627 115.504 89.4166 115.966 89.532L116.027 89.5473C116.495 89.6643 116.987 89.6455 117.444 89.4929L117.558 89.455C118 89.3076 118.401 89.0574 118.728 88.725L125.106 82.2369C125.311 82.028 125.464 81.7696 125.548 81.489C125.701 80.9792 125.62 80.4231 125.324 79.9803C125.143 79.7081 124.89 79.4909 124.594 79.3525L121.766 78.0329C121.478 77.8984 121.22 77.7064 121.009 77.4687L120.989 77.4462C120.573 76.9788 120.37 76.3604 120.426 75.7375C120.45 75.4813 120.516 75.231 120.624 74.9972L140.491 31.7704C142.169 28.1191 143.401 24.2788 144.16 20.3327L144.876 16.6068L144.904 16.1102C144.966 14.989 144.637 13.881 143.973 12.9755C143.75 12.6709 143.491 12.3935 143.204 12.1489L142.189 11.2864C141.52 10.7182 141.058 9.94526 140.875 9.08755C140.816 8.81343 140.786 8.53386 140.786 8.25351V4.7094L140.76 4.36507C140.697 3.54762 140.344 2.77963 139.764 2.1999C139.377 1.81298 138.903 1.5241 138.382 1.35733L136.99 0.911944C136.383 0.717585 135.757 0.585123 135.123 0.516581L131.491 0.123932L72.45 0.00489644C70.834 0.00163842 69.2209 0.140086 67.6291 0.418648C65.9229 0.717236 64.1924 0.854795 62.4604 0.829511L48.0855 0.61966Z" transform="translate(1.18329 1.48978)" stroke="white" stroke-width="2"/>
</svg>
