<svg width="147" height="65" viewBox="0 0 147 65" fill="none" xmlns="http://www.w3.org/2000/svg">
<path d="M1.54423 54.4247L10.2823 60.9012C10.5918 61.1306 10.9334 61.313 11.2961 61.4425L11.6955 61.5851C12.1019 61.7303 12.5401 61.7622 12.9633 61.6776C13.6211 61.546 14.1973 61.1358 14.5424 60.5606C14.8379 60.0681 14.952 59.4804 14.8576 58.9139L14.76 58.3281C14.6989 57.9618 14.5875 57.6058 14.429 57.27L13.6686 55.6597C13.0682 54.3883 12.6293 53.0469 12.3622 51.6665L12.3543 51.6259C12.1802 50.7261 12.0783 49.8139 12.0497 48.898L11.9807 46.6911L12.2249 42.866C12.2859 41.9092 12.4223 40.9587 12.6328 40.0234L13.1324 37.803C13.2594 37.2384 13.4823 36.6997 13.7913 36.2104L14.2309 35.5144C14.515 35.0646 14.9339 34.716 15.4279 34.5184C16.019 34.282 16.6777 34.2776 17.2719 34.5061L17.8031 34.7104L18.0829 34.7904C18.8941 35.0222 19.7671 34.8609 20.4421 34.3547C20.6228 34.2192 20.7858 34.0614 20.9272 33.8853L26.3362 27.1463C27.1214 26.1679 27.5765 24.966 27.6362 23.7129C27.6496 23.431 27.6429 23.1486 27.6162 22.8677L27.5182 21.8388C27.462 21.249 27.5632 20.6548 27.8115 20.1168C28.0046 19.6985 28.2818 19.3245 28.626 19.0182L36.4919 12.0156C37.0168 11.5483 37.6218 11.1796 38.2777 10.9273C38.5862 10.8087 38.9043 10.7164 39.2284 10.6516L39.6529 10.5667C40.1595 10.4654 40.6815 10.469 41.1866 10.5772C41.715 10.6904 42.213 10.9156 42.647 11.2375L60.3591 24.3757C61.6564 25.3379 62.5752 26.7245 62.9557 28.2942L63.1385 29.0481C63.2205 29.3863 63.365 29.7061 63.5645 29.9912C63.8788 30.4401 64.3182 30.7866 64.8281 30.9875L66.7738 31.754C67.3799 31.9928 68.0645 31.9197 68.6065 31.5583C68.7014 31.4951 68.7906 31.4239 68.8732 31.3454L69.414 30.8316C70.3914 29.9031 71.7829 29.5526 73.0835 29.9073C73.3284 29.9741 73.5661 30.0649 73.7932 30.1784L74.7954 30.6795L86.3282 38.0695L91.3435 40.5771C93.5198 41.6653 95.7845 42.5671 98.1132 43.2728C100.701 44.057 103.357 44.5957 106.046 44.8818L107.266 45.0116H112.193L114.768 44.8996L117.048 44.6716C118.505 44.526 119.929 44.1488 121.266 43.5543C121.935 43.2573 122.578 42.9075 123.191 42.5083L144.289 28.7576C144.6 28.555 144.814 28.2332 144.88 27.8681C144.956 27.4526 144.832 27.0256 144.547 26.7143L143.991 26.1076C143.843 25.9463 143.678 25.8015 143.499 25.676L141.847 24.5199C141.635 24.3717 141.413 24.2393 141.182 24.1237L139.718 23.392C139.303 23.1844 138.819 23.1643 138.388 23.3367C138.099 23.4521 137.85 23.648 137.669 23.901L136.826 25.0811L135.364 27.355C134.997 27.9263 134.551 28.4432 134.04 28.8904L133.436 29.4194C133.161 29.6602 132.843 29.8479 132.499 29.9729L132.235 30.0692C131.941 30.1758 131.626 30.2068 131.318 30.1594C130.702 30.0647 130.175 29.6677 129.914 29.1023L129.905 29.0826C129.746 28.737 129.694 28.3513 129.756 27.9758L129.879 27.2422C129.956 26.7751 130.111 26.3239 130.335 25.9069L131.564 23.6255L132.361 21.9089C132.799 20.9658 133.334 20.071 133.958 19.2391L134.004 19.177C134.467 18.5607 134.979 17.9836 135.536 17.4517L136.835 16.2115C137.052 16.0049 137.234 15.7651 137.375 15.5011L137.646 14.9927C137.904 14.508 137.912 13.9282 137.666 13.4369C137.361 12.826 136.719 12.4581 136.037 12.5036L135.483 12.5405L129.996 13.2124L110.81 16.7894C110.39 16.8677 109.982 16.9988 109.594 17.1795L109.37 17.2844C108.797 17.5518 108.295 17.9502 107.904 18.4475C107.486 18.9797 107.208 19.6086 107.097 20.2763L106.931 21.2741L106.705 25.3394C106.632 26.6557 106.407 27.9592 106.035 29.2239L105.706 30.1282C105.333 31.153 104.723 32.0751 103.926 32.8192C103.616 33.109 103.279 33.3696 102.921 33.5976L102.151 34.0872C101.388 34.5727 100.539 34.9056 99.6489 35.0673C98.9097 35.2017 98.1536 35.2161 97.4098 35.1098L96.9964 35.0508C95.9381 34.8996 94.9126 34.572 93.9626 34.0817L93.0182 33.5943C92.2916 33.2192 91.5951 32.7886 90.9349 32.3061L87.2423 29.6077C84.5496 27.6399 81.6667 25.9465 78.6368 24.5528L71.9961 21.4981L44.6757 4.47876L42.7624 2.91339C42.3987 2.61575 42.0911 2.2554 41.8542 1.84938L41.767 1.69979C41.5439 1.3174 41.2423 0.986649 40.8821 0.729341L40.5845 0.516795C40.1201 0.185082 39.5458 0.0450326 38.9808 0.125742C38.5333 0.189679 38.1159 0.388785 37.7846 0.696415L36.7259 1.67954L33.4788 4.47877L27.0965 9.74131L19.7066 16.5714L15.0039 21.834L10.5251 27.9923L7.72587 32.583L7.3038 33.408C5.94813 36.0577 4.92409 38.8643 4.25483 41.7645L3.72032 44.8188C3.55502 45.7634 3.25319 46.679 2.82432 47.5367L2.79377 47.5978C2.42578 48.3338 1.96248 49.0181 1.4158 49.6331L0.680468 50.4604C0.526333 50.6338 0.399916 50.8299 0.305689 51.0419C0.107289 51.4883 0.0594013 51.9871 0.169247 52.4631L0.190446 52.555C0.285893 52.9686 0.483696 53.3516 0.765699 53.6688L0.973192 53.9023C1.14505 54.0956 1.33641 54.2707 1.54423 54.4247Z" transform="translate(1.0163 1.3389)" stroke="white" stroke-width="2"/>
</svg>
