<svg width="147" height="70" viewBox="0 0 147 70" fill="none" xmlns="http://www.w3.org/2000/svg">
<path d="M112.069 66.1221L142.742 56.1116C143.032 56.0171 143.31 55.8904 143.571 55.7338L144.109 55.4104C144.352 55.2649 144.553 55.0595 144.693 54.814C144.891 54.468 144.957 54.0621 144.879 53.6713L144.804 53.2978C144.761 53.0839 144.692 52.8761 144.599 52.6789L141.321 45.7584C141.257 45.6244 141.176 45.4995 141.08 45.387C140.687 44.929 140.078 44.7187 139.487 44.837L139.143 44.9057L116.547 52.4376C116.255 52.5351 115.985 52.6898 115.753 52.8928L115.73 52.9123C115.301 53.2876 115.031 53.812 114.975 54.3791C114.947 54.656 114.971 54.9356 115.045 55.2037L115.583 57.1409L115.701 57.7285C115.791 58.1793 115.669 58.6464 115.37 58.9954C115.17 59.2286 114.903 59.3946 114.606 59.4709L106.107 61.6501C105.316 61.853 104.494 61.9107 103.683 61.8205C102.944 61.7385 102.224 61.5352 101.552 61.2188L100.947 60.9341C100.555 60.7496 100.198 60.4986 99.8916 60.1923L99.8688 60.1695C99.1797 59.4804 98.7926 58.5459 98.7926 57.5715C98.7926 57.1998 98.849 56.8303 98.9599 56.4756L99.3149 55.3394C99.4003 55.0662 99.5179 54.8042 99.6651 54.5588L100.313 53.4795C100.502 53.1632 100.529 52.7749 100.383 52.4358C100.281 52.1956 100.099 51.9976 99.8681 51.8746L98.272 51.0233L94.6275 49.4614L92.5885 48.2661C91.4343 47.5896 90.3517 46.7977 89.3573 45.9027C88.6199 45.239 87.9333 44.5208 87.3036 43.7541L85.2558 41.2612L81.6113 35.4039L77.8366 27.8546L74.1921 20.956L73.0713 19.2541C71.4786 16.8355 69.6788 14.5599 67.6922 12.4529L66.3824 11.0637L61.4363 6.89856L61.0232 6.62318C58.4407 4.9015 55.7029 3.42494 52.8456 2.21275L46.2091 0.198107C45.7977 0.0731945 45.3515 0.146459 45.0016 0.396402C44.7698 0.561972 44.5947 0.79498 44.5001 1.06368L39.3169 15.7888C39.0522 16.5407 38.6946 17.2565 38.2525 17.9197C37.6593 18.8096 36.9211 19.5937 36.0687 20.2394L33.4037 22.2584C33.1772 22.4299 32.9209 22.558 32.6477 22.636L32.5668 22.6592C32.2923 22.7376 32.0038 22.7539 31.7223 22.707C31.4887 22.6681 31.2644 22.5864 31.0605 22.466L14.8384 12.886L14.6351 12.7843C13.9529 12.4432 13.1423 12.4817 12.4955 12.886L7.39862 16.9403C6.97912 17.274 6.58646 17.6401 6.22425 18.0353C5.63491 18.6782 5.13008 19.3937 4.72201 20.1645L4.69169 20.2218C4.34163 20.883 4.06156 21.579 3.85602 22.2984L0.161361 35.2297C0.0545908 35.6034 0.0132179 35.9927 0.0390699 36.3805L0.0630853 36.7407C0.106095 37.3859 0.399048 37.9889 0.879664 38.4214C1.23985 38.7456 1.68702 38.9573 2.16605 39.0304L27.8546 42.9533L29.7664 43.0595C30.0489 43.0752 30.3306 43.0169 30.5837 42.8904C31.0002 42.6821 31.3075 42.3052 31.4275 41.8551L31.7594 40.6104L32.8007 36.8357L33.9722 32.4102L34.55 30.3154C34.857 29.2027 35.3398 28.1461 35.9801 27.1856C36.376 26.5917 36.8296 26.0384 37.3343 25.5338L37.39 25.4781C38.2303 24.6377 39.1945 23.931 40.249 23.3827L40.5327 23.2352C41.4493 22.7586 42.4168 22.3871 43.4169 22.1278L43.5705 22.088C44.8011 21.7689 46.0718 21.6316 47.3422 21.6805C48.318 21.718 49.2866 21.8651 50.2295 22.119L50.8279 22.2801C51.7343 22.5241 52.6003 22.8991 53.3984 23.3932C54.4095 24.0191 55.2963 24.8266 56.0139 25.7749L56.8397 26.8662C57.9869 28.3821 58.8715 30.0798 59.4567 31.8886L59.5748 32.2537C59.8609 33.1379 60.0826 34.0416 60.2382 34.9578L61.0427 39.6957C61.1314 40.2178 61.1759 40.7465 61.1759 41.2761V42.3574C61.1759 42.9224 61.0612 43.4814 60.8386 44.0006L59.9534 46.0663C59.752 46.5361 59.8832 47.0825 60.2759 47.4097C60.3549 47.4756 60.4424 47.5306 60.536 47.5733L79.789 56.36L98.0643 64.5328C99.8471 65.33 101.704 65.9496 103.609 66.3824L104.743 66.5984C105.805 66.8008 106.888 66.8782 107.968 66.8291C108.792 66.7917 109.61 66.681 110.413 66.4984L112.069 66.1221Z" transform="translate(1.00018 1.71304)" stroke="white" stroke-width="2"/>
</svg>
