<svg width="147" height="81" viewBox="0 0 147 81" fill="none" xmlns="http://www.w3.org/2000/svg">
<path d="M66.7091 19.9176L43.2661 7.01613L32.7419 1.67051L31.462 1.03052C30.5401 0.569596 29.5466 0.268787 28.5239 0.140951C27.7751 0.0473477 27.0175 0.0473477 26.2687 0.140951L26.001 0.174419C25.1523 0.280507 24.3189 0.485818 23.5181 0.786138L23.2518 0.885972C22.4551 1.18473 21.7051 1.59558 21.0244 2.10611C20.3752 2.59301 19.7952 3.16596 19.3005 3.80918L18.6877 4.6058C18.4803 4.87544 18.3036 5.16741 18.1611 5.47628L17.9057 6.02948C17.5647 6.76852 17.5293 7.61238 17.8075 8.37733C17.9616 8.80111 18.2067 9.18598 18.5256 9.50484L18.7823 9.76157C19.1762 10.1555 19.6368 10.4766 20.1426 10.7101L20.9127 11.0655C21.3315 11.2588 21.6995 11.5469 21.9877 11.9071C22.555 12.6163 22.7668 13.5461 22.5626 14.4311L22.5417 14.5217C22.4383 14.9696 22.2386 15.3896 21.9564 15.7524L14.1993 25.7258L9.18779 33.4101L7.75384 35.3724C6.59728 36.955 5.27145 38.4067 3.7999 39.7017L2.33919 40.9871C2.00555 41.2807 1.70112 41.6059 1.43014 41.9582L0.937524 42.5986C0.434996 43.2519 0.13574 44.0386 0.0770175 44.8607L0.0750995 44.8875C0.0258356 45.5772 0.151959 46.2682 0.441718 46.896C0.805974 47.6852 1.41184 48.3381 2.17168 48.7603L3.33478 49.4064C3.7834 49.6557 4.25451 49.8621 4.74185 50.0229L55.1267 66.6532L60.4723 68.4908L61.9109 69.2101C63.599 70.0541 65.0551 71.2983 66.1521 72.8341L67.4307 74.5777C67.8028 75.0851 68.213 75.5633 68.6579 76.0081L69.5165 76.8667C70.162 77.5123 70.9348 78.0165 71.7857 78.3474L71.9043 78.3935C72.9496 78.8 74.0863 78.9119 75.1908 78.717C75.9515 78.5828 76.68 78.3059 77.3379 77.9011L77.5533 77.7685C78.19 77.3767 78.7642 76.8913 79.2565 76.3286L79.9241 75.5657C80.54 74.8618 81.2518 74.248 82.0386 73.7422C82.8034 73.2505 83.6319 72.8656 84.501 72.5982L84.7422 72.5239C85.1554 72.3968 85.5779 72.3022 86.0058 72.2411C87.1245 72.0813 88.264 72.1522 89.3543 72.4496L89.5392 72.5L92.8802 73.1682L95.294 73.4364C95.6884 73.4802 96.0862 73.4842 96.4814 73.4483L96.5542 73.4417C97.326 73.3715 98.0746 73.1408 98.7521 72.7645C99.0687 72.5886 99.3673 72.3822 99.6438 72.1482L101.4 70.6624L102.455 69.8889C103.418 69.1824 104.467 68.6004 105.576 68.1567L109.585 66.9873L116.1 65.818L123.785 63.9804L129.464 62.8111L130.304 62.5555C132.303 61.9471 134.256 61.1951 136.146 60.3053L138.652 58.9689L140.327 58.0819C141.101 57.6726 141.819 57.1677 142.467 56.5791L142.779 56.2952C143.145 55.9627 143.473 55.5906 143.756 55.1856L143.929 54.9385C144.305 54.4008 144.575 53.7957 144.722 53.1562C144.905 52.3653 144.896 51.5423 144.698 50.7553L136.313 17.5403L135.499 15.1996C135.152 14.2022 134.687 13.2501 134.113 12.3636C133.467 11.3646 132.689 10.4576 131.799 9.66717L131.438 9.34568C130.57 8.5743 129.624 7.89512 128.616 7.31906L125.455 5.51267L119.608 3.17396L115.956 1.66269C115.163 1.3345 114.341 1.08037 113.501 0.903546L112.409 0.673512C111.865 0.559166 111.309 0.521217 110.755 0.560763L110.455 0.58224C109.665 0.638661 108.901 0.890823 108.233 1.31598C107.692 1.66017 107.226 2.10983 106.863 2.63812L106.668 2.92215C105.96 3.95251 105.608 5.18658 105.668 6.43555L105.698 7.0799C105.728 7.69403 105.923 8.28866 106.264 8.80023C106.784 9.5804 107.604 10.1105 108.529 10.2647L108.763 10.3036C108.977 10.3392 109.193 10.3571 109.41 10.3571H112.258H114.09C114.534 10.3571 114.974 10.4504 115.379 10.6308L115.412 10.6452C115.969 10.893 116.44 11.3017 116.763 11.819C116.987 12.177 117.134 12.5773 117.196 12.9949L117.576 15.5845C117.814 17.1978 117.651 18.8446 117.103 20.3802L112.926 29.9021L106.912 40.9274L97.7246 56.129L95.8542 58.8308C95.1074 59.9096 94.1138 60.7945 92.9561 61.4119C92.4613 61.6758 91.9409 61.8885 91.403 62.0467L89.3721 62.644L86.0311 63.4793L83.0242 63.8134L80.8578 63.9217C80.0772 63.9607 79.2947 63.9119 78.525 63.776L77.2477 63.5506C76.9799 63.5034 76.7216 63.4128 76.4828 63.2826L75.9925 63.0152C75.3957 62.6896 75.0548 62.0355 75.1299 61.3598C75.1581 61.1056 75.2442 60.8613 75.3815 60.6456L75.6694 60.1932C76.1073 59.505 76.7459 58.9677 77.4989 58.654L78.3468 58.3007L81.0196 57.1313L85.0759 55.2592C85.2665 55.1712 85.4451 55.0595 85.6076 54.9265L86.0654 54.5519C86.7237 54.0133 86.9055 53.0825 86.4982 52.3358C86.3041 51.9799 85.9936 51.7015 85.6188 51.5471L83.8769 50.8299C83.5317 50.6878 83.1983 50.5186 82.8797 50.3239L80.3514 48.7788L78.0417 47.162C77.355 46.6813 76.7034 46.1523 76.0919 45.5791L75.9855 45.4793C74.8919 44.4541 73.9424 43.2852 73.163 42.0047L72.9301 41.6221C72.3121 40.6068 71.8333 39.5129 71.5068 38.37C71.1683 37.1852 70.9965 35.959 70.9965 34.7268V32.7419L71.2061 31.0651C71.3992 29.5203 71.342 27.9544 71.0367 26.4278L70.9801 26.1449C70.8798 25.6434 70.7431 25.1499 70.5711 24.6683L70.4388 24.2979C70.1444 23.4734 69.7184 22.702 69.1775 22.0136C68.5039 21.1562 67.6643 20.4433 66.7091 19.9176Z" transform="translate(0.992065 1.00868)" stroke="white" stroke-width="2"/>
</svg>
