<svg width="148" height="82" viewBox="0 0 148 82" fill="none" xmlns="http://www.w3.org/2000/svg">
<path d="M43.1915 76.5563L1.2569 41.9346L0.556592 41.2343C0.342676 41.0204 0.196867 40.7479 0.137538 40.4513C0.0502021 40.0146 0.157157 39.5615 0.430561 39.21L0.496335 39.1254C0.69486 38.8702 0.95964 38.6743 1.26182 38.5592L19.3369 31.6735C19.7712 31.508 20.2361 31.4384 20.6999 31.4693C21.3575 31.5131 21.9871 31.7583 22.5017 32.17C22.7342 32.356 22.9404 32.5736 23.1134 32.8159L30.2797 42.8487L31.3761 44.0404C32.3877 45.1399 33.6025 46.0333 34.9534 46.6713L35.1726 46.7748C36.3933 47.3512 37.7149 47.6833 39.063 47.7525C40.6513 47.8339 42.2371 47.5483 43.6972 46.9178L44.6926 46.4879C45.8901 45.9709 46.9788 45.2316 47.9011 44.3093C48.8653 43.3451 49.6523 42.2073 50.0864 40.9148C50.2156 40.5302 50.3266 40.1632 50.3901 39.8779C50.7716 38.1607 49.9069 36.4428 49.1756 34.843L48.4476 33.2506L43.9913 24.6808L43.7878 24.1108C43.5799 23.5288 43.8527 22.8845 44.4154 22.6287C44.5873 22.5506 44.7753 22.5145 44.9639 22.5235L45.9577 22.5708C46.6954 22.606 47.4176 22.7947 48.0782 23.125L48.1548 23.1633C48.652 23.4119 49.1103 23.7318 49.5151 24.1128L49.7829 24.3648C50.4868 25.0273 51.0684 25.809 51.5007 26.6736L52.3325 28.3373L53.3651 30.4024C53.6591 30.9903 54.1358 31.467 54.7237 31.761C55.0317 31.915 55.3637 32.0155 55.7055 32.0582L57.3854 32.2682C57.7483 32.3136 58.1151 32.3181 58.479 32.2817L59.7331 32.1563C60.0458 32.125 60.3381 31.9865 60.5603 31.7643C60.8491 31.4756 60.993 31.0725 60.9523 30.6662L60.941 30.5522C60.9155 30.2981 60.8298 30.0537 60.6908 29.8394L52.8175 17.7015C52.7237 17.5568 52.6594 17.3949 52.6286 17.2252C52.5217 16.6374 52.828 16.0521 53.3719 15.8049L53.473 15.7589C53.6256 15.6895 53.7892 15.6472 53.9564 15.6339L80.8983 13.4831L104.094 9.9409L120.662 6.39874L140.201 1.02837L143.346 0.143739C143.672 0.0519997 144.022 0.0988142 144.313 0.273146L144.415 0.334837C144.771 0.548043 144.967 0.95084 144.915 1.36204C144.896 1.51845 144.841 1.66842 144.756 1.80076L142.028 6.01612C141.42 6.95552 140.745 7.84929 140.007 8.69029L127.344 23.1194C126.704 23.8494 125.934 24.4549 125.074 24.9055C124.346 25.2866 123.563 25.5519 122.754 25.6917L111.921 27.5629C111.58 27.6218 111.232 27.6312 110.888 27.5907C109.974 27.4831 109.136 27.0288 108.546 26.3214L108.322 26.052L107.865 25.4433C107.272 24.6526 106.434 24.0803 105.482 23.8158L105.386 23.7894C105.059 23.6985 104.722 23.6525 104.382 23.6525C103.6 23.6525 102.838 23.8968 102.201 24.3514L102.101 24.423C101.756 24.6696 101.45 24.9678 101.196 25.3072L100.753 25.8975C100.391 26.3801 99.9811 26.8247 99.5293 27.2244L97.238 29.2514L96.0867 30.0887C95.2136 30.7237 94.1257 30.9898 93.0581 30.8297C92.6477 30.7681 92.2489 30.6448 91.8755 30.4639L85.9511 27.5943C85.4036 27.3291 84.8227 27.1395 84.2241 27.0306C83.1651 26.8381 82.0753 26.9028 81.0464 27.2194L80.753 27.3097C80.0158 27.5365 79.3155 27.869 78.6738 28.2968L77.9607 28.7722C77.2572 29.2412 76.6303 29.816 76.1021 30.4762C75.4214 31.327 74.9168 32.3047 74.6174 33.3523L74.1568 34.9645L73.6907 37.2951C73.5476 38.0106 73.1959 38.6678 72.6799 39.1838C72.298 39.5657 71.837 39.8592 71.3294 40.0438L69.5863 40.6777L69.1228 40.8515C68.2253 41.1881 67.4185 41.7289 66.7663 42.4313C66.4383 42.7845 66.1528 43.1749 65.9157 43.5945L64.7872 45.591L64.5456 46.1622C63.8799 47.7357 62.8223 49.1126 61.4736 50.1615L54.7321 54.0465L50.806 56.2378C50.15 56.6039 49.5375 57.0433 48.9803 57.5474L48.7844 57.7247C47.8842 58.5391 47.1645 59.5329 46.6715 60.6421C46.2591 61.5701 46.0123 62.5632 45.9424 63.5764L45.9258 63.8177C45.8554 64.839 45.9411 65.865 46.18 66.8604L46.5051 68.2151L48.6761 74.1568L49.7118 78.5065C49.78 78.7931 49.7259 79.0951 49.5625 79.3402C49.3067 79.7239 48.8323 79.8983 48.389 79.7716L47.8244 79.6103C47.6317 79.5552 47.4492 79.4695 47.2838 79.3563L43.1915 76.5563Z" transform="translate(1.2493 1.02044)" stroke="white" stroke-width="2"/>
</svg>
